<?xml version="1.0" encoding="utf-8"?>
<!-- Generator: Adobe Illustrator 24.0.2, SVG Export Plug-In . SVG Version: 6.00 Build 0)  -->
<svg version="1.1" id="ui" xmlns="http://www.w3.org/2000/svg" xmlns:xlink="http://www.w3.org/1999/xlink" x="0px" y="0px"
	 viewBox="0 0 74 32" style="enable-background:new 0 0 74 32;" xml:space="preserve">
<style type="text/css">
	.st0{fill:#AA885F;}
</style>
<path class="st0" d="M73.3,1L62,16l11.7,15h-7.6L54.8,16L66.1,1H73.3z M10.6,15.8v0.4c2.4,0.2,4.6,2.6,5.1,4.9h0.4V10.9h-0.4
	C15.2,13.2,12.9,15.6,10.6,15.8z M20.5,9.4H21V1H0.3c0,0,1,1.6,1,5.7V31H21v-8.4h-0.4c-0.6,2.7-2.2,6.7-7.7,6.7H7.9V2.7h4.9
	C18.3,2.7,19.9,6.7,20.5,9.4z M45.4,1v13.9H33.1V1h-7.6c0,0,1,1.6,1,5.7V31h6.6V17.1h12.3V31h6.6V6.7c0-4.1,1-5.7,1-5.7H45.4z"/>
</svg>
