<?xml version="1.0" encoding="utf-8"?>
<!-- Generator: Adobe Illustrator 24.0.2, SVG Export Plug-In . SVG Version: 6.00 Build 0)  -->
<svg version="1.1" id="Isolation_Mode" xmlns="http://www.w3.org/2000/svg" xmlns:xlink="http://www.w3.org/1999/xlink" x="0px"
	 y="0px" viewBox="0 0 320 110" style="enable-background:new 0 0 320 110;" xml:space="preserve">
<style type="text/css">
	.st0{fill:#FFFFFF;}
	.st1{fill:#BF2228;}
</style>
<g>
	<path class="st0" d="M115.1,34c0,0,1.2,1.9,1.2,6.8v30.1c0,4.2-2.4,7.3-4.1,8.3v0.5c0,0,12.5,0,12.5-11.4V34H115.1z"/>
	<rect x="101.4" y="54.4" class="st0" width="10.4" height="3.2"/>
	<path class="st0" d="M141.5,41.9c-10.8,0-13,8.6-13,13.1v0c0,4.6,2.3,13.1,13,13.1c10.8,0,13-8.6,13-13.1v0
		C154.5,50.4,152.3,41.9,141.5,41.9z M145.8,55L145.8,55L145.8,55c0,6.5-1.3,10.6-4.2,10.6c-3,0-4.2-4.1-4.2-10.6v0v0v0
		c0-6.5,1.3-10.4,4.2-10.4S145.8,48.5,145.8,55L145.8,55z"/>
	<path class="st0" d="M171.4,41.9c-9.7,0-13.7,7-13.7,14c0,4.8,2.5,12.3,10.3,12.3c4.8,0,6.5-3.6,6.5-3.6s0,3.5,0,4
		c0,3.2-1.7,6-7.3,6c-5,0-6.8-1.7-6.8-1.7l-0.6,1c0,0,3.4,4.8,11.3,4.8c10.7,0,11.1-9.3,11.1-13.4c0-4.1,0-20.8,0-20.8
		S179,41.9,171.4,41.9z M170.7,63.9c-3.5,0-4.9-3.4-4.9-8.9c0-5.5,1.7-10.4,5-10.4c2.7,0,3.7,1.8,3.7,6.3c0,3.5,0,6.2,0,7.2
		C174.5,60.9,173,63.9,170.7,63.9z"/>
	<path class="st0" d="M312.8,60.7V31.7h0h-9.3c0,0,1.2,1.9,1.2,6.8v3.8c-1.1-0.3-2.3-0.6-3.6-0.6c-9.7,0-13.2,7-13.2,14
		c0,4.8,2.5,12.3,10.3,12.3c4.7,0,6.4-3.5,6.5-3.6v3h9.3C314,67.5,312.8,65.6,312.8,60.7z M300.8,63.9c-3.5,0-4.9-3.4-4.9-8.9
		c0-5.5,1.7-10.4,5-10.4c2.6,0,3.7,2.1,3.7,6.4v7.8C304.6,61.5,303.1,63.9,300.8,63.9z"/>
	<path class="st0" d="M196.7,41.9c-6.7,0-10.2,3.5-10.2,7.5c0,7,10.6,8.3,10.6,12.6c0,2.7-2.5,3-3.6,3c-3.1,0-5.6-3.1-6.3-4.8
		l-1.6,5.8c0,0,3.8,2,8,2c4.6,0,11.8-1.6,11.8-8.9s-10.9-7.9-10.9-11.6c0-1.1,0.7-2.6,2.9-2.6c2.1,0,3.9,1.1,5.9,3.9l1.2-4.9
		C204.5,43.9,200.8,41.9,196.7,41.9z"/>
	<path class="st0" d="M86.3,41.9C76.4,41.9,74,50.3,74,55s2.1,13.1,11.9,13.1c4.8,0,8-2.3,9.8-4.9l0.1-1.8c0,0-2.5,2.2-6.9,2.2
		c-4.5,0-6.5-4.2-6.4-8h14.3C97.3,49.5,95.1,41.9,86.3,41.9z M87.1,53.3c-0.7,0-4.6,0-4.6,0c0.1-3.8,0.8-8.7,4-8.7
		c2.5,0,3.2,2.9,3.2,5.8C89.7,53.2,87.9,53.3,87.1,53.3z"/>
	<path class="st0" d="M247.7,41.9c-9.7,0-13.7,7-13.7,14c0,4.8,2.5,12.3,10.3,12.3c4.8,0,6.5-3.6,6.5-3.6s0,3.5,0,4
		c0,3.2-1.7,6-7.3,6c-5,0-6.8-1.7-6.8-1.7l-0.6,1c0,0,3.4,4.8,11.3,4.8c10.7,0,11.1-9.3,11.1-13.4c0-4.1,0-20.8,0-20.8
		S255.3,41.9,247.7,41.9z M246.9,63.9c-3.5,0-4.9-3.4-4.9-8.9c0-5.5,1.7-10.4,5-10.4c2.7,0,3.7,1.8,3.7,6.3c0,3.5,0,6.2,0,7.2
		C250.8,60.9,249.3,63.9,246.9,63.9z"/>
	<g>
		<polygon class="st0" points="268.4,37.3 270.4,39.5 280,34.9 276.9,31.7 		"/>
		<path class="st0" d="M274.4,41.9c-9.8-0.1-12.3,8.3-12.3,13.1s2,13.1,11.8,13.2c4.8,0,8.1-2.2,9.8-4.9l0.1-1.8c0,0-2.5,2.1-7,2.1
			c-4.5,0-6.5-4.2-6.3-8l14.3,0.1C285.4,49.6,283.2,41.9,274.4,41.9z M275.2,53.3c-0.7,0-4.6,0-4.6,0c0.2-3.8,0.9-8.7,4-8.7
			c2.5,0,3.2,2.9,3.2,5.8C277.8,53.2,276,53.3,275.2,53.3z"/>
	</g>
	<path class="st0" d="M220.6,41.9c-9.8-0.1-12.3,8.3-12.3,13.1c0,4.7,2,13.1,11.8,13.2c4.8,0,8.1-2.2,9.8-4.9l0.1-1.8
		c0,0-2.5,2.1-7,2.1c-4.5,0-6.5-4.2-6.3-8l14.3,0.1C231.6,49.6,229.4,41.9,220.6,41.9z M221.4,53.3c-0.7,0-4.6,0-4.6,0
		c0.2-3.8,0.9-8.7,4-8.7c2.5,0,3.2,2.9,3.2,5.8C224,53.2,222.1,53.3,221.4,53.3z"/>
	<g>
		<path class="st1" d="M60.9,97.8c0,4-3.3,7.2-7.3,7.2H13.3c-4,0-7.3-3.3-7.3-7.2V12.2C6,8.3,9.3,5,13.3,5h40.3c4,0,7.3,3.3,7.3,7.2
			V97.8z"/>
	</g>
	<g>
		<path class="st0" d="M24,52.1c0.4-2,0.9-3.2,2.2-4.5l0.1,0c1.4-1.4,3.3-2.1,5.2-2.1c1.4,0,2.9,0.4,4.1,1.2c0.8,0.5,1.5,1,2.1,1.4
			L26.2,59.3c-1.6-1.7-2.4-3.9-2.3-6.2C23.9,52.5,24,52.2,24,52.1 M48.3,59.1c0.3-2.4-0.3-4.9-1.9-7.5l-0.5-0.8l-1.3,1.8l0.2,0.3
			c1.2,2.1,1.7,4.1,1.4,5.9c-0.3,2.1-1.2,3.9-2.6,5.4c-2,2-4.2,2.8-7.7,2.8h0c-0.7,0-1.4-0.3-1.9-0.7c-1.8-1.5-3.7-3.1-4.9-4.1
			c-0.5-0.5-1-0.9-1.4-1.3l12.3-12.2l5.2-5.1c-0.6-0.6-1.4-1.3-2.2-2l-6.8-5.8l-0.1-0.1c-4.9-4.1-7.4-7.3-7.4-9.4
			c0-1.6,0.6-2.9,1.7-3.9c1.2-0.9,2.7-1.4,4.8-1.4c1.4,0,2.6,0.2,3.4,0.7c0.9,0.4,1.3,1,1.3,1.7c0,0.2-0.4,0.8-1.2,1.6
			c-0.8,0.8-1.2,1.8-1.2,2.8c0,1.2,0.4,2.2,1.2,3c0.8,0.8,1.8,1.2,3.1,1.2c1.5,0,2.7-0.5,3.7-1.4c0.9-0.9,1.4-2.2,1.4-3.7
			c0-2.3-1.1-4.2-3.2-5.7c-2.2-1.5-5-2.2-8.4-2.2c-4.1,0-7.3,0.9-9.8,2.6c-2.5,1.7-3.7,4-3.7,6.9c0,1.8,0.6,3.5,1.7,5.3
			c1.1,1.8,2.9,3.7,5.3,5.7c0,0,1.9,1.6,4.1,3.4c-0.1,0-0.2,0-0.2,0c-1.8,0-3.3,0.4-4.8,1.1c-1.9,0.8-4.1,2.2-6.1,4.5
			c-4.1,4.7-3.8,10-2.1,13.5c0.7,1.4,1.5,2.6,2.6,3.9l0,0c0.2,0.2,0.3,0.3,0.5,0.5c0,0,0,0,0.1,0.1c0,0,0,0,0,0.1h0
			c0.5,0.4,0.9,0.9,1.5,1.3l6.8,5.8l0.1,0.1c4.9,4.2,7.4,7.3,7.4,9.4c0,1.6-0.6,2.9-1.7,3.9c-1.2,0.9-2.7,1.4-4.8,1.4
			c-1.4,0-2.6-0.2-3.4-0.7c-0.9-0.4-1.3-1-1.3-1.7c0-0.2,0.4-0.8,1.2-1.6c0.8-0.9,1.2-1.8,1.2-2.8c0-1.2-0.4-2.2-1.2-3
			c-0.8-0.8-1.8-1.2-3.1-1.2c-1.5,0-2.7,0.5-3.7,1.4c-0.9,0.9-1.4,2.2-1.4,3.7c0,2.3,1.1,4.2,3.3,5.7c2.2,1.5,5,2.2,8.4,2.2
			c4.1,0,7.3-0.9,9.8-2.6c2.5-1.7,3.7-4,3.7-6.9c0-1.8-0.6-3.5-1.7-5.3c-1.1-1.8-2.9-3.7-5.3-5.7c0,0-0.3-0.2-0.8-0.6
			c2.8-0.4,5.3-1.6,7.3-3.7C46.8,63.9,47.9,61.6,48.3,59.1"/>
	</g>
</g>
</svg>
