<?xml version="1.0" encoding="utf-8"?>
<!-- Generator: Adobe Illustrator 24.0.2, SVG Export Plug-In . SVG Version: 6.00 Build 0)  -->
<svg version="1.1" id="Layer_1" xmlns="http://www.w3.org/2000/svg" xmlns:xlink="http://www.w3.org/1999/xlink" x="0px" y="0px"
	 viewBox="0 0 120 120" style="enable-background:new 0 0 120 120;" xml:space="preserve">
<style type="text/css">
	.st0{fill:#FFFFFF;stroke:#AA885F;stroke-width:2;stroke-linecap:round;stroke-linejoin:round;stroke-miterlimit:10;}
	.st1{fill:#FFFFFF;stroke:#AA885F;stroke-width:2;stroke-miterlimit:10;}
	.st2{fill:none;stroke:#AA885F;stroke-width:2;stroke-miterlimit:10;}
	.st3{fill:none;stroke:#AA885F;stroke-width:2;stroke-linecap:round;stroke-linejoin:round;stroke-miterlimit:10;}
	.st4{fill:#FFFFFF;stroke:#AA885F;stroke-width:2;stroke-linejoin:round;stroke-miterlimit:10;}
	.st5{fill:#AA885F;}
</style>
<g>
	<g>
		<rect x="32.1" y="24" class="st3" width="55.9" height="29"/>
		<polyline class="st3" points="53,38.4 32.1,53 87.9,53 67,38.4 		"/>
		<polygon class="st3" points="87.9,24 60,43.2 32.1,24 		"/>
	</g>
	<path class="st3" d="M98.9,81.5C99,82,99,82.5,99,83c0,5-4,9-9,9s-9-4-9-9s4-9,9-9c1.7,0,3.4,0.5,4.7,1.3"/>
	<circle class="st3" cx="60" cy="83" r="9"/>
	<circle class="st3" cx="30" cy="83" r="9"/>
	<line class="st2" x1="60" y1="54" x2="60" y2="74"/>
	<polyline class="st2" points="90,74 90,64 73,64 73,52 	"/>
	<polyline class="st2" points="30,74 30,64 47,64 47,52 	"/>
	<polyline class="st3" points="85.7,81.3 90,85.7 101,74.7 	"/>
</g>
</svg>
