<?xml version="1.0" encoding="utf-8"?>
<!-- Generator: Adobe Illustrator 24.0.2, SVG Export Plug-In . SVG Version: 6.00 Build 0)  -->
<svg version="1.1" id="Layer_1" xmlns="http://www.w3.org/2000/svg" xmlns:xlink="http://www.w3.org/1999/xlink" x="0px" y="0px"
	 viewBox="0 0 120 120" style="enable-background:new 0 0 120 120;" xml:space="preserve">
<style type="text/css">
	.st0{fill:#FFFFFF;stroke:#AA885F;stroke-width:2;stroke-linecap:round;stroke-linejoin:round;stroke-miterlimit:10;}
	.st1{fill:#FFFFFF;stroke:#AA885F;stroke-width:2;stroke-miterlimit:10;}
	.st2{fill:none;stroke:#AA885F;stroke-width:2;stroke-miterlimit:10;}
	.st3{fill:none;stroke:#AA885F;stroke-width:2;stroke-linecap:round;stroke-linejoin:round;stroke-miterlimit:10;}
	.st4{fill:#FFFFFF;stroke:#AA885F;stroke-width:2;stroke-linejoin:round;stroke-miterlimit:10;}
	.st5{fill:#AA885F;}
</style>
<g>
	<rect x="45.1" y="39.1" class="st0" width="44.9" height="26.8"/>
	<polyline class="st0" points="26,84.9 26,35.1 48,35.1 59,51.1 94,51.1 94,84.9 26,84.9 	"/>
	<line class="st0" x1="62" y1="45.1" x2="84" y2="45.1"/>
</g>
<g>
	<path class="st5" d="M51.7,60.7h-5.7l-0.6,3.8c0.3,0,0.7-0.1,1.2-0.1c1.1,0,2.3,0.3,3.2,0.8c1.2,0.7,2.1,1.9,2.1,3.8
		c0,2.9-2.3,5.1-5.5,5.1c-1.6,0-3-0.5-3.7-0.9l0.5-1.5c0.6,0.4,1.8,0.8,3.2,0.8c1.9,0,3.5-1.2,3.5-3.2c0-1.9-1.3-3.3-4.3-3.3
		c-0.8,0-1.5,0.1-2.1,0.2l1-7.1h7.1V60.7z"/>
	<path class="st5" d="M58.9,68.7c0,2.7,1.8,3.8,3.8,3.8c1.4,0,2.3-0.3,3.1-0.6l0.3,1.4c-0.7,0.3-1.9,0.7-3.7,0.7
		c-3.4,0-5.5-2.2-5.5-5.6s2-6,5.2-6c3.6,0,4.6,3.2,4.6,5.2c0,0.4,0,0.7-0.1,0.9H58.9z M64.8,67.3c0-1.3-0.5-3.3-2.8-3.3
		c-2,0-2.9,1.9-3.1,3.3H64.8z M65.3,58l-2.8,3.3h-1.4l2-3.3H65.3z"/>
	<path class="st5" d="M70,62.8l2.2,6.2c0.4,1,0.7,1.9,0.9,2.8h0.1c0.3-0.9,0.6-1.8,0.9-2.8l2.2-6.2h2.1L74,73.9h-1.9l-4.2-11.1H70z"
		/>
</g>
</svg>
