<?xml version="1.0" encoding="utf-8"?>
<!-- Generator: Adobe Illustrator 24.0.2, SVG Export Plug-In . SVG Version: 6.00 Build 0)  -->
<svg version="1.1" id="Layer_1" xmlns="http://www.w3.org/2000/svg" xmlns:xlink="http://www.w3.org/1999/xlink" x="0px" y="0px"
	 viewBox="0 0 120 120" style="enable-background:new 0 0 120 120;" xml:space="preserve">
<style type="text/css">
	.st0{fill:#FFFFFF;stroke:#AA885F;stroke-width:2;stroke-linecap:round;stroke-linejoin:round;stroke-miterlimit:10;}
	.st1{fill:#FFFFFF;stroke:#AA885F;stroke-width:2;stroke-miterlimit:10;}
	.st2{fill:none;stroke:#AA885F;stroke-width:2;stroke-miterlimit:10;}
	.st3{fill:none;stroke:#AA885F;stroke-width:2;stroke-linecap:round;stroke-linejoin:round;stroke-miterlimit:10;}
	.st4{fill:#FFFFFF;stroke:#AA885F;stroke-width:2;stroke-linejoin:round;stroke-miterlimit:10;}
	.st5{fill:#AA885F;}
</style>
<g>
	<g>
		<rect x="81" y="48" class="st4" width="32" height="17.1"/>
		<polygon class="st4" points="113,65 97,53.5 81,65 		"/>
		<polygon class="st4" points="113,48 97,59.3 81,48 		"/>
	</g>
	<line class="st4" x1="64" y1="54" x2="78" y2="54"/>
	<line class="st4" x1="71" y1="58" x2="78" y2="58"/>
	<g>
		<rect x="76" y="71" class="st4" width="32" height="17.1"/>
		<polygon class="st4" points="108,88 92,76.5 76,88 		"/>
		<polygon class="st4" points="108,71 92,82.3 76,71 		"/>
	</g>
	<line class="st4" x1="63" y1="77" x2="73" y2="77"/>
	<line class="st4" x1="68" y1="81" x2="73" y2="81"/>
	<g>
		<rect x="76" y="25" class="st4" width="32" height="17.1"/>
		<polygon class="st4" points="108,42 92,30.5 76,42 		"/>
		<polygon class="st4" points="108,25 92,36.3 76,25 		"/>
	</g>
	<line class="st4" x1="63" y1="31" x2="73" y2="31"/>
	<line class="st4" x1="68" y1="35" x2="73" y2="35"/>
	<polygon class="st0" points="59,91.1 11,91.1 11,22 45,22 59,36 	"/>
	<polygon class="st0" points="45,22 59,36 45,36 	"/>
	<line class="st4" x1="18" y1="49" x2="52" y2="49"/>
	<line class="st4" x1="18" y1="36" x2="32" y2="36"/>
	<line class="st4" x1="18" y1="56" x2="52" y2="56"/>
	<line class="st4" x1="18" y1="63" x2="52" y2="63"/>
	<line class="st4" x1="18" y1="69" x2="52" y2="69"/>
	<g>
		<g>
			<polygon class="st0" points="38.5,109.1 36.4,106.2 33,107.3 35.9,98.6 38.7,89.8 41.5,90.7 44.2,91.6 41.4,100.4 			"/>
			<polygon class="st0" points="46.4,109.1 48.5,106.2 51.9,107.3 49.1,98.6 46.2,89.8 43.5,90.7 40.7,91.6 43.6,100.4 			"/>
		</g>
		<path class="st0" d="M53,84.8c0,5.8-4.7,10.5-10.5,10.5c-5.8,0-10.5-4.7-10.5-10.5c0-5.8,4.7-10.5,10.5-10.5
			C48.3,74.3,53,79,53,84.8z"/>
		<path class="st0" d="M48.1,84.7c0,3.1-2.5,5.6-5.6,5.6c-3.1,0-5.6-2.5-5.6-5.6c0-3.1,2.5-5.6,5.6-5.6
			C45.6,79.2,48.1,81.7,48.1,84.7z"/>
	</g>
</g>
</svg>
