<?xml version="1.0" encoding="utf-8"?>
<!-- Generator: Adobe Illustrator 24.0.2, SVG Export Plug-In . SVG Version: 6.00 Build 0)  -->
<svg version="1.1" id="Layer_1" xmlns="http://www.w3.org/2000/svg" xmlns:xlink="http://www.w3.org/1999/xlink" x="0px" y="0px"
	 viewBox="0 0 120 120" style="enable-background:new 0 0 120 120;" xml:space="preserve">
<style type="text/css">
	.st0{fill:#FFFFFF;stroke:#AA885F;stroke-width:2;stroke-linecap:round;stroke-linejoin:round;stroke-miterlimit:10;}
	.st1{fill:#FFFFFF;stroke:#AA885F;stroke-width:2;stroke-miterlimit:10;}
	.st2{fill:none;stroke:#AA885F;stroke-width:2;stroke-miterlimit:10;}
	.st3{fill:none;stroke:#AA885F;stroke-width:2;stroke-linecap:round;stroke-linejoin:round;stroke-miterlimit:10;}
	.st4{fill:#FFFFFF;stroke:#AA885F;stroke-width:2;stroke-linejoin:round;stroke-miterlimit:10;}
	.st5{fill:#AA885F;}
</style>
<path class="st0" d="M60,94c10,0,27-21.3,27-26.6s0-28.5,0-34.9S75,24,60,24s-27,2.1-27,8.5s0,29.6,0,34.9S50,94,60,94z"/>
<circle class="st0" cx="60" cy="45.2" r="9.6"/>
<path class="st0" d="M71,57.6c-3.7,0-4.6,2.7-11,2.7s-7.3-2.7-11-2.7s-5.5,9.2-5.5,9.2C49,73.1,56.3,74,60,74s11-0.9,16.5-7.3
	C76.5,66.7,74.6,57.6,71,57.6z"/>
<circle class="st0" cx="80.9" cy="80" r="16"/>
<polyline class="st0" points="73,81.7 78,86.7 90.7,74 "/>
</svg>
