<?xml version="1.0" encoding="utf-8"?>
<!-- Generator: Adobe Illustrator 24.0.2, SVG Export Plug-In . SVG Version: 6.00 Build 0)  -->
<svg version="1.1" id="Layer_1" xmlns="http://www.w3.org/2000/svg" xmlns:xlink="http://www.w3.org/1999/xlink" x="0px" y="0px"
	 viewBox="0 0 120 120" style="enable-background:new 0 0 120 120;" xml:space="preserve">
<style type="text/css">
	.st0{fill:#FFFFFF;stroke:#AA885F;stroke-width:2;stroke-linecap:round;stroke-linejoin:round;stroke-miterlimit:10;}
	.st1{fill:#FFFFFF;stroke:#AA885F;stroke-width:2;stroke-miterlimit:10;}
	.st2{fill:none;stroke:#AA885F;stroke-width:2;stroke-miterlimit:10;}
	.st3{fill:none;stroke:#AA885F;stroke-width:2;stroke-linecap:round;stroke-linejoin:round;stroke-miterlimit:10;}
	.st4{fill:#FFFFFF;stroke:#AA885F;stroke-width:2;stroke-linejoin:round;stroke-miterlimit:10;}
	.st5{fill:#AA885F;}
</style>
<polygon class="st0" points="102.1,86 64.1,86 64.1,30 90,30 102,42 "/>
<line class="st1" x1="69.1" y1="49" x2="96" y2="49"/>
<line class="st1" x1="69.1" y1="55.9" x2="96" y2="56"/>
<line class="st1" x1="68.6" y1="64" x2="96" y2="64"/>
<polygon class="st0" points="90,30 102,42 90,42 "/>
<polygon class="st0" points="74,93.1 26,93.1 26,24 60,24 74,38 "/>
<polygon class="st0" points="60,24 74,38 60,38 "/>
<g>
	<rect x="33" y="50" class="st1" width="8" height="8"/>
	<line class="st1" x1="45" y1="50" x2="67" y2="50"/>
</g>
<g>
	<rect x="33" y="64" class="st1" width="8" height="8"/>
	<line class="st1" x1="45" y1="64" x2="67.3" y2="64"/>
</g>
<g>
	<rect x="33" y="78" class="st1" width="8" height="8"/>
	<line class="st1" x1="45" y1="78" x2="67.3" y2="78"/>
</g>
<line class="st1" x1="32" y1="35.1" x2="53" y2="35.1"/>
<g>
	<g>
		<path class="st0" d="M63.9,61.5c1.7-1,3.6-1.8,5.5-2.2c0.4,2.6,2.6,4.7,5.3,4.7c2.7,0,4.9-2,5.3-4.6c1.9,0.5,3.7,1.3,5.4,2.3
			c-1.5,2.1-1.3,5,0.6,6.9c1.9,1.9,4.7,2.1,6.8,0.6c1,1.7,1.7,3.5,2.1,5.3c-2.5,0.5-4.3,2.7-4.3,5.3c0,2.6,1.8,4.7,4.2,5.3
			c-0.5,1.8-1.2,3.6-2.2,5.3c-2.1-1.3-4.9-1.1-6.7,0.7s-2.1,4.6-0.7,6.7c-1.7,1-3.4,1.7-5.3,2.2c-0.5-2.4-2.7-4.2-5.3-4.2
			c-2.6,0-4.8,1.9-5.3,4.3c-1.8-0.5-3.6-1.2-5.3-2.1c1.4-2.1,1.2-5-0.6-6.8c-1.9-1.9-4.8-2.1-6.9-0.6c-1-1.7-1.8-3.5-2.3-5.4
			c2.6-0.4,4.6-2.6,4.6-5.3c0-2.7-2-5-4.7-5.3c0.5-1.9,1.2-3.7,2.2-5.5c2.1,1.6,5.1,1.5,7.1-0.5C65.3,66.7,65.5,63.7,63.9,61.5z"/>
	</g>
	<circle class="st0" cx="74.5" cy="79.7" r="10.3"/>
</g>
</svg>
