<?xml version="1.0" encoding="utf-8"?>
<!-- Generator: Adobe Illustrator 24.0.2, SVG Export Plug-In . SVG Version: 6.00 Build 0)  -->
<svg version="1.1" id="Layer_1" xmlns="http://www.w3.org/2000/svg" xmlns:xlink="http://www.w3.org/1999/xlink" x="0px" y="0px"
	 viewBox="0 0 120 120" style="enable-background:new 0 0 120 120;" xml:space="preserve">
<style type="text/css">
	.st0{fill:#FFFFFF;stroke:#AA885F;stroke-width:2;stroke-linecap:round;stroke-linejoin:round;stroke-miterlimit:10;}
	.st1{fill:#FFFFFF;stroke:#AA885F;stroke-width:2;stroke-miterlimit:10;}
	.st2{fill:none;stroke:#AA885F;stroke-width:2;stroke-miterlimit:10;}
	.st3{fill:none;stroke:#AA885F;stroke-width:2;stroke-linecap:round;stroke-linejoin:round;stroke-miterlimit:10;}
	.st4{fill:#FFFFFF;stroke:#AA885F;stroke-width:2;stroke-linejoin:round;stroke-miterlimit:10;}
	.st5{fill:#AA885F;}
</style>
<g>
	<rect x="45" y="53" class="st0" width="32" height="17"/>
	<polygon class="st0" points="77,70 61,58.5 45,70 	"/>
	<polygon class="st0" points="77,53 61,64.3 45,53 	"/>
</g>
<g>
	<rect x="96" y="57" class="st0" width="20" height="11"/>
	<polygon class="st0" points="116,68 106,60.6 96,68 	"/>
	<polygon class="st0" points="116,57 106,64.3 96,57 	"/>
</g>
<g>
	<rect x="5" y="57" class="st0" width="20" height="11"/>
	<polygon class="st0" points="25,68 15,60.6 5,68 	"/>
	<polygon class="st0" points="25,57 15,64.3 5,57 	"/>
</g>
<path class="st3" d="M80.6,41.4c-11-11-28.9-11-40,0c-9.9,9.9-10.9,25.2-3.1,36.2l-22,22c-1.5,1.5-1.5,3.9,0,5.3l1.6,1.6
	c1.5,1.5,3.9,1.5,5.3,0l22-22c11,7.8,26.3,6.7,36.2-3.1C91.6,70.4,91.6,52.5,80.6,41.4z M76.4,77.2c-8.7,8.7-22.9,8.7-31.7,0
	c-8.7-8.7-8.7-22.9,0-31.7c8.7-8.7,22.9-8.7,31.7,0C85.2,54.3,85.2,68.5,76.4,77.2z"/>
</svg>
