<?xml version="1.0" encoding="utf-8"?>
<!-- Generator: Adobe Illustrator 24.0.2, SVG Export Plug-In . SVG Version: 6.00 Build 0)  -->
<svg version="1.1" id="Layer_1" xmlns="http://www.w3.org/2000/svg" xmlns:xlink="http://www.w3.org/1999/xlink" x="0px" y="0px"
	 viewBox="0 0 120 120" style="enable-background:new 0 0 120 120;" xml:space="preserve">
<style type="text/css">
	.st0{fill:#FFFFFF;stroke:#AA885F;stroke-width:2;stroke-linecap:round;stroke-linejoin:round;stroke-miterlimit:10;}
	.st1{fill:#FFFFFF;stroke:#AA885F;stroke-width:2;stroke-miterlimit:10;}
	.st2{fill:none;stroke:#AA885F;stroke-width:2;stroke-miterlimit:10;}
	.st3{fill:none;stroke:#AA885F;stroke-width:2;stroke-linecap:round;stroke-linejoin:round;stroke-miterlimit:10;}
	.st4{fill:#FFFFFF;stroke:#AA885F;stroke-width:2;stroke-linejoin:round;stroke-miterlimit:10;}
	.st5{fill:#AA885F;}
</style>
<g>
	<g>
		<path class="st0" d="M27,84.3c-1.3-2.2-2.3-4.6-2.9-7.1c3.4-0.5,6-3.4,6-6.9c0-3.5-2.6-6.4-5.9-6.9c0.7-2.4,1.6-4.8,3-7
			c2.7,2,6.5,1.7,9-0.7c2.4-2.4,2.7-6.1,0.8-8.9c2.2-1.3,4.5-2.2,6.9-2.8c0.6,3.2,3.5,5.6,6.8,5.6c3.3,0,6.1-2.4,6.8-5.5
			c2.4,0.6,4.6,1.6,6.8,2.9c-1.7,2.7-1.4,6.3,1,8.7c2.4,2.4,6,2.7,8.7,1c1.3,2.2,2.2,4.4,2.9,6.8c-3.1,0.7-5.5,3.5-5.5,6.8
			c0,3.4,2.4,6.2,5.6,6.8c-0.6,2.4-1.5,4.7-2.8,6.9c-2.7-1.9-6.4-1.6-8.9,0.8c-2.4,2.4-2.7,6.3-0.7,9c-2.2,1.3-4.5,2.3-7,3
			c-0.5-3.3-3.4-5.9-6.9-5.9c-3.5,0-6.4,2.6-6.9,6c-2.5-0.6-4.8-1.6-7.1-2.9c2.1-2.7,1.9-6.7-0.6-9.2C33.7,82.4,29.7,82.2,27,84.3z"
			/>
	</g>
	<circle class="st0" cx="50.5" cy="70.6" r="13.3"/>
</g>
<g>
	<g>
		<path class="st0" d="M66.7,40.5c-0.2-1.5-0.2-3.1,0-4.6c2,0.5,4.1-0.5,4.9-2.4c0.8-1.9,0-4.1-1.7-5.1c0.9-1.2,2-2.2,3.2-3.2
			c1.1,1.7,3.2,2.4,5.1,1.6c1.9-0.8,2.9-2.8,2.5-4.7c1.5-0.2,3-0.2,4.4,0c-0.4,1.9,0.6,3.9,2.5,4.6c1.8,0.8,3.9,0.1,5-1.5
			c1.2,0.9,2.2,1.9,3.1,3.1c-1.6,1.1-2.2,3.2-1.4,5c0.8,1.8,2.7,2.8,4.5,2.5c0.2,1.5,0.2,3,0,4.4c-1.9-0.3-3.8,0.7-4.6,2.5
			c-0.8,1.9-0.1,4,1.5,5c-0.9,1.2-1.9,2.2-3.1,3.2c-1.1-1.6-3.2-2.3-5.1-1.6c-1.9,0.8-2.9,2.8-2.5,4.8c-1.5,0.2-3,0.2-4.5,0
			c0.5-2-0.5-4-2.4-4.8c-1.9-0.8-4.1,0-5.2,1.7c-1.2-0.9-2.3-2-3.2-3.2c1.8-1,2.6-3.2,1.8-5.2S68.7,40,66.7,40.5z"/>
	</g>
	<circle class="st0" cx="82.8" cy="38.3" r="6"/>
</g>
</svg>
