<?xml version="1.0" encoding="utf-8"?>
<!-- Generator: Adobe Illustrator 24.0.2, SVG Export Plug-In . SVG Version: 6.00 Build 0)  -->
<svg version="1.1" id="Layer_1" xmlns="http://www.w3.org/2000/svg" xmlns:xlink="http://www.w3.org/1999/xlink" x="0px" y="0px"
	 viewBox="0 0 120 120" style="enable-background:new 0 0 120 120;" xml:space="preserve">
<style type="text/css">
	.st0{fill:#FFFFFF;stroke:#AA885F;stroke-width:2;stroke-linecap:round;stroke-linejoin:round;stroke-miterlimit:10;}
	.st1{fill:#FFFFFF;stroke:#AA885F;stroke-width:2;stroke-miterlimit:10;}
	.st2{fill:none;stroke:#AA885F;stroke-width:2;stroke-miterlimit:10;}
	.st3{fill:none;stroke:#AA885F;stroke-width:2;stroke-linecap:round;stroke-linejoin:round;stroke-miterlimit:10;}
	.st4{fill:#FFFFFF;stroke:#AA885F;stroke-width:2;stroke-linejoin:round;stroke-miterlimit:10;}
	.st5{fill:#AA885F;}
</style>
<g>
	<polyline class="st3" points="38.1,55 38.1,87 98,87 98,55 	"/>
	<polyline class="st3" points="60.5,70.9 38.1,87 98,87 75.6,70.9 	"/>
	<polyline class="st3" points="80.7,55 98,55 68,76.2 38.1,55 55,55 	"/>
	<line class="st4" x1="23" y1="65" x2="34" y2="65"/>
	<line class="st4" x1="19" y1="75" x2="34" y2="75"/>
	<line class="st4" x1="28" y1="70" x2="34" y2="70"/>
	<polyline class="st3" points="51,40 31,40 31,34.3 21,44 31,53.8 31,47 51,47 	"/>
	<path class="st3" d="M84.5,41.3c0.2,0.9,0.2,1.9,0.2,2.9c0,9.3-7.5,16.8-16.9,16.8S51,53.5,51,44.2s7.5-16.9,16.8-16.9
		c3.3,0,6.3,0.9,8.9,2.5"/>
	<polyline class="st3" points="59.3,41 67.4,49.1 88,28.6 	"/>
</g>
</svg>
