<?xml version="1.0" encoding="utf-8"?>
<!-- Generator: Adobe Illustrator 24.0.2, SVG Export Plug-In . SVG Version: 6.00 Build 0)  -->
<svg version="1.1" id="Layer_1" xmlns="http://www.w3.org/2000/svg" xmlns:xlink="http://www.w3.org/1999/xlink" x="0px" y="0px"
	 viewBox="0 0 120 120" style="enable-background:new 0 0 120 120;" xml:space="preserve">
<style type="text/css">
	.st0{fill:#FFFFFF;stroke:#AA885F;stroke-width:2;stroke-linecap:round;stroke-linejoin:round;stroke-miterlimit:10;}
	.st1{fill:#FFFFFF;stroke:#AA885F;stroke-width:2;stroke-miterlimit:10;}
	.st2{fill:none;stroke:#AA885F;stroke-width:2;stroke-miterlimit:10;}
	.st3{fill:none;stroke:#AA885F;stroke-width:2;stroke-linecap:round;stroke-linejoin:round;stroke-miterlimit:10;}
	.st4{fill:#FFFFFF;stroke:#AA885F;stroke-width:2;stroke-linejoin:round;stroke-miterlimit:10;}
	.st5{fill:#AA885F;}
</style>
<polygon class="st0" points="84,93.1 36,93.1 36,24 70,24 84,38 "/>
<polygon class="st0" points="70,24 84,38 70,38 "/>
<line class="st4" x1="45" y1="53" x2="75" y2="53"/>
<line class="st4" x1="45" y1="60" x2="75" y2="60"/>
<line class="st4" x1="45" y1="67" x2="75" y2="67"/>
<line class="st4" x1="45" y1="73" x2="75" y2="73"/>
<line class="st4" x1="45" y1="79" x2="75" y2="79"/>
<g>
	<g>
		<polygon class="st0" points="32.5,51.1 30.4,48.2 27,49.3 29.9,40.6 32.7,31.8 35.5,32.7 38.2,33.6 35.4,42.4 		"/>
		<polygon class="st0" points="40.4,51.1 42.5,48.2 45.9,49.3 43.1,40.6 40.2,31.8 37.5,32.7 34.7,33.6 37.6,42.4 		"/>
	</g>
	<path class="st0" d="M47,26.8c0,5.8-4.7,10.5-10.5,10.5c-5.8,0-10.5-4.7-10.5-10.5c0-5.8,4.7-10.5,10.5-10.5
		C42.3,16.3,47,21,47,26.8z"/>
	<path class="st0" d="M42.1,26.7c0,3.1-2.5,5.6-5.6,5.6c-3.1,0-5.6-2.5-5.6-5.6s2.5-5.6,5.6-5.6C39.6,21.2,42.1,23.7,42.1,26.7z"/>
</g>
<g>
	<g>
		<polygon class="st0" points="75.5,108.1 73.4,105.2 70,106.3 72.9,97.6 75.7,88.8 78.5,89.7 81.2,90.6 78.4,99.4 		"/>
		<polygon class="st0" points="83.4,108.1 85.5,105.2 88.9,106.3 86.1,97.6 83.2,88.8 80.5,89.7 77.7,90.6 80.6,99.4 		"/>
	</g>
	<path class="st0" d="M90,83.8c0,5.8-4.7,10.5-10.5,10.5c-5.8,0-10.5-4.7-10.5-10.5c0-5.8,4.7-10.5,10.5-10.5
		C85.3,73.3,90,78,90,83.8z"/>
	<path class="st0" d="M85.1,83.7c0,3.1-2.5,5.6-5.6,5.6c-3.1,0-5.6-2.5-5.6-5.6c0-3.1,2.5-5.6,5.6-5.6
		C82.6,78.2,85.1,80.7,85.1,83.7z"/>
</g>
</svg>
