<?xml version="1.0" encoding="utf-8"?>
<!-- Generator: Adobe Illustrator 24.0.2, SVG Export Plug-In . SVG Version: 6.00 Build 0)  -->
<svg version="1.1" id="Layer_1" xmlns="http://www.w3.org/2000/svg" xmlns:xlink="http://www.w3.org/1999/xlink" x="0px" y="0px"
	 viewBox="0 0 120 120" style="enable-background:new 0 0 120 120;" xml:space="preserve">
<style type="text/css">
	.st0{fill:none;stroke:#AA885F;stroke-width:2;stroke-linecap:round;stroke-linejoin:round;stroke-miterlimit:10;}
	.st1{fill:none;stroke:#AA885F;stroke-width:2;stroke-linejoin:round;stroke-miterlimit:10;}
</style>
<g>
	<polyline class="st0" points="73,32 26,32 26,71 	"/>
	<line class="st0" x1="92" y1="71" x2="92" y2="46"/>
	<polyline class="st0" points="73,71 92,71 67.3,51.3 	"/>
	<polyline class="st0" points="50.7,51.3 26,71 62.1,71 	"/>
	<polyline class="st0" points="77.8,43.1 59,57.8 26,32 73,32 	"/>
	<g>
		<circle class="st0" cx="87" cy="32.5" r="14"/>
		<line class="st1" x1="87" y1="23" x2="87" y2="36"/>
		<line class="st1" x1="87" y1="39" x2="87" y2="41"/>
	</g>
	<path class="st0" d="M41,71c0,0,0,8.4,1.3,12S46,89,46,95"/>
	<path class="st0" d="M57.3,80.1c0,0,4.9-5.7,4.9-9.1s0-8,4.9-8s5,5.7,5,8s0,1.4,0,6s-6.3,11.1-6.3,18"/>
	<path class="st0" d="M73,77c0,0,7,0.3,7-6"/>
</g>
</svg>
