<?xml version="1.0" encoding="utf-8"?>
<!-- Generator: Adobe Illustrator 24.0.2, SVG Export Plug-In . SVG Version: 6.00 Build 0)  -->
<svg version="1.1" id="Layer_1" xmlns="http://www.w3.org/2000/svg" xmlns:xlink="http://www.w3.org/1999/xlink" x="0px" y="0px"
	 viewBox="0 0 120 120" style="enable-background:new 0 0 120 120;" xml:space="preserve">
<style type="text/css">
	.st0{fill:#FFFFFF;stroke:#AA885F;stroke-width:2;stroke-linecap:round;stroke-linejoin:round;stroke-miterlimit:10;}
	.st1{fill:#FFFFFF;stroke:#AA885F;stroke-width:2;stroke-miterlimit:10;}
	.st2{fill:none;stroke:#AA885F;stroke-width:2;stroke-miterlimit:10;}
	.st3{fill:none;stroke:#AA885F;stroke-width:2;stroke-linecap:round;stroke-linejoin:round;stroke-miterlimit:10;}
	.st4{fill:#FFFFFF;stroke:#AA885F;stroke-width:2;stroke-linejoin:round;stroke-miterlimit:10;}
	.st5{fill:#AA885F;}
</style>
<polygon class="st0" points="84,93.1 36,93.1 36,24 70,24 84,38 84,67 84,77 "/>
<polygon class="st0" points="70,24 84,38 70,38 "/>
<line class="st1" x1="45" y1="50" x2="75" y2="50"/>
<line class="st1" x1="45" y1="38" x2="60" y2="38"/>
<line class="st1" x1="45" y1="57" x2="75" y2="57"/>
<line class="st1" x1="45" y1="64" x2="75" y2="64"/>
<line class="st1" x1="45" y1="70" x2="75" y2="70"/>
<line class="st1" x1="45" y1="76" x2="66" y2="76"/>
<path class="st2" d="M79,81v-6.5c0-4.1,3.4-7.5,7.5-7.5s7.5,3.4,7.5,7.5V77"/>
<rect x="73" y="81" transform="matrix(-1 4.271238e-11 -4.271238e-11 -1 173 181)" class="st1" width="27" height="19"/>
<path class="st0" d="M90,88.5c0-1.9-1.6-3.5-3.5-3.5S83,86.6,83,88.5c0,1.5,0.9,2.7,2.2,3.2L83.8,96h5.5l-1.5-4.3
	C89.1,91.2,90,90,90,88.5z"/>
</svg>
