<svg width="100" height="100" viewBox="0 0 100 100" fill="none" xmlns="http://www.w3.org/2000/svg">
<rect width="100" height="100" fill="white"/>
<path d="M29 62C29 55.9249 24.0751 51 18 51C11.9249 51 7 55.9249 7 62" stroke="#AA885F" stroke-width="2"/>
<circle cx="18" cy="45" r="6" stroke="#AA885F" stroke-width="2"/>
<rect x="7" y="60" width="21" height="2" fill="#AA885F"/>
<path d="M93 62C93 55.9249 88.0751 51 82 51C75.9249 51 71 55.9249 71 62" stroke="#AA885F" stroke-width="2"/>
<circle cx="82" cy="45" r="6" stroke="#AA885F" stroke-width="2"/>
<rect x="71" y="60" width="21" height="2" fill="#AA885F"/>
<mask id="path-7-inside-1" fill="white">
<rect x="41" y="44" width="18" height="12" rx="1"/>
</mask>
<rect x="41" y="44" width="18" height="12" rx="1" fill="white" stroke="#AA885F" stroke-width="4" mask="url(#path-7-inside-1)"/>
<path d="M42 46L48.94 50.3375C49.5885 50.7428 50.4115 50.7428 51.06 50.3375L58 46" stroke="#AA885F" stroke-width="2"/>
<path d="M67 48V44L72 50L67 56V52" stroke="#AA885F" stroke-width="2" stroke-linecap="round" stroke-linejoin="round"/>
<path d="M33 52L33 56L28 50L33 44L33 48" stroke="#AA885F" stroke-width="2" stroke-linecap="round" stroke-linejoin="round"/>
<rect x="61" y="47" width="7" height="2" fill="#AA885F"/>
<rect x="61" y="51" width="7" height="2" fill="#AA885F"/>
<rect x="39" y="49" width="7" height="2" transform="rotate(-180 39 49)" fill="#AA885F"/>
<rect x="39" y="53" width="7" height="2" transform="rotate(-180 39 53)" fill="#AA885F"/>
<path fill-rule="evenodd" clip-rule="evenodd" d="M19.0289 34H18.863C18.8747 33.9774 18.8863 33.9548 18.898 33.9322L19.0289 34ZM80.9712 34H81.1371C81.1255 33.9774 81.1138 33.9548 81.1021 33.9322L80.9712 34ZM79.2901 32.7237L80.1509 32.2148C79.8174 31.6507 79.4685 31.0967 79.1049 30.5535L78.2739 31.1098L77.4429 31.6661C77.7859 32.1783 78.1148 32.7007 78.4292 33.2326L79.2901 32.7237ZM77.1688 29.555L77.9673 28.9531C77.5731 28.43 77.1645 27.9184 76.7421 27.4187L75.9784 28.0642L75.2147 28.7098C75.613 29.1811 75.9984 29.6636 76.3702 30.1569L77.1688 29.555ZM74.7068 26.6422L75.4333 25.9551C74.9835 25.4795 74.5205 25.0166 74.045 24.5668L73.3578 25.2933L72.6707 26.0199C73.1193 26.4441 73.556 26.8808 73.9802 27.3294L74.7068 26.6422ZM71.9358 24.0217L72.5814 23.2579C72.0817 22.8356 71.57 22.427 71.047 22.0327L70.4451 22.8313L69.8431 23.6299C70.3364 24.0017 70.819 24.387 71.2903 24.7854L71.9358 24.0217ZM68.8903 21.7262L69.4466 20.8952C68.9034 20.5315 68.3494 20.1827 67.7853 19.8492L67.2764 20.71L66.7675 21.5708C67.2994 21.8853 67.8217 22.2142 68.334 22.5571L68.8903 21.7262ZM65.6081 19.786L66.0678 18.898C65.4877 18.5976 64.898 18.3131 64.2995 18.0448L63.8905 18.9574L63.4816 19.8699C64.0457 20.1227 64.6015 20.391 65.1484 20.6741L65.6081 19.786ZM62.1289 18.2268L62.4858 17.2927C61.8759 17.0597 61.2579 16.8434 60.6322 16.6441L60.3287 17.5969L60.0253 18.5498C60.6149 18.7376 61.1974 18.9415 61.7721 19.161L62.1289 18.2268ZM58.4956 17.0697L58.7447 16.1013C58.1134 15.9389 57.4752 15.7937 56.8307 15.6662L56.6367 16.6472L56.4426 17.6282C57.0501 17.7483 57.6515 17.8852 58.2465 18.0382L58.4956 17.0697ZM54.7567 16.33L54.8953 15.3396C54.2505 15.2494 53.6 15.1767 52.9444 15.1221L52.8614 16.1186L52.7784 17.1152C53.3967 17.1667 54.0101 17.2352 54.6181 17.3203L54.7567 16.33ZM50.9567 16.0132L50.9843 15.0136C50.6573 15.0045 50.3292 15 50.0001 15C49.6709 15 49.3428 15.0045 49.0158 15.0136L49.0434 16.0132L49.071 17.0128C49.3796 17.0043 49.6893 17 50.0001 17C50.3108 17 50.6205 17.0043 50.9291 17.0128L50.9567 16.0132ZM47.1387 16.1186L47.0557 15.1221C46.4001 15.1767 45.7497 15.2494 45.1049 15.3396L45.2435 16.33L45.3821 17.3203C45.99 17.2352 46.6034 17.1667 47.2217 17.1152L47.1387 16.1186ZM43.3635 16.6472L43.1694 15.6662C42.5249 15.7937 41.8867 15.9389 41.2555 16.1013L41.5046 17.0697L41.7537 18.0382C42.3486 17.8852 42.95 17.7483 43.5575 17.6282L43.3635 16.6472ZM39.6714 17.5969L39.3679 16.6441C38.7423 16.8434 38.1242 17.0597 37.5144 17.2927L37.8712 18.2268L38.228 19.161C38.8028 18.9415 39.3852 18.7376 39.9748 18.5498L39.6714 17.5969ZM36.1096 18.9574L35.7006 18.0448C35.1021 18.3131 34.5125 18.5976 33.9323 18.898L34.392 19.786L34.8517 20.6741C35.3986 20.391 35.9544 20.1227 36.5186 19.8699L36.1096 18.9574ZM32.7237 20.71L32.2149 19.8492C31.6507 20.1827 31.0967 20.5315 30.5535 20.8952L31.1098 21.7262L31.6662 22.5571C32.1784 22.2142 32.7007 21.8853 33.2326 21.5708L32.7237 20.71ZM29.5551 22.8313L28.9532 22.0327C28.4301 22.427 27.9184 22.8356 27.4188 23.2579L28.0643 24.0217L28.7099 24.7854C29.1811 24.387 29.6637 24.0017 30.157 23.6299L29.5551 22.8313ZM26.6423 25.2933L25.9552 24.5668C25.4796 25.0165 25.0166 25.4795 24.5668 25.9551L25.2934 26.6422L26.0199 27.3294C26.4442 26.8808 26.8808 26.4441 27.3294 26.0199L26.6423 25.2933ZM24.0217 28.0642L23.258 27.4187C22.8357 27.9184 22.4271 28.43 22.0328 28.9531L22.8314 29.555L23.6299 30.1569C24.0017 29.6636 24.3871 29.1811 24.7854 28.7098L24.0217 28.0642ZM21.7262 31.1098L20.8953 30.5535C20.5316 31.0967 20.1827 31.6507 19.8492 32.2148L20.7101 32.7237L21.5709 33.2326C21.8853 32.7007 22.2143 32.1783 22.5572 31.6661L21.7262 31.1098Z" fill="#AA885F"/>
<path fill-rule="evenodd" clip-rule="evenodd" d="M80.9711 66L81.137 66C81.1253 66.0226 81.1137 66.0452 81.102 66.0678L80.9711 66ZM19.0288 66L18.8629 66C18.8746 66.0226 18.8862 66.0452 18.8979 66.0677L19.0288 66ZM20.7099 67.2763L19.8491 67.7852C20.1826 68.3493 20.5315 68.9033 20.8952 69.4465L21.7261 68.8902L22.5571 68.3339C22.2142 67.8217 21.8852 67.2993 21.5708 66.7674L20.7099 67.2763ZM22.8312 70.445L22.0327 71.0469C22.4269 71.57 22.8355 72.0816 23.2579 72.5813L24.0216 71.9357L24.7853 71.2902C24.387 70.8189 24.0016 70.3364 23.6298 69.8431L22.8312 70.445ZM25.2932 73.3578L24.5667 74.0449C25.0165 74.5205 25.4795 74.9834 25.955 75.4332L26.6422 74.7067L27.3293 73.9801C26.8807 73.5559 26.444 73.1192 26.0198 72.6706L25.2932 73.3578ZM28.0642 75.9783L27.4186 76.7421C27.9183 77.1644 28.43 77.573 28.953 77.9673L29.5549 77.1687L30.1569 76.3701C29.6636 75.9983 29.181 75.613 28.7097 75.2146L28.0642 75.9783ZM31.1097 78.2738L30.5534 79.1048C31.0966 79.4685 31.6506 79.8173 32.2147 80.1508L32.7236 79.29L33.2325 78.4292C32.7006 78.1147 32.1783 77.7858 31.666 77.4428L31.1097 78.2738ZM34.3919 80.214L33.9322 81.102C34.5123 81.4024 35.102 81.6869 35.7005 81.9552L36.1095 81.0426L36.5184 80.1301C35.9543 79.8773 35.3985 79.609 34.8516 79.3259L34.3919 80.214ZM37.8711 81.7731L37.5142 82.7073C38.1241 82.9403 38.7421 83.1566 39.3678 83.3559L39.6713 82.4031L39.9747 81.4502C39.3851 81.2624 38.8026 81.0585 38.2279 80.839L37.8711 81.7731ZM41.5044 82.9303L41.2553 83.8987C41.8866 84.0611 42.5248 84.2063 43.1693 84.3338L43.3633 83.3528L43.5574 82.3718C42.9499 82.2516 42.3485 82.1148 41.7535 81.9618L41.5044 82.9303ZM45.2433 83.67L45.1047 84.6604C45.7495 84.7506 46.4 84.8233 47.0556 84.8779L47.1386 83.8814L47.2216 82.8848C46.6033 82.8333 45.9899 82.7648 45.3819 82.6797L45.2433 83.67ZM49.0433 83.9868L49.0157 84.9864C49.3427 84.9955 49.6708 85 49.9999 85C50.3291 85 50.6572 84.9955 50.9842 84.9864L50.9566 83.9868L50.929 82.9872C50.6204 82.9957 50.3107 83 49.9999 83C49.6892 83 49.3795 82.9957 49.0709 82.9872L49.0433 83.9868ZM52.8613 83.8814L52.9443 84.8779C53.5999 84.8233 54.2503 84.7506 54.8951 84.6604L54.7565 83.67L54.6179 82.6797C54.01 82.7648 53.3966 82.8333 52.7783 82.8848L52.8613 83.8814ZM56.6365 83.3528L56.8306 84.3338C57.4751 84.2063 58.1133 84.0611 58.7445 83.8987L58.4954 82.9303L58.2463 81.9618C57.6514 82.1148 57.05 82.2517 56.4425 82.3718L56.6365 83.3528ZM60.3286 82.4031L60.6321 83.3559C61.2577 83.1566 61.8758 82.9403 62.4856 82.7073L62.1288 81.7732L61.772 80.839C61.1972 81.0585 60.6148 81.2624 60.0252 81.4502L60.3286 82.4031ZM63.8904 81.0426L64.2994 81.9552C64.8979 81.6869 65.4875 81.4024 66.0677 81.102L65.608 80.214L65.1483 79.3259C64.6014 79.609 64.0456 79.8773 63.4814 80.1301L63.8904 81.0426ZM67.2763 79.29L67.7851 80.1508C68.3493 79.8173 68.9033 79.4685 69.4465 79.1048L68.8902 78.2738L68.3338 77.4429C67.8216 77.7858 67.2993 78.1147 66.7674 78.4292L67.2763 79.29ZM70.4449 77.1687L71.0468 77.9673C71.5699 77.573 72.0816 77.1644 72.5812 76.7421L71.9357 75.9783L71.2901 75.2146C70.8189 75.613 70.3363 75.9983 69.843 76.3701L70.4449 77.1687ZM73.3577 74.7067L74.0448 75.4332C74.5204 74.9835 74.9834 74.5205 75.4332 74.0449L74.7066 73.3578L73.9801 72.6706C73.5558 73.1192 73.1192 73.5559 72.6706 73.9801L73.3577 74.7067ZM75.9783 71.9358L76.742 72.5813C77.1643 72.0816 77.5729 71.57 77.9672 71.0469L77.1686 70.445L76.3701 69.8431C75.9983 70.3364 75.6129 70.8189 75.2146 71.2902L75.9783 71.9358ZM78.2738 68.8902L79.1047 69.4465C79.4684 68.9033 79.8173 68.3493 80.1508 67.7852L79.2899 67.2763L78.4291 66.7674C78.1147 67.2993 77.7857 67.8217 77.4428 68.3339L78.2738 68.8902Z" fill="#AA885F"/>
</svg>
