<svg width="270" height="100" viewBox="0 0 270 100" fill="none" xmlns="http://www.w3.org/2000/svg">
<rect width="270" height="100" fill="#101010"/>
<g clip-path="url(#clip0)">
<path fill-rule="evenodd" clip-rule="evenodd" d="M61.7004 41.9001C61.5004 41.8001 61.1004 41.7001 60.9004 41.8001C59.4004 41.7001 58.0004 41.7001 56.6004 41.7001H56.5004C55.8004 41.7001 55.0004 41.7001 54.2004 41.7001C48.0004 41.6001 48.0004 41.6001 48.0004 41.6001C46.5004 41.6001 45.0004 41.6001 43.4004 41.6001C42.2004 41.6001 41.1004 41.6001 40.0004 41.7001C38.8004 41.7001 36.0004 41.7001 34.3004 41.7001C33.4004 41.7001 32.9004 41.7001 32.9004 41.7001C32.7004 41.7001 32.5004 42.0001 32.4004 42.2001C32.4004 42.3001 32.5004 42.5001 32.7004 42.5001C32.9004 42.5001 33.9004 42.5001 35.8004 42.5001H37.7004C38.2004 42.5001 38.4004 42.5001 38.6004 42.5001C40.0004 42.4001 41.4004 42.4001 42.8004 42.4001H42.9004C43.8004 42.4001 44.7004 42.4001 45.6004 42.4001C45.8004 42.4001 46.0004 42.4001 46.2004 42.4001C46.3004 42.4001 46.4004 42.4001 46.5004 42.4001C46.7004 42.5001 46.9004 42.5001 47.2004 42.5001C47.4004 42.5001 47.7004 42.5001 47.9004 42.5001C48.1004 42.4001 48.3004 42.5001 48.5004 42.5001C48.6004 42.5001 48.7004 42.5001 48.8004 42.5001C50.6004 42.5001 52.5004 42.5001 55.0004 42.7001L56.2004 42.8001C57.2004 42.7001 58.3004 42.8001 59.3004 42.8001C60.1004 42.9001 60.8004 42.9001 61.5004 42.9001L61.9004 42.6001C62.0004 42.4001 61.9004 42.1001 61.7004 41.9001Z" fill="#AA885F"/>
<path fill-rule="evenodd" clip-rule="evenodd" d="M51.5 55.1V52.6C51.5 52.2 51.4 51.8 51.4 51.4C51.4 50.9 51.4 50.4 51.3 50C51.3 49.4 51.2 48.7 51 48.1V47.6C50.9 47.5 50.9 47.4 50.8 47.2C50.8 47.1 50.7 47 50.7 46.8C50.5 46.5 50.3 46.2 50.1 46C50 45.9 50 45.9 49.9 45.8C49.9 45.8 49.8 45.8 49.8 45.7H49.7C49.5 45.5 49.3 45.5 49.1 45.4C49 45.3 48.9 45.3 48.8 45.3V45.2H48.7L48.2 45.1H48.1V45.2C48.1 45.2 48.1 45.2 48 45.2C47.9 45.2 47.9 45.2 47.8 45.2H47.7C47.7 45.2 47.7 45.2 47.6 45.2L47.3 45V45.1C47.2 45.1 47.1 45.1 47 45.2H46.6H46.3V45.3C46.2 45.3 46 45.4 46 45.4C45.9 45.4 45.8 45.5 45.8 45.5C45.8 45.5 45.8 45.5 45.7 45.5H45.6C45.6 45.6 45.4 45.6 45.3 45.7L45.1 45.8C45.1 45.8 45 45.8 45 45.9H44.8V46H44.7L44.6 46.1C44.5 46.2 44.4 46.4 44.2 46.5C44 46.7 43.9 46.9 43.7 47.1V47.2V47.3C43.7 47.3 43.6 47.4 43.6 47.5C43.5 47.6 43.5 47.7 43.5 47.7C43.5 47.7 43.5 47.7 43.5 47.8C43.4 47.9 43.4 48 43.4 48V48.1L43.3 48.2C43.3 48.3 43.3 48.3 43.3 48.4C43.3 48.4 43.3 48.4 43.3 48.5H43.2V48.6C43.2 48.8 43.2 48.9 43.2 49.1C43.2 49.3 43.2 49.4 43.2 49.6C43.1 49.7 43.1 49.8 43.2 49.9V50L43.3 50.1C43.3 50.2 43.3 50.3 43.3 50.4C43.3 50.5 43.2 50.7 43.3 50.8V50.9C43.3 51 43.3 51 43.3 51L43 51.2L43.1 51.3C43.1 51.4 43.1 51.4 43.1 51.5C43.1 51.6 43.1 51.6 43.1 51.7L43 51.8L43.1 51.9C43.1 52 43.1 52.1 43.2 52.1H43.1L43.2 52.3C43.2 52.4 43.2 52.5 43.2 52.6C43.2 52.7 43.2 52.8 43.2 52.9C43.2 52.9 43.2 52.9 43.2 53C43.1 53.1 43.1 53.3 43.2 53.4C43.1 53.5 43.2 53.6 43.2 53.7L43 53.8L43.2 54V54.1C43.2 54.1 43.2 54.1 43.3 54.2H43.2L43.3 54.4C43.3 54.5 43.3 54.6 43.4 54.6V54.7L43.3 54.8L43.4 54.9C43.4 55 43.4 55.1 43.4 55.2C43.4 55.3 43.3 55.5 43.4 55.6L43.3 55.7L43.4 55.8C43.4 55.9 43.3 56 43.4 56.1C43.4 56.2 43.4 56.2 43.4 56.3C43.4 56.4 43.4 56.6 43.4 56.8V57C43.4 57.1 43.4 57.1 43.4 57.2H43.3V57.3C43.3 57.4 43.3 57.6 43.3 57.7C43.3 58 43.3 58.3 43.6 58.6L43.7 58.7H43.8C44 58.6 44 58.4 44 58.3C44 58.3 44 58.3 44 58.2C43.9 57.9 44 57.6 44 57.3C44 57.2 44 57.1 44 57.1C43.9 57 44 56.9 44 56.8C44 56.7 44 56.6 44 56.4C44 55.8 44 55.2 44 54.6C44 54.3 44 54.1 44 53.9C44 53.6 44 53.3 44 53C44 52.7 44 52.5 44 52.2C44.1 51.9 44.1 51.7 44.1 51.4C44.1 51.3 44.1 51.1 44.1 51C44.2 50.9 44.2 50.8 44.1 50.8C44.1 50.7 44.1 50.6 44.1 50.5C44.1 50.4 44.1 50.4 44.1 50.3C44.1 50.2 44.1 50.2 44.1 50.1C44.1 50 44.1 49.9 44.1 49.8C44.2 49.6 44.2 49.3 44.2 49.1V49C44.2 48.9 44.2 48.9 44.1 48.8C44.1 48.7 44.2 48.6 44.2 48.5C44.3 48.4 44.4 48.2 44.4 48C44.4 48 44.5 47.9 44.5 47.8C44.5 47.8 44.5 47.8 44.5 47.7C44.6 47.6 44.7 47.5 44.7 47.4C44.8 47.3 44.8 47.2 45 47.1H45.1V47C45.1 46.9 45.2 46.9 45.3 46.8C45.4 46.7 45.5 46.7 45.6 46.6C45.7 46.6 45.8 46.6 45.8 46.5C45.9 46.5 46 46.4 46.1 46.3C46.2 46.2 46.3 46.2 46.3 46.2H46.4L46.5 46.1C46.5 46.1 46.6 46.1 46.6 46H46.7C46.8 46 46.8 46 46.8 46H46.9H47H47.1C47.5 45.9 47.8 45.9 48.1 46.1L48.2 46.2L48.3 46.1C48.4 46.2 48.5 46.3 48.7 46.3L48.8 46.4C48.8 46.4 48.8 46.4 48.9 46.4C49 46.5 49.1 46.5 49.2 46.5C49.4 46.7 49.7 47.1 49.7 47.2V47.3H49.8C49.8 47.5 49.9 47.7 50 47.8C50 47.9 50 48 50 48C50 48 50 48 50 48.1V48.2L50.1 48.3C50.1 48.4 50.1 48.5 50.2 48.5C50.1 48.7 50.2 48.9 50.3 48.9C50.2 48.9 50.2 49 50.2 49.1V49.2V49.3C50.2 49.3 50.2 49.3 50.2 49.4V49.5L50.3 49.6C50.3 49.7 50.3 49.7 50.3 49.7V49.8C50.3 50 50.2 50.3 50.3 50.5C50.2 50.6 50.3 50.7 50.3 50.8V50.9V51C50.3 51 50.3 51 50.4 51V51.2H50.5C50.5 51.3 50.5 51.3 50.5 51.4C50.5 51.5 50.5 51.5 50.5 51.6C50.5 51.7 50.5 51.9 50.6 52C50.6 52 50.6 52 50.6 52.1V52.2V52.3C50.6 52.3 50.6 52.4 50.7 52.4V52.5H50.6V52.6C50.6 52.6 50.6 52.7 50.6 52.8L50.5 52.9C50.5 52.9 50.5 53 50.6 53C50.5 53.2 50.7 53.3 50.8 53.4L50.9 53.5H50.8V53.7L50.6 54V54.1C50.6 54.2 50.6 54.2 50.6 54.3C50.6 54.3 50.5 54.4 50.5 54.5V54.6H50.6V54.7V54.8L50.8 54.9C50.8 54.9 50.8 55 50.7 55C50.7 55 50.7 55 50.7 55.1H50.5V55.3V55.4V55.5V55.7V55.8V55.9V56V56.1L50.4 56.2L50.5 56.4C50.5 56.4 50.5 56.5 50.5 56.6H50.4L50.6 56.8V56.9C50.5 57 50.5 57.1 50.5 57.1V57.2V57.3L50.4 57.4V57.5H50.2L50.3 57.6H50.2L50.3 57.7V58.1C50.3 58.2 50.3 58.2 50.4 58.2C50.5 58.2 50.6 58.2 50.6 58.2V58.4L50.8 58.3C50.9 58.3 51 58.3 51.1 58.3H51.2V58.2C51.3 57.7 51.3 57.1 51.2 56.6C51.2 56.1 51.2 55.6 51.2 55.2C51.6 55.2 51.5 55.1 51.5 55.1Z" fill="#AA885F"/>
<path fill-rule="evenodd" clip-rule="evenodd" d="M41.2002 55.1V52.6C41.2002 52.2 41.1002 51.8 41.1002 51.4C41.1002 50.9 41.1002 50.4 41.0002 50C41.0002 49.4 40.9002 48.7 40.7002 48.1L40.6002 47.7C40.5002 47.6 40.5002 47.5 40.4002 47.3C40.4002 47.2 40.3002 47.1 40.3002 46.9C40.1002 46.6 39.9002 46.3 39.7002 46.1C39.6002 46 39.6002 46 39.5002 45.9C39.5002 45.9 39.4002 45.9 39.4002 45.8H39.3002C39.1002 45.6 38.9002 45.6 38.7002 45.5C38.6002 45.4 38.5002 45.4 38.4002 45.4V45.3H38.3002L37.8002 45.2H37.7002V45.3C37.7002 45.3 37.7002 45.3 37.6002 45.3C37.5002 45.3 37.5002 45.3 37.4002 45.3H37.3002C37.3002 45.3 37.3002 45.3 37.2002 45.3L37.0002 45V45.1C36.9002 45.1 36.8002 45.1 36.7002 45.2H36.3002H36.0002V45.3C35.9002 45.3 35.7002 45.4 35.7002 45.4C35.6002 45.4 35.5002 45.5 35.5002 45.5C35.5002 45.5 35.5002 45.5 35.4002 45.5H35.3002C35.3002 45.6 35.1002 45.6 35.0002 45.7L34.8002 45.8C34.8002 45.8 34.7002 45.8 34.7002 45.9H34.5002V46H34.4002L34.3002 46.1C34.2002 46.2 34.1002 46.4 33.9002 46.5C33.7002 46.7 33.6002 46.9 33.4002 47.1V47.2V47.3C33.4002 47.3 33.3002 47.4 33.3002 47.5C33.2002 47.6 33.2002 47.7 33.2002 47.7C33.2002 47.7 33.2002 47.7 33.2002 47.8C33.1002 47.9 33.1002 48 33.1002 48V48.1L33.0002 48.2C33.0002 48.3 33.0002 48.3 33.0002 48.4C33.0002 48.4 33.0002 48.4 33.0002 48.5H32.9002V48.6C32.9002 48.8 32.9002 48.9 32.9002 49.1C32.9002 49.3 32.9002 49.4 32.9002 49.6C32.8002 49.7 32.8002 49.8 32.9002 49.9V50L33.0002 50.1C33.0002 50.2 33.0002 50.3 33.0002 50.4C33.0002 50.5 32.9002 50.7 33.0002 50.8V50.9C33.0002 51 33.0002 51 33.0002 51L32.9002 51.1L33.0002 51.2C33.0002 51.3 33.0002 51.3 33.0002 51.4C33.0002 51.5 33.0002 51.5 33.0002 51.6L32.9002 51.7L33.0002 51.8C33.0002 51.9 33.0002 52 33.1002 52H33.0002L33.1002 52.2C33.1002 52.3 33.1002 52.4 33.1002 52.5C33.1002 52.6 33.1002 52.7 33.1002 52.8C33.1002 52.8 33.1002 52.8 33.1002 52.9C33.0002 53 33.0002 53.2 33.1002 53.3C33.0002 53.4 33.1002 53.5 33.1002 53.6L32.9002 53.7L33.1002 53.9V54C33.1002 54 33.1002 54 33.2002 54.1H33.1002L33.2002 54.3C33.2002 54.4 33.2002 54.5 33.2002 54.5V54.6L33.1002 54.7L33.2002 54.8C33.3002 54.9 33.2002 55 33.2002 55.1C33.2002 55.2 33.1002 55.4 33.2002 55.5L33.1002 55.6L33.2002 55.7C33.2002 55.8 33.1002 55.9 33.2002 56C33.2002 56.1 33.2002 56.1 33.2002 56.2C33.2002 56.3 33.2002 56.5 33.2002 56.7V56.9C33.2002 57 33.2002 57 33.2002 57.1H33.1002V57.2C33.1002 57.3 33.1002 57.5 33.1002 57.6C33.1002 57.9 33.1002 58.2 33.4002 58.5L33.5002 58.6H33.6002C33.8002 58.5 33.8002 58.3 33.8002 58.2C33.8002 58.2 33.8002 58.2 33.8002 58.1C33.7002 57.8 33.8002 57.5 33.8002 57.2C33.8002 57.1 33.8002 57 33.8002 57C33.7002 56.9 33.8002 56.8 33.8002 56.7C33.8002 56.6 33.8002 56.5 33.8002 56.3C33.8002 55.7 33.8002 55.1 33.8002 54.5C33.8002 54.2 33.8002 54 33.8002 53.8C33.8002 53.5 33.8002 53.2 33.8002 52.9C33.8002 52.6 33.8002 52.4 33.8002 52.1C33.9002 51.8 33.9002 51.6 33.9002 51.3C33.9002 51.2 33.9002 51 33.9002 50.9C34.0002 50.8 34.0002 50.7 33.9002 50.7C33.9002 50.6 33.9002 50.5 33.9002 50.4C33.9002 50.3 33.9002 50.3 33.9002 50.2C33.9002 50.1 33.9002 50.1 33.9002 50C33.9002 49.9 33.9002 49.8 33.9002 49.7C34.0002 49.5 34.0002 49.2 34.0002 49V48.9C34.0002 48.8 34.0002 48.8 33.9002 48.7C33.9002 48.6 34.0002 48.5 34.0002 48.4C34.1002 48.3 34.2002 48.1 34.2002 47.9C34.2002 47.9 34.3002 47.8 34.3002 47.7C34.3002 47.7 34.3002 47.7 34.3002 47.6C34.4002 47.5 34.4002 47.4 34.5002 47.3C34.6002 47.2 34.6002 47.1 34.8002 47H34.9002V46.9C34.9002 46.8 35.0002 46.8 35.1002 46.7C35.2002 46.6 35.3002 46.6 35.4002 46.5C35.5002 46.5 35.6002 46.5 35.6002 46.4C35.7002 46.4 35.8002 46.3 35.9002 46.2C35.9002 46 36.0002 46 36.0002 46H36.1002L36.2002 45.9C36.2002 45.9 36.3002 45.9 36.3002 45.8H36.4002C36.5002 45.8 36.5002 45.8 36.5002 45.8H36.6002H36.7002H36.8002C37.2002 45.7 37.5002 45.7 37.8002 45.9L38.0002 46L38.1002 45.9C38.2002 46 38.3002 46.1 38.5002 46.1L38.6002 46.2C38.6002 46.2 38.6002 46.2 38.7002 46.2C38.8002 46.3 38.9002 46.3 39.0002 46.3C39.2002 46.5 39.5002 46.9 39.5002 47V47.1H39.6002C39.6002 47.3 39.7002 47.5 39.8002 47.6C39.8002 47.7 39.8002 47.8 39.8002 47.8C39.8002 47.8 39.8002 47.8 39.8002 47.9V48L39.9002 48.1C39.9002 48.2 39.9002 48.3 40.0002 48.3C39.9002 48.5 40.0002 48.7 40.1002 48.7C40.0002 48.7 40.0002 48.8 40.0002 48.9V49V49.1C40.0002 49.1 40.0002 49.1 40.0002 49.2V49.3L40.1002 49.4C40.1002 49.5 40.1002 49.5 40.1002 49.5V49.6C40.1002 49.8 40.0002 50.1 40.1002 50.3C40.0002 50.4 40.1002 50.5 40.1002 50.6V50.7V50.8C40.1002 50.8 40.1002 50.8 40.2002 50.8V51H40.3002C40.3002 51.1 40.3002 51.1 40.3002 51.2C40.3002 51.3 40.3002 51.3 40.3002 51.4C40.3002 51.5 40.3002 51.7 40.4002 51.8C40.4002 51.8 40.4002 51.8 40.4002 51.9V52V52.1C40.4002 52.1 40.4002 52.2 40.5002 52.2V52.3H40.4002V52.4C40.4002 52.4 40.4002 52.5 40.4002 52.6L40.3002 52.7C40.3002 52.7 40.3002 52.8 40.4002 52.8C40.3002 53 40.5002 53.1 40.6002 53.2L40.7002 53.3H40.6002L40.7002 53.5L40.3002 54V54.1C40.3002 54.2 40.3002 54.2 40.3002 54.3C40.3002 54.3 40.2002 54.4 40.2002 54.5V54.6H40.3002V54.7V54.8L40.5002 54.9V55C40.5002 55 40.5002 55 40.5002 55.1H40.4002V55.3V55.4V55.5V55.7V55.8V55.9V56V56.1L40.3002 56.2L40.4002 56.4C40.4002 56.4 40.4002 56.5 40.4002 56.6H40.3002L40.5002 56.8V56.9C40.4002 57 40.4002 57.1 40.4002 57.1V57.2V57.3L40.3002 57.4V57.5H40.1002L40.2002 57.6H40.1002L40.2002 57.7V58.1C40.2002 58.2 40.2002 58.2 40.3002 58.2C40.4002 58.2 40.5002 58.2 40.5002 58.2V58.4L40.7002 58.3C40.8002 58.3 40.9002 58.3 41.0002 58.3H41.1002V58.2C41.2002 57.7 41.2002 57.1 41.1002 56.6C41.1002 56.1 41.1002 55.6 41.1002 55.2C41.3002 55.2 41.2002 55.1 41.2002 55.1Z" fill="#AA885F"/>
<path fill-rule="evenodd" clip-rule="evenodd" d="M61.6001 55.2999V52.7999C61.6001 52.3999 61.5001 51.9999 61.5001 51.5999C61.5001 51.0999 61.5001 50.6 61.4001 50.2C61.4001 49.6 61.3001 48.8999 61.1001 48.2999L61.0001 47.9C60.9001 47.8 60.9001 47.7 60.8001 47.5C60.8001 47.4 60.7001 47.2999 60.7001 47.0999C60.5001 46.7999 60.3001 46.4999 60.1001 46.2999C60.1001 46.0999 60.0001 46 59.9001 46C59.9001 46 59.8001 46 59.8001 45.9H59.7001C59.5001 45.7 59.3001 45.6999 59.1001 45.5999C59.0001 45.4999 58.9001 45.5 58.8001 45.5V45.4H58.7001L58.2001 45.2999H58.1001H58.0001C58.0001 45.2999 58.0001 45.2999 57.9001 45.2999C57.8001 45.2999 57.8001 45.2999 57.7001 45.2999H57.6001C57.6001 45.2999 57.6001 45.2999 57.5001 45.2999L57.3001 45.2V45.2999C57.2001 45.2999 57.1001 45.3 57.0001 45.4H56.6001H56.3001V45.5C56.2001 45.5 56.0001 45.4999 56.0001 45.5999C55.9001 45.5999 55.8001 45.7 55.8001 45.7C55.8001 45.7 55.8001 45.7 55.7001 45.7H55.6001C55.6001 45.8 55.4001 45.8 55.3001 45.9L55.1001 46C55.1001 46 55.0001 45.9999 55.0001 46.0999V46.2H54.9001L54.8001 46.2999C54.7001 46.3999 54.6001 46.6 54.4001 46.7C54.2001 46.9 54.1001 47.0999 53.9001 47.2999V47.4V47.5C53.9001 47.5 53.8001 47.6 53.8001 47.7C53.7001 47.8 53.7001 47.9 53.7001 47.9C53.7001 47.9 53.7001 47.9 53.7001 48C53.6001 48.1 53.6001 48.2 53.6001 48.2C53.6001 48.3 53.6001 48.2999 53.6001 48.2999L53.5001 48.4C53.5001 48.5 53.5001 48.4999 53.5001 48.5999C53.5001 48.5999 53.5001 48.6 53.5001 48.7H53.4001V48.7999C53.4001 48.9999 53.4001 49.0999 53.4001 49.2999C53.4001 49.4999 53.4001 49.5999 53.4001 49.7999C53.3001 49.8999 53.4001 49.9999 53.4001 50.0999V50.2L53.3001 50.2999L53.4001 50.4C53.4001 50.5 53.4001 50.6 53.4001 50.7C53.4001 50.8 53.3001 50.9999 53.4001 51.0999V51.2C53.4001 51.3 53.4001 51.2999 53.4001 51.2999L53.3001 51.4V51.5L53.4001 51.5999C53.4001 51.6999 53.4001 51.7999 53.4001 51.7999C53.4001 51.8999 53.4001 51.9 53.4001 52H53.2001L53.3001 52.0999C53.3001 52.1999 53.3001 52.2999 53.4001 52.2999H53.3001L53.4001 52.5V52.7C53.4001 52.8 53.4001 52.9 53.4001 53C53.4001 53 53.4001 52.9999 53.4001 53.0999C53.3001 53.1999 53.3001 53.4 53.4001 53.5C53.3001 53.6 53.4001 53.6999 53.4001 53.7999L53.1001 54L53.3001 54.2V54.2999C53.3001 54.2999 53.3001 54.4 53.4001 54.4H53.3001L53.4001 54.5999C53.4001 54.6999 53.4001 54.8 53.5001 54.9C53.5001 54.9 53.5001 54.9 53.5001 55H53.3001L53.4001 55.0999C53.5001 55.1999 53.4001 55.3 53.4001 55.4C53.4001 55.5 53.3001 55.6999 53.4001 55.7999L53.3001 55.9L53.4001 56C53.4001 56.1 53.3001 56.1999 53.4001 56.2999C53.4001 56.2999 53.4001 56.4 53.4001 56.5C53.4001 56.6 53.4001 56.8 53.4001 57V57.2C53.4001 57.3 53.4001 57.3 53.4001 57.4H53.3001V57.5C53.3001 57.6 53.3001 57.8 53.3001 57.9C53.3001 58.2 53.3001 58.4999 53.6001 58.7999L53.7001 58.9H53.8001C54.0001 58.8 54.0001 58.6 54.0001 58.5C54.0001 58.5 54.0001 58.5 54.0001 58.4C53.9001 58.1 54.0001 57.8 54.0001 57.5C54.0001 57.4 54.0001 57.2999 54.0001 57.2999C53.9001 57.1999 54.0001 57.1 54.0001 57C54.0001 56.9 54.0001 56.7999 54.0001 56.5999C54.0001 55.9999 54.0001 55.4 54.0001 54.7999C54.0001 54.4999 54.0001 54.2999 54.0001 54.0999C54.0001 53.7999 54.0001 53.5 54.0001 53.2C54.0001 52.9 54.0001 52.7 54.0001 52.4C54.1001 52.1 54.1001 51.8999 54.1001 51.5999C54.1001 51.4999 54.1001 51.4 54.1001 51.2C54.2001 51.1 54.2001 51 54.1001 51C54.1001 50.9 54.1001 50.8 54.1001 50.7C54.1001 50.6 54.1001 50.6 54.1001 50.5C54.1001 50.4 54.1001 50.3999 54.1001 50.2999C54.1001 50.1999 54.1001 50.1 54.1001 50C54.2001 49.8 54.2001 49.4999 54.2001 49.2999V49.2C54.2001 49.1 54.2001 49.1 54.1001 49C54.1001 48.9 54.2001 48.8 54.2001 48.7C54.3001 48.6 54.4001 48.4 54.4001 48.2C54.4001 48.2 54.5001 48.1 54.5001 48C54.5001 48 54.5001 48 54.5001 47.9C54.6001 47.8 54.7001 47.6999 54.7001 47.5999C54.8001 47.4999 54.8001 47.3999 55.0001 47.2999H55.1001V47.2C55.1001 47.1 55.2001 47.1 55.3001 47C55.4001 46.9 55.5001 46.8999 55.6001 46.7999C55.7001 46.7999 55.8001 46.8 55.8001 46.7C55.9001 46.7 56.0001 46.6 56.1001 46.5C56.2001 46.4 56.3001 46.4 56.3001 46.4H56.4001L56.5001 46.2999C56.5001 46.2999 56.6001 46.3 56.6001 46.2H56.7001C56.8001 46.2 56.8001 46.2 56.8001 46.2H56.9001H57.0001H57.1001C57.5001 46.2 57.8001 46.0999 58.1001 46.2999L58.2001 46.4L58.3001 46.2999C58.4001 46.3999 58.5001 46.5 58.7001 46.5L58.8001 46.5999C58.8001 46.5999 58.8001 46.5999 58.9001 46.5999C59.0001 46.6999 59.1001 46.7 59.2001 46.7C59.4001 46.9 59.7001 47.3 59.7001 47.4V47.5H60.0001C60.0001 47.7 60.1001 47.9 60.2001 48C60.2001 48.1 60.2001 48.2 60.2001 48.2V48.2999L60.3001 48.4C60.3001 48.5 60.3001 48.5999 60.4001 48.5999C60.4001 48.5999 60.4001 48.6 60.4001 48.7C60.3001 48.9 60.4001 49.0999 60.5001 49.0999C60.4001 49.0999 60.4001 49.1999 60.4001 49.2999V49.4V49.5C60.4001 49.5 60.4001 49.4999 60.4001 49.5999V49.7L60.5001 49.7999H60.6001C60.6001 49.8999 60.6001 49.9 60.6001 49.9V50C60.6001 50.2 60.5001 50.5 60.6001 50.7C60.5001 50.8 60.5001 50.9 60.6001 51V51.0999V51.2C60.6001 51.2 60.6001 51.2 60.7001 51.2V51.4H60.8001C60.8001 51.5 60.8001 51.5 60.8001 51.5C60.8001 51.6 60.8001 51.6 60.8001 51.7C60.8001 51.8 60.8001 51.9999 60.9001 52.0999C60.9001 52.0999 60.9001 52.1 60.9001 52.2V52.2999V52.4C60.9001 52.4 60.9001 52.5 61.0001 52.5V52.5999H60.9001V52.7C60.9001 52.7 60.9001 52.8 60.9001 52.9L60.8001 53C60.8001 53 60.8001 53.0999 60.9001 53.0999C60.8001 53.2999 61.0001 53.4 61.1001 53.5L61.2001 53.5999H61.1001L61.2001 53.7999L61.1001 53.9V54C61.1001 54.1 61.1001 54.1 61.1001 54.2C61.1001 54.2 61.0001 54.3 61.0001 54.4V54.5H61.1001V54.5999C61.1001 54.6999 61.1001 54.7 61.1001 54.7L61.3001 54.7999V54.9C61.3001 54.9 61.3001 54.9 61.3001 55H61.2001V55.2V55.2999V55.4V55.5999V55.7V55.7999C61.2001 55.9 61.2001 55.9 61.2001 55.9V56L61.1001 56.0999L61.2001 56.2999C61.2001 56.2999 61.2001 56.4 61.2001 56.5H61.1001L61.3001 56.7V56.7999C61.2001 56.9 61.2001 57 61.2001 57V57.0999V57.2L61.1001 57.2999V57.4H60.9001L61.0001 57.5H60.9001L61.0001 57.5999V58C61.0001 58.1 61.0001 58.0999 61.1001 58.0999C61.2001 58.0999 61.2001 58.0999 61.3001 58.0999V58.2999H61.5001C61.6001 58.2999 61.7001 58.2999 61.8001 58.2999H61.9001V58.2C62.0001 57.7 62.0001 57.0999 61.9001 56.5999C61.9001 56.0999 61.9001 55.6 61.9001 55.2C61.7001 55.4 61.6001 55.2999 61.6001 55.2999Z" fill="#AA885F"/>
<path fill-rule="evenodd" clip-rule="evenodd" d="M28.7002 68.5H65.7002V31.5H28.7002V68.5ZM30.6002 33.5H63.7002V66.6H30.6002V33.5Z" fill="#AA885F"/>
<path fill-rule="evenodd" clip-rule="evenodd" d="M165 55.5999C165 51.5999 161.5 49.0999 158.7 48.0999C160.6 46.5999 162.2 44.8999 162.2 42.0999C162.2 40.2999 161.1 36.8999 154.8 36.8999C153.6 36.8999 152.3 36.9999 150.6 36.9999C149.9 36.9999 147.7 36.8999 145.9 36.8999C145.4 36.8999 145.1 36.9999 145.1 37.1999C145.1 37.3999 145.3 37.4999 145.7 37.4999C146.2 37.4999 146.8 37.4999 147 37.5999C148.1 37.7999 148.4 38.3999 148.5 39.5999C148.6 40.6999 148.6 41.6999 148.6 46.8999V52.9999C148.6 56.1999 148.6 58.8999 148.4 60.3999C148.3 61.3999 148.1 62.1999 147.4 62.2999C147.1 62.3999 146.7 62.3999 146.2 62.3999C145.8 62.3999 145.7 62.4999 145.7 62.6999C145.7 62.8999 145.9 62.9999 146.4 62.9999C147.8 62.9999 150 62.8999 150.7 62.8999C151.7 62.8999 154.9 63.0999 155.7 63.0999C162.1 63.0999 165 59.2999 165 55.5999ZM152.8 38.9999C152.8 38.5999 152.9 38.4999 153.1 38.3999C153.4 38.2999 153.8 38.2999 154.2 38.2999C157.2 38.2999 158.5 41.2999 158.5 43.6999C158.5 45.3999 158 46.5999 157.1 47.3999C156.5 47.8999 155.7 48.0999 154.6 48.0999C153.8 48.0999 153.3 48.0999 153 47.9999C152.9 47.9999 152.8 47.8999 152.8 47.5999V38.9999ZM156.6 61.5999C155.8 61.5999 155 61.5999 154.1 61.1999C153 60.6999 152.9 60.1999 152.9 57.8999V49.6999C152.9 49.4999 153 49.4999 153.1 49.4999C153.6 49.4999 154 49.4999 154.6 49.4999C155.9 49.5999 156.7 49.7999 157.5 50.2999C160.1 52.0999 160.9 54.9999 160.9 57.1999C160.7 60.7999 158.1 61.5999 156.6 61.5999Z" fill="#AA885F"/>
<path fill-rule="evenodd" clip-rule="evenodd" d="M240.9 62.5001C240.5 62.5001 239.8 62.4001 238.8 62.0001C236.9 61.3001 235.4 59.7001 233.9 58.3001C232.6 57.0001 225.8 49.8001 224.6 48.2001C225.8 47.0001 230.9 41.8001 232 40.8001C233.5 39.4001 234.6 38.6001 235.7 38.2001C236.4 38.0001 237.2 37.8001 237.7 37.8001C238 37.8001 238.2 37.7001 238.2 37.5001C238.2 37.3001 238 37.2001 237.6 37.2001C236.5 37.2001 234.6 37.3001 233.6 37.3001C232.7 37.3001 230.8 37.2001 230.1 37.2001C229.7 37.2001 229.5 37.3001 229.5 37.5001C229.5 37.7001 229.6 37.8001 229.9 37.8001C230.2 37.9001 230.4 38.1001 230.4 38.5001C230.4 39.1001 229.6 39.9001 228.7 41.1001C227.7 42.3001 222.7 47.4001 221.5 48.7001H221.3V47.2001C221.3 42.0001 221.3 41.0001 221.4 39.9001C221.5 38.7001 221.7 38.1001 222.7 37.9001C223.1 37.8001 223.3 37.8001 223.7 37.8001C224 37.8001 224.2 37.7001 224.2 37.5001C224.2 37.3001 224 37.2001 223.5 37.2001C222.3 37.2001 220.2 37.3001 219.3 37.3001C218.5 37.3001 216.3 37.2001 214.5 37.2001C214.3 37.2001 214.1 37.2001 213.9 37.3001C213.8 37.3001 213.7 37.3001 213.5 37.3001C211.8 37.3001 210.5 37.4001 210.1 37.4001C209.4 37.4001 207.7 37.3001 205.9 37.3001C205.4 37.3001 205 37.3001 205 37.6001C205 37.8001 205.1 37.9001 205.5 37.9001C206 37.9001 206.8 37.9001 207.3 38.1001C208.1 38.5001 208.4 39.1001 208.5 41.2001L208.8 56.6001H208.6C208 56.1001 203.4 51.1001 201 48.8001C196 43.8001 190.8 38.2001 190.4 37.8001C189.8 37.2001 189.5 36.7001 189.1 36.7001C188.8 36.7001 188.7 37.2001 188.7 37.9001L188.4 58.2001C188.4 61.2001 188 62.5001 187.3 62.5001C186 62.5001 185.6 61.7001 184.4 58.8001C182.2 53.6001 176.7 39.6001 175.9 37.7001C175.6 36.9001 175.4 36.6001 175 36.6001C174.7 36.6001 174.4 37.0001 174 38.0001L165.4 59.6001C164.7 61.3001 164.1 62.5001 162.5 62.7001C162.2 62.7001 162.2 62.8001 161.9 62.8001C161.6 62.8001 161.5 62.9001 161.5 63.1001C161.5 63.4001 161.7 63.4001 162.2 63.4001C164 63.4001 165.4 63.3001 165.8 63.3001C166.9 63.3001 168.3 63.4001 169.4 63.4001C169.8 63.4001 170 63.3001 170 63.1001C170 62.9001 169.9 62.8001 169.5 62.8001H169C167.9 62.8001 167.6 62.4001 167.6 61.7001C167.6 61.3001 167.8 60.5001 168.1 59.6001L170 54.7001C170.1 54.5001 170.1 54.4001 170.3 54.4001H178C178.2 54.4001 178.3 54.5001 178.3 54.6001L181 61.9001C181.2 62.3001 180.9 62.6001 180.7 62.7001C180.4 62.7001 180.2 62.8001 180.2 63.0001C180.2 63.2001 180.6 63.2001 181.2 63.3001C183.9 63.4001 186.5 63.4001 187.7 63.4001C188.5 63.4001 191.6 63.4001 193.9 63.4001C194.4 63.4001 194.7 63.3001 194.7 63.1001C194.7 62.9001 194.5 62.8001 194.1 62.8001C193.5 62.8001 192.9 62.8001 192.3 62.6001C191.6 62.4001 191.2 61.5001 191.1 58.8001L191 44.0001H191.1C191.7 44.7001 195.5 48.9001 199.3 52.7001C202.9 56.2001 207.3 60.7001 209.4 62.8001C209.8 63.2001 210.2 63.6001 210.6 63.6001C210.9 63.6001 211 63.3001 211 62.5001L211.4 40.8001C211.4 38.9001 211.7 38.2001 212.7 37.9001C213.1 37.8001 213.4 37.8001 213.7 37.8001C213.9 37.8001 214 37.8001 214.1 37.7001C214.2 37.7001 214.2 37.7001 214.3 37.7001C214.8 37.7001 215.4 37.7001 215.6 37.8001C216.7 38.0001 217 38.6001 217.1 39.8001C217.2 40.9001 217.2 41.9001 217.2 47.1001V53.1001C217.2 56.3001 217.2 59.0001 217 60.4001C216.9 61.4001 216.7 62.2001 216 62.3001C215.7 62.4001 215.3 62.4001 214.8 62.4001C214.4 62.4001 214.3 62.5001 214.3 62.7001C214.3 62.9001 214.5 63.0001 215 63.0001C216.4 63.0001 218.5 62.9001 219.3 62.9001C220.2 62.9001 222.3 63.0001 224.2 63.0001C224.6 63.0001 224.9 62.9001 224.9 62.7001C224.9 62.5001 224.7 62.4001 224.5 62.4001C224.1 62.4001 223.3 62.3001 222.8 62.3001C221.9 62.2001 221.6 61.4001 221.6 60.4001C221.5 58.9001 221.5 56.2001 221.5 53.1001V50.0001H221.7L222.1 50.5001C222.8 51.5001 229.6 59.4001 231.1 60.8001C232.6 62.1001 233.5 62.9001 235.4 63.0001C236.1 63.1001 236.7 63.1001 237.8 63.1001H240.8C241.5 63.1001 241.6 63.0001 241.6 62.8001C241.3 62.5001 241.1 62.5001 240.9 62.5001ZM177.5 52.5001H171.2C171.1 52.5001 171 52.4001 171.1 52.3001L174.3 43.9001C174.3 43.8001 174.4 43.6001 174.5 43.6001C174.6 43.6001 174.6 43.8001 174.7 43.9001L177.8 52.4001C177.7 52.4001 177.7 52.5001 177.5 52.5001Z" fill="#AA885F"/>
<path fill-rule="evenodd" clip-rule="evenodd" d="M99.8001 56.6001C99.5001 56.6001 99.5001 56.7001 99.4001 57.3001C99.3001 57.9001 98.8001 58.9001 98.2001 59.6001C96.8001 61.2001 95.0001 61.5001 91.9001 61.5001C87.3001 61.5001 81.1001 57.5001 81.1001 49.3001C81.1001 46.0001 81.8001 42.7001 84.2001 40.4001C85.7001 39.0001 87.7001 38.3001 90.6001 38.3001C93.7001 38.3001 96.4001 39.2001 97.5001 40.4001C98.4001 41.3001 98.8001 42.5001 98.8001 43.5001C98.8001 44.0001 98.9001 44.3001 99.1001 44.3001C99.4001 44.3001 99.5001 44.0001 99.5001 43.5001C99.6001 42.8001 99.5001 40.9001 99.6001 39.8001C99.7001 38.6001 99.8001 38.2001 99.8001 37.9001C99.8001 37.7001 99.7001 37.5001 99.3001 37.5001C98.3001 37.4001 97.2001 37.1001 95.9001 36.9001C94.3001 36.7001 93.1001 36.6001 90.9001 36.6001C85.8001 36.6001 82.6001 38.0001 80.1001 40.2001C76.8001 43.2001 76.1001 47.2001 76.1001 49.6001C76.1001 52.9001 77.0001 56.8001 80.3001 59.7001C83.4001 62.4001 87.3001 63.4001 92.0001 63.4001C94.2001 63.4001 96.8001 63.2001 98.2001 62.6001C98.8001 62.4001 98.9001 62.2001 99.1001 61.6001C99.4001 60.4001 99.9001 57.5001 99.9001 57.1001C100.1 56.8001 100 56.6001 99.8001 56.6001Z" fill="#AA885F"/>
<path fill-rule="evenodd" clip-rule="evenodd" d="M129.2 48.2001C131.1 46.7001 132.7 45.0001 132.7 42.2001C132.7 40.4001 131.6 37.1001 125.4 37.1001C124.2 37.1001 122.9 37.2001 121.2 37.2001C120.5 37.2001 118.4 37.1001 116.5 37.1001C116 37.1001 115.7 37.2001 115.7 37.4001C115.7 37.6001 115.9 37.7001 116.3 37.7001C116.8 37.7001 117.4 37.7001 117.6 37.8001C118.7 38.0001 119 38.6001 119.1 39.8001C119.2 40.9001 119.2 41.9001 119.2 47.1001V53.1001C119.2 56.2001 119.2 59.0001 119 60.4001C118.9 61.4001 118.7 62.1001 118 62.3001C117.7 62.4001 117.3 62.4001 116.8 62.4001C116.4 62.4001 116.3 62.5001 116.3 62.7001C116.3 62.9001 116.5 63.0001 117 63.0001C117.7 63.0001 118.6 62.9001 119.4 62.9001C120.2 62.9001 121 62.9001 121.4 62.9001C121.9 62.9001 122.9 62.9001 124 63.0001C125 63.0001 126 63.1001 126.4 63.1001C132.7 63.1001 135.5 59.3001 135.5 55.6001C135.5 51.6001 132 49.1001 129.2 48.2001ZM123.4 39.1001C123.4 38.7001 123.5 38.6001 123.7 38.5001C124 38.4001 124.3 38.4001 124.8 38.4001C127.7 38.4001 129.1 41.4001 129.1 43.7001C129.1 45.4001 128.6 46.6001 127.7 47.3001C127.1 47.8001 126.4 47.9001 125.2 47.9001C124.4 47.9001 123.9 47.9001 123.6 47.8001C123.5 47.8001 123.4 47.7001 123.4 47.4001V39.1001ZM127.1 61.5001C126.3 61.5001 125.5 61.5001 124.6 61.1001C123.5 60.7001 123.4 60.1001 123.4 57.8001V49.7001C123.4 49.5001 123.5 49.5001 123.6 49.5001C124.1 49.5001 124.5 49.5001 125.1 49.5001C126.4 49.6001 127.2 49.8001 127.9 50.3001C130.5 52.1001 131.2 55.0001 131.2 57.1001C131.3 60.7001 128.7 61.5001 127.1 61.5001Z" fill="#AA885F"/>
<path fill-rule="evenodd" clip-rule="evenodd" d="M113.7 62.3001C113.2 62.3001 112.4 62.2001 112 62.2001C111 62.1001 110.7 61.4001 110.6 60.5001C110.5 59.0001 110.5 56.3001 110.5 53.0001V47.0001C110.5 41.8001 110.5 40.8001 110.6 39.7001C110.7 38.5001 110.9 37.9001 111.9 37.8001C112.3 37.7001 112.6 37.7001 112.9 37.7001C113.2 37.7001 113.4 37.6001 113.4 37.4001C113.4 37.2001 113.1 37.1001 112.7 37.1001C111.4 37.1001 109.4 37.2001 108.5 37.2001C107.5 37.2001 105.4 37.1001 104.1 37.1001C103.6 37.1001 103.3 37.2001 103.3 37.4001C103.3 37.7001 103.5 37.7001 103.9 37.7001C104.3 37.7001 104.8 37.7001 105.1 37.8001C105.9 38.0001 106.2 38.6001 106.3 39.7001C106.4 40.8001 106.4 41.8001 106.4 47.0001V53.0001C106.4 56.3001 106.4 59.0001 106.2 60.5001C106.1 61.5001 105.9 62.1001 105.2 62.2001C104.9 62.3001 104.5 62.3001 104 62.3001C103.6 62.3001 103.5 62.4001 103.5 62.6001C103.5 62.8001 103.7 62.9001 104.2 62.9001C105.6 62.9001 107.7 62.8001 108.5 62.8001C109.4 62.8001 111.6 62.9001 113.8 62.9001C114.2 62.9001 114.5 62.8001 114.5 62.6001C114.2 62.4001 114.1 62.3001 113.7 62.3001Z" fill="#AA885F"/>
</g>
<defs>
<clipPath id="clip0">
<rect width="270" height="100" fill="white"/>
</clipPath>
</defs>
</svg>
