<svg width="270" height="100" viewBox="0 0 270 100" fill="none" xmlns="http://www.w3.org/2000/svg">
<rect width="270" height="100" fill="#101010"/>
<path d="M104.8 42.5C105 42.5 105.2 42.5 105.4 42.5C105.9 42.5 106.1 42.2999 106.2 42.0999C106.8 40.2999 97.7999 32.9 97.6999 32.9C93.7999 29.8 87.2999 26.4 86.1999 26.2C86.0999 26.2 85.9999 26.2 85.9999 26.2C85.8999 26.2 85.7999 26.1999 85.7999 26.2999C85.6999 26.4999 87.2999 28.3 88.2999 29.6C92.1999 34.1 98.6999 42 104.8 42.5Z" fill="#AA885F"/>
<path d="M102.4 59C102.4 58.9 102.3 58.6999 102 58.5999C101.9 58.4999 101.7 58.3999 101.5 58.2999C101.3 58.2999 101.1 58.2 100.9 58.2C98.2003 58.2 93.0003 60.2999 87.1003 65.5999C87.1003 65.5999 86.5003 66.1999 86.8003 66.1999C87.5003 66.2999 94.5003 64.1 96.7003 63C103.3 59.9 102.5 59.3 102.4 59Z" fill="#AA885F"/>
<path d="M102.2 51C102.3 51 103 50.7 103.1 50.3C103.1 50.2 103.1 50 103 49.9C102.8 49.7 102 48.8 98.2001 48.4C95.6001 48.1 92.6001 48 89.5001 48C81.3001 48 72.1001 50 71.7001 50.5C71.2001 51.1 80.5001 51.9 84.0001 52C85.8001 52.1 89.6001 52.3 91.5001 52.3C96.6001 52.3 100 51.9 102.2 51Z" fill="#AA885F"/>
<path d="M124.9 36.0998C125.2 36.2998 130.7 30.7998 132.4 27.7998C135.2 22.6998 138.1 17.7998 137.7 17.7998C136.3 18.4998 127.2 28.2998 125.3 33.7998C125 34.8998 124.8 35.8998 124.9 36.0998Z" fill="#AA885F"/>
<path d="M116.6 64.5C116.5 64.5 116.5 64.5 116.4 64.5C116.3 64.5 116.2 64.5 116.1 64.6L116 64.7C113.5 68.2 114.1 80.9 115.5 89.8C115.6 90.6 116 91.8 116.1 91.6C116.8 91.1 117.5 83.3 117.9 78.5C118.1 76.2 118.2 73.4 118 70.3C117.6 65 116.8 64.6 116.6 64.5Z" fill="#AA885F"/>
<path d="M118.2 36.7999C118.3 36.8999 118.3 36.8999 118.4 36.8999C118.7 36.9999 119 36.7999 119.3 36.2999C121.3 33.5999 123.8 24.7999 123 14.2999C123 13.9999 123 13.8999 122.8 13.8999C122.7 13.8999 122.7 13.9999 122.6 14.0999C121.7 15.0999 117.9 25.4999 117.9 33.0999C117.8 36.4999 118.1 36.6999 118.2 36.7999Z" fill="#AA885F"/>
<path d="M106.3 49.7998C106.3 55.3998 109.7 59.0998 116.2 59.0998C120.6 59.0998 124.9 57.2998 125.4 53.0998H122C121.7 53.9998 121.4 54.6998 120.7 55.2998C120 55.9998 119 56.4998 117.8 56.6998C117.2 56.7998 116.8 56.8998 116.2 56.8998C111.9 56.8998 109.6 53.8998 109.6 49.7998C109.6 45.7998 111.7 42.4998 116.1 42.4998C117.6 42.4998 118.7 42.7998 119.7 43.3998C120.8 43.9998 121.6 44.9998 121.9 45.4998L124.8 44.0998C123 41.3998 120.2 40.2998 116.6 40.2998C110.3 40.3998 106.3 43.9998 106.3 49.7998Z" fill="#AA885F"/>
<path d="M102 25.2999C105.8 34.2999 109.2 36.0999 109.3 36.1999L109.4 36.2999L109.5 36.1999C109.5 36.1999 110.4 35.6999 110.4 34.8999C110.4 33.9999 109.4 29.6999 104.5 20.8999C98.5998 10.2999 97.4998 9.0999 97.0998 8.6999C96.9998 8.5999 96.7998 8.3999 96.6998 8.3999C96.3998 8.6999 96.6998 10.1999 97.3998 12.8999C98.0998 15.0999 99.2998 18.9999 102 25.2999Z" fill="#AA885F"/>
<path d="M109.3 60.7998C109.2 60.7998 109.2 60.7998 109.3 60.7998C108.8 60.7998 106.6 61.4998 104.2 64.1998C99.0999 69.9998 97.5999 74.1998 94.9999 78.4998C93.4999 80.8998 91.1999 85.2998 91.3999 85.8998C91.5999 86.4998 96.6999 81.5998 100.7 76.8998C103.5 73.4998 108.1 67.2998 109.8 62.2998C109.8 62.1998 110 61.2998 109.6 60.8998C109.4 60.8998 109.3 60.7998 109.3 60.7998Z" fill="#AA885F"/>
<path d="M181.9 39.8999H179.2V42.6999H181.9V39.8999Z" fill="#AA885F"/>
<path d="M176.4 55.6999V39.8999H176.3L173.7 41.0999V47.1999C172.3 45.7999 170.5 45.0999 168.1 45.0999C163.9 45.0999 160.7 48.1999 160.7 52.1999C160.7 56.2999 163.9 59.2999 168.1 59.2999C170.4 59.2999 172.4 58.4999 173.7 57.0999C173.7 57.6999 173.8 58.1999 173.8 58.6999V58.7999H176.5V58.6999C176.5 57.5999 176.4 56.5999 176.4 55.6999ZM168.6 57.3999C165.5 57.3999 163.5 55.3999 163.5 52.1999C163.5 49.0999 165.5 46.9999 168.6 46.9999C171.7 46.9999 173.7 48.9999 173.7 52.1999C173.7 55.3999 171.7 57.3999 168.6 57.3999Z" fill="#AA885F"/>
<path d="M125.3 63.4998C123.3 61.3998 123 61.2998 122.8 61.2998C122.7 61.2998 122.6 61.3998 122.5 61.4998C122.4 61.5998 122.2 61.7998 122.4 62.3998C123.3 66.5998 129.6 75.7998 132.4 77.9998C132.4 77.9998 133.8 79.1998 133.9 78.9998C134.1 78.2998 132.4 74.6998 131.5 72.7998C130.3 70.4998 128 66.3998 125.3 63.4998Z" fill="#AA885F"/>
<path d="M194.6 51.5L190.3 50.7C188.4 50.4 187.6 49.8 187.6 48.9C187.6 47.8 189.1 47 191.4 47C193.4 47 194.5 47.5 195 48.6V48.7L197.4 47.6V47.5C196.4 45.5 193.5 45 191.3 45C187.2 45 184.9 46.5 184.9 49.2C184.9 52.2 188.3 52.8 191.3 53.2C193.5 53.6 195.5 53.9 195.5 55.1C195.5 56.5 194 57.3 191.3 57.3C188.8 57.3 187.5 56.6 187.2 55.1V55L184.6 56.2V56.3C185.4 58.2 187.7 59.3 191 59.3C195.9 59.3 198.3 57.9 198.3 55C198.3 53.1 197.2 52 194.6 51.5Z" fill="#AA885F"/>
<path d="M179.2 46.8999V58.8999H182V45.5999H181.8L179.2 46.8999Z" fill="#AA885F"/>
<path d="M151.4 39.7998C148.1 39.7998 146.6 41.3998 146.6 44.9998V45.6998H143.2V47.5998H146.6V58.8998H149.3V47.5998H153.5V45.6998H149.3V44.5998C149.3 42.4998 150.1 41.6998 152 41.6998C152.7 41.6998 153.4 41.7998 153.7 41.8998H153.8V39.8998H153.7C153.1 39.7998 152.2 39.7998 151.4 39.7998Z" fill="#AA885F"/>
<path d="M135 45.0999C129.8 45.0999 126.7 47.6999 126.7 52.1999C126.7 56.7999 129.6 59.2999 135 59.2999C140.3 59.2999 143.3 56.7999 143.3 52.1999C143.3 47.6999 140.3 45.0999 135 45.0999ZM135 57.3999C131.7 57.3999 129.6 55.3999 129.6 52.1999C129.6 49.0999 131.7 46.9999 135 46.9999C138.3 46.9999 140.4 48.9999 140.4 52.1999C140.4 55.3999 138.3 57.3999 135 57.3999Z" fill="#AA885F"/>
<path d="M155.8 58.8999H158.5V45.5999L155.8 46.8999V58.8999Z" fill="#AA885F"/>
<path d="M158.5 39.8999H155.8V42.6999H158.5V39.8999Z" fill="#AA885F"/>
</svg>
