<svg width="270" height="100" viewBox="0 0 270 100" fill="none" xmlns="http://www.w3.org/2000/svg">
<rect width="270" height="100" fill="#101010"/>
<path d="M174.432 61.2076C180.351 58.7558 183.162 51.97 180.71 46.051C178.258 40.132 171.472 37.3213 165.553 39.7731C159.634 42.2248 156.823 49.0107 159.275 54.9296C161.727 60.8486 168.513 63.6593 174.432 61.2076Z" fill="#AA885F"/>
<path d="M187.7 34.6001H179.4L190.1 51.4001L174.6 67.6001H182.9L198.4 51.4001L187.7 34.6001Z" fill="#AA885F"/>
<path d="M165.2 34.6001H157L141.5 51.4001L152.4 67.6001H160.6L149.8 51.4001L165.2 34.6001Z" fill="#AA885F"/>
<path d="M138.3 26L132.5 67.6H139.2L145 26H138.3Z" fill="#AA885F"/>
<path d="M120.6 34C117 34 114 35.2 112.3 36.1L113.7 26H107L101.2 67.6H108L111.3 43.8C112.2 43 114.9 40.7 118.8 40.7C123.6 40.7 125.3 43.5 124.4 49.7L121.9 67.6H128.7L131.3 49.3C131.1 49.3 134.1 34 120.6 34Z" fill="#AA885F"/>
<path d="M96.5999 26L95.3999 34.9C94.5999 34.9 92.0999 34.9 87.4999 34.9C80.8999 34.9 73.7999 39.7 72.7999 46.8L71.7999 53.8C70.7999 60.6 73.6999 68 83.0999 68C88.0999 68 90.1999 66.4 90.9999 65.6L90.7999 67.6H97.5999L103.4 26H96.5999ZM92.2999 57.1C91.0999 58.9 88.5999 61.3 83.7999 61.3C77.1999 61.3 78.4999 53.8 78.4999 53.8L79.6999 46.8C79.6999 46.8 81.1999 41.4 87.4999 41.4C92.0999 41.4 93.9999 41.4 94.6999 41.4L92.2999 57.1Z" fill="#AA885F"/>
</svg>
