<svg width="270" height="100" viewBox="0 0 270 100" fill="none" xmlns="http://www.w3.org/2000/svg">
<rect width="270" height="100" fill="#101010"/>
<path d="M62.6255 25.176C66.2655 25.176 68.9908 26.0067 70.8015 27.668C72.6122 29.3107 73.5175 31.7093 73.5175 34.864C73.5175 36.8987 73.0695 38.6813 72.1735 40.212C71.2962 41.724 70.0175 42.9 68.3375 43.74C66.6762 44.58 64.6882 45 62.3735 45L60.6375 44.972C59.5548 44.9347 58.7708 44.916 58.2855 44.916C56.3628 44.916 54.9255 44.944 53.9735 45V44.44C54.5895 44.4027 55.0375 44.328 55.3175 44.216C55.6162 44.104 55.8122 43.8893 55.9055 43.572C56.0175 43.2547 56.0735 42.7413 56.0735 42.032V28.144C56.0735 27.4347 56.0175 26.9213 55.9055 26.604C55.8122 26.2867 55.6162 26.072 55.3175 25.96C55.0375 25.848 54.5895 25.7733 53.9735 25.736V25.176C54.7575 25.232 55.8868 25.26 57.3615 25.26H58.2295L59.3495 25.232C60.8802 25.1947 61.9722 25.176 62.6255 25.176ZM62.5975 25.68C62.0188 25.68 61.5802 25.7453 61.2815 25.876C61.0015 26.0067 60.8055 26.24 60.6935 26.576C60.5815 26.912 60.5255 27.416 60.5255 28.088V42.088C60.5255 42.76 60.5815 43.264 60.6935 43.6C60.8055 43.936 61.0015 44.1693 61.2815 44.3C61.5802 44.4307 62.0282 44.496 62.6255 44.496C64.8842 44.496 66.4895 43.712 67.4415 42.144C68.3935 40.5573 68.8695 38.168 68.8695 34.976C68.8695 31.784 68.3748 29.4413 67.3855 27.948C66.4148 26.436 64.8188 25.68 62.5975 25.68ZM85.0638 30.132C85.9038 30.132 86.5384 30.384 86.9678 30.888C87.3971 31.392 87.6118 31.9987 87.6118 32.708C87.6118 33.3987 87.4064 33.968 86.9958 34.416C86.6038 34.8453 86.0811 35.06 85.4278 35.06C84.7931 35.06 84.2891 34.9013 83.9158 34.584C83.5424 34.248 83.3558 33.8093 83.3558 33.268C83.3558 32.372 83.7664 31.644 84.5878 31.084C84.5131 31.0653 84.4011 31.056 84.2518 31.056C84.0651 31.056 83.9158 31.0747 83.8038 31.112C83.0944 31.224 82.4878 31.6533 81.9838 32.4C81.4984 33.1467 81.2558 33.912 81.2558 34.696V42.116C81.2558 42.9747 81.4611 43.572 81.8718 43.908C82.3011 44.244 82.9731 44.412 83.8878 44.412V45C83.6264 45 83.4118 44.9907 83.2438 44.972C81.3398 44.916 80.0704 44.888 79.4358 44.888C78.9318 44.888 77.7838 44.916 75.9918 44.972C75.8424 44.9907 75.6558 45 75.4318 45V44.412C76.1038 44.412 76.5704 44.272 76.8318 43.992C77.0931 43.6933 77.2238 43.1613 77.2238 42.396V33.576C77.2238 32.7173 77.0931 32.092 76.8318 31.7C76.5704 31.308 76.1038 31.112 75.4318 31.112V30.524C76.0291 30.58 76.6078 30.608 77.1678 30.608C78.8291 30.608 80.1918 30.4773 81.2558 30.216V32.82C81.6104 32.0173 82.1238 31.3733 82.7958 30.888C83.4678 30.384 84.2238 30.132 85.0638 30.132ZM90.5163 41.08C91.2443 41.08 91.823 41.276 92.2523 41.668C92.6817 42.0413 92.8963 42.564 92.8963 43.236C92.8963 43.908 92.6817 44.44 92.2523 44.832C91.823 45.2053 91.2443 45.392 90.5163 45.392C89.7883 45.392 89.2097 45.2053 88.7803 44.832C88.351 44.44 88.1363 43.908 88.1363 43.236C88.1363 42.564 88.351 42.0413 88.7803 41.668C89.2097 41.276 89.7883 41.08 90.5163 41.08ZM120.222 25.736C119.606 25.8293 119.149 25.988 118.85 26.212C118.57 26.436 118.374 26.7907 118.262 27.276C118.169 27.7613 118.122 28.48 118.122 29.432V45.056L117.45 45.028L116.694 45.056L104.542 29.656V40.408C104.542 41.5093 104.598 42.3213 104.71 42.844C104.822 43.348 105.065 43.7213 105.438 43.964C105.812 44.188 106.418 44.3467 107.258 44.44V45C106.53 44.944 105.522 44.916 104.234 44.916C103.208 44.916 102.396 44.944 101.798 45V44.44C102.414 44.3467 102.862 44.188 103.142 43.964C103.441 43.74 103.637 43.3853 103.73 42.9C103.842 42.4147 103.898 41.696 103.898 40.744V28.144C103.898 27.4347 103.842 26.9213 103.73 26.604C103.637 26.2867 103.441 26.072 103.142 25.96C102.862 25.848 102.414 25.7733 101.798 25.736V25.176C102.396 25.232 103.208 25.26 104.234 25.26C105.168 25.26 105.97 25.232 106.642 25.176L117.478 38.532V29.768C117.478 28.6667 117.422 27.864 117.31 27.36C117.198 26.8373 116.956 26.464 116.582 26.24C116.209 25.9973 115.602 25.8293 114.762 25.736V25.176C115.49 25.232 116.498 25.26 117.786 25.26C118.832 25.26 119.644 25.232 120.222 25.176V25.736ZM129.383 43.096C130.913 43.096 132.145 42.3493 133.079 40.856L133.583 41.024C133.209 42.2373 132.537 43.2733 131.567 44.132C130.615 44.972 129.42 45.392 127.983 45.392C126.004 45.392 124.427 44.7667 123.251 43.516C122.093 42.2467 121.515 40.38 121.515 37.916C121.515 35.396 122.14 33.4733 123.391 32.148C124.641 30.804 126.303 30.132 128.375 30.132C131.884 30.132 133.639 32.204 133.639 36.348H125.771C125.752 36.628 125.743 37.0667 125.743 37.664C125.743 38.896 125.911 39.9227 126.247 40.744C126.601 41.5653 127.049 42.1627 127.591 42.536C128.151 42.9093 128.748 43.096 129.383 43.096ZM128.207 30.72C127.535 30.72 126.975 31.14 126.527 31.98C126.097 32.8013 125.827 34.08 125.715 35.816H130.111C130.148 34.3413 129.999 33.128 129.663 32.176C129.345 31.2053 128.86 30.72 128.207 30.72ZM131.259 22.124C131.595 22.3667 131.763 22.7213 131.763 23.188C131.763 23.58 131.623 23.9627 131.343 24.336C131.137 24.5787 130.876 24.8307 130.559 25.092C130.26 25.3347 129.933 25.5867 129.579 25.848C128.459 26.632 127.469 27.4253 126.611 28.228L126.303 27.976C126.807 27.0613 127.329 25.9133 127.871 24.532C128.113 23.9533 128.3 23.524 128.431 23.244C128.58 22.9453 128.757 22.6747 128.963 22.432C129.317 21.984 129.756 21.76 130.279 21.76C130.671 21.76 130.997 21.8813 131.259 22.124ZM157.608 42.396C157.608 43.1613 157.738 43.6933 158 43.992C158.28 44.272 158.746 44.412 159.4 44.412V45C157.533 44.9253 156.301 44.888 155.704 44.888C155.181 44.888 154.024 44.9253 152.232 45V44.412C152.736 44.412 153.081 44.272 153.268 43.992C153.473 43.712 153.576 43.18 153.576 42.396V33.688C153.576 32.904 153.454 32.3253 153.212 31.952C152.988 31.56 152.549 31.364 151.896 31.364C151.205 31.364 150.598 31.6533 150.076 32.232C149.572 32.8107 149.273 33.52 149.18 34.36V34.864V42.396C149.18 43.1613 149.292 43.6933 149.516 43.992C149.758 44.272 150.188 44.412 150.804 44.412V45C149.012 44.9253 147.836 44.888 147.276 44.888C146.753 44.888 145.596 44.9253 143.804 45V44.412C144.308 44.412 144.653 44.272 144.84 43.992C145.045 43.6933 145.148 43.1613 145.148 42.396V33.688C145.148 32.904 145.045 32.3253 144.84 31.952C144.634 31.56 144.233 31.364 143.636 31.364C142.889 31.364 142.245 31.6813 141.704 32.316C141.181 32.932 140.92 33.6973 140.92 34.612V42.396C140.92 43.1613 141.013 43.6933 141.2 43.992C141.405 44.272 141.76 44.412 142.264 44.412V45C140.621 44.9253 139.52 44.888 138.96 44.888C138.4 44.888 137.112 44.9253 135.096 45V44.412C135.768 44.412 136.234 44.272 136.496 43.992C136.757 43.6933 136.888 43.1613 136.888 42.396V33.576C136.888 32.7173 136.757 32.092 136.496 31.7C136.234 31.308 135.768 31.112 135.096 31.112V30.524C135.693 30.58 136.272 30.608 136.832 30.608C138.493 30.608 139.856 30.4773 140.92 30.216V32.736C141.741 31 143.188 30.132 145.26 30.132C146.678 30.132 147.705 30.496 148.34 31.224C148.694 31.5973 148.928 32.1573 149.04 32.904C149.525 31.896 150.16 31.1867 150.944 30.776C151.728 30.3467 152.642 30.132 153.688 30.132C155.106 30.132 156.133 30.496 156.768 31.224C157.066 31.56 157.281 32.0173 157.412 32.596C157.542 33.1747 157.608 33.9307 157.608 34.864V42.396ZM168.675 43.096C170.206 43.096 171.438 42.3493 172.371 40.856L172.875 41.024C172.502 42.2373 171.83 43.2733 170.859 44.132C169.907 44.972 168.713 45.392 167.275 45.392C165.297 45.392 163.719 44.7667 162.543 43.516C161.386 42.2467 160.807 40.38 160.807 37.916C160.807 35.396 161.433 33.4733 162.683 32.148C163.934 30.804 165.595 30.132 167.667 30.132C171.177 30.132 172.931 32.204 172.931 36.348H165.063C165.045 36.628 165.035 37.0667 165.035 37.664C165.035 38.896 165.203 39.9227 165.539 40.744C165.894 41.5653 166.342 42.1627 166.883 42.536C167.443 42.9093 168.041 43.096 168.675 43.096ZM167.499 30.72C166.827 30.72 166.267 31.14 165.819 31.98C165.39 32.8013 165.119 34.08 165.007 35.816H169.403C169.441 34.3413 169.291 33.128 168.955 32.176C168.638 31.2053 168.153 30.72 167.499 30.72ZM180.237 30.524H183.541V31.084H180.237V42.396C180.237 42.956 180.33 43.3573 180.517 43.6C180.722 43.824 181.04 43.936 181.469 43.936C182.272 43.936 182.906 43.376 183.373 42.256L183.849 42.508C183.14 44.4307 181.861 45.392 180.013 45.392C178.781 45.392 177.848 45.0747 177.213 44.44C176.821 44.048 176.55 43.5627 176.401 42.984C176.27 42.3867 176.205 41.5747 176.205 40.548V31.084H173.853V30.524H176.205V26.828C177.754 26.828 179.098 26.5293 180.237 25.932V30.524ZM190.081 32.736C190.921 31 192.442 30.132 194.645 30.132C196.101 30.132 197.127 30.496 197.725 31.224C198.042 31.5787 198.266 32.0453 198.397 32.624C198.546 33.184 198.621 33.9307 198.621 34.864V42.396C198.621 43.1613 198.751 43.6933 199.013 43.992C199.274 44.272 199.741 44.412 200.413 44.412V45C198.471 44.9253 197.239 44.888 196.717 44.888C196.082 44.888 194.869 44.9253 193.077 45V44.412C193.637 44.412 194.029 44.272 194.253 43.992C194.477 43.6933 194.589 43.1613 194.589 42.396V33.688C194.589 32.9227 194.458 32.344 194.197 31.952C193.954 31.56 193.506 31.364 192.853 31.364C192.069 31.364 191.406 31.672 190.865 32.288C190.342 32.8853 190.081 33.6507 190.081 34.584V42.396C190.081 43.1613 190.193 43.6933 190.417 43.992C190.641 44.272 191.033 44.412 191.593 44.412V45C189.801 44.9253 188.643 44.888 188.121 44.888C187.486 44.888 186.198 44.9253 184.257 45V44.412C184.91 44.412 185.367 44.272 185.629 43.992C185.909 43.6933 186.049 43.1613 186.049 42.396V26.464C186.049 25.6053 185.909 24.98 185.629 24.588C185.367 24.196 184.91 24 184.257 24V23.412C184.854 23.468 185.433 23.496 185.993 23.496C187.617 23.496 188.979 23.3653 190.081 23.104V32.736ZM212.667 30.608C213.6 30.608 214.319 30.58 214.823 30.524V31.084C214.431 31.196 214.076 31.4387 213.759 31.812C213.46 32.1667 213.171 32.7267 212.891 33.492L207.879 47.576C207.506 48.5467 207.095 49.2093 206.647 49.564C206.106 50.0307 205.294 50.264 204.211 50.264C203.427 50.264 202.718 50.068 202.083 49.676C201.467 49.3027 201.159 48.752 201.159 48.024C201.159 47.4453 201.364 46.9787 201.775 46.624C202.186 46.288 202.727 46.12 203.399 46.12C204.034 46.12 204.538 46.2693 204.911 46.568C205.303 46.8853 205.499 47.324 205.499 47.884C205.499 48.276 205.378 48.6307 205.135 48.948C204.892 49.284 204.547 49.536 204.099 49.704C204.23 49.7227 204.444 49.732 204.743 49.732C205.9 49.732 206.75 48.9947 207.291 47.52L207.739 46.176L201.803 32.68C201.504 32.0453 201.215 31.6253 200.935 31.42C200.655 31.2147 200.366 31.112 200.067 31.112V30.524C201.299 30.636 202.578 30.692 203.903 30.692C205.004 30.692 206.302 30.636 207.795 30.524V31.112C207.198 31.112 206.75 31.1587 206.451 31.252C206.171 31.3267 206.031 31.5413 206.031 31.896C206.031 32.1013 206.096 32.3627 206.227 32.68L209.643 40.94L211.575 35.564C211.874 34.6867 212.023 33.94 212.023 33.324C212.023 31.9613 211.332 31.2147 209.951 31.084V30.524C210.828 30.58 211.734 30.608 212.667 30.608ZM59.6876 71.216C59.0876 71.216 58.5236 71.132 57.9956 70.964C57.4796 70.784 57.0296 70.496 56.6456 70.1C56.2736 69.692 55.9796 69.164 55.7636 68.516C55.5476 67.868 55.4396 67.07 55.4396 66.122V59.192H56.9336V66.158C56.9336 66.866 57.0056 67.46 57.1496 67.94C57.2936 68.42 57.4856 68.804 57.7256 69.092C57.9776 69.38 58.2716 69.59 58.6076 69.722C58.9436 69.842 59.3036 69.902 59.6876 69.902C60.0836 69.902 60.4496 69.842 60.7856 69.722C61.1216 69.59 61.4156 69.38 61.6676 69.092C61.9196 68.804 62.1176 68.42 62.2616 67.94C62.4056 67.46 62.4776 66.866 62.4776 66.158V59.192H63.9176V66.122C63.9176 67.07 63.8096 67.868 63.5936 68.516C63.3776 69.164 63.0776 69.692 62.6936 70.1C62.3216 70.496 61.8776 70.784 61.3616 70.964C60.8456 71.132 60.2876 71.216 59.6876 71.216ZM57.8156 58.13C57.5636 58.13 57.3536 58.046 57.1856 57.878C57.0176 57.71 56.9336 57.5 56.9336 57.248C56.9336 56.984 57.0176 56.774 57.1856 56.618C57.3536 56.45 57.5636 56.366 57.8156 56.366C58.0796 56.366 58.2896 56.45 58.4456 56.618C58.6136 56.774 58.6976 56.984 58.6976 57.248C58.6976 57.5 58.6136 57.71 58.4456 57.878C58.2896 58.046 58.0796 58.13 57.8156 58.13ZM61.5236 58.13C61.2596 58.13 61.0436 58.046 60.8756 57.878C60.7196 57.71 60.6416 57.5 60.6416 57.248C60.6416 56.984 60.7196 56.774 60.8756 56.618C61.0436 56.45 61.2596 56.366 61.5236 56.366C61.7756 56.366 61.9856 56.45 62.1536 56.618C62.3216 56.774 62.4056 56.984 62.4056 57.248C62.4056 57.5 62.3216 57.71 62.1536 57.878C61.9856 58.046 61.7756 58.13 61.5236 58.13ZM75.3392 71.216C74.5592 71.216 73.8392 71.078 73.1792 70.802C72.5312 70.526 71.9732 70.13 71.5052 69.614C71.0372 69.086 70.6712 68.444 70.4072 67.688C70.1432 66.92 70.0112 66.056 70.0112 65.096C70.0112 64.148 70.1432 63.296 70.4072 62.54C70.6832 61.784 71.0612 61.142 71.5412 60.614C72.0212 60.086 72.5912 59.684 73.2512 59.408C73.9232 59.12 74.6492 58.976 75.4292 58.976C75.8372 58.976 76.2092 59.018 76.5452 59.102C76.8932 59.186 77.2052 59.3 77.4812 59.444C77.7692 59.576 78.0212 59.732 78.2372 59.912C78.4652 60.08 78.6632 60.254 78.8312 60.434L78.0032 61.406C77.7032 61.094 77.3552 60.83 76.9592 60.614C76.5632 60.398 76.0652 60.29 75.4652 60.29C74.8652 60.29 74.3252 60.404 73.8452 60.632C73.3652 60.848 72.9572 61.166 72.6212 61.586C72.2852 61.994 72.0212 62.492 71.8292 63.08C71.6492 63.668 71.5592 64.328 71.5592 65.06C71.5592 65.804 71.6432 66.476 71.8112 67.076C71.9912 67.664 72.2432 68.168 72.5672 68.588C72.9032 69.008 73.3112 69.332 73.7912 69.56C74.2832 69.788 74.8472 69.902 75.4832 69.902C75.9032 69.902 76.2992 69.842 76.6712 69.722C77.0552 69.59 77.3672 69.416 77.6072 69.2V66.122H75.1052V64.88H78.9752V69.848C78.5912 70.244 78.0872 70.574 77.4632 70.838C76.8392 71.09 76.1312 71.216 75.3392 71.216ZM87.3126 71V66.428L83.7666 59.192H85.3686L86.8986 62.522C87.0906 62.954 87.2766 63.38 87.4566 63.8C87.6366 64.22 87.8286 64.652 88.0326 65.096H88.1046C88.3086 64.652 88.5126 64.22 88.7166 63.8C88.9206 63.38 89.1126 62.954 89.2926 62.522L90.8046 59.192H92.3706L88.8246 66.428V71H87.3126ZM99.7251 71L95.9451 59.192H97.5471L99.4371 65.564C99.6531 66.272 99.8391 66.926 99.9951 67.526C100.163 68.126 100.361 68.774 100.589 69.47H100.661C100.877 68.774 101.069 68.126 101.237 67.526C101.405 66.926 101.591 66.272 101.795 65.564L103.685 59.192H105.215L101.471 71H99.7251ZM110.429 71V59.192H117.233V60.452H111.923V64.16H116.405V65.438H111.923V69.722H117.413V71H110.429ZM113.615 58.454L112.949 57.698L115.505 55.394L116.351 56.384L113.615 58.454ZM123.521 71V59.192H126.473C128.297 59.192 129.683 59.696 130.631 60.704C131.579 61.712 132.053 63.158 132.053 65.042C132.053 65.978 131.933 66.818 131.693 67.562C131.453 68.294 131.099 68.918 130.631 69.434C130.163 69.938 129.587 70.328 128.903 70.604C128.219 70.868 127.433 71 126.545 71H123.521ZM125.015 69.776H126.365C127.745 69.776 128.777 69.362 129.461 68.534C130.157 67.706 130.505 66.542 130.505 65.042C130.505 63.542 130.157 62.396 129.461 61.604C128.777 60.812 127.745 60.416 126.365 60.416H125.015V69.776ZM138.195 71V59.192H139.689V71H138.195ZM153.727 71V59.192H155.221V71H153.727ZM162.056 71V59.192H165.746C166.346 59.192 166.898 59.252 167.402 59.372C167.918 59.48 168.356 59.666 168.716 59.93C169.088 60.194 169.376 60.536 169.58 60.956C169.784 61.376 169.886 61.892 169.886 62.504C169.886 63.428 169.646 64.166 169.166 64.718C168.686 65.27 168.038 65.648 167.222 65.852L170.228 71H168.536L165.692 66.014H163.55V71H162.056ZM163.55 64.79H165.53C166.454 64.79 167.162 64.604 167.654 64.232C168.146 63.848 168.392 63.272 168.392 62.504C168.392 61.724 168.146 61.178 167.654 60.866C167.162 60.554 166.454 60.398 165.53 60.398H163.55V64.79ZM180.26 71.216C179.516 71.216 178.832 71.072 178.208 70.784C177.596 70.496 177.068 70.088 176.624 69.56C176.18 69.02 175.832 68.372 175.58 67.616C175.34 66.848 175.22 65.99 175.22 65.042C175.22 64.094 175.34 63.248 175.58 62.504C175.832 61.748 176.18 61.112 176.624 60.596C177.068 60.068 177.596 59.666 178.208 59.39C178.832 59.114 179.516 58.976 180.26 58.976C181.004 58.976 181.682 59.12 182.294 59.408C182.918 59.684 183.452 60.086 183.896 60.614C184.352 61.13 184.7 61.766 184.94 62.522C185.192 63.266 185.318 64.106 185.318 65.042C185.318 65.99 185.192 66.848 184.94 67.616C184.7 68.372 184.352 69.02 183.896 69.56C183.452 70.088 182.918 70.496 182.294 70.784C181.682 71.072 181.004 71.216 180.26 71.216ZM180.26 69.902C180.788 69.902 181.262 69.788 181.682 69.56C182.114 69.332 182.48 69.008 182.78 68.588C183.092 68.156 183.332 67.646 183.5 67.058C183.668 66.458 183.752 65.786 183.752 65.042C183.752 64.31 183.668 63.65 183.5 63.062C183.332 62.474 183.092 61.976 182.78 61.568C182.48 61.16 182.114 60.848 181.682 60.632C181.262 60.404 180.788 60.29 180.26 60.29C179.732 60.29 179.252 60.404 178.82 60.632C178.4 60.848 178.034 61.16 177.722 61.568C177.422 61.976 177.188 62.474 177.02 63.062C176.852 63.65 176.768 64.31 176.768 65.042C176.768 65.786 176.852 66.458 177.02 67.058C177.188 67.646 177.422 68.156 177.722 68.588C178.034 69.008 178.4 69.332 178.82 69.56C179.252 69.788 179.732 69.902 180.26 69.902ZM191.457 71V59.192H194.409C196.233 59.192 197.619 59.696 198.567 60.704C199.515 61.712 199.989 63.158 199.989 65.042C199.989 65.978 199.869 66.818 199.629 67.562C199.389 68.294 199.035 68.918 198.567 69.434C198.099 69.938 197.523 70.328 196.839 70.604C196.155 70.868 195.369 71 194.481 71H191.457ZM192.951 69.776H194.301C195.681 69.776 196.713 69.362 197.397 68.534C198.093 67.706 198.441 66.542 198.441 65.042C198.441 63.542 198.093 62.396 197.397 61.604C196.713 60.812 195.681 60.416 194.301 60.416H192.951V69.776ZM207.989 64.394L207.431 66.194H210.977L210.419 64.394C210.203 63.734 209.999 63.08 209.807 62.432C209.615 61.772 209.423 61.1 209.231 60.416H209.159C208.979 61.1 208.793 61.772 208.601 62.432C208.409 63.08 208.205 63.734 207.989 64.394ZM204.389 71L208.385 59.192H210.077L214.073 71H212.471L211.355 67.4H207.053L205.919 71H204.389Z" fill="#AA885F"/>
</svg>
