<svg width="100" height="100" viewBox="0 0 100 100" fill="none" xmlns="http://www.w3.org/2000/svg">
<path d="M55 76H23V71C23 68.2 25.2 66 28 66H50C52.8 66 55 68.2 55 71V76Z" stroke="#AA885F" stroke-width="2" stroke-miterlimit="10"/>
<path d="M55 76H23C21.3 76 20 77.3 20 79V81H58V79C58 77.3 56.7 76 55 76Z" stroke="#AA885F" stroke-width="2" stroke-miterlimit="10"/>
<path d="M47 59H31C29.9 59 29 59.9 29 61V66H49V61C49 59.9 48.1 59 47 59Z" stroke="#AA885F" stroke-width="2" stroke-miterlimit="10"/>
<path d="M39 28V21H68L79 32V79H58" stroke="#AA885F" stroke-width="2" stroke-miterlimit="10" stroke-linecap="round" stroke-linejoin="round"/>
<path d="M79 32H68V21L79 32Z" stroke="#AA885F" stroke-width="2" stroke-miterlimit="10" stroke-linecap="round" stroke-linejoin="round"/>
<path d="M51 39H75" stroke="#AA885F" stroke-width="2" stroke-miterlimit="10" stroke-linejoin="round"/>
<path d="M51 47H75" stroke="#AA885F" stroke-width="2" stroke-miterlimit="10" stroke-linejoin="round"/>
<path d="M66.5 68C70.6421 68 74 64.6421 74 60.5C74 56.3579 70.6421 53 66.5 53C62.3579 53 59 56.3579 59 60.5C59 64.6421 62.3579 68 66.5 68Z" stroke="#AA885F" stroke-width="2" stroke-miterlimit="10" stroke-linejoin="round"/>
<path d="M35 59L33 34C33 30.7 35.7 28 39 28C42.3 28 45 30.7 45 34L43 59" stroke="#AA885F" stroke-width="2" stroke-miterlimit="10"/>
</svg>
