<svg width="270" height="100" viewBox="0 0 270 100" fill="none" xmlns="http://www.w3.org/2000/svg">
<rect width="270" height="100" fill="#101010"/>
<path d="M98.1999 39.9001C99.1999 40.0001 100.2 39.5001 100.6 38.7001L102.2 36.0001C102.6 35.5001 102.7 34.4001 100.8 34.4001C99.7999 34.3001 98.7999 34.8001 98.2999 35.6001L96.8999 38.3001C96.4999 39.1001 96.8999 39.9001 98.1999 39.9001Z" fill="#AA885F"/>
<path d="M103.9 39.9001C104.9 40.0001 105.9 39.5001 106.3 38.7001L107.9 36.0001C108.3 35.5001 108.4 34.4001 106.5 34.4001C105.5 34.3001 104.5 34.8001 104 35.6001L102.6 38.3001C102.2 39.1001 102.5 39.9001 103.9 39.9001Z" fill="#AA885F"/>
<path d="M135.9 39.9001C136.9 40.0001 137.9 39.5001 138.3 38.7001L139.9 36.0001C140.3 35.5001 140.4 34.4001 138.5 34.4001C137.5 34.3001 136.5 34.8001 136 35.6001L134.6 38.3001C134.2 39.1001 134.6 39.9001 135.9 39.9001Z" fill="#AA885F"/>
<path d="M190.7 39.9001C191.7 40.0001 192.7 39.5001 193.1 38.7001L194.7 36.0001C195.1 35.5001 195.2 34.4001 193.3 34.4001C192.3 34.3001 191.3 34.8001 190.8 35.6001L189.4 38.3001C189 39.1001 189.4 39.9001 190.7 39.9001Z" fill="#AA885F"/>
<path d="M54.2999 34.3C53.0999 34.3 52.3999 34.9001 52.3999 35.9001V58.2001C52.3999 59.2001 53.0999 59.8 54.2999 59.8C55.4999 59.8 56.1999 59.2001 56.1999 58.2001V35.9001C56.1999 34.8001 55.3999 34.3 54.2999 34.3Z" fill="#AA885F"/>
<path d="M198.5 42.2001H198.1C197.3 42.2001 196.4 42.7 196.1 43.5C194.6 42.4 192.7 41.8 190.8 41.8C185.4 41.8 181.6 45.5 181.6 50.8C181.6 56.1 185.4 59.8 190.8 59.8C192.7 59.8 194.5 59.2001 196.1 57.9001C196.5 58.7001 197.2 59.2001 198.1 59.2001H198.5C198.8 59.3001 199.2 59.1001 199.3 58.9001C199.5 58.7001 199.6 58.3 199.6 58.1V43.3C199.7 43 199.5 42.6 199.3 42.5C199.2 42.3 198.8 42.2001 198.5 42.2001ZM196 53.3C196 53.8 195.8 54.2 195.5 54.5C194.4 55.6 192.8 56.3 191.1 56.3C187.7 56.3 185.4 54.0001 185.4 50.7001C185.4 47.4001 187.7 45.1 191.1 45.1C192.8 45.1 194.4 45.8 195.5 47C195.8 47.4 196 47.8001 196 48.2001V53.3Z" fill="#AA885F"/>
<path d="M212.7 49.0999L211 48.9C207.5 48.6 206.8 48.1999 206.8 47.0999C206.8 46.4999 206.8 45 211.8 45C215.3 45 216.8 46.0999 217.4 46.5999C217.7 46.8999 218.2 47.0999 218.5 47.0999C219.4 47.0999 220.2 46.3 220.2 45.4C220.2 43.6 216.6 41.7 211.9 41.7C206.3 41.7 202.9 43.8999 202.9 47.2999C202.9 51.2999 207.1 51.9999 210.4 52.2999L212 52.4C216 52.8 216.6 53.3 216.6 54.4C216.6 54.9 216.6 56.4 211.2 56.4C208.1 56.4 206 55.6 205.1 54.7C204.9 54.5 204.6 54.4 204.3 54.4C203.4 54.4 202.5 55.2 202.5 56.2C202.5 58.2 206.5 59.7999 211.2 59.7999C216.9 59.7999 220.4 57.7 220.5 54.2C220.5 51.2 218.1 49.5999 212.7 49.0999Z" fill="#AA885F"/>
<path d="M238.7 56.2H228.7L239 46.2C239.5 45.7 239.8 45.1 239.8 44.4C239.8 42.7 237.9 42.7 237.3 42.7H225.1C224.2 42.7 223.6 43.4 223.6 44.4C223.6 45.4 224.2 46.0999 225.1 46.0999H234.3L224 56.2C223.5 56.7 223.2 57.3 223.2 58C223.2 59.7 225.1 59.7 225.7 59.7L238.7 59.5999C239.6 59.5999 240.2 58.9 240.2 57.9C240.2 56.9 239.7 56.2 238.7 56.2Z" fill="#AA885F"/>
<path d="M82.3999 41.8C79.8999 41.8 77.2999 42.7001 75.2999 44.4001C74.1999 42.6001 72.3999 41.8 69.6999 41.8C67.4999 41.8 65.3999 42.5 63.5999 43.8C63.3999 42.9 62.5999 42.2 61.4999 42.3H60.9999C60.6999 42.2 60.2999 42.4 60.1999 42.6C59.9999 42.8 59.8999 43.2001 59.8999 43.4001V57.9001C59.8999 58.9001 60.6999 59.5 61.8999 59.5C62.9999 59.5 63.7999 58.9001 63.7999 57.9001V48.6C63.7999 48 64.0999 47.5 64.5999 47.1C65.7999 46.1 67.3999 45.4001 68.9999 45.4001C71.4999 45.4001 72.7999 46.8 72.7999 49.5V58C72.7999 59 73.4999 59.6 74.6999 59.6C75.8999 59.6 76.5999 59 76.5999 58V48.7001C76.5999 48.1001 76.8999 47.6001 77.3999 47.2001C78.5999 46.2001 80.1999 45.5 81.7999 45.5C84.2999 45.5 85.5999 46.9 85.5999 49.6V58.2001C85.5999 59.2001 86.2999 59.8 87.4999 59.8C88.6999 59.8 89.3999 59.2001 89.3999 58.2001V49.5C89.1999 44.5 86.8999 41.8 82.3999 41.8Z" fill="#AA885F"/>
<path d="M177.8 49.5001C177.8 44.5001 175.4 41.9001 171 41.9001C168.5 41.9001 165.9 42.8001 163.9 44.5001C162.8 42.7001 161 41.9001 158.3 41.9001C156.1 41.9001 154.1 42.7001 152.3 43.9001C152.1 43.0001 151.3 42.3001 150.2 42.4001H149.6C149.3 42.3001 148.9 42.5001 148.8 42.7001C148.6 42.9001 148.5 43.3001 148.5 43.5001V58.0001C148.5 59.0001 149.3 59.6001 150.5 59.6001C151.6 59.6001 152.4 59.0001 152.4 58.0001V48.7001C152.4 48.1001 152.7 47.6001 153.2 47.2001C154.4 46.2001 156 45.5001 157.6 45.5001C160.1 45.5001 161.4 46.9001 161.4 49.6001V58.0001C161.4 59.0001 162.1 59.6001 163.3 59.6001C164.5 59.6001 165.2 59.0001 165.2 58.0001V48.7001C165.2 48.1001 165.5 47.6001 166 47.2001C167.2 46.2001 168.8 45.5001 170.4 45.5001C172.9 45.5001 174.2 46.9001 174.2 49.6001V58.2001C174.2 59.2001 174.9 59.8001 176.1 59.8001C177.3 59.8001 178 59.2001 177.9 58.2001V49.5001H177.8Z" fill="#AA885F"/>
<path d="M109 41.9001C107.8 41.9001 107 42.5001 107 43.5001V52.3001C107.1 53.1001 106.8 53.8001 106.2 54.3001C104.8 55.4001 103.1 56.1001 101.3 56.1001C98.2999 56.1001 96.7999 54.6001 96.7999 51.7001V43.5001C96.7999 42.5001 96.0999 41.9001 94.8999 41.9001C93.6999 41.9001 92.8999 42.5001 92.8999 43.5001V51.8001C92.8999 57.1001 95.3999 59.8001 100.4 59.8001C102.8 59.8001 105 59.1001 107.1 57.9001C107.2 58.8001 108.1 59.5001 109.2 59.4001H109.8C110.1 59.5001 110.5 59.3001 110.6 59.1001C110.8 58.9001 110.9 58.5001 110.9 58.3001V43.5001C111 42.5001 110.3 41.9001 109 41.9001Z" fill="#AA885F"/>
<path d="M119 46.6001C118.2 46.5001 117.4 47.0001 116.9 47.7001C116.4 48.5001 116.4 49.3001 116.9 50.1001C117.4 50.8001 118.1 51.2001 119 51.2001C120.3 51.2001 121.4 50.3001 121.4 48.9001C121.3 47.7001 120.3 46.6001 119 46.6001Z" fill="#AA885F"/>
<path d="M39.2998 41.8C33.6998 41.8 29.7998 45.6 29.7998 50.8C29.7998 55.9 33.9998 59.8 39.5998 59.8C43.7998 59.8 47.2998 58 47.1998 56.5C47.2998 55.4 46.4998 54.5 45.4998 54.3C45.1998 54.3 44.7998 54.4001 44.6998 54.7001C44.0998 55.2001 42.4998 56.2001 39.4998 56.2001C36.7998 56.2001 34.5998 54.9001 33.7998 52.7001C35.6998 52.7001 41.8998 52.7001 45.5998 52.7001C47.8998 52.7001 48.5998 51.5 48.5998 50.3C48.6998 45.6 44.5998 41.8 39.2998 41.8ZM33.5998 49.4001C34.2998 46.9001 36.3998 45.3 39.2998 45.3C42.0998 45.3 44.1998 46.9001 44.7998 49.4001H33.5998Z" fill="#AA885F"/>
<path d="M136.5 41.8C130.9 41.8 127 45.6 127 50.8C127 55.9 131.2 59.8 136.8 59.8C141 59.8 144.5 58 144.4 56.5C144.5 55.4 143.7 54.5 142.7 54.3C142.4 54.3 142 54.4001 141.9 54.7001C141.3 55.2001 139.7 56.2001 136.7 56.2001C134 56.2001 131.8 54.9001 131 52.7001C132.9 52.7001 139.1 52.7001 142.8 52.7001C145.1 52.7001 145.8 51.5 145.8 50.3C145.9 45.6 141.8 41.8 136.5 41.8ZM130.8 49.4001C131.5 46.9001 133.6 45.3 136.5 45.3C139.3 45.3 141.4 46.9001 142 49.4001H130.8Z" fill="#AA885F"/>
</svg>
