<svg width="80" height="80" viewBox="0 0 80 80" fill="none" xmlns="http://www.w3.org/2000/svg">
<rect width="80" height="80" rx="4" fill="white"/>
<path d="M17 26C17 24.3431 18.3431 23 20 23L59 23C60.6569 23 62 24.3431 62 26L62 53L17 53L17 26Z" stroke="#AA885F" stroke-width="2"/>
<mask id="path-3-inside-1" fill="white">
<path d="M12 53C12 52.4477 12.4477 52 13 52L66 52C66.5523 52 67 52.4477 67 53V54C67 57.3137 64.3137 60 61 60L18 60C14.6863 60 12 57.3137 12 54V53Z"/>
</mask>
<path d="M12 53C12 52.4477 12.4477 52 13 52L66 52C66.5523 52 67 52.4477 67 53V54C67 57.3137 64.3137 60 61 60L18 60C14.6863 60 12 57.3137 12 54V53Z" stroke="#AA885F" stroke-width="4" mask="url(#path-3-inside-1)"/>
<mask id="path-4-inside-2" fill="white">
<path d="M36 52.6C36 52.2686 36.2686 52 36.6 52H42.4C42.7314 52 43 52.2686 43 52.6C43 53.9255 41.9255 55 40.6 55H38.4C37.0745 55 36 53.9255 36 52.6Z"/>
</mask>
<path d="M36 52.6C36 52.2686 36.2686 52 36.6 52H42.4C42.7314 52 43 52.2686 43 52.6C43 53.9255 41.9255 55 40.6 55H38.4C37.0745 55 36 53.9255 36 52.6Z" stroke="#AA885F" stroke-width="3" mask="url(#path-4-inside-2)"/>
<circle cx="58.106" cy="22.803" r="9.80303" fill="white" stroke="#AA885F" stroke-width="2"/>
<path d="M55.9498 27.8995L64.4351 19.4142L63.0209 18L55.9498 25.0711L52.4142 21.5356L51 22.9498L55.9498 27.8995Z" fill="#AA885F"/>
<path d="M35 36C35 34.8954 35.8954 34 37 34H41C42.1046 34 43 34.8954 43 36H35Z" fill="#AA885F"/>
<path d="M35 38H41C42.1046 38 43 38.8954 43 40H37C35.8954 40 35 39.1046 35 38Z" fill="#AA885F"/>
<path d="M35 42H43C43 43.1046 42.1046 44 41 44H37C35.8954 44 35 43.1046 35 42Z" fill="#AA885F"/>
<rect x="35" y="36" width="2" height="2" fill="#AA885F"/>
<rect x="41" y="40" width="2" height="2" fill="#AA885F"/>
<rect x="38" y="32" width="2" height="2" fill="#AA885F"/>
<rect x="38" y="44" width="2" height="2" fill="#AA885F"/>
<path fill-rule="evenodd" clip-rule="evenodd" d="M49.6596 32.0598C50.0554 31.9165 50.4987 32.0364 50.7682 32.3599L55.7682 38.3599C56.0773 38.7307 56.0773 39.2694 55.7682 39.6402L50.7682 45.6402C50.4987 45.9637 50.0554 46.0836 49.6596 45.9403C49.2637 45.797 49 45.4211 49 45.0001L49 41.0001C49 40.4478 49.4477 40.0001 50 40.0001C50.5523 40.0001 51 40.4478 51 41.0001L51 42.238L53.6983 39.0001L51 35.7621L51 37.0001C51 37.5523 50.5523 38.0001 50 38.0001C49.4477 38.0001 49 37.5523 49 37.0001L49 33.0001C49 32.579 49.2637 32.2031 49.6596 32.0598Z" fill="#AA885F"/>
<rect x="51" y="42.0001" width="6" height="2" transform="rotate(-180 51 42.0001)" fill="#AA885F"/>
<path d="M51 38.0001L45 38.0001L45 36.0001L51 36.0001L51 38.0001Z" fill="#AA885F"/>
<path fill-rule="evenodd" clip-rule="evenodd" d="M28.3404 45.9403C27.9446 46.0836 27.5013 45.9637 27.2318 45.6402L22.2318 39.6402C21.9227 39.2694 21.9227 38.7307 22.2318 38.3599L27.2318 32.3599C27.5013 32.0364 27.9446 31.9164 28.3404 32.0598C28.7363 32.2031 29 32.579 29 33L29 37C29 37.5523 28.5523 38 28 38C27.4477 38 27 37.5523 27 37L27 35.7621L24.3017 39L27 42.238L27 41C27 40.4478 27.4477 40 28 40C28.5523 40 29 40.4478 29 41L29 45C29 45.4211 28.7363 45.797 28.3404 45.9403Z" fill="#AA885F"/>
<rect x="27" y="36" width="6" height="2" fill="#AA885F"/>
<path d="M27 40L33 40L33 42L27 42L27 40Z" fill="#AA885F"/>
</svg>
