<svg width="80" height="80" viewBox="0 0 80 80" fill="none" xmlns="http://www.w3.org/2000/svg">
<rect width="80" height="80" rx="4" fill="white"/>
<path d="M11 16C11 14.3431 12.3431 13 14 13L41 13C42.6569 13 44 14.3431 44 16V34L11 34L11 16Z" stroke="#AA885F" stroke-width="2"/>
<path d="M8 34L47 34V35C47 36.6569 45.6569 38 44 38L11 38C9.34315 38 8 36.6569 8 35V34Z" stroke="#AA885F" stroke-width="2"/>
<path d="M25.6079 23.4402C25.6079 23.7346 25.7053 23.9816 25.9002 24.1813C26.0951 24.3706 26.3387 24.544 26.6311 24.7017C26.9343 24.8594 27.2645 25.0118 27.6218 25.159C27.9791 25.2957 28.3202 25.4534 28.645 25.6321C28.894 25.5059 29.0781 25.3535 29.1972 25.1748C29.3271 24.9961 29.3921 24.77 29.3921 24.4967C29.3921 24.2024 29.2947 23.9553 29.0998 23.7556C28.9157 23.5453 28.6721 23.3614 28.3689 23.2037C28.0766 23.046 27.7517 22.8988 27.3944 22.7622C27.0371 22.6255 26.6961 22.4678 26.3712 22.2891C26.1222 22.4363 25.9327 22.5992 25.8028 22.7779C25.6729 22.9566 25.6079 23.1774 25.6079 23.4402ZM27.1995 30C26.6148 30 26.0572 29.8949 25.5267 29.6846C24.9961 29.4744 24.5576 29.1695 24.2111 28.77L25.3155 27.8239C25.5862 28.0867 25.8732 28.2917 26.1763 28.4389C26.4795 28.5756 26.8206 28.6439 27.1995 28.6439C27.5785 28.6439 27.8654 28.5598 28.0603 28.3916C28.266 28.2234 28.3689 28.0131 28.3689 27.7608C28.3689 27.5085 28.2606 27.2983 28.0441 27.1301C27.8275 26.9619 27.5568 26.8042 27.232 26.657C26.9072 26.5099 26.5553 26.3574 26.1763 26.1997C25.8082 26.0421 25.4617 25.8528 25.1369 25.6321C24.8121 25.4008 24.5414 25.1222 24.3248 24.7963C24.1083 24.4704 24 24.0604 24 23.5664C24 23.1353 24.1191 22.7464 24.3573 22.3995C24.6063 22.0526 24.9366 21.7635 25.348 21.5322C25.0232 21.1853 24.8608 20.7543 24.8608 20.2392C24.8608 19.9238 24.9149 19.6294 25.0232 19.3561C25.1423 19.0828 25.3155 18.8463 25.5429 18.6465C25.7703 18.4468 26.0464 18.2891 26.3712 18.1735C26.7069 18.0578 27.0913 18 27.5244 18C28.0982 18 28.6125 18.0999 29.0673 18.2996C29.5329 18.4993 29.9281 18.7201 30.2529 18.9619L29.3759 20.113C29.1268 19.9028 28.8507 19.7293 28.5476 19.5926C28.2552 19.4455 27.9466 19.3719 27.6218 19.3719C27.2428 19.3719 26.9667 19.4455 26.7935 19.5926C26.6311 19.7398 26.5499 19.929 26.5499 20.1603C26.5499 20.4021 26.6582 20.6071 26.8747 20.7753C27.1021 20.933 27.3782 21.0907 27.703 21.2484C28.0278 21.3955 28.3852 21.5532 28.7749 21.7214C29.1647 21.8791 29.522 22.0736 29.8469 22.3049C30.1717 22.5361 30.4424 22.82 30.6589 23.1564C30.8863 23.4823 31 23.8817 31 24.3548C31 24.8384 30.8809 25.2431 30.6427 25.569C30.4045 25.8949 30.0742 26.1787 29.652 26.4205C29.7819 26.5887 29.8848 26.7779 29.9606 26.9882C30.0363 27.1879 30.0742 27.4192 30.0742 27.682C30.0742 28.0184 30.0093 28.3285 29.8794 28.6124C29.7494 28.8857 29.5599 29.1275 29.3109 29.3377C29.0619 29.548 28.7587 29.7109 28.4014 29.8265C28.0441 29.9422 27.6435 30 27.1995 30Z" fill="#AA885F"/>
<path d="M34 47C34 45.3431 35.3431 44 37 44L64 44C65.6569 44 67 45.3431 67 47V65H34V47Z" stroke="#AA885F" stroke-width="2"/>
<path d="M31 65H70V66C70 67.6569 68.6569 69 67 69H34C32.3431 69 31 67.6569 31 66V65Z" stroke="#AA885F" stroke-width="2"/>
<path d="M40.6518 59C40.0263 59 39.4959 58.8739 39.0607 58.6216C38.6346 58.3694 38.281 57.9955 38 57.5L39.0879 56.7027C39.2693 57.027 39.4778 57.2658 39.7135 57.4189C39.9492 57.5631 40.2031 57.6351 40.475 57.6351C40.8921 57.6351 41.2049 57.509 41.4134 57.2568C41.6219 57.0045 41.7262 56.5631 41.7262 55.9324V50H43.3037V56.0676C43.3037 56.473 43.2538 56.8559 43.1541 57.2162C43.0543 57.5676 42.8957 57.8784 42.6781 58.1486C42.4605 58.4099 42.184 58.6171 41.8486 58.7703C41.5131 58.9234 41.1142 59 40.6518 59Z" fill="#AA885F"/>
<path d="M46.2022 58.8378V50H49.0444C49.5068 50 49.9283 50.0405 50.3091 50.1216C50.699 50.1937 51.0344 50.3153 51.3154 50.4865C51.6056 50.6486 51.8277 50.8694 51.9818 51.1486C52.145 51.4279 52.2266 51.7703 52.2266 52.1757C52.2266 52.5991 52.1178 52.991 51.9002 53.3514C51.6826 53.7117 51.3789 53.9595 50.9891 54.0946V54.1486C51.4786 54.2568 51.8821 54.4865 52.1994 54.8378C52.5258 55.1802 52.689 55.6486 52.689 56.2432C52.689 56.6847 52.6028 57.0676 52.4306 57.3919C52.2583 57.7162 52.0181 57.9865 51.7098 58.2027C51.4106 58.4189 51.0525 58.5811 50.6355 58.6892C50.2185 58.7883 49.7651 58.8378 49.2756 58.8378H46.2022ZM47.7797 53.6486H48.9084C49.534 53.6486 49.9827 53.536 50.2547 53.3108C50.5358 53.0856 50.6763 52.7838 50.6763 52.4054C50.6763 51.973 50.5312 51.6667 50.2411 51.4865C49.951 51.3063 49.5158 51.2162 48.9356 51.2162H47.7797V53.6486ZM47.7797 57.6216H49.1124C49.7651 57.6216 50.2683 57.5045 50.6219 57.2703C50.9755 57.027 51.1523 56.6577 51.1523 56.1622C51.1523 55.6937 50.98 55.3559 50.6355 55.1486C50.291 54.9324 49.7833 54.8243 49.1124 54.8243H47.7797V57.6216Z" fill="#AA885F"/>
<path d="M54.9965 58.8378V50H56.5739V54.0135H56.6147L59.7833 50H61.5376L58.8042 53.4459L62 58.8378H60.2593L57.8523 54.6757L56.5739 56.2568V58.8378H54.9965Z" fill="#AA885F"/>
<path d="M16 38L16 56H34" stroke="#AA885F" stroke-width="2" stroke-linecap="round" stroke-linejoin="round" stroke-dasharray="4 4"/>
</svg>
