<svg width="80" height="80" viewBox="0 0 80 80" fill="none" xmlns="http://www.w3.org/2000/svg">
<rect width="80" height="80" rx="4" fill="white"/>
<rect x="28" y="24" width="28" height="8" rx="1" stroke="#AA885F" stroke-width="2"/>
<path d="M15 22C15 21.4477 15.4477 21 16 21H29.7347C30.0957 21 30.4287 21.1946 30.6059 21.5092L33.5814 26.7911C34.113 27.7348 35.112 28.3187 36.1952 28.3187H59C59.5523 28.3187 60 28.7664 60 29.3187V55C60 55.5523 59.5523 56 59 56H16C15.4477 56 15 55.5523 15 55V22Z" fill="white" stroke="#AA885F" stroke-width="2"/>
<circle cx="57.5" cy="54.5" r="12.5" fill="white" stroke="#AA885F" stroke-width="2"/>
<path d="M57.4775 61.625C58.3025 61.625 58.9775 60.95 58.9775 60.125H55.9775C55.9775 60.95 56.6525 61.625 57.4775 61.625ZM61.9775 57.125V53.375C61.9775 51.0725 60.755 49.145 58.6025 48.635V48.125C58.6025 47.5025 58.1 47 57.4775 47C56.855 47 56.3525 47.5025 56.3525 48.125V48.635C54.2075 49.145 52.9775 51.065 52.9775 53.375V57.125L51.4775 58.625V59.375H63.4775V58.625L61.9775 57.125ZM60.4775 57.875H54.4775V53.375C54.4775 51.515 55.61 50 57.4775 50C59.345 50 60.4775 51.515 60.4775 53.375V57.875ZM54.1625 48.185L53.09 47.1125C51.29 48.485 50.105 50.6 50 53H51.5C51.6125 51.0125 52.6325 49.2725 54.1625 48.185ZM63.455 53H64.955C64.8425 50.6 63.6575 48.485 61.865 47.1125L60.8 48.185C62.315 49.2725 63.3425 51.0125 63.455 53Z" fill="#AA885F"/>
<path d="M33 32H41L33 41H41" stroke="#AA885F" stroke-width="2" stroke-linecap="round" stroke-linejoin="round"/>
<path d="M22 33H28L22 41H28" stroke="#AA885F" stroke-width="2" stroke-linecap="round" stroke-linejoin="round"/>
<path d="M28 45H33L28 51H33" stroke="#AA885F" stroke-width="2" stroke-linecap="round" stroke-linejoin="round"/>
</svg>
