<svg width="80" height="80" viewBox="0 0 80 80" fill="none" xmlns="http://www.w3.org/2000/svg">
<rect width="80" height="80" rx="4" fill="white"/>
<rect x="34" y="22" width="28" height="8" rx="1" stroke="#AA885F" stroke-width="2"/>
<path d="M21 20C21 19.4477 21.4477 19 22 19H35.7347C36.0957 19 36.4287 19.1946 36.6059 19.5092L39.5814 24.7911C40.113 25.7348 41.112 26.3187 42.1952 26.3187H65C65.5523 26.3187 66 26.7664 66 27.3187V53C66 53.5523 65.5523 54 65 54H22C21.4477 54 21 53.5523 21 53V20Z" fill="white" stroke="#AA885F" stroke-width="2"/>
<path d="M15.5589 40.4724C16.6966 39.8031 17.9683 39.2677 19.2399 39C19.5076 40.7401 20.98 42.1456 22.787 42.1456C24.594 42.1456 26.0664 40.807 26.3342 39.0669C27.6058 39.4016 28.8105 39.937 29.9482 40.6063C28.9443 42.0117 29.0782 43.9526 30.3498 45.2242C31.6214 46.4959 33.4954 46.6297 34.9008 45.6258C35.5701 46.7636 36.0386 47.9683 36.3063 49.1729C34.6331 49.5076 33.4284 50.98 33.4284 52.7201C33.4284 54.4602 34.6331 55.8657 36.2394 56.2672C35.9048 57.4719 35.4363 58.6766 34.767 59.8144C33.3615 58.9443 31.4876 59.0782 30.2829 60.2829C29.0782 61.4876 28.8774 63.3615 29.8144 64.767C28.6766 65.4363 27.5388 65.9048 26.2672 66.2394C25.9326 64.6331 24.4602 63.4284 22.7201 63.4284C20.98 63.4284 19.5076 64.7001 19.1729 66.3063C17.9683 65.9717 16.7636 65.5032 15.6258 64.9008C16.5628 63.4954 16.4289 61.5545 15.2242 60.3498C13.9526 59.0782 12.0117 58.9443 10.6063 59.9482C9.93698 58.8105 9.40156 57.6058 9.06693 56.3342C10.807 56.0664 12.1456 54.594 12.1456 52.787C12.1456 50.98 10.807 49.4406 9 49.2399C9.33464 47.9683 9.80313 46.7636 10.4724 45.5589C11.8779 46.6297 13.8857 46.5628 15.2242 45.2242C16.5628 43.8857 16.6297 41.9448 15.5589 40.4724Z" fill="white" stroke="#AA885F" stroke-width="2" stroke-miterlimit="10" stroke-linecap="round" stroke-linejoin="round"/>
<path d="M22.5 58C25.5376 58 28 55.5376 28 52.5C28 49.4624 25.5376 47 22.5 47C19.4624 47 17 49.4624 17 52.5C17 55.5376 19.4624 58 22.5 58Z" fill="white" stroke="#AA885F" stroke-width="2" stroke-miterlimit="10" stroke-linecap="round" stroke-linejoin="round"/>
<path d="M41.3599 37.792C41.3599 38.24 41.5039 38.616 41.7919 38.92C42.0799 39.208 42.4399 39.472 42.8719 39.712C43.3199 39.952 43.8079 40.184 44.3359 40.408C44.8639 40.616 45.3679 40.856 45.8479 41.128C46.2159 40.936 46.4879 40.704 46.6639 40.432C46.8559 40.16 46.9519 39.816 46.9519 39.4C46.9519 38.952 46.8079 38.576 46.5199 38.272C46.2479 37.952 45.8879 37.672 45.4399 37.432C45.0079 37.192 44.5279 36.968 43.9999 36.76C43.4719 36.552 42.9679 36.312 42.4879 36.04C42.1199 36.264 41.8399 36.512 41.6479 36.784C41.4559 37.056 41.3599 37.392 41.3599 37.792ZM43.7119 47.776C42.8479 47.776 42.0239 47.616 41.2399 47.296C40.4559 46.976 39.8079 46.512 39.2959 45.904L40.9279 44.464C41.3279 44.864 41.7519 45.176 42.1999 45.4C42.6479 45.608 43.1519 45.712 43.7119 45.712C44.2719 45.712 44.6959 45.584 44.9839 45.328C45.2879 45.072 45.4399 44.752 45.4399 44.368C45.4399 43.984 45.2799 43.664 44.9599 43.408C44.6399 43.152 44.2399 42.912 43.7599 42.688C43.2799 42.464 42.7599 42.232 42.1999 41.992C41.6559 41.752 41.1439 41.464 40.6639 41.128C40.1839 40.776 39.7839 40.352 39.4639 39.856C39.1439 39.36 38.9839 38.736 38.9839 37.984C38.9839 37.328 39.1599 36.736 39.5119 36.208C39.8799 35.68 40.3679 35.24 40.9759 34.888C40.4959 34.36 40.2559 33.704 40.2559 32.92C40.2559 32.44 40.3359 31.992 40.4959 31.576C40.6719 31.16 40.9279 30.8 41.2639 30.496C41.5999 30.192 42.0079 29.952 42.4879 29.776C42.9839 29.6 43.5519 29.512 44.1919 29.512C45.0399 29.512 45.7999 29.664 46.4719 29.968C47.1599 30.272 47.7439 30.608 48.2239 30.976L46.9279 32.728C46.5599 32.408 46.1519 32.144 45.7039 31.936C45.2719 31.712 44.8159 31.6 44.3359 31.6C43.7759 31.6 43.3679 31.712 43.1119 31.936C42.8719 32.16 42.7519 32.448 42.7519 32.8C42.7519 33.168 42.9119 33.48 43.2319 33.736C43.5679 33.976 43.9759 34.216 44.4559 34.456C44.9359 34.68 45.4639 34.92 46.0399 35.176C46.6159 35.416 47.1439 35.712 47.6239 36.064C48.1039 36.416 48.5039 36.848 48.8239 37.36C49.1599 37.856 49.3279 38.464 49.3279 39.184C49.3279 39.92 49.1519 40.536 48.7999 41.032C48.4479 41.528 47.9599 41.96 47.3359 42.328C47.5279 42.584 47.6799 42.872 47.7919 43.192C47.9039 43.496 47.9599 43.848 47.9599 44.248C47.9599 44.76 47.8639 45.232 47.6719 45.664C47.4799 46.08 47.1999 46.448 46.8319 46.768C46.4639 47.088 46.0159 47.336 45.4879 47.512C44.9599 47.688 44.3679 47.776 43.7119 47.776Z" fill="#AA885F"/>
</svg>
