<svg width="80" height="80" viewBox="0 0 80 80" fill="none" xmlns="http://www.w3.org/2000/svg">
<rect width="80" height="80" rx="4" fill="white"/>
<path d="M14 42.2881C14.474 40.3978 15.3034 38.6257 16.2513 36.9718C18.2657 38.5076 21.228 38.3894 23.1238 36.4992C25.0197 34.6089 25.1382 31.7736 23.5978 29.647C25.2567 28.7019 27.034 27.9931 28.9299 27.5205C29.2854 30.0015 31.5367 31.8917 34.1435 31.8917C36.7503 31.8917 38.8831 30.0015 39.3571 27.6386C41.253 28.1112 42.9118 28.9382 44.5707 29.8833C43.2673 31.8917 43.3858 34.7271 45.2817 36.4992C47.059 38.2713 49.7843 38.5076 51.7987 37.208C52.7466 38.7439 53.4575 40.516 53.9315 42.4062C51.5617 42.8788 49.7843 45.0053 49.7843 47.4863C49.7843 49.9672 51.5617 52.0937 53.9315 52.5663C53.4575 54.3384 52.7466 56.1105 51.7987 57.7645C49.7843 56.4649 47.059 56.7012 45.2817 58.4733C43.5043 60.2454 43.2673 63.0808 44.5707 65.0892C43.0303 66.0343 41.253 66.7432 39.3571 67.3339C38.8831 64.8529 36.7503 63.0808 34.1435 63.0808C31.5367 63.0808 29.4038 64.9711 28.9299 67.452C27.034 66.9795 25.2567 66.2706 23.5978 65.3255C25.1382 63.3171 24.9012 60.3636 23.1238 58.4733C21.228 56.5831 18.2657 56.4649 16.2513 58.0008C15.3034 56.3468 14.474 54.5747 14 52.6844C16.6068 52.33 18.6212 50.2035 18.6212 47.4863C18.6212 44.769 16.6068 42.6425 14 42.2881Z" stroke="#AA885F" stroke-width="2" stroke-miterlimit="10" stroke-linecap="round" stroke-linejoin="round"/>
<circle cx="33.9656" cy="47.4864" r="9.5274" stroke="#AA885F" stroke-width="2"/>
<path d="M46.6711 20.518C46.9124 19.5557 47.3347 18.6536 47.8173 17.8115C48.8428 18.5934 50.3508 18.5333 51.316 17.571C52.2812 16.6087 52.3415 15.1652 51.5573 14.0826C52.4018 13.6014 53.3066 13.2406 54.2718 13C54.4528 14.263 55.5989 15.2253 56.926 15.2253C58.2531 15.2253 59.3389 14.263 59.5802 13.0601C60.5454 13.3007 61.3899 13.7217 62.2344 14.2029C61.5709 15.2253 61.6312 16.6688 62.5963 17.571C63.5012 18.4731 64.8886 18.5934 65.9141 17.9318C66.3967 18.7137 66.7586 19.6159 66.9999 20.5782C65.7935 20.8188 64.8886 21.9014 64.8886 23.1644C64.8886 24.4274 65.7935 25.51 66.9999 25.7506C66.7586 26.6528 66.3967 27.5549 65.9141 28.3969C64.8886 27.7353 63.5012 27.8556 62.5963 28.7578C61.6915 29.66 61.5709 31.1034 62.2344 32.1259C61.4502 32.607 60.5454 32.9679 59.5802 33.2686C59.3389 32.0056 58.2531 31.1034 56.926 31.1034C55.5989 31.1034 54.5131 32.0657 54.2718 33.3288C53.3066 33.0882 52.4018 32.7273 51.5573 32.2462C52.3415 31.2237 52.2208 29.7201 51.316 28.7578C50.3508 27.7955 48.8428 27.7353 47.8173 28.5172C47.3347 27.6752 46.9124 26.773 46.6711 25.8107C47.9982 25.6303 49.0237 24.5477 49.0237 23.1644C49.0237 21.7811 47.9982 20.6985 46.6711 20.518Z" stroke="#AA885F" stroke-width="2" stroke-miterlimit="10" stroke-linecap="round" stroke-linejoin="round"/>
<circle cx="56.9998" cy="22.9727" r="3" stroke="#AA885F" stroke-width="2"/>
</svg>
