<svg width="80" height="80" viewBox="0 0 80 80" fill="none" xmlns="http://www.w3.org/2000/svg">
<rect width="80" height="80" rx="4" fill="white"/>
<path d="M26.9459 49H11.0541C11.5204 44.7186 14.9451 41.4706 19 41.4706C23.0549 41.4706 26.4796 44.7186 26.9459 49Z" stroke="#AA885F" stroke-width="2"/>
<circle cx="19.0237" cy="36.9781" r="3.97805" stroke="#AA885F" stroke-width="2"/>
<path d="M67.9459 49H52.0541C52.5204 44.7186 55.9451 41.4706 60 41.4706C64.0549 41.4706 67.4796 44.7186 67.9459 49Z" stroke="#AA885F" stroke-width="2"/>
<circle cx="60.0237" cy="36.9781" r="3.97805" stroke="#AA885F" stroke-width="2"/>
<mask id="path-6-inside-1" fill="white">
<rect x="33" y="35" width="13" height="9" rx="1"/>
</mask>
<rect x="33" y="35" width="13" height="9" rx="1" stroke="#AA885F" stroke-width="4" mask="url(#path-6-inside-1)"/>
<path d="M34 37L38.5423 39.4776C39.1393 39.8032 39.8607 39.8032 40.4577 39.4776L45 37" stroke="#AA885F" stroke-width="2"/>
<path d="M31 44L27 39.5L31 35" stroke="#AA885F" stroke-width="2" stroke-linecap="round" stroke-linejoin="round"/>
<path d="M48 35L52 39.5L48 44" stroke="#AA885F" stroke-width="2" stroke-linecap="round" stroke-linejoin="round"/>
<path fill-rule="evenodd" clip-rule="evenodd" d="M60.369 30.0286L60.5853 29.9158C60.2616 29.2952 59.9115 28.6906 59.5367 28.1033L58.6938 28.6414L57.8509 29.1795C58.0289 29.4583 58.2008 29.7414 58.3663 30.0286H60.369ZM20.219 30.0286C20.3845 29.7414 20.5564 29.4584 20.7344 29.1795L19.8915 28.6414L19.0486 28.1033C18.6737 28.6906 18.3237 29.2952 18 29.9158L18.2163 30.0286H20.219ZM57.5413 26.9985L58.3342 26.3892C57.9084 25.8351 57.459 25.3002 56.9875 24.7858L56.2504 25.4616L55.5133 26.1374C55.9458 26.6091 56.3579 27.0997 56.7484 27.6078L57.5413 26.9985ZM54.831 24.0423L55.5068 23.3052C54.9925 22.8336 54.4575 22.3842 53.9035 21.9584L53.2941 22.7513L52.6848 23.5443C53.1929 23.9347 53.6835 24.3469 54.1552 24.7794L54.831 24.0423ZM50.3769 19.7074C50.9974 20.0311 51.6021 20.3811 52.1893 20.756L51.6512 21.5989L51.1131 22.4417C50.5748 22.0981 50.0206 21.7773 49.4519 21.4806L49.9144 20.594L50.3769 19.7074ZM48.0965 19.7449L48.4795 18.8211C47.8372 18.5548 47.1808 18.3155 46.5118 18.1047L46.2113 19.0585L45.9109 20.0123C46.5237 20.2054 47.125 20.4246 47.7134 20.6686L48.0965 19.7449ZM44.2739 18.5406L44.4894 17.5642C43.8123 17.4147 43.1245 17.2938 42.4273 17.2029L42.2979 18.1945L42.1686 19.1861C42.8077 19.2694 43.438 19.3802 44.0583 19.5171L44.2739 18.5406ZM40.2976 18.0215L40.3405 17.0225C39.9931 17.0075 39.6438 17 39.2926 17C38.9415 17 38.5922 17.0075 38.2447 17.0225L38.2876 18.0215L38.3306 19.0206C38.6494 19.0069 38.9702 19 39.2926 19C39.6151 19 39.9359 19.0069 40.2547 19.0206L40.2976 18.0215ZM36.2874 18.1945L36.158 17.2029C35.4608 17.2938 34.7729 17.4147 34.0958 17.5642L34.3114 18.5406L34.527 19.5171C35.1473 19.3802 35.7776 19.2694 36.4167 19.1861L36.2874 18.1945ZM32.374 19.0585L32.0735 18.1047C31.4045 18.3155 30.7481 18.5548 30.1057 18.8211L30.4888 19.7449L30.8718 20.6686C31.4603 20.4246 32.0616 20.2054 32.6744 20.0123L32.374 19.0585ZM28.6709 20.594L28.2084 19.7074C27.5878 20.0311 26.9832 20.3811 26.396 20.756L26.9341 21.5989L27.4722 22.4418C28.0105 22.0981 28.5647 21.7773 29.1334 21.4806L28.6709 20.594ZM25.2911 22.7513L24.6818 21.9584C24.1278 22.3842 23.5928 22.8336 23.0785 23.3052L23.7543 24.0423L24.43 24.7794C24.9018 24.3469 25.3924 23.9347 25.9005 23.5443L25.2911 22.7513ZM22.3349 25.4616L21.5978 24.7858C21.1262 25.3002 20.6768 25.8351 20.251 26.3892L21.044 26.9985L21.8369 27.6078C22.2273 27.0997 22.6395 26.6091 23.072 26.1374L22.3349 25.4616Z" fill="#AA885F"/>
<path fill-rule="evenodd" clip-rule="evenodd" d="M18.2163 51.9714L18.0001 52.0842C18.3238 52.7048 18.6738 53.3094 19.0487 53.8967L19.8916 53.3586L20.7344 52.8205C20.5564 52.5416 20.3846 52.2586 20.219 51.9714L18.2163 51.9714ZM58.3664 51.9714C58.2008 52.2586 58.0289 52.5416 57.8509 52.8205L58.6938 53.3586L59.5367 53.8967C59.9116 53.3094 60.2616 52.7048 60.5853 52.0842L60.3691 51.9714L58.3664 51.9714ZM21.044 55.0015L20.2511 55.6108C20.6769 56.1649 21.1263 56.6998 21.5978 57.2142L22.3349 56.5384L23.072 55.8626C22.6396 55.3909 22.2274 54.9003 21.8369 54.3922L21.044 55.0015ZM23.7543 57.9577L23.0785 58.6948C23.5929 59.1664 24.1278 59.6158 24.6819 60.0416L25.2912 59.2487L25.9005 58.4557C25.3924 58.0653 24.9018 57.6531 24.4301 57.2206L23.7543 57.9577ZM28.2084 62.2926C27.5879 61.9689 26.9833 61.6189 26.396 61.244L26.9341 60.4011L27.4722 59.5582C28.0106 59.9019 28.5648 60.2227 29.1334 60.5194L28.6709 61.406L28.2084 62.2926ZM30.4888 62.2551L30.1058 63.1789C30.7481 63.4452 31.4045 63.6845 32.0736 63.8953L32.374 62.9415L32.6745 61.9877C32.0616 61.7946 31.4603 61.5754 30.8719 61.3314L30.4888 62.2551ZM34.3115 63.4594L34.0959 64.4358C34.773 64.5853 35.4608 64.7062 36.1581 64.7971L36.2874 63.8055L36.4168 62.8139C35.7776 62.7306 35.1473 62.6198 34.527 62.4829L34.3115 63.4594ZM38.2877 63.9785L38.2448 64.9775C38.5922 64.9925 38.9416 65 39.2927 65C39.6438 65 39.9932 64.9925 40.3406 64.9775L40.2977 63.9785L40.2548 62.9794C39.9359 62.9931 39.6152 63 39.2927 63C38.9702 63 38.6495 62.9931 38.3306 62.9794L38.2877 63.9785ZM42.298 63.8055L42.4273 64.7971C43.1246 64.7062 43.8124 64.5853 44.4895 64.4358L44.2739 63.4594L44.0584 62.4829C43.4381 62.6198 42.8078 62.7306 42.1686 62.8139L42.298 63.8055ZM46.2114 62.9415L46.5118 63.8953C47.1809 63.6845 47.8373 63.4452 48.4796 63.1789L48.0965 62.2551L47.7135 61.3314C47.125 61.5754 46.5238 61.7946 45.9109 61.9877L46.2114 62.9415ZM49.9144 61.406L50.3769 62.2926C50.9975 61.9689 51.6021 61.6189 52.1893 61.244L51.6513 60.4011L51.1132 59.5582C50.5748 59.9019 50.0206 60.2227 49.452 60.5194L49.9144 61.406ZM53.2942 59.2487L53.9035 60.0416C54.4576 59.6158 54.9925 59.1664 55.5069 58.6948L54.8311 57.9577L54.1553 57.2206C53.6836 57.6531 53.1929 58.0653 52.6849 58.4557L53.2942 59.2487ZM56.2504 56.5384L56.9875 57.2142C57.4591 56.6998 57.9085 56.1649 58.3343 55.6108L57.5414 55.0015L56.7484 54.3922C56.358 54.9003 55.9458 55.3909 55.5133 55.8626L56.2504 56.5384Z" fill="#AA885F"/>
</svg>
