<svg width="80" height="80" viewBox="0 0 80 80" fill="none" xmlns="http://www.w3.org/2000/svg">
<rect width="80" height="80" rx="4" fill="white"/>
<path d="M17 29C17 27.3431 18.3431 26 20 26L59 26C60.6569 26 62 27.3431 62 29V41L62 56L17 56L17 29Z" stroke="#AA885F" stroke-width="2"/>
<mask id="path-3-inside-1" fill="white">
<path d="M12 56C12 55.4477 12.4477 55 13 55L66 55C66.5523 55 67 55.4477 67 56V57C67 60.3137 64.3137 63 61 63L18 63C14.6863 63 12 60.3137 12 57V56Z"/>
</mask>
<path d="M12 56C12 55.4477 12.4477 55 13 55L66 55C66.5523 55 67 55.4477 67 56V57C67 60.3137 64.3137 63 61 63L18 63C14.6863 63 12 60.3137 12 57V56Z" stroke="#AA885F" stroke-width="4" mask="url(#path-3-inside-1)"/>
<mask id="path-4-inside-2" fill="white">
<path d="M36 55.6C36 55.2686 36.2686 55 36.6 55H42.4C42.7314 55 43 55.2686 43 55.6C43 56.9255 41.9255 58 40.6 58H38.4C37.0745 58 36 56.9255 36 55.6Z"/>
</mask>
<path d="M36 55.6C36 55.2686 36.2686 55 36.6 55H42.4C42.7314 55 43 55.2686 43 55.6C43 56.9255 41.9255 58 40.6 58H38.4C37.0745 58 36 56.9255 36 55.6Z" stroke="#AA885F" stroke-width="3" mask="url(#path-4-inside-2)"/>
<circle cx="58.106" cy="25.803" r="9.80303" fill="white" stroke="#AA885F" stroke-width="2"/>
<path d="M58 31C58.662 31 59.2036 30.4923 59.2036 29.8718H56.7964C56.7964 30.4923 57.338 31 58 31ZM61.6108 27.6154V24.7949C61.6108 23.0631 60.6299 21.6133 58.9027 21.2297V20.8462C58.9027 20.3779 58.4995 20 58 20C57.5005 20 57.0973 20.3779 57.0973 20.8462V21.2297C55.3761 21.6133 54.3892 23.0574 54.3892 24.7949V27.6154L53.1856 28.7436V29.3077H62.8144V28.7436L61.6108 27.6154ZM60.4072 28.1795H55.5928V24.7949C55.5928 23.3959 56.5015 22.2564 58 22.2564C59.4985 22.2564 60.4072 23.3959 60.4072 24.7949V28.1795ZM55.34 20.8913L54.4794 20.0846C53.0351 21.1169 52.0843 22.7077 52 24.5128H53.2036C53.2939 23.0179 54.1123 21.7092 55.34 20.8913ZM62.7964 24.5128H64C63.9097 22.7077 62.9589 21.1169 61.5206 20.0846L60.666 20.8913C61.8816 21.7092 62.7061 23.0179 62.7964 24.5128Z" fill="#AA885F"/>
<mask id="path-7-inside-3" fill="white">
<rect x="29.8787" y="34.5151" width="19.5152" height="11.8485" rx="1"/>
</mask>
<rect x="29.8787" y="34.5151" width="19.5152" height="11.8485" rx="1" stroke="#AA885F" stroke-width="4" mask="url(#path-7-inside-3)"/>
<path d="M30.5757 35.9091L38.1192 41.3404C38.8172 41.843 39.7584 41.843 40.4564 41.3404L47.9999 35.9091" stroke="#AA885F" stroke-width="2"/>
<rect x="22.2122" y="38" width="6.27273" height="1.39394" fill="#AA885F"/>
<rect x="25" y="41.4849" width="3.48485" height="1.39394" fill="#AA885F"/>
</svg>
