<svg width="80" height="80" viewBox="0 0 80 80" fill="none" xmlns="http://www.w3.org/2000/svg">
<rect width="80" height="80" rx="4" fill="white"/>
<path d="M36.9254 62.4925H59V29L49 19H25L25 47.0597" stroke="#AA885F" stroke-width="2"/>
<path d="M49 19V29H59" stroke="#AA885F" stroke-width="2"/>
<path d="M19 55.2263C19.1998 54.4293 19.5495 53.6822 19.9492 52.9848C20.7985 53.6323 22.0474 53.5825 22.8468 52.7856C23.6461 51.9886 23.696 50.7932 23.0466 49.8966C23.746 49.4981 24.4954 49.1992 25.2947 49C25.4446 50.046 26.3938 50.843 27.4928 50.843C28.5919 50.843 29.4912 50.046 29.691 49.0498C30.4903 49.2491 31.1897 49.5977 31.8891 49.9962C31.3396 50.843 31.3896 52.0384 32.1889 52.7856C32.9383 53.5327 34.0873 53.6323 34.9366 53.0844C35.3362 53.732 35.636 54.4791 35.8358 55.2761C34.8367 55.4753 34.0873 56.3719 34.0873 57.4179C34.0873 58.4639 34.8367 59.3605 35.8358 59.5597C35.636 60.3069 35.3362 61.0541 34.9366 61.7514C34.0873 61.2035 32.9383 61.3031 32.1889 62.0503C31.4395 62.7974 31.3396 63.9928 31.8891 64.8396C31.2397 65.2381 30.4903 65.537 29.691 65.786C29.4912 64.74 28.5919 63.9928 27.4928 63.9928C26.3938 63.9928 25.4945 64.7898 25.2947 65.8358C24.4954 65.6366 23.746 65.3377 23.0466 64.9392C23.696 64.0925 23.5961 62.8472 22.8468 62.0503C22.0474 61.2533 20.7985 61.2035 19.9492 61.851C19.5495 61.1537 19.1998 60.4065 19 59.6096C20.0991 59.4601 20.9484 58.5635 20.9484 57.4179C20.9484 56.2723 20.0991 55.3757 19 55.2263Z" stroke="#AA885F" stroke-width="2" stroke-miterlimit="10" stroke-linecap="round" stroke-linejoin="round"/>
<circle cx="27.4179" cy="57.4179" r="3.20896" stroke="#AA885F" stroke-width="2"/>
<rect x="49" y="37" width="4" height="14" stroke="#AA885F" stroke-width="2"/>
<rect x="45" y="41" width="4" height="10" stroke="#AA885F" stroke-width="2"/>
<rect x="41" y="45" width="4" height="6" stroke="#AA885F" stroke-width="2"/>
<rect x="38" y="50" width="18" height="2" fill="#AA885F"/>
<path d="M35 33V34H36H41.917C41.441 36.8377 38.973 39 36 39C32.6863 39 30 36.3137 30 33C30 30.027 32.1623 27.559 35 27.083V33Z" stroke="#AA885F" stroke-width="2"/>
<path d="M39 25.083C41.5125 25.5045 43.4955 27.4875 43.917 30L39 30L39 25.083Z" stroke="#AA885F" stroke-width="2"/>
</svg>
