<svg width="270" height="100" viewBox="0 0 270 100" fill="none" xmlns="http://www.w3.org/2000/svg">
<rect width="270" height="100" fill="#101010"/>
<path d="M155.3 48.5999H164.6V42.7999H155.3V37.7H163.6C165.3 37.7 166.1 36.9 166.1 35.2V31.7H150.6C148.9 31.7 148.2 32.5 148.2 34.2V57.5999C148.2 59.2999 149 60.0999 150.6 60.0999H163.8C165.5 60.0999 166.3 59.2999 166.3 57.5999V54.0999H155.2V48.5999H155.3Z" fill="#AA885F"/>
<path d="M68.4998 73.1C69.8998 72.6 70.5998 71.5 70.5998 70C70.5998 67.5 68.9998 66.2 65.8998 66.2H62.1998C61.4998 66.2 61.2998 66.6 61.2998 67.3V79.4C61.2998 80.1 61.4998 80.5 62.1998 80.5H66.3998C69.3998 80.5 71.0998 79.2 71.0998 76.6C71.1998 74.8 70.2998 73.6 68.4998 73.1ZM63.3998 68.1H65.7998C67.3998 68.1 68.4998 68.6 68.4998 70.2C68.4998 71.8 67.4998 72.3 65.9998 72.3H63.3998V68.1ZM66.2998 78.6H63.3998V74.1H66.2998C67.8998 74.1 68.9998 74.7 68.9998 76.4C68.9998 78.1 67.8998 78.6 66.2998 78.6Z" fill="#AA885F"/>
<path d="M63.7999 60.2H76.9999C78.6999 60.2 79.4999 59.4 79.4999 57.7V54.2H68.3999V48.5999H77.6999V42.7999H68.3999V37.7H76.6999C78.3999 37.7 79.1999 36.9 79.1999 35.2V31.7H63.7999C62.0999 31.7 61.3999 32.5 61.3999 34.2V57.5999C61.2999 59.3999 62.0999 60.2 63.7999 60.2Z" fill="#AA885F"/>
<path d="M126.9 34.2001V37.8H132.9V60.2001H140V37.8H143.5C145.1 37.8 146 37.0001 146 35.4001V31.8H129.4C127.7 31.8 126.9 32.5001 126.9 34.2001Z" fill="#AA885F"/>
<path d="M88.3998 69.3C87.3998 69.3 86.1998 69.7 85.2998 70.7V70.3C85.2998 69.8 84.9998 69.4 84.2998 69.4H83.2998V80.5H85.2998V71.8C85.8998 71.3 86.7998 70.9 87.5998 70.9C88.8998 70.9 89.5998 71.5 89.5998 72.8V80.5H91.5998V72.7C91.5998 70.6 90.4998 69.3 88.3998 69.3Z" fill="#AA885F"/>
<path d="M102.7 69.4H101C100.6 69.4 100.4 69.5 100.2 69.8L96 74.2V65.8H94.9C94.2 65.8 94 66.2 94 66.8V80.4H96V75L99.9 79.7C100.2 80.1 100.4 80.3 100.9 80.3H102.7C102.7 80.1 102.7 80 102.5 79.9L98 74.5L102.5 69.8C102.6 69.7 102.7 69.5 102.7 69.4Z" fill="#AA885F"/>
<path d="M114.1 39.5001C114.1 38.3001 114.7 37.8001 116.9 37.8001H125V35.0001C125 32.2001 121.9 31.6001 116 31.6001C109.5 31.6001 106.6 35.0001 106.6 39.4001C106.6 49.3001 118.9 48.5001 118.9 52.3001C118.9 53.7001 118 54.3001 116 54.3001H106.5V57.0001C106.5 59.6001 110.6 60.4001 115.9 60.4001C123.9 60.4001 126.5 56.4001 126.5 51.8001C126.4 42.2001 114.1 42.9001 114.1 39.5001Z" fill="#AA885F"/>
<path d="M99.3996 48.0999C102.9 46.6999 104.4 44.1999 104.4 40.2999C104.4 34.6999 100.7 31.7 94.1996 31.7H84.9996C83.2996 31.7 82.5996 32.5 82.5996 34.2V60.0999H89.6996V48.5999H91.8996L96.8996 58.9C97.4996 60.2 98.0996 60.2 99.2996 60.2H105.4C105.4 59.8 105.2 59.4 105 59L99.3996 48.0999ZM93.5996 42.9H89.5996V37.7999H93.5996C95.5996 37.7999 97.1996 38.2 97.1996 40.4C97.1996 42.6 95.5996 42.9 93.5996 42.9Z" fill="#AA885F"/>
<path d="M76.6999 69.3C74.3999 69.3 73.1999 69.3 73.1999 70.3V70.9H76.3999C77.7999 70.9 78.7999 71.3 78.7999 72.8V73.8C75.3999 74 72.3999 74.7 72.3999 77.5C72.3999 79.4 73.5999 80.6 75.5999 80.6C76.5999 80.6 77.7999 80.2 78.6999 79.2V79.6C78.6999 80.2 78.9999 80.5 79.6999 80.5H80.6999V72.7C80.7999 70.4 79.2999 69.3 76.6999 69.3ZM78.7999 78C78.1999 78.5 77.3999 78.9 76.4999 78.9C75.3999 78.9 74.4999 78.5 74.4999 77.2C74.4999 75.8 75.6999 75.1 78.7999 75V78Z" fill="#AA885F"/>
<path d="M191.3 30.1C192.7 30.1 194 29.6 195 28.5C196 27.5 196.5 26.2001 196.5 24.7001C196.5 23.3001 196 22 194.9 20.9C193.9 19.9 192.6 19.3 191.2 19.3C189.8 19.3 188.5 19.8 187.5 20.9C186.5 21.9 186 23.2 186 24.6C186 26.1 186.5 27.3 187.5 28.4C188.6 29.6 189.9 30.1 191.3 30.1Z" fill="#AA885F"/>
<path d="M208.7 40.6V37.4001C208.7 34.3001 206.2 31.8 203.1 31.8H179.5C176.4 31.8 173.9 34.3001 173.9 37.4001V49.6H200.2V51.5H173.9V54.7001C173.9 57.8001 176.4 60.3 179.5 60.3H203.1C206.2 60.3 208.7 57.8001 208.7 54.7001V42.4001H182.4V40.5H208.7V40.6Z" fill="#AA885F"/>
</svg>
