<svg width="859" height="580" viewBox="0 0 859 580" fill="none" xmlns="http://www.w3.org/2000/svg">
<path d="M621 580H437C432.6 580 429 576.4 429 572V238C429 233.6 432.6 230 437 230H621C625.4 230 629 233.6 629 238V572C629 576.4 625.4 580 621 580Z" fill="#80001A"/>
<path d="M605 559H453C450.8 559 449 557.2 449 555V515C449 512.8 450.8 511 453 511H605C607.2 511 609 512.8 609 515V555C609 557.2 607.2 559 605 559Z" fill="#590012"/>
<path d="M605 509H453C450.8 509 449 507.2 449 505V465C449 462.8 450.8 461 453 461H605C607.2 461 609 462.8 609 465V505C609 507.2 607.2 509 605 509Z" fill="#590012"/>
<path d="M605 459H453C450.8 459 449 457.2 449 455V415C449 412.8 450.8 411 453 411H605C607.2 411 609 412.8 609 415V455C609 457.2 607.2 459 605 459Z" fill="#AA885F"/>
<path d="M605 409H453C450.8 409 449 407.2 449 405V365C449 362.8 450.8 361 453 361H605C607.2 361 609 362.8 609 365V405C609 407.2 607.2 409 605 409Z" fill="#AA885F"/>
<path d="M605 359H453C450.8 359 449 357.2 449 355V315C449 312.8 450.8 311 453 311H605C607.2 311 609 312.8 609 315V355C609 357.2 607.2 359 605 359Z" fill="#101010"/>
<path d="M402 580H218C213.6 580 210 576.4 210 572V288C210 283.6 213.6 280 218 280H402C406.4 280 410 283.6 410 288V572C410 576.4 406.4 580 402 580Z" fill="#EBEBEB"/>
<path d="M386 409H234C231.8 409 230 407.2 230 405V365C230 362.8 231.8 361 234 361H386C388.2 361 390 362.8 390 365V405C390 407.2 388.2 409 386 409Z" fill="#AA885F"/>
<path d="M386 459H234C231.8 459 230 457.2 230 455V415C230 412.8 231.8 411 234 411H386C388.2 411 390 412.8 390 415V455C390 457.2 388.2 459 386 459Z" fill="#AA885F"/>
<path d="M386 509H234C231.8 509 230 507.2 230 505V465C230 462.8 231.8 461 234 461H386C388.2 461 390 462.8 390 465V505C390 507.2 388.2 509 386 509Z" fill="white"/>
<path d="M386 559H234C231.8 559 230 557.2 230 555V515C230 512.8 231.8 511 234 511H386C388.2 511 390 512.8 390 515V555C390 557.2 388.2 559 386 559Z" fill="white"/>
<path d="M162.3 330H207.7" stroke="#AA8960" stroke-width="2" stroke-miterlimit="10"/>
<path d="M166.3 333.4L162.9 330L166.3 326.6H163.4L160 330L163.4 333.4H166.3Z" fill="#AA8960"/>
<path d="M203.7 333.4L207.1 330L203.7 326.6H206.6L210 330L206.6 333.4H203.7Z" fill="#AA8960"/>
<path d="M759 393.3V408.7" stroke="#AA8960" stroke-width="2" stroke-miterlimit="10"/>
<path d="M755.6 397.3L759 393.9L762.4 397.3V394.4L759 391L755.6 394.4V397.3Z" fill="#AA8960"/>
<path d="M755.6 404.7L759 408.1L762.4 404.7V407.6L759 411L755.6 407.6V404.7Z" fill="#AA8960"/>
<path d="M524.6 265.6C528.4 264.6 532.4 262.4 532.4 257.7C532.4 252 527.2 250.3 519.8 250.3H515.9V251.4C519 251.4 524.5 252 524.5 257.8C524.5 264.2 520.6 265.1 518 265.1V266.2C518.9 266.2 525 266.7 525 273.1C525 279.6 519.6 281.1 516.4 281.1H515.9V282.2H518.8C527.3 282.2 533.3 279.8 533.3 273C533.4 268.6 529.6 266.4 524.6 265.6Z" fill="#AA8960"/>
<path d="M554.6 250.3H546.9L534.8 266.3L546.9 282.3H555L542.5 266.3L554.6 250.3Z" fill="#AA8960"/>
<path d="M503.6 250.3C503.6 250.3 504.7 252 504.7 256.4V287.4C504.7 291.2 502.6 294 501 294.9V295.3C501 295.3 511.9 295.3 511.9 285.2V250.3H503.6Z" fill="#AA8960"/>
<path d="M191.3 435H227.7" stroke="#AA885F" stroke-width="2" stroke-miterlimit="10"/>
<path d="M223.7 438.4L227.1 435L223.7 431.6H226.6L230 435L226.6 438.4H223.7Z" fill="#AA885F"/>
<path d="M191.3 461H162.3" stroke="#AA885F" stroke-width="2" stroke-miterlimit="10"/>
<path d="M166.3 457.6L162.9 461L166.3 464.4H163.4L160 461L163.4 457.6H166.3Z" fill="#AA885F"/>
<path d="M191.3 485H227.7" stroke="#AA885F" stroke-width="2" stroke-miterlimit="10"/>
<path d="M223.7 488.4L227.1 485L223.7 481.6H226.6L230 485L226.6 488.4H223.7Z" fill="#AA885F"/>
<path d="M227.7 535H191.3V385H227.7" stroke="#AA885F" stroke-width="2" stroke-miterlimit="10"/>
<path d="M223.7 531.6L227.1 535L223.7 538.4H226.6L230 535L226.6 531.6H223.7Z" fill="#AA885F"/>
<path d="M223.7 388.4L227.1 385L223.7 381.6H226.6L230 385L226.6 388.4H223.7Z" fill="#AA885F"/>
<path d="M529 220V227.7" stroke="#AA8960" stroke-width="2" stroke-miterlimit="10"/>
<path d="M525.6 223.7L529 227.1L532.4 223.7V226.6L529 230L525.6 226.6V223.7Z" fill="#AA8960"/>
<path d="M605 220H453C450.8 220 449 218.2 449 216V184C449 181.8 450.8 180 453 180H605C607.2 180 609 181.8 609 184V216C609 218.2 607.2 220 605 220Z" fill="#A0A0A0"/>
<path d="M506.1 195.8H508.5V204.9H506.1V195.8Z" fill="white"/>
<path d="M511.6 195.8H514.1L516.1 199.9L517 201.9H517.1C517 200.9 516.8 199.5 516.8 198.4V195.8H519.1V204.9H516.6L514.6 200.8L513.7 198.8H513.6C513.7 199.8 513.9 201.2 513.9 202.3V204.9H511.6V195.8Z" fill="white"/>
<path d="M523.8 197.8H521.4V195.8H528.6V197.8H526.2V204.9H523.8V197.8Z" fill="white"/>
<path d="M531 195.8H536.9V197.8H533.4V199.2H536.4V201.2H533.4V202.8H537V204.8H531V195.8Z" fill="white"/>
<path d="M544.9 204.9L543.3 201.8H542.4V204.9H540V195.8H543.4C545.4 195.8 547 196.5 547 198.7C547 200 546.4 200.9 545.5 201.3L547.5 204.8H544.9V204.9ZM542.4 199.9H543.3C544.3 199.9 544.8 199.5 544.8 198.7C544.8 197.9 544.3 197.7 543.3 197.7H542.4V199.9Z" fill="white"/>
<path d="M550 195.8H555.9V197.8H552.4V199.5H555.4V201.5H552.4V204.8H550V195.8Z" fill="white"/>
<path d="M562.6 202.9H560.1L559.7 204.8H557.2L560 195.7H562.9L565.7 204.8H563.2L562.6 202.9ZM562.2 201.1L562 200.5C561.8 199.6 561.6 198.5 561.3 197.6H561.2C561 198.5 560.8 199.6 560.6 200.5L560.4 201.1H562.2Z" fill="white"/>
<path d="M567.1 200.4C567.1 197.3 569.2 195.6 571.5 195.6C572.7 195.6 573.7 196.2 574.3 196.8L573 198.3C572.6 197.9 572.1 197.6 571.5 197.6C570.4 197.6 569.5 198.6 569.5 200.2C569.5 201.9 570.3 202.9 571.5 202.9C572.2 202.9 572.8 202.5 573.2 202.1L574.5 203.6C573.7 204.5 572.7 204.9 571.5 204.9C569.1 205 567.1 203.5 567.1 200.4Z" fill="white"/>
<path d="M576.7 195.8H582.6V197.8H579.1V199.2H582.1V201.2H579.1V202.8H582.7V204.8H576.7V195.8Z" fill="white"/>
<path d="M466.2 329.7H473.8V332.3H469.3V334.1H473.1V336.7H469.3V338.8H473.9V341.4H466.2V329.7Z" fill="#AA8961"/>
<path d="M476.4 335.7H480.9V337.9H476.4V335.7Z" fill="#AA8961"/>
<path d="M484 329.7H491.6V332.3H487.1V334.5H491V337.1H487.1V341.4H484V329.7Z" fill="#AA8961"/>
<path d="M494.2 329.7H497.5L499.3 334.5C499.5 335.1 499.7 335.9 499.9 336.6H500C500.2 335.9 500.4 335.2 500.6 334.5L502.3 329.7H505.6V341.4H502.8V337.9C502.8 336.7 503.1 334.9 503.2 333.7H503.1L502.1 336.5L500.7 340.4H499L497.6 336.5L496.7 333.7H496.6C496.7 334.9 497 336.7 497 337.9V341.4H494.2V329.7Z" fill="#AA8961"/>
<path d="M509 329.7H512.1V334.1H515.6V329.7H518.7V341.4H515.6V336.8H512.1V341.4H509V329.7Z" fill="#AA8961"/>
<path d="M530.6 329.7H533.9L535.7 334.5C535.9 335.1 536.1 335.9 536.3 336.6H536.4C536.6 335.9 536.8 335.2 537 334.5L538.7 329.7H542V341.4H539.2V337.9C539.2 336.7 539.5 334.9 539.6 333.7H539.5L538.5 336.5L537.1 340.4H535.4L534 336.5L533.1 333.7H533C533.1 334.9 533.4 336.7 533.4 337.9V341.4H530.6V329.7Z" fill="#AA8961"/>
<path d="M544.8 335.4C544.8 331.5 547 329.4 550.2 329.4C553.4 329.4 555.6 331.6 555.6 335.4C555.6 339.3 553.4 341.5 550.2 341.5C547 341.6 544.8 339.3 544.8 335.4ZM552.5 335.4C552.5 333.3 551.6 332.1 550.2 332.1C548.8 332.1 547.9 333.3 547.9 335.4C547.9 337.5 548.8 338.9 550.2 338.9C551.6 338.9 552.5 337.6 552.5 335.4Z" fill="#AA8961"/>
<path d="M558.5 329.7H562C565.6 329.7 568 331.4 568 335.5C568 339.6 565.6 341.4 562.2 341.4H558.6V329.7H558.5ZM561.7 338.9C563.4 338.9 564.7 338.2 564.7 335.5C564.7 332.8 563.4 332.2 561.7 332.2H561.5V338.9H561.7Z" fill="#AA8961"/>
<path d="M570.6 335.7V329.7H573.7V336.1C573.7 338.2 574.2 338.9 575.5 338.9C576.8 338.9 577.3 338.1 577.3 336.1V329.7H580.3V335.7C580.3 339.7 578.8 341.6 575.5 341.6C572.2 341.6 570.6 339.7 570.6 335.7Z" fill="#AA8961"/>
<path d="M583.5 329.7H586.6V338.8H591V341.4H583.5V329.7Z" fill="#AA8961"/>
<path d="M514.9 380.9H521V382H516.3V385.6H520.3V386.7H516.3V391.4H515L514.9 380.9Z" fill="white"/>
<path d="M522.7 380.9H524.3L526.3 386.5C526.6 387.2 526.8 388 527.1 388.7H527.2C527.5 388 527.7 387.2 527.9 386.5L529.9 380.9H531.5V391.4H530.3V385.6C530.3 384.7 530.4 383.4 530.5 382.5H530.4L529.6 384.9L527.6 390.3H526.7L524.7 384.9L523.9 382.5H523.8C523.9 383.4 524 384.7 524 385.6V391.4H522.8L522.7 380.9Z" fill="white"/>
<path d="M534.1 380.9H535.4V385.3H540.3V380.9H541.6V391.4H540.3V386.5H535.4V391.4H534.1V380.9Z" fill="white"/>
<path d="M466.3 430.9H467.6V441.4H466.3V430.9Z" fill="white"/>
<path d="M469.4 440.5L470.1 439.6C470.8 440.1 471.5 440.5 472.4 440.5C473.4 440.5 473.9 440 473.9 439.3C473.9 438.5 473 438.1 472.1 437.8C471 437.4 469.8 436.9 469.8 435.6C469.8 434.4 470.8 433.4 472.5 433.4C473.5 433.4 474.3 433.8 474.9 434.3L474.3 435.1C473.8 434.7 473.2 434.4 472.5 434.4C471.5 434.4 471.1 434.9 471.1 435.5C471.1 436.2 471.9 436.5 472.8 436.8C473.9 437.2 475.2 437.7 475.2 439.2C475.2 440.5 474.2 441.5 472.4 441.5C471.2 441.5 470.1 441.1 469.4 440.5Z" fill="white"/>
<path d="M476.8 433.6H477.9L478 434.7C478.7 434 479.5 433.4 480.4 433.4C481.6 433.4 482.2 434 482.5 434.9C483.3 434 484.1 433.4 485.1 433.4C486.7 433.4 487.5 434.5 487.5 436.4V441.3H486.2V436.5C486.2 435 485.7 434.4 484.8 434.4C484.2 434.4 483.6 434.8 482.8 435.6V441.2H481.5V436.4C481.5 434.9 481 434.3 480 434.3C479.4 434.3 478.8 434.7 478 435.5V441.1H476.7V433.6H476.8Z" fill="white"/>
<path d="M489.5 437.5C489.5 435 491.2 433.4 493 433.4C495 433.4 496.1 434.8 496.1 437.1C496.1 437.4 496.1 437.7 496.1 437.9H490.8C490.9 439.5 491.9 440.6 493.4 440.6C494.1 440.6 494.8 440.4 495.3 440L495.8 440.9C495.1 441.3 494.3 441.7 493.2 441.7C491.1 441.5 489.5 440 489.5 437.5ZM494.9 436.8C494.9 435.2 494.2 434.4 493 434.4C491.9 434.4 490.9 435.3 490.8 436.8H494.9Z" fill="white"/>
<path d="M497.9 433.6H499L499.1 435C499.6 434 500.4 433.4 501.3 433.4C501.6 433.4 501.9 433.4 502.1 433.6L501.8 434.8C501.5 434.7 501.4 434.7 501 434.7C500.3 434.7 499.6 435.2 499 436.5V441.5H497.7V433.6H497.9Z" fill="white"/>
<path d="M502.8 437.5C502.8 435 504.5 433.4 506.3 433.4C508.3 433.4 509.4 434.8 509.4 437.1C509.4 437.4 509.4 437.7 509.4 437.9H504.1C504.2 439.5 505.2 440.6 506.7 440.6C507.4 440.6 508.1 440.4 508.6 440L509.1 440.9C508.4 441.3 507.6 441.7 506.5 441.7C504.5 441.5 502.8 440 502.8 437.5ZM508.3 436.8C508.3 435.2 507.6 434.4 506.4 434.4C505.3 434.4 504.3 435.3 504.2 436.8H508.3Z" fill="white"/>
<path d="M511.5 439V434.7H510.3V433.7L511.5 433.6L511.7 431.4H512.8V433.6H514.9V434.7H512.8V439C512.8 440 513.1 440.5 514 440.5C514.3 440.5 514.6 440.4 514.9 440.3L515.2 441.3C514.8 441.4 514.2 441.6 513.8 441.6C512.1 441.5 511.5 440.5 511.5 439Z" fill="white"/>
<path d="M516.6 439.8V430H517.9V439.9C517.9 440.3 518.1 440.5 518.3 440.5C518.4 440.5 518.4 440.5 518.6 440.5L518.8 441.5C518.6 441.6 518.4 441.6 518 441.6C517 441.5 516.6 440.9 516.6 439.8Z" fill="white"/>
<path d="M519.8 437.5C519.8 435 521.5 433.4 523.3 433.4C525.3 433.4 526.4 434.8 526.4 437.1C526.4 437.4 526.4 437.7 526.4 437.9H521.1C521.2 439.5 522.2 440.6 523.7 440.6C524.4 440.6 525.1 440.4 525.6 440L526.1 440.9C525.4 441.3 524.6 441.7 523.5 441.7C521.5 441.5 519.8 440 519.8 437.5ZM525.3 436.8C525.3 435.2 524.6 434.4 523.4 434.4C522.3 434.4 521.3 435.3 521.2 436.8H525.3Z" fill="white"/>
<path d="M528.3 433.6H529.4L529.5 434.7C530.2 434 531 433.4 532.1 433.4C533.7 433.4 534.5 434.5 534.5 436.4V441.3H533.2V436.5C533.2 435 532.8 434.4 531.7 434.4C530.9 434.4 530.4 434.8 529.6 435.6V441.2H528.3V433.6Z" fill="white"/>
<path d="M542.9 437.5C542.9 434.9 544.6 433.4 546.6 433.4C547.6 433.4 548.3 433.8 548.9 434.3L548.2 435.2C547.8 434.8 547.3 434.5 546.6 434.5C545.2 434.5 544.2 435.7 544.2 437.5C544.2 439.3 545.2 440.5 546.6 440.5C547.3 440.5 547.9 440.1 548.4 439.7L549 440.6C548.3 441.2 547.4 441.6 546.5 441.6C544.5 441.5 542.9 440.1 542.9 437.5Z" fill="white"/>
<path d="M550.4 431.5L552.7 428.8L553.6 429.7L551.1 432.1L550.4 431.5ZM550.6 433.6H551.9V441.4H550.6V433.6Z" fill="white"/>
<path d="M554.4 433.6H555.5L555.6 434.7C556.3 434 557.1 433.4 558 433.4C559.2 433.4 559.8 434 560.1 434.9C560.9 434 561.7 433.4 562.7 433.4C564.3 433.4 565.1 434.5 565.1 436.4V441.3H563.8V436.5C563.8 435 563.3 434.4 562.4 434.4C561.8 434.4 561.2 434.8 560.4 435.6V441.2H559.1V436.4C559.1 434.9 558.6 434.3 557.6 434.3C557 434.3 556.4 434.7 555.6 435.5V441.1H554.3V433.6H554.4Z" fill="white"/>
<path d="M566.7 440.7L570.8 434.7H567.2V433.6H572.5V434.3L568.4 440.3H572.6V441.4H566.7V440.7Z" fill="white"/>
<path d="M573.5 437.5C573.5 435 575.2 433.4 577 433.4C579 433.4 580.1 434.8 580.1 437.1C580.1 437.4 580.1 437.7 580.1 437.9H574.8C574.9 439.5 575.9 440.6 577.4 440.6C578.1 440.6 578.8 440.4 579.3 440L579.8 440.9C579.1 441.3 578.3 441.7 577.2 441.7C575.1 441.5 573.5 440 573.5 437.5ZM578.9 436.8C578.9 435.2 578.2 434.4 577 434.4C575.9 434.4 574.9 435.3 574.8 436.8H578.9Z" fill="white"/>
<path d="M582.2 439V434.7H581V433.7L582.2 433.6L582.4 431.4H583.5V433.6H585.6V434.7H583.5V439C583.5 440 583.8 440.5 584.7 440.5C585 440.5 585.3 440.4 585.6 440.3L585.9 441.3C585.5 441.4 584.9 441.6 584.5 441.6C582.7 441.5 582.2 440.5 582.2 439Z" fill="white"/>
<path d="M587.9 439V434.7H586.7V433.7L587.9 433.6L588.1 431.4H589.2V433.6H591.3V434.7H589.2V439C589.2 440 589.5 440.5 590.4 440.5C590.7 440.5 591 440.4 591.3 440.3L591.6 441.3C591.2 441.4 590.6 441.6 590.2 441.6C588.4 441.5 587.9 440.5 587.9 439Z" fill="white"/>
<path d="M484 480.9H490.1V482H485.4V485.3H489.4V486.4H485.4V490.2H490.3V491.3H484V480.9Z" fill="white"/>
<path d="M492 489.8V480H493.3V489.9C493.3 490.3 493.5 490.5 493.7 490.5C493.8 490.5 493.8 490.5 494 490.5L494.2 491.5C494 491.6 493.8 491.6 493.4 491.6C492.4 491.5 492 490.9 492 489.8Z" fill="white"/>
<path d="M495.9 489.8V480H497.2V489.9C497.2 490.3 497.4 490.5 497.6 490.5C497.7 490.5 497.7 490.5 497.9 490.5L498.1 491.5C497.9 491.6 497.7 491.6 497.3 491.6C496.3 491.5 495.9 490.9 495.9 489.8Z" fill="white"/>
<path d="M499.2 487.5C499.2 485 500.9 483.4 502.7 483.4C504.7 483.4 505.8 484.8 505.8 487.1C505.8 487.4 505.8 487.7 505.8 487.9H500.5C500.6 489.5 501.6 490.6 503.1 490.6C503.8 490.6 504.5 490.4 505 490L505.5 490.9C504.8 491.3 504 491.7 502.9 491.7C500.8 491.5 499.2 490 499.2 487.5ZM504.6 486.8C504.6 485.2 503.9 484.4 502.7 484.4C501.6 484.4 500.6 485.3 500.5 486.8H504.6Z" fill="white"/>
<path d="M507.6 483.6H508.7L508.8 484.7C509.5 484 510.3 483.4 511.4 483.4C513 483.4 513.8 484.5 513.8 486.4V491.3H512.5V486.5C512.5 485 512.1 484.4 511 484.4C510.2 484.4 509.7 484.8 508.9 485.6V491.2H507.6V483.6Z" fill="white"/>
<path d="M516.4 489V484.7H515.2V483.7L516.4 483.6L516.6 481.4H517.7V483.6H519.8V484.7H517.7V489C517.7 490 518 490.5 518.9 490.5C519.2 490.5 519.5 490.4 519.8 490.3L520.1 491.3C519.7 491.4 519.1 491.6 518.7 491.6C517 491.5 516.4 490.5 516.4 489Z" fill="white"/>
<path d="M521.5 483.6H522.6L522.7 484.7C523.4 484 524.2 483.4 525.1 483.4C526.3 483.4 526.9 484 527.2 484.9C528 484 528.8 483.4 529.8 483.4C531.4 483.4 532.2 484.5 532.2 486.4V491.3H531V486.5C531 485 530.5 484.4 529.6 484.4C529 484.4 528.4 484.8 527.6 485.6V491.2H526.3V486.4C526.3 484.9 525.8 484.3 524.8 484.3C524.2 484.3 523.6 484.7 522.8 485.5V491.1H521.5V483.6Z" fill="white"/>
<path d="M534.2 487.5C534.2 484.9 535.9 483.4 537.8 483.4C539.7 483.4 541.4 484.9 541.4 487.5C541.4 490.1 539.7 491.6 537.8 491.6C535.9 491.5 534.2 490.1 534.2 487.5ZM540 487.5C540 485.7 539.1 484.5 537.8 484.5C536.5 484.5 535.6 485.7 535.6 487.5C535.6 489.3 536.5 490.5 537.8 490.5C539.1 490.5 540 489.3 540 487.5Z" fill="white"/>
<path d="M543.3 483.6H544.4L544.5 484.7C545.2 484 546 483.4 547.1 483.4C548.7 483.4 549.5 484.5 549.5 486.4V491.3H548.2V486.5C548.2 485 547.8 484.4 546.7 484.4C545.9 484.4 545.4 484.8 544.6 485.6V491.2H543.3V483.6Z" fill="white"/>
<path d="M551.4 487.5C551.4 485 553 483.4 554.8 483.4C555.7 483.4 556.3 483.7 557 484.3L556.9 483V480H558.2V491.4H557.1L557 490.5C556.4 491.1 555.6 491.6 554.6 491.6C552.7 491.5 551.4 490.1 551.4 487.5ZM556.9 489.4V485.3C556.2 484.7 555.7 484.5 555 484.5C553.8 484.5 552.8 485.7 552.8 487.5C552.8 489.4 553.6 490.5 554.9 490.5C555.7 490.4 556.3 490.1 556.9 489.4Z" fill="white"/>
<path d="M560.2 489.3C560.2 487.6 561.7 486.8 565 486.4C565 485.4 564.7 484.4 563.4 484.4C562.5 484.4 561.7 484.8 561.1 485.2L560.6 484.3C561.3 483.8 562.4 483.3 563.7 483.3C565.6 483.3 566.4 484.6 566.4 486.5V491.3H565.3L565.2 490.4C564.5 491 563.6 491.5 562.6 491.5C561.1 491.5 560.2 490.7 560.2 489.3ZM564.9 489.5V487.3C562.3 487.6 561.4 488.3 561.4 489.3C561.4 490.2 562 490.5 562.8 490.5C563.6 490.5 564.2 490.1 564.9 489.5ZM562.6 481.5L564.9 478.8L565.8 479.7L563.3 482.1L562.6 481.5Z" fill="white"/>
<path d="M567.8 490.5L568.5 489.6C569.2 490.1 569.9 490.5 570.8 490.5C571.8 490.5 572.3 490 572.3 489.3C572.3 488.5 571.4 488.1 570.5 487.8C569.4 487.4 568.2 486.9 568.2 485.6C568.2 484.4 569.2 483.4 570.9 483.4C571.9 483.4 572.7 483.8 573.3 484.3L572.7 485.1C572.2 484.7 571.6 484.4 570.9 484.4C569.9 484.4 569.5 484.9 569.5 485.5C569.5 486.2 570.3 486.5 571.2 486.8C572.3 487.2 573.6 487.7 573.6 489.2C573.6 490.5 572.6 491.5 570.8 491.5C569.6 491.5 568.5 491.1 567.8 490.5Z" fill="white"/>
<path d="M518.9 530.9H520.3L522 536.6C522.4 537.8 522.6 538.8 523 540.1H523.1C523.5 538.9 523.7 537.9 524.1 536.6L525.8 530.9H527.2L523.9 541.4H522.3L518.9 530.9Z" fill="white"/>
<path d="M528.7 530.9H530V535.3H534.9V530.9H536.2V541.4H534.9V536.5H530V541.4H528.7V530.9Z" fill="white"/>
<path d="M609 436H656.7" stroke="#AA8960" stroke-width="2" stroke-miterlimit="10"/>
<path d="M652.7 439.4L656.1 436L652.7 432.6H655.6L659 436L655.6 439.4H652.7Z" fill="#AA8960"/>
<path d="M389 436H446.7" stroke="#997A55" stroke-width="2" stroke-miterlimit="10"/>
<path d="M442.7 439.4L446.1 436L442.7 432.6H445.6L449 436L445.6 439.4H442.7Z" fill="#997A55"/>
<path d="M391.3 386H449" stroke="#997A55" stroke-width="2" stroke-miterlimit="10"/>
<path d="M395.3 389.4L391.9 386L395.3 382.6H392.4L389 386L392.4 389.4H395.3Z" fill="#997A55"/>
<path d="M391.3 536H446.7" stroke="#997A55" stroke-width="2" stroke-miterlimit="10"/>
<path d="M395.3 539.4L391.9 536L395.3 532.6H392.4L389 536L392.4 539.4H395.3Z" fill="#997A55"/>
<path d="M442.7 539.4L446.1 536L442.7 532.6H445.6L449 536L445.6 539.4H442.7Z" fill="#997A55"/>
<path d="M851 461H667C662.6 461 659 457.4 659 453V419C659 414.6 662.6 411 667 411H851C855.4 411 859 414.6 859 419V453C859 457.4 855.4 461 851 461Z" fill="#EBEBEB"/>
<path d="M851 391H667C662.6 391 659 387.4 659 383V349C659 344.6 662.6 341 667 341H851C855.4 341 859 344.6 859 349V383C859 387.4 855.4 391 851 391Z" fill="#EBEBEB"/>
<path d="M729.7 359.7H732.8V364.1H732.9L735.9 359.7H739.3L735.8 364.5L740 371.5H736.6L734 367L732.9 368.6V371.5H729.8V359.7H729.7Z" fill="#AA885F"/>
<path d="M742.6 359.7H745.7V364.1H745.8L748.8 359.7H752.2L748.7 364.5L752.9 371.5H749.5L746.9 367L745.8 368.6V371.5H742.7V359.7H742.6Z" fill="#AA885F"/>
<path d="M754.9 369.9L756.7 367.8C757.5 368.5 758.6 368.9 759.4 368.9C760.3 368.9 760.7 368.6 760.7 368.1C760.7 367.5 760.1 367.4 759.1 367L757.6 366.4C756.3 365.9 755.2 364.8 755.2 363.1C755.2 361.1 757 359.5 759.6 359.5C760.9 359.5 762.4 360 763.5 361.1L762 363C761.2 362.4 760.5 362.2 759.7 362.2C758.9 362.2 758.5 362.5 758.5 363C758.5 363.6 759.2 363.8 760.2 364.2L761.6 364.8C763.1 365.4 763.9 366.4 763.9 368C763.9 370 762.2 371.7 759.3 371.7C757.8 371.6 756.1 371 754.9 369.9Z" fill="#AA885F"/>
<path d="M766.5 369.5L771.3 362.3H767V359.7H775.1V361.6L770.3 368.8H775.1V371.4H766.5V369.5Z" fill="#AA885F"/>
<path d="M778.6 359.7H782.8C785.2 359.7 787.2 360.3 787.2 362.6C787.2 363.6 786.6 364.8 785.7 365.1V365.2C786.8 365.5 787.7 366.4 787.7 367.9C787.7 370.3 785.6 371.4 783.1 371.4H778.5L778.6 359.7ZM782.7 364.2C783.7 364.2 784.2 363.7 784.2 363C784.2 362.3 783.7 362 782.7 362H781.7V364.2H782.7ZM782.9 369C784.1 369 784.7 368.6 784.7 367.7C784.7 366.8 784.1 366.5 782.9 366.5H781.6V369H782.9Z" fill="#AA885F"/>
<path d="M197 323H173V337H197V323Z" fill="white" stroke="#AA8961" stroke-width="2" stroke-miterlimit="10" stroke-linecap="round" stroke-linejoin="round"/>
<path d="M197 337L185 327.6L173 337H197Z" fill="white" stroke="#AA8961" stroke-width="2" stroke-miterlimit="10" stroke-linecap="round" stroke-linejoin="round"/>
<path d="M197 323L185 332.3L173 323H197Z" fill="white" stroke="#AA8961" stroke-width="2" stroke-miterlimit="10" stroke-linecap="round" stroke-linejoin="round"/>
<path d="M152 380H8C3.6 380 0 376.4 0 372V288C0 283.6 3.6 280 8 280H152C156.4 280 160 283.6 160 288V372C160 376.4 156.4 380 152 380Z" fill="#EBEBEB"/>
<path d="M22.5 348.7H25.6V353.1H25.7L28.7 348.7H32.1L28.6 353.5L32.8 360.5H29.4L26.8 356L25.7 357.6V360.5H22.6V348.7H22.5Z" fill="#AA8961"/>
<path d="M34.4 354.4C34.4 350.5 36.6 348.4 39.8 348.4C43 348.4 45.2 350.6 45.2 354.4C45.2 358.3 43 360.5 39.8 360.5C36.6 360.5 34.4 358.3 34.4 354.4ZM36.3 346.5C36.3 345.7 36.9 345.1 37.7 345.1C38.5 345.1 39.1 345.7 39.1 346.5C39.1 347.3 38.5 347.9 37.7 347.9C36.9 347.9 36.3 347.2 36.3 346.5ZM42.1 354.4C42.1 352.3 41.2 351.1 39.8 351.1C38.4 351.1 37.5 352.3 37.5 354.4C37.5 356.5 38.4 357.9 39.8 357.9C41.2 357.9 42.1 356.6 42.1 354.4ZM40.4 346.5C40.4 345.7 41 345.1 41.8 345.1C42.6 345.1 43.2 345.7 43.2 346.5C43.2 347.3 42.6 347.9 41.8 347.9C41 347.9 40.4 347.2 40.4 346.5Z" fill="#AA8961"/>
<path d="M50.9 351.2H47.8V348.6H57.1V351.2H54V360.3H50.9V351.2Z" fill="#AA8961"/>
<path d="M60.1 348.7H67.7V351.3H63.2V353.1H67V355.7H63.2V357.8H67.8V360.4H60.1V348.7Z" fill="#AA8961"/>
<path d="M71.6 348.7H74.7V357.8H79.1V360.4H71.6V348.7Z" fill="#AA8961"/>
<path d="M82.3 348.7H89.9V351.3H85.4V353.1H89.2V355.7H85.4V357.8H90V360.4H82.3V348.7Z" fill="#AA8961"/>
<path d="M93.1 358.5L97.9 351.3H93.6V348.7H101.7V350.6L96.9 357.8H101.7V360.4H93.1V358.5Z" fill="#AA8961"/>
<path d="M105.1 348.7H112.7V351.3H108.2V353.1H112V355.7H108.2V357.8H112.8V360.4H105.1V348.7Z" fill="#AA8961"/>
<path d="M118.8 351.2H115.7V348.6H125V351.2H121.9V360.3H118.8V351.2Z" fill="#AA8961"/>
<path d="M130.7 351.2H127.6V348.6H136.9V351.2H133.8V360.3H130.7V351.2Z" fill="#AA8961"/>
<path d="M152 510H8C3.6 510 0 506.4 0 502V418C0 413.6 3.6 410 8 410H152C156.4 410 160 413.6 160 418V502C160 506.4 156.4 510 152 510Z" fill="#EBEBEB"/>
<path d="M26.7002 478.7H29.8002V483.1H29.9002L32.9002 478.7H36.3002L32.8002 483.5L37.0002 490.5H33.6002L31.0002 486L29.9002 487.6V490.5H26.8002V478.7H26.7002Z" fill="#AA8961"/>
<path d="M38.5002 484.4C38.5002 480.5 40.7002 478.4 43.9002 478.4C47.1002 478.4 49.3002 480.6 49.3002 484.4C49.3002 488.3 47.1002 490.5 43.9002 490.5C40.7002 490.6 38.5002 488.3 38.5002 484.4ZM40.5002 476.5C40.5002 475.7 41.1002 475.1 41.9002 475.1C42.7002 475.1 43.3002 475.7 43.3002 476.5C43.3002 477.3 42.7002 477.9 41.9002 477.9C41.1002 477.9 40.5002 477.2 40.5002 476.5ZM46.2002 484.4C46.2002 482.3 45.3002 481.1 43.9002 481.1C42.5002 481.1 41.6002 482.3 41.6002 484.4C41.6002 486.5 42.5002 487.9 43.9002 487.9C45.3002 487.9 46.2002 486.6 46.2002 484.4ZM44.6002 476.5C44.6002 475.7 45.2002 475.1 46.0002 475.1C46.8002 475.1 47.4002 475.7 47.4002 476.5C47.4002 477.3 46.8002 477.9 46.0002 477.9C45.1002 477.9 44.6002 477.2 44.6002 476.5Z" fill="#AA8961"/>
<path d="M51.9001 488.5L56.7002 481.3H52.4001V478.7H60.5002V480.6L55.7002 487.8H60.5002V490.4H51.9001V488.5Z" fill="#AA8961"/>
<path d="M63.1002 488.4L65.2002 486.8C65.6002 487.6 66.2002 487.9 66.7002 487.9C67.5002 487.9 68.0002 487.5 68.0002 486V478.6H71.1002V486.2C71.1002 488.5 69.8002 490.5 67.1002 490.5C65.2002 490.6 64.0002 489.9 63.1002 488.4Z" fill="#AA8961"/>
<path d="M75.1002 478.7H82.7002V481.3H78.2002V483.1H82.0002V485.7H78.2002V487.8H82.8002V490.4H75.1002V478.7Z" fill="#AA8961"/>
<path d="M85.8002 484.6C85.8002 480.7 88.5002 478.4 91.6002 478.4C93.3002 478.4 94.6002 479.1 95.4002 479.9L93.8002 481.9C93.2002 481.4 92.6002 481 91.7002 481C90.1002 481 88.9002 482.3 88.9002 484.4C88.9002 486.6 89.9002 487.8 92.0002 487.8C92.3002 487.8 92.7002 487.7 92.9002 487.6V486H91.2002V483.5H95.7002V489.1C94.9002 489.9 93.4002 490.5 91.7002 490.5C88.4002 490.6 85.8002 488.6 85.8002 484.6Z" fill="#AA8961"/>
<path d="M101.4 486.3L97.9001 478.6H101.2L102.1 481C102.4 481.9 102.7 482.7 103 483.6H103.1C103.4 482.7 103.7 481.9 104 481L104.9 478.6H108.1L104.6 486.3V490.3H101.5L101.4 486.3Z" fill="#AA8961"/>
<path d="M110.2 488.5L115 481.3H110.7V478.7H118.8V480.6L114 487.8H118.8V490.4H110.2V488.5Z" fill="#AA8961"/>
<path d="M121.5 484.4C121.5 480.5 123.7 478.4 126.9 478.4C130.1 478.4 132.3 480.6 132.3 484.4C132.3 488.3 130.1 490.5 126.9 490.5C123.7 490.6 121.5 488.3 121.5 484.4ZM126.2 474.3L128.1 475.4L125.8 478L124.3 477.3L126.2 474.3ZM129.2 484.4C129.2 482.3 128.3 481.1 126.9 481.1C125.5 481.1 124.6 482.3 124.6 484.4C124.6 486.5 125.5 487.9 126.9 487.9C128.4 487.9 129.2 486.6 129.2 484.4ZM129.7 474.3L131.6 475.4L129.3 478L127.8 477.3L129.7 474.3Z" fill="#AA8961"/>
<path d="M621 170H437C432.6 170 429 166.4 429 162V8C429 3.6 432.6 0 437 0H621C625.4 0 629 3.6 629 8V162C629 166.4 625.4 170 621 170Z" fill="#EBEBEB"/>
<path d="M605 150H453C450.8 150 449 148.2 449 146V104C449 101.8 450.8 100 453 100H605C607.2 100 609 101.8 609 104V146C609 148.2 607.2 150 605 150Z" fill="white"/>
<path d="M481 129L481.8 128.1C482.6 128.9 483.6 129.4 484.7 129.4C486.1 129.4 486.9 128.7 486.9 127.7C486.9 126.6 486.1 126.3 485.2 125.8L483.7 125.1C482.7 124.7 481.6 123.9 481.6 122.4C481.6 120.8 483 119.6 484.9 119.6C486.1 119.6 487.3 120.1 488 120.9L487.3 121.8C486.7 121.2 485.9 120.8 484.9 120.8C483.7 120.8 482.9 121.4 482.9 122.3C482.9 123.3 483.8 123.7 484.6 124L486.1 124.6C487.3 125.1 488.3 125.8 488.3 127.4C488.3 129.1 486.9 130.4 484.7 130.4C483.2 130.5 481.9 129.9 481 129Z" fill="#404040"/>
<path d="M489.7 128.3C489.7 126.6 491.2 125.8 494.5 125.4C494.5 124.4 494.2 123.4 492.9 123.4C492 123.4 491.2 123.8 490.6 124.2L490.1 123.3C490.8 122.8 491.9 122.3 493.2 122.3C495.1 122.3 495.9 123.6 495.9 125.5V130.3H494.8L494.7 129.4C494 130 493.1 130.5 492.1 130.5C490.7 130.5 489.7 129.7 489.7 128.3ZM494.5 128.5V126.3C491.9 126.6 491 127.3 491 128.3C491 129.2 491.6 129.5 492.4 129.5C493.1 129.5 493.8 129.1 494.5 128.5Z" fill="#404040"/>
<path d="M496.2 133.6L496.5 132.6C496.7 132.7 497 132.7 497.2 132.7C498 132.7 498.2 132.1 498.2 131.2V122.5H499.5V131.2C499.5 132.8 498.9 133.8 497.4 133.8C496.8 133.8 496.4 133.7 496.2 133.6ZM497.9 120.1C497.9 119.6 498.3 119.3 498.8 119.3C499.3 119.3 499.7 119.6 499.7 120.1C499.7 120.6 499.3 120.9 498.8 120.9C498.3 121 497.9 120.6 497.9 120.1Z" fill="#404040"/>
<path d="M501.3 128.3C501.3 126.6 502.8 125.8 506.1 125.4C506.1 124.4 505.8 123.4 504.5 123.4C503.6 123.4 502.8 123.8 502.2 124.2L501.7 123.3C502.4 122.8 503.5 122.3 504.8 122.3C506.7 122.3 507.5 123.6 507.5 125.5V130.3H506.4L506.3 129.4C505.6 130 504.7 130.5 503.7 130.5C502.3 130.5 501.3 129.7 501.3 128.3ZM506.1 128.5V126.3C503.5 126.6 502.6 127.3 502.6 128.3C502.6 129.2 503.2 129.5 504 129.5C504.7 129.5 505.3 129.1 506.1 128.5ZM503.8 120.5L506.1 117.8L507 118.7L504.5 121.1L503.8 120.5Z" fill="#404040"/>
<path d="M509.9 128V123.7H508.7V122.7L509.9 122.6L510.1 120.4H511.2V122.6H513.3V123.7H511.2V128C511.2 129 511.5 129.5 512.4 129.5C512.7 129.5 513 129.4 513.3 129.3L513.6 130.3C513.2 130.4 512.6 130.6 512.2 130.6C510.4 130.5 509.9 129.5 509.9 128Z" fill="#404040"/>
<path d="M521.4 122.6H522.5L522.6 124C523.1 123 523.9 122.4 524.8 122.4C525.1 122.4 525.4 122.4 525.6 122.6L525.3 123.8C525 123.7 524.9 123.7 524.5 123.7C523.8 123.7 523.1 124.2 522.5 125.5V130.5H521.2V122.6H521.4Z" fill="#404040"/>
<path d="M526.3 126.5C526.3 124 528 122.4 529.8 122.4C531.8 122.4 532.9 123.8 532.9 126.1C532.9 126.4 532.9 126.7 532.9 126.9H527.6C527.7 128.5 528.7 129.6 530.2 129.6C530.9 129.6 531.6 129.4 532.1 129L532.6 129.9C531.9 130.3 531.1 130.7 530 130.7C528 130.5 526.3 129 526.3 126.5ZM531.8 125.8C531.8 124.2 531.1 123.4 529.9 123.4C528.8 123.4 527.8 124.3 527.7 125.8H531.8Z" fill="#404040"/>
<path d="M534.8 122.6H535.9L536 123.7C536.7 123 537.5 122.4 538.6 122.4C540.2 122.4 541 123.5 541 125.4V130.3H539.7V125.5C539.7 124 539.3 123.4 538.2 123.4C537.4 123.4 536.9 123.8 536.1 124.6V130.2H534.8V122.6Z" fill="#404040"/>
<path d="M542.9 126.5C542.9 124 544.5 122.4 546.3 122.4C547.2 122.4 547.8 122.7 548.5 123.3L548.4 122V119H549.7V130.4H548.6L548.5 129.5C547.9 130.1 547.1 130.6 546.1 130.6C544.2 130.5 542.9 129.1 542.9 126.5ZM548.4 128.4V124.3C547.7 123.7 547.2 123.5 546.5 123.5C545.3 123.5 544.3 124.7 544.3 126.5C544.3 128.4 545.1 129.5 546.4 129.5C547.1 129.4 547.8 129.1 548.4 128.4Z" fill="#404040"/>
<path d="M551.4 129.5L552.1 128.6C552.8 129.1 553.5 129.5 554.4 129.5C555.4 129.5 555.9 129 555.9 128.3C555.9 127.5 555 127.1 554.1 126.8C553 126.4 551.8 125.9 551.8 124.6C551.8 123.4 552.8 122.4 554.5 122.4C555.5 122.4 556.3 122.8 556.9 123.3L556.3 124.1C555.8 123.7 555.2 123.4 554.5 123.4C553.5 123.4 553.1 123.9 553.1 124.5C553.1 125.2 553.9 125.5 554.8 125.8C555.9 126.2 557.2 126.7 557.2 128.2C557.2 129.5 556.2 130.5 554.4 130.5C553.2 130.5 552.1 130.1 551.4 129.5Z" fill="#404040"/>
<path d="M558.2 129.7L562.3 123.7H558.6V122.6H563.9V123.3L559.8 129.3H564V130.4H558.1V129.7H558.2Z" fill="#404040"/>
<path d="M564.9 126.5C564.9 124 566.6 122.4 568.4 122.4C570.4 122.4 571.5 123.8 571.5 126.1C571.5 126.4 571.5 126.7 571.5 126.9H566.2C566.3 128.5 567.3 129.6 568.8 129.6C569.5 129.6 570.2 129.4 570.7 129L571.2 129.9C570.5 130.3 569.7 130.7 568.6 130.7C566.6 130.5 564.9 129 564.9 126.5ZM570.4 125.8C570.4 124.2 569.7 123.4 568.5 123.4C567.4 123.4 566.4 124.3 566.3 125.8H570.4Z" fill="#404040"/>
<path d="M573.4 122.6H574.5L574.6 124C575.1 123 575.9 122.4 576.8 122.4C577.1 122.4 577.4 122.4 577.6 122.6L577.3 123.8C577 123.7 576.9 123.7 576.5 123.7C575.8 123.7 575.1 124.2 574.5 125.5V130.5H573.2V122.6H573.4Z" fill="#404040"/>
<path d="M494.6 74.7001V68.7001H497.7V75.1001C497.7 77.2001 498.2 77.9001 499.5 77.9001C500.7 77.9001 501.3 77.1001 501.3 75.1001V68.7001H504.3V74.7001C504.3 78.7001 502.8 80.6001 499.5 80.6001C496.2 80.6001 494.6 78.7001 494.6 74.7001ZM495.9 66.5001C495.9 65.7001 496.5 65.1001 497.3 65.1001C498.1 65.1001 498.7 65.7001 498.7 66.5001C498.7 67.3001 498.1 67.9001 497.3 67.9001C496.5 67.9001 495.9 67.2001 495.9 66.5001ZM500 66.5001C500 65.7001 500.6 65.1001 501.4 65.1001C502.2 65.1001 502.8 65.7001 502.8 66.5001C502.8 67.3001 502.2 67.9001 501.4 67.9001C500.6 67.9001 500 67.2001 500 66.5001Z" fill="#AA8961"/>
<path d="M507.6 74.5999C507.6 70.6999 510.3 68.3999 513.4 68.3999C515.1 68.3999 516.4 69.0999 517.2 69.8999L515.6 71.8999C515 71.3999 514.4 70.9999 513.5 70.9999C511.9 70.9999 510.7 72.2999 510.7 74.3999C510.7 76.5999 511.7 77.7999 513.8 77.7999C514.1 77.7999 514.5 77.6999 514.7 77.5999V75.9999H513V73.4999H517.5V79.0999C516.7 79.8999 515.2 80.4999 513.5 80.4999C510.2 80.5999 507.6 78.5999 507.6 74.5999Z" fill="#AA8961"/>
<path d="M523.2 76.3001L519.7 68.6001H523L523.9 71.0001C524.2 71.9001 524.5 72.7001 524.8 73.6001H524.9C525.2 72.7001 525.5 71.9001 525.8 71.0001L526.7 68.6001H529.9L526.4 76.3001V80.3001H523.3V76.3001H523.2Z" fill="#AA8961"/>
<path d="M532.6 68.7002H540.2V71.3002H535.7V73.5002H539.6V76.1002H535.7V80.4002H532.6V68.7002Z" fill="#AA8961"/>
<path d="M543.6 68.7001H551.2V71.3001H546.7V73.1001H550.5V75.7001H546.7V77.8001H551.3V80.4001H543.6V68.7001ZM546 66.7001L549.3 64.1001L550.9 66.1001L547.4 68.3001L546 66.7001Z" fill="#AA8961"/>
<path d="M555.1 68.7002H558.2V77.8002H562.6V80.4002H555.1V68.7002Z" fill="#AA8961"/>
<path d="M851 320H667C662.6 320 659 316.4 659 312V208C659 203.6 662.6 200 667 200H851C855.4 200 859 203.6 859 208V312C859 316.4 855.4 320 851 320Z" fill="#EBEBEB"/>
<path d="M835 300H683C680.8 300 679 298.2 679 296V254C679 251.8 680.8 250 683 250H835C837.2 250 839 251.8 839 254V296C839 298.2 837.2 300 835 300Z" fill="white"/>
<path d="M696.9 278.8V269H698.2V278.9C698.2 279.3 698.4 279.5 698.6 279.5C698.7 279.5 698.7 279.5 698.9 279.5L699.1 280.5C698.9 280.6 698.7 280.6 698.3 280.6C697.3 280.5 696.9 279.9 696.9 278.8Z" fill="#404040"/>
<path d="M700.4 278.3C700.4 276.6 701.9 275.8 705.2 275.4C705.2 274.4 704.9 273.4 703.6 273.4C702.7 273.4 701.9 273.8 701.3 274.2L700.8 273.3C701.5 272.8 702.6 272.3 703.9 272.3C705.8 272.3 706.6 273.6 706.6 275.5V280.3H705.5L705.4 279.4C704.7 280 703.8 280.5 702.8 280.5C701.4 280.5 700.4 279.7 700.4 278.3ZM705.2 278.5V276.3C702.6 276.6 701.7 277.3 701.7 278.3C701.7 279.2 702.3 279.5 703.1 279.5C703.9 279.5 704.5 279.1 705.2 278.5Z" fill="#404040"/>
<path d="M709 269H710.3V276.7L713.6 272.6H715.1L712.5 275.7L715.5 280.4H714L711.7 276.7L710.2 278.4V280.4H709V269Z" fill="#404040"/>
<path d="M716.2 276.5C716.2 273.9 717.9 272.4 719.9 272.4C720.9 272.4 721.6 272.8 722.2 273.3L721.5 274.2C721.1 273.8 720.6 273.5 719.9 273.5C718.5 273.5 717.5 274.7 717.5 276.5C717.5 278.3 718.5 279.5 719.9 279.5C720.6 279.5 721.2 279.1 721.7 278.7L722.3 279.6C721.6 280.2 720.7 280.6 719.8 280.6C717.8 280.5 716.2 279.1 716.2 276.5Z" fill="#404040"/>
<path d="M723.9 270.5L726.2 267.8L727.1 268.7L724.6 271.1L723.9 270.5ZM724.1 272.6H725.4V280.4H724.1V272.6Z" fill="#404040"/>
<path d="M728 272.6H729.1L729.2 273.7C729.9 273 730.7 272.4 731.6 272.4C732.8 272.4 733.4 273 733.7 273.9C734.5 273 735.3 272.4 736.3 272.4C737.9 272.4 738.7 273.5 738.7 275.4V280.3H737.4V275.5C737.4 274 736.9 273.4 736 273.4C735.4 273.4 734.8 273.8 734 274.6V280.2H732.7V275.4C732.7 273.9 732.2 273.3 731.2 273.3C730.6 273.3 730 273.7 729.2 274.5V280.1H728V272.6Z" fill="#404040"/>
<path d="M741.3 272.6H742.4L742.5 273.7C743.2 273 744 272.4 745.1 272.4C746.7 272.4 747.5 273.5 747.5 275.4V280.3H746.2V275.5C746.2 274 745.8 273.4 744.7 273.4C743.9 273.4 743.4 273.8 742.6 274.6V280.2H741.3V272.6Z" fill="#404040"/>
<path d="M749.1 283.5L749.4 282.5C749.6 282.5 749.8 282.6 750 282.6C750.9 282.6 751.4 281.9 751.8 280.9L752 280.3L748.9 272.5H750.3L751.9 276.8C752.1 277.5 752.4 278.3 752.7 279H752.8C753 278.3 753.2 277.5 753.5 276.8L754.9 272.5H756.2L753.3 280.9C752.8 282.4 752 283.6 750.4 283.6C749.7 283.7 749.4 283.6 749.1 283.5Z" fill="#404040"/>
<path d="M757.3 270.1C757.3 269.6 757.7 269.3 758.2 269.3C758.7 269.3 759.1 269.6 759.1 270.1C759.1 270.6 758.7 270.9 758.2 270.9C757.7 270.9 757.3 270.6 757.3 270.1ZM757.5 272.6H758.8V280.4H757.5V272.6Z" fill="#404040"/>
<path d="M761.4 278.8V269H762.7V278.9C762.7 279.3 762.9 279.5 763.1 279.5C763.2 279.5 763.2 279.5 763.4 279.5L763.6 280.5C763.4 280.6 763.2 280.6 762.8 280.6C761.8 280.5 761.4 279.9 761.4 278.8Z" fill="#404040"/>
<path d="M764.4 272.6H765.8L767.3 277C767.5 277.8 767.8 278.6 768 279.3H768.1C768.3 278.6 768.6 277.8 768.8 277L770.3 272.6H771.6L768.8 280.4H767.3L764.4 272.6Z" fill="#404040"/>
<path d="M772.6 278.3C772.6 276.6 774.1 275.8 777.4 275.4C777.4 274.4 777.1 273.4 775.8 273.4C774.9 273.4 774.1 273.8 773.5 274.2L773 273.3C773.7 272.8 774.8 272.3 776.1 272.3C778 272.3 778.8 273.6 778.8 275.5V280.3H777.7L777.6 279.4C776.9 280 776 280.5 775 280.5C773.5 280.5 772.6 279.7 772.6 278.3ZM777.3 278.5V276.3C774.7 276.6 773.8 277.3 773.8 278.3C773.8 279.2 774.4 279.5 775.2 279.5C776 279.5 776.6 279.1 777.3 278.5ZM775 270.5L777.3 267.8L778.2 268.7L775.7 271.1L775 270.5Z" fill="#404040"/>
<path d="M781.1 272.6H782.2L782.3 273.7C783 273 783.8 272.4 784.9 272.4C786.5 272.4 787.3 273.5 787.3 275.4V280.3H786V275.5C786 274 785.6 273.4 784.5 273.4C783.7 273.4 783.2 273.8 782.4 274.6V280.2H781.1V272.6Z" fill="#404040"/>
<path d="M790.1 278V273.7H788.9V272.7L790.1 272.6L790.3 270.4H791.4V272.6H793.5V273.7H791.4V278C791.4 279 791.7 279.5 792.6 279.5C792.9 279.5 793.2 279.4 793.5 279.3L793.8 280.3C793.4 280.4 792.8 280.6 792.4 280.6C790.6 280.5 790.1 279.5 790.1 278Z" fill="#404040"/>
<path d="M794.9 278.3C794.9 276.6 796.4 275.8 799.7 275.4C799.7 274.4 799.4 273.4 798.1 273.4C797.2 273.4 796.4 273.8 795.8 274.2L795.3 273.3C796 272.8 797.1 272.3 798.4 272.3C800.3 272.3 801.1 273.6 801.1 275.5V280.3H800L799.9 279.4C799.2 280 798.3 280.5 797.3 280.5C795.9 280.5 794.9 279.7 794.9 278.3ZM799.7 278.5V276.3C797.1 276.6 796.2 277.3 796.2 278.3C796.2 279.2 796.8 279.5 797.6 279.5C798.3 279.5 799 279.1 799.7 278.5Z" fill="#404040"/>
<path d="M803.5 272.6H804.6L804.7 274C805.2 273 806 272.4 806.9 272.4C807.2 272.4 807.5 272.4 807.7 272.6L807.4 273.8C807.1 273.7 807 273.7 806.6 273.7C805.9 273.7 805.2 274.2 804.6 275.5V280.5H803.3V272.6H803.5Z" fill="#404040"/>
<path d="M810 278V273.7H808.8V272.7L810 272.6L810.2 270.4H811.3V272.6H813.4V273.7H811.3V278C811.3 279 811.6 279.5 812.5 279.5C812.8 279.5 813.1 279.4 813.4 279.3L813.7 280.3C813.3 280.4 812.7 280.6 812.3 280.6C810.5 280.5 810 279.5 810 278Z" fill="#404040"/>
<path d="M814.5 276.5C814.5 273.9 816.2 272.4 818.1 272.4C820 272.4 821.7 273.9 821.7 276.5C821.7 279.1 820 280.6 818.1 280.6C816.2 280.6 814.5 279.1 814.5 276.5ZM820.3 276.5C820.3 274.7 819.4 273.5 818.1 273.5C816.8 273.5 815.9 274.7 815.9 276.5C815.9 278.3 816.8 279.5 818.1 279.5C819.4 279.5 820.3 278.3 820.3 276.5ZM817.2 270.5L819.5 267.8L820.4 268.7L817.9 271.1L817.2 270.5Z" fill="#404040"/>
<path d="M746.4 218.7H750.6C753 218.7 755 219.3 755 221.6C755 222.6 754.4 223.8 753.5 224.1V224.2C754.6 224.5 755.5 225.4 755.5 226.9C755.5 229.3 753.4 230.4 750.9 230.4H746.3L746.4 218.7ZM750.5 223.2C751.5 223.2 752 222.7 752 222C752 221.3 751.5 221 750.5 221H749.5V223.2H750.5ZM750.7 228C751.9 228 752.5 227.6 752.5 226.7C752.5 225.8 751.9 225.5 750.7 225.5H749.4V228H750.7Z" fill="#AA8961"/>
<path d="M758.9 218.7H762.2L764 223.5C764.2 224.1 764.4 224.9 764.6 225.6H764.7C764.9 224.9 765.1 224.2 765.3 223.5L767 218.7H770.3V230.4H767.5V226.9C767.5 225.7 767.8 223.9 767.9 222.7H767.8L766.8 225.5L765.4 229.4H763.7L762.3 225.5L761.4 222.7H761.3C761.4 223.9 761.7 225.7 761.7 226.9V230.4H758.9V218.7Z" fill="#AA8961"/>
<path d="M296.6 380.9H302.7V382H298V385.6H302V386.7H298V391.4H296.7L296.6 380.9Z" fill="white"/>
<path d="M304.4 380.9H306L308 386.5C308.3 387.2 308.5 388 308.8 388.7H308.9C309.2 388 309.4 387.2 309.6 386.5L311.6 380.9H313.2V391.4H312V385.6C312 384.7 312.1 383.4 312.2 382.5H312L311.2 384.9L309.2 390.3H308.3L306.3 384.9L305.5 382.5H305.4C305.5 383.4 305.6 384.7 305.6 385.6V391.4H304.4V380.9Z" fill="white"/>
<path d="M315.8 380.9H317.1V385.3H322V380.9H323.3V391.4H322V386.5H317.1V391.4H315.8V380.9Z" fill="white"/>
<path d="M248 429.9H249.3V440.4H248V429.9Z" fill="white"/>
<path d="M251.1 439.5L251.8 438.6C252.5 439.1 253.2 439.5 254.1 439.5C255.1 439.5 255.6 439 255.6 438.3C255.6 437.5 254.7 437.1 253.8 436.8C252.7 436.4 251.5 435.9 251.5 434.6C251.5 433.4 252.5 432.4 254.2 432.4C255.2 432.4 256 432.8 256.6 433.3L256 434.1C255.5 433.7 254.9 433.4 254.2 433.4C253.2 433.4 252.8 433.9 252.8 434.5C252.8 435.2 253.6 435.5 254.5 435.8C255.6 436.2 256.9 436.7 256.9 438.2C256.9 439.5 255.9 440.5 254.1 440.5C252.9 440.5 251.8 440.1 251.1 439.5Z" fill="white"/>
<path d="M258.5 432.6H259.6L259.7 433.7C260.4 433 261.2 432.4 262.1 432.4C263.3 432.4 263.9 433 264.2 433.9C265 433 265.8 432.4 266.8 432.4C268.4 432.4 269.2 433.5 269.2 435.4V440.3H268V435.5C268 434 267.5 433.4 266.6 433.4C266 433.4 265.4 433.8 264.6 434.6V440.2H263.3V435.4C263.3 433.9 262.8 433.3 261.8 433.3C261.2 433.3 260.6 433.7 259.8 434.5V440.1H258.5V432.6Z" fill="white"/>
<path d="M271.2 436.5C271.2 434 272.9 432.4 274.7 432.4C276.7 432.4 277.8 433.8 277.8 436.1C277.8 436.4 277.8 436.7 277.8 436.9H272.5C272.6 438.5 273.6 439.6 275.1 439.6C275.8 439.6 276.5 439.4 277 439L277.5 439.9C276.8 440.3 276 440.7 274.9 440.7C272.8 440.5 271.2 439 271.2 436.5ZM276.6 435.8C276.6 434.2 275.9 433.4 274.7 433.4C273.6 433.4 272.6 434.3 272.5 435.8H276.6Z" fill="white"/>
<path d="M279.6 432.6H280.7L280.8 434C281.3 433 282.1 432.4 283 432.4C283.3 432.4 283.6 432.4 283.8 432.6L283.5 433.8C283.2 433.7 283.1 433.7 282.7 433.7C282 433.7 281.3 434.2 280.7 435.5V440.5H279.4V432.6H279.6Z" fill="white"/>
<path d="M284.5 436.5C284.5 434 286.2 432.4 288 432.4C290 432.4 291.1 433.8 291.1 436.1C291.1 436.4 291.1 436.7 291.1 436.9H285.8C285.9 438.5 286.9 439.6 288.4 439.6C289.1 439.6 289.8 439.4 290.3 439L290.8 439.9C290.1 440.3 289.3 440.7 288.2 440.7C286.2 440.5 284.5 439 284.5 436.5ZM290 435.8C290 434.2 289.3 433.4 288.1 433.4C287 433.4 286 434.3 285.9 435.8H290Z" fill="white"/>
<path d="M293.2 438V433.7H292V432.7L293.2 432.6L293.4 430.4H294.5V432.6H296.6V433.7H294.5V438C294.5 439 294.8 439.5 295.7 439.5C296 439.5 296.3 439.4 296.6 439.3L296.9 440.3C296.5 440.4 295.9 440.6 295.5 440.6C293.8 440.5 293.2 439.5 293.2 438Z" fill="white"/>
<path d="M298.3 438.8V429H299.6V438.9C299.6 439.3 299.8 439.5 300 439.5C300.1 439.5 300.1 439.5 300.3 439.5L300.5 440.5C300.3 440.6 300.1 440.6 299.7 440.6C298.7 440.5 298.3 439.9 298.3 438.8Z" fill="white"/>
<path d="M301.5 436.5C301.5 434 303.2 432.4 305 432.4C307 432.4 308.1 433.8 308.1 436.1C308.1 436.4 308.1 436.7 308.1 436.9H302.8C302.9 438.5 303.9 439.6 305.4 439.6C306.1 439.6 306.8 439.4 307.3 439L307.8 439.9C307.1 440.3 306.3 440.7 305.2 440.7C303.2 440.5 301.5 439 301.5 436.5ZM307 435.8C307 434.2 306.3 433.4 305.1 433.4C304 433.4 303 434.3 302.9 435.8H307Z" fill="white"/>
<path d="M310 432.6H311.1L311.2 433.7C311.9 433 312.7 432.4 313.8 432.4C315.4 432.4 316.2 433.5 316.2 435.4V440.3H314.9V435.5C314.9 434 314.5 433.4 313.4 433.4C312.6 433.4 312.1 433.8 311.3 434.6V440.2H310V432.6Z" fill="white"/>
<path d="M324.6 436.5C324.6 433.9 326.3 432.4 328.3 432.4C329.3 432.4 330 432.8 330.6 433.3L329.9 434.2C329.5 433.8 329 433.5 328.3 433.5C326.9 433.5 325.9 434.7 325.9 436.5C325.9 438.3 326.9 439.5 328.3 439.5C329 439.5 329.6 439.1 330.1 438.7L330.7 439.6C330 440.2 329.1 440.6 328.2 440.6C326.2 440.5 324.6 439.1 324.6 436.5Z" fill="white"/>
<path d="M332.1 430.5L334.4 427.8L335.3 428.7L332.8 431.1L332.1 430.5ZM332.3 432.6H333.6V440.4H332.3V432.6Z" fill="white"/>
<path d="M336.1 432.6H337.2L337.3 433.7C338 433 338.8 432.4 339.7 432.4C340.9 432.4 341.5 433 341.8 433.9C342.6 433 343.4 432.4 344.4 432.4C346 432.4 346.8 433.5 346.8 435.4V440.3H345.5V435.5C345.5 434 345 433.4 344.1 433.4C343.5 433.4 342.9 433.8 342.1 434.6V440.2H340.8V435.4C340.8 433.9 340.3 433.3 339.3 433.3C338.7 433.3 338.1 433.7 337.3 434.5V440.1H336V432.6H336.1Z" fill="white"/>
<path d="M348.4 439.7L352.5 433.7H348.9V432.6H354.2V433.3L350.1 439.3H354.3V440.4H348.4V439.7Z" fill="white"/>
<path d="M355.2 436.5C355.2 434 356.9 432.4 358.7 432.4C360.7 432.4 361.8 433.8 361.8 436.1C361.8 436.4 361.8 436.7 361.8 436.9H356.5C356.6 438.5 357.6 439.6 359.1 439.6C359.8 439.6 360.5 439.4 361 439L361.5 439.9C360.8 440.3 360 440.7 358.9 440.7C356.8 440.5 355.2 439 355.2 436.5ZM360.6 435.8C360.6 434.2 359.9 433.4 358.7 433.4C357.6 433.4 356.6 434.3 356.5 435.8H360.6Z" fill="white"/>
<path d="M363.9 438V433.7H362.7V432.7L363.9 432.6L364.1 430.4H365.2V432.6H367.3V433.7H365.2V438C365.2 439 365.5 439.5 366.4 439.5C366.7 439.5 367 439.4 367.3 439.3L367.6 440.3C367.2 440.4 366.6 440.6 366.2 440.6C364.4 440.5 363.9 439.5 363.9 438Z" fill="white"/>
<path d="M369.6 438V433.7H368.4V432.7L369.6 432.6L369.8 430.4H370.9V432.6H373V433.7H370.9V438C370.9 439 371.2 439.5 372.1 439.5C372.4 439.5 372.7 439.4 373 439.3L373.3 440.3C372.9 440.4 372.3 440.6 371.9 440.6C370.1 440.5 369.6 439.5 369.6 438Z" fill="white"/>
<path d="M265.7 479.9H271.8V481H267.1V484.3H271.1V485.4H267.1V489.2H272V490.3H265.8L265.7 479.9Z" fill="#404040"/>
<path d="M273.7 488.8V479H275V488.9C275 489.3 275.2 489.5 275.4 489.5C275.5 489.5 275.5 489.5 275.7 489.5L275.9 490.5C275.7 490.6 275.5 490.6 275.1 490.6C274.1 490.5 273.7 489.9 273.7 488.8Z" fill="#404040"/>
<path d="M277.6 488.8V479H278.9V488.9C278.9 489.3 279.1 489.5 279.3 489.5C279.4 489.5 279.4 489.5 279.6 489.5L279.8 490.5C279.6 490.6 279.4 490.6 279 490.6C278 490.5 277.6 489.9 277.6 488.8Z" fill="#404040"/>
<path d="M280.9 486.5C280.9 484 282.6 482.4 284.4 482.4C286.4 482.4 287.5 483.8 287.5 486.1C287.5 486.4 287.5 486.7 287.5 486.9H282.2C282.3 488.5 283.3 489.6 284.8 489.6C285.5 489.6 286.2 489.4 286.7 489L287.2 489.9C286.5 490.3 285.7 490.7 284.6 490.7C282.5 490.5 280.9 489 280.9 486.5ZM286.3 485.8C286.3 484.2 285.6 483.4 284.4 483.4C283.3 483.4 282.3 484.3 282.2 485.8H286.3Z" fill="#404040"/>
<path d="M289.3 482.6H290.4L290.5 483.7C291.2 483 292 482.4 293.1 482.4C294.7 482.4 295.5 483.5 295.5 485.4V490.3H294.2V485.5C294.2 484 293.8 483.4 292.7 483.4C291.9 483.4 291.4 483.8 290.6 484.6V490.2H289.3V482.6Z" fill="#404040"/>
<path d="M298.1 488V483.7H297V482.7L298.2 482.6L298.4 480.4H299.5V482.6H301.6V483.7H299.5V488C299.5 489 299.8 489.5 300.7 489.5C301 489.5 301.3 489.4 301.6 489.3L301.9 490.3C301.5 490.4 300.9 490.6 300.5 490.6C298.7 490.5 298.1 489.5 298.1 488Z" fill="#404040"/>
<path d="M303.2 482.6H304.3L304.4 483.7C305.1 483 305.9 482.4 306.8 482.4C308 482.4 308.6 483 308.9 483.9C309.7 483 310.5 482.4 311.5 482.4C313.1 482.4 313.9 483.5 313.9 485.4V490.3H312.6V485.5C312.6 484 312.1 483.4 311.2 483.4C310.6 483.4 310 483.8 309.2 484.6V490.2H308V485.4C308 483.9 307.5 483.3 306.5 483.3C305.9 483.3 305.3 483.7 304.5 484.5V490.1H303.2V482.6Z" fill="#404040"/>
<path d="M315.9 486.5C315.9 483.9 317.6 482.4 319.5 482.4C321.4 482.4 323.1 483.9 323.1 486.5C323.1 489.1 321.4 490.6 319.5 490.6C317.6 490.5 315.9 489.1 315.9 486.5ZM321.7 486.5C321.7 484.7 320.8 483.5 319.5 483.5C318.2 483.5 317.3 484.7 317.3 486.5C317.3 488.3 318.2 489.5 319.5 489.5C320.8 489.5 321.7 488.3 321.7 486.5Z" fill="#404040"/>
<path d="M325 482.6H326.1L326.2 483.7C326.9 483 327.7 482.4 328.8 482.4C330.4 482.4 331.2 483.5 331.2 485.4V490.3H329.9V485.5C329.9 484 329.5 483.4 328.4 483.4C327.6 483.4 327.1 483.8 326.3 484.6V490.2H325V482.6Z" fill="#404040"/>
<path d="M333.1 486.5C333.1 484 334.7 482.4 336.5 482.4C337.4 482.4 338 482.7 338.7 483.3L338.6 482V479H339.9V490.4H338.8L338.7 489.5C338.1 490.1 337.3 490.6 336.3 490.6C334.4 490.5 333.1 489.1 333.1 486.5ZM338.6 488.4V484.3C337.9 483.7 337.4 483.5 336.7 483.5C335.5 483.5 334.5 484.7 334.5 486.5C334.5 488.4 335.3 489.5 336.6 489.5C337.4 489.4 338 489.1 338.6 488.4Z" fill="#404040"/>
<path d="M341.9 488.3C341.9 486.6 343.4 485.8 346.7 485.4C346.7 484.4 346.4 483.4 345.1 483.4C344.2 483.4 343.4 483.8 342.8 484.2L342.3 483.3C343 482.8 344.1 482.3 345.4 482.3C347.3 482.3 348.1 483.6 348.1 485.5V490.3H347L346.9 489.4C346.2 490 345.3 490.5 344.3 490.5C342.8 490.5 341.9 489.7 341.9 488.3ZM346.6 488.5V486.3C344 486.6 343.1 487.3 343.1 488.3C343.1 489.2 343.7 489.5 344.5 489.5C345.3 489.5 345.9 489.1 346.6 488.5ZM344.3 480.5L346.6 477.8L347.5 478.7L345 481.1L344.3 480.5Z" fill="#404040"/>
<path d="M349.5 489.5L350.2 488.6C350.9 489.1 351.6 489.5 352.5 489.5C353.5 489.5 354 489 354 488.3C354 487.5 353.1 487.1 352.2 486.8C351.1 486.4 349.9 485.9 349.9 484.6C349.9 483.4 350.9 482.4 352.6 482.4C353.6 482.4 354.4 482.8 355 483.3L354.4 484.1C353.9 483.7 353.3 483.4 352.6 483.4C351.6 483.4 351.2 483.9 351.2 484.5C351.2 485.2 352 485.5 352.9 485.8C354 486.2 355.3 486.7 355.3 488.2C355.3 489.5 354.3 490.5 352.5 490.5C351.3 490.5 350.2 490.1 349.5 489.5Z" fill="#404040"/>
<path d="M300.6 529.9H302L303.7 535.6C304.1 536.8 304.3 537.8 304.7 539.1H304.8C305.2 537.9 305.4 536.9 305.8 535.6L307.5 529.9H308.9L305.6 540.4H304L300.6 529.9Z" fill="#404040"/>
<path d="M310.4 529.9H311.7V534.3H316.6V529.9H317.9V540.4H316.6V535.5H311.7V540.4H310.4V529.9Z" fill="#404040"/>
<path d="M83 457H65V455C65 452.2 67.2 450 70 450H78C80.8 450 83 452.2 83 455V457Z" stroke="#AA885F" stroke-width="2" stroke-miterlimit="10"/>
<path d="M84 457H64C63.4 457 63 457.4 63 458V461H85V458C85 457.4 84.6 457 84 457Z" stroke="#AA885F" stroke-width="2" stroke-miterlimit="10"/>
<path d="M77 446H71C69.9 446 69 446.9 69 448V450H79V448C79 446.9 78.1 446 77 446Z" stroke="#AA885F" stroke-width="2" stroke-miterlimit="10"/>
<path d="M74 428V424H91L97 430V454H83" stroke="#AA885F" stroke-width="2" stroke-miterlimit="10" stroke-linecap="round" stroke-linejoin="round"/>
<path d="M97 430H91V424L97 430Z" stroke="#AA885F" stroke-width="2" stroke-miterlimit="10" stroke-linecap="round" stroke-linejoin="round"/>
<path d="M81 434H94" stroke="#AA885F" stroke-width="2" stroke-miterlimit="10" stroke-linejoin="round"/>
<path d="M81 438H94" stroke="#AA885F" stroke-width="2" stroke-miterlimit="10" stroke-linejoin="round"/>
<path d="M89 450C91.2091 450 93 448.209 93 446C93 443.791 91.2091 442 89 442C86.7909 442 85 443.791 85 446C85 448.209 86.7909 450 89 450Z" stroke="#AA885F" stroke-width="2" stroke-miterlimit="10" stroke-linejoin="round"/>
<path d="M75.5 446C76.9 442.2 78 434.3 78 432.4C78 430 76.2 428 74 428C71.8 428 70 430 70 432.4C70 434.3 71 442.2 72.5 446H75.5Z" stroke="#AA885F" stroke-width="2" stroke-miterlimit="10"/>
<path d="M276.9 326.5C274.3 320.4 271.7 314.4 269.2 308.3C267.2 308.3 265.1 308.3 262.7 308.3C263.9 309 264.2 309.9 264 311.1C263.8 312.7 263.5 314.4 263.3 316C262.7 320 262.2 324.1 261.6 328.1C261.4 329.5 261.2 330.9 260.3 332.2C260.1 332.5 259.9 332.7 259.7 333C261.7 333 263.7 333 265.8 333C264.4 332.2 264.2 331.1 264.3 329.9C264.3 329.5 264.4 329.1 264.4 328.7C265 324.5 265.5 320.4 266.1 316.2C266.3 314.9 266.4 313.6 266.6 312.2C266.7 312.5 266.8 312.7 266.9 312.9C268.3 316.2 269.7 319.5 271.1 322.8C272.2 325.3 273.2 327.8 274.3 330.3C274.9 331.7 275.9 332.8 277.1 333.7C279.9 326.6 282.7 319.5 285.4 312.5C285.6 313.3 285.7 314.2 285.8 315C286.3 318.9 286.8 322.8 287.2 326.7C287.4 328.1 287.5 329.5 287.6 330.9C287.6 331.8 287.2 332.6 286.4 333.1C286.3 333.1 286.3 333.1 286.2 333.1L286.3 333.2C288.6 333.2 290.9 333.2 293.2 333.2L293.3 333.1C293.2 333.1 293.1 333 293 333C292.1 332.3 291.7 331.4 291.5 330.3C291.3 328.9 291.1 327.6 290.9 326.2C290.2 321.5 289.6 316.8 288.9 312.1C288.7 310.8 288.6 309.5 289.9 308.6C287.7 308.6 285.6 308.6 283.6 308.6C283.4 309.3 283.3 309.9 283.1 310.4C281.4 314.7 279.7 319 278.1 323.3C277.8 324.2 277.4 325.3 276.9 326.5ZM348.7 332.9C348.4 332.7 348.2 332.5 347.9 332.3C346.8 331.4 345.6 330.7 344.7 329.6C342.9 327.5 341.3 325.3 339.6 323.2C338.6 321.9 337.7 320.6 336.7 319.3C339.6 315.6 342.4 312 345.3 308.3C343.1 308.3 341 308.3 338.8 308.3C339.9 309.4 340 309.8 339.3 311.1C338.9 311.8 338.5 312.4 338 313C336.3 315.3 334.6 317.5 332.9 319.7C332.8 319.8 332.7 320 332.7 320.1C334.7 322.8 336.6 325.5 338.6 328.2C339.5 329.5 340.6 330.6 341.6 331.8C342.1 332.4 342.8 332.8 343.6 333C345.3 333.3 347 333.1 348.7 332.9ZM356.9 308.4C354.7 308.4 352.7 308.4 350.5 308.4C351.6 309.4 351.7 309.9 351 311.1C350.7 311.6 350.5 312 350.1 312.4C348.9 314 347.7 315.6 346.6 317.1C345.9 318.1 345.1 319.1 344.4 320.1C346.3 322.7 348.1 325.3 350 327.9C351 329.2 352 330.5 353.1 331.7C353.8 332.5 354.8 333.1 355.9 333.1C357.2 333.1 358.5 333 359.8 333C359.9 333 360 333 360.1 332.9C360.1 332.8 360 332.8 360 332.8C359.9 332.7 359.8 332.6 359.7 332.6C357.6 331.2 355.8 329.5 354.3 327.5C352.9 325.7 351.5 323.8 350.2 322C349.6 321.1 348.9 320.3 348.2 319.4C351.2 315.7 354.1 312.1 356.9 308.4ZM326.8 308.3C327.9 308.9 328.2 309.8 328.3 310.8C328.4 311.3 328.4 311.8 328.4 312.2C328.4 317.8 328.4 323.3 328.4 328.9C328.4 330.3 328.5 331.9 326.9 332.9C329.2 332.9 331.4 332.9 333.8 332.9C332.8 332.4 332.4 331.6 332.3 330.7C332.2 330.2 332.2 329.7 332.2 329.2C332.2 323.5 332.2 317.8 332.2 312.1C332.2 310.7 332.2 309.3 333.7 308.4C331.3 308.3 329.1 308.3 326.8 308.3Z" fill="#AA885F"/>
<path d="M276.9 326.5C277.4 325.3 277.8 324.2 278.2 323C279.9 318.7 281.6 314.4 283.2 310.1C283.4 309.5 283.5 308.9 283.7 308.3C285.7 308.3 287.8 308.3 290 308.3C288.7 309.2 288.9 310.5 289 311.8C289.6 316.5 290.3 321.2 291 325.9C291.2 327.3 291.4 328.6 291.6 330C291.8 331.1 292.2 332 293.1 332.7C293.2 332.8 293.3 332.8 293.4 332.8L293.3 332.9C291 332.9 288.7 332.9 286.4 332.9L286.3 332.8C286.4 332.8 286.5 332.8 286.5 332.8C287.4 332.3 287.8 331.5 287.7 330.6C287.6 329.2 287.5 327.8 287.3 326.4C286.8 322.5 286.3 318.6 285.9 314.7C285.8 313.9 285.7 313.1 285.5 312.2C282.7 319.3 280 326.3 277.2 333.4C276 332.5 275 331.4 274.4 330C273.3 327.5 272.3 325 271.2 322.5C269.8 319.2 268.4 315.9 267 312.6C266.9 312.4 266.8 312.3 266.7 311.9C266.5 313.3 266.3 314.6 266.2 315.9C265.6 320.1 265.1 324.2 264.5 328.4C264.4 328.8 264.4 329.2 264.4 329.6C264.3 330.9 264.5 332 265.9 332.7C263.8 332.7 261.8 332.7 259.8 332.7C260 332.4 260.2 332.2 260.4 331.9C261.3 330.7 261.5 329.3 261.7 327.8C262.3 323.8 262.8 319.7 263.4 315.7C263.6 314.1 263.8 312.4 264.1 310.8C264.3 309.7 264 308.7 262.8 308C265.1 308 267.2 308 269.3 308C271.8 314.4 274.3 320.4 276.9 326.5Z" fill="#AA885F"/>
<path d="M309.8 307.6C314.8 307.8 318.8 309.5 321.5 313.6C324.8 318.7 323.9 325.5 319.3 329.8C314 334.8 304.8 334.7 299.6 329.6C294.7 324.8 294.5 317 299.2 312C301.5 309.5 304.4 308.2 307.7 307.7C308.4 307.7 309.1 307.6 309.8 307.6ZM300.1 320.2C300.1 320.7 300.2 321.3 300.3 321.9C300.4 322.4 300.5 322.9 300.6 323.4C302 328.3 305.4 331 310.2 330.8C313.8 330.7 316.5 329.1 318.1 325.8C319.5 323 319.5 320 318.5 317.1C316.2 310.5 310 308.9 305.1 311.4C301.6 313.2 300.2 316.3 300.1 320.2Z" fill="#AA885F"/>
<path d="M348.7 332.9C347 333.1 345.3 333.3 343.7 333C342.9 332.9 342.2 332.4 341.7 331.8C340.7 330.6 339.6 329.4 338.7 328.2C336.7 325.5 334.8 322.8 332.8 320.1C332.9 320 333 319.9 333 319.7C334.7 317.5 336.4 315.2 338.1 313C338.6 312.4 339 311.8 339.4 311.1C340.1 309.8 340.1 309.4 338.9 308.3C341.1 308.3 343.2 308.3 345.4 308.3C342.5 312 339.7 315.7 336.8 319.3C337.8 320.6 338.7 321.9 339.7 323.2C341.4 325.4 343 327.6 344.8 329.6C345.7 330.6 346.9 331.4 348 332.3C348.2 332.5 348.4 332.7 348.7 332.9Z" fill="#AA885F"/>
<path d="M356.9 308.4C354 312.1 351.2 315.7 348.3 319.4C349 320.3 349.6 321.2 350.3 322C351.7 323.8 353.1 325.7 354.4 327.5C355.9 329.5 357.7 331.2 359.8 332.6C359.9 332.7 360 332.8 360.1 332.8C360.1 332.8 360.1 332.9 360.2 332.9C360.1 332.9 360 333 359.9 333C358.6 333 357.3 333.1 356 333.1C354.8 333.1 353.9 332.6 353.2 331.7C352.1 330.5 351.1 329.2 350.1 327.9C348.2 325.3 346.4 322.7 344.5 320.1C345.2 319.1 346 318.1 346.7 317.1C347.9 315.5 349.1 313.9 350.2 312.4C350.5 312 350.8 311.5 351.1 311.1C351.8 309.9 351.7 309.4 350.6 308.4C352.7 308.4 354.8 308.4 356.9 308.4Z" fill="#AA885F"/>
<path d="M326.8 308.3C329.2 308.3 331.3 308.3 333.7 308.3C332.2 309.2 332.2 310.7 332.2 312C332.2 317.7 332.2 323.4 332.2 329.1C332.2 329.6 332.2 330.1 332.3 330.6C332.4 331.5 332.8 332.3 333.8 332.8C331.4 332.8 329.2 332.8 326.9 332.8C328.5 331.8 328.4 330.3 328.4 328.8C328.4 323.2 328.4 317.7 328.4 312.1C328.4 311.6 328.4 311.1 328.3 310.7C328.1 309.8 327.8 308.9 326.8 308.3Z" fill="#AA885F"/>
<path d="M475.5 198C475.7 197.1 476.1 196.2 476.6 195.4C477.6 196.2 479 196.1 480 195.2C480.9 194.3 481 192.9 480.2 191.9C481 191.4 481.9 191.1 482.8 190.9C483 192.1 484.1 193.1 485.3 193.1C486.6 193.1 487.6 192.2 487.8 191C488.7 191.2 489.5 191.6 490.3 192.1C489.6 193.1 489.7 194.5 490.6 195.3C491.5 196.2 492.8 196.3 493.8 195.6C494.3 196.4 494.6 197.2 494.8 198.1C493.6 198.4 492.8 199.4 492.8 200.6C492.8 201.8 493.7 202.9 494.8 203.1C494.6 204 494.2 204.8 493.8 205.6C492.8 205 491.5 205.1 490.6 205.9C489.7 206.8 489.6 208.1 490.3 209.1C489.5 209.6 488.7 209.9 487.8 210.2C487.6 209 486.5 208.1 485.3 208.1C484 208.1 483 209 482.8 210.3C481.9 210.1 481 209.7 480.2 209.3C480.9 208.3 480.9 206.9 480 206C479.1 205.1 477.6 205 476.6 205.8C476.1 205 475.7 204.1 475.5 203.2C476.8 203 477.7 202 477.7 200.7C477.8 199.3 476.8 198.2 475.5 198Z" stroke="white" stroke-width="2" stroke-miterlimit="10" stroke-linecap="round" stroke-linejoin="round"/>
<path d="M485.3 203.7C487.012 203.7 488.4 202.312 488.4 200.6C488.4 198.888 487.012 197.5 485.3 197.5C483.588 197.5 482.2 198.888 482.2 200.6C482.2 202.312 483.588 203.7 485.3 203.7Z" stroke="white" stroke-width="2" stroke-miterlimit="10" stroke-linecap="round" stroke-linejoin="round"/>
<path d="M80 309C83.866 309 87 305.866 87 302C87 298.134 83.866 295 80 295C76.134 295 73 298.134 73 302C73 305.866 76.134 309 80 309Z" stroke="#AA885F" stroke-width="2" stroke-miterlimit="10" stroke-linecap="round" stroke-linejoin="round"/>
<path d="M88 315H72C69.8 315 68 316.8 68 319V330H92V319C92 316.8 90.2 315 88 315Z" stroke="#AA885F" stroke-width="2" stroke-miterlimit="10" stroke-linecap="round" stroke-linejoin="round"/>
<path d="M80 309C80 309 76.4 309 72.9 309C69.4 309 68.1 310 65.8 312.1C63.5 314.2 61 318.4 61 321.6C61 324.8 63.4 327.9 64.6 329C65.8 330 67 330 68.2 330" stroke="#AA885F" stroke-width="2" stroke-miterlimit="10" stroke-linecap="round" stroke-linejoin="round"/>
<path d="M80 309C80 309 83.6 309 87.1 309C90.6 309 91.9 310.1 94.2 312.1C96.6 314.2 99 318.4 99 321.6C99 324.8 96.6 327.9 95.4 329C94.2 330 93 330 91.8 330" stroke="#AA885F" stroke-width="2" stroke-miterlimit="10" stroke-linecap="round" stroke-linejoin="round"/>
<path d="M78 319H82" stroke="#AA885F" stroke-width="2" stroke-miterlimit="10" stroke-linejoin="round"/>
<path d="M529 152.3V180" stroke="#AA8960" stroke-width="2" stroke-miterlimit="10"/>
<path d="M525.6 156.3L529 152.9L532.4 156.3V153.4L529 150L525.6 153.4V156.3Z" fill="#AA8960"/>
<path d="M519 54H510V32L519 28V54Z" stroke="#AA885F" stroke-width="2" stroke-miterlimit="10" stroke-linecap="round" stroke-linejoin="round"/>
<path d="M539 23H519V54H539V23Z" stroke="#AA885F" stroke-width="2" stroke-miterlimit="10" stroke-linecap="round" stroke-linejoin="round"/>
<path d="M534 18H524V23H534V18Z" stroke="#AA885F" stroke-width="2" stroke-miterlimit="10" stroke-linecap="round" stroke-linejoin="round"/>
<path d="M513 35V42" stroke="#AA885F" stroke-width="2" stroke-miterlimit="10" stroke-linejoin="round"/>
<path d="M516 35V42" stroke="#AA885F" stroke-width="2" stroke-miterlimit="10" stroke-linejoin="round"/>
<path d="M548 54H539V28L548 32V54Z" stroke="#AA885F" stroke-width="2" stroke-miterlimit="10" stroke-linecap="round" stroke-linejoin="round"/>
<path d="M542 35V42" stroke="#AA885F" stroke-width="2" stroke-miterlimit="10" stroke-linejoin="round"/>
<path d="M545 35V42" stroke="#AA885F" stroke-width="2" stroke-miterlimit="10" stroke-linejoin="round"/>
<path d="M532 35V42" stroke="#AA885F" stroke-width="2" stroke-miterlimit="10" stroke-linejoin="round"/>
<path d="M535 35V42" stroke="#AA885F" stroke-width="2" stroke-miterlimit="10" stroke-linejoin="round"/>
<path d="M526 35V42" stroke="#AA885F" stroke-width="2" stroke-miterlimit="10" stroke-linejoin="round"/>
<path d="M529 35V42" stroke="#AA885F" stroke-width="2" stroke-miterlimit="10" stroke-linejoin="round"/>
<path d="M523 35V42" stroke="#AA885F" stroke-width="2" stroke-miterlimit="10" stroke-linejoin="round"/>
<path d="M532 26V33" stroke="#AA885F" stroke-width="2" stroke-miterlimit="10" stroke-linejoin="round"/>
<path d="M535 26V33" stroke="#AA885F" stroke-width="2" stroke-miterlimit="10" stroke-linejoin="round"/>
<path d="M526 26V33" stroke="#AA885F" stroke-width="2" stroke-miterlimit="10" stroke-linejoin="round"/>
<path d="M529 26V33" stroke="#AA885F" stroke-width="2" stroke-miterlimit="10" stroke-linejoin="round"/>
<path d="M523 26V33" stroke="#AA885F" stroke-width="2" stroke-miterlimit="10" stroke-linejoin="round"/>
<path d="M532 45H526V54H532V45Z" stroke="#AA885F" stroke-width="2" stroke-miterlimit="10" stroke-linecap="round" stroke-linejoin="round"/>
<path d="M759 302.3V338.7" stroke="#AA8960" stroke-width="2" stroke-miterlimit="10"/>
<path d="M755.6 306.3L759 302.9L762.4 306.3V303.4L759 300L755.6 303.4V306.3Z" fill="#AA8960"/>
<path d="M755.6 334.7L759 338.1L762.4 334.7V337.6L759 341L755.6 337.6V334.7Z" fill="#AA8960"/>
<path d="M742.5 429.6H750.1V432.2H745.6V434H749.4V436.6H745.6V438.7H750.2V441.3H742.5V429.6Z" fill="#AA885F"/>
<path d="M759.9 438.8H756.6L756 441.3H752.8L756.4 429.6H760.1L763.7 441.3H760.4L759.9 438.8ZM759.3 436.4L759.1 435.6C758.8 434.5 758.5 433.1 758.2 431.9H758.1C757.8 433.1 757.6 434.5 757.3 435.6L757.1 436.4H759.3Z" fill="#AA885F"/>
<path d="M766.5 429.6H770.8C773.4 429.6 775.6 430.5 775.6 433.5C775.6 436.4 773.4 437.6 770.9 437.6H769.6V441.3H766.5V429.6ZM770.7 435.1C771.9 435.1 772.5 434.5 772.5 433.4C772.5 432.4 771.8 432 770.6 432H769.6V435.1H770.7Z" fill="#AA885F"/>
</svg>
