<svg width="270" height="100" viewBox="0 0 270 100" fill="none" xmlns="http://www.w3.org/2000/svg">
<rect width="270" height="100" fill="#101010"/>
<path d="M100.6 43.1999H105.9V40.1999H100.6V35.8999H106.2V32.8999H97.3999V50.2999H100.6V43.1999Z" fill="#AA885F"/>
<path d="M220 37.2999H218.1V32.8999H215V37.2999H213.5V39.9999H215V50.2999H218.1V39.9999H220V37.2999Z" fill="#AA885F"/>
<path d="M99.2001 55.3999H97.1001V66.7999H102.6V64.7999H99.2001V55.3999Z" fill="#AA885F"/>
<path d="M120.4 58.2999H118.1L115.4 62.2999V55.3999H113.4V66.7999H115.4V62.7999L118.3 66.7999H120.8L117.4 62.4999L120.4 58.2999Z" fill="#AA885F"/>
<path d="M144.8 58.2999H142.5L139.8 62.2999H139.7V55.3999H137.7V66.7999H139.7V62.7999H139.8L142.6 66.7999H145.2L141.7 62.4999L144.8 58.2999Z" fill="#AA885F"/>
<path d="M173.7 60.0998V58.2998H167.9V60.0998H171.2L167.5 64.8998V66.7998H173.9V64.8998H169.9L173.7 60.0998Z" fill="#AA885F"/>
<path d="M115.8 48.9999V50.2999H118.6V37.2999H115.5V43.9999C115.5 46.2999 114.7 47.7999 112.9 47.7999C111 47.7999 110.2 46.4999 110.2 43.8999V37.0999H107.1V44.7999C107.1 48.9999 109.5 50.5999 112.6 50.5999C113.8 50.6999 114.9 50.1999 115.8 48.9999Z" fill="#AA885F"/>
<path d="M124 43.1999C124 40.2999 125.7 39.6999 126.7 39.6999C128.4 39.6999 129.3 41.0999 129.3 43.7999V50.3999H132.4V42.6999C132.4 37.9999 129 36.8999 127.4 36.8999C125.9 36.8999 124.9 37.4999 123.8 38.4999V37.3999H121V50.4999H124.1V43.1999H124Z" fill="#AA885F"/>
<path d="M140.6 50.6999C142.3 50.6999 143.9 49.9999 144.7 48.6999V50.2999H147.5V32.8999H144.4V38.3999C143.3 37.1999 142.1 36.7999 140.6 36.7999C137.2 36.7999 134 39.5999 134 43.7999C134 47.6999 137 50.6999 140.6 50.6999ZM140.9 39.6999C143.1 39.6999 144.7 41.5999 144.7 43.7999C144.7 45.9999 143 47.8999 140.9 47.8999C138.8 47.8999 137.1 45.9999 137.1 43.6999C137.1 41.4999 138.9 39.6999 140.9 39.6999Z" fill="#AA885F"/>
<path d="M155.3 50.6998C156.9 50.6998 158.8 49.8998 159.8 48.6998V50.2998H162.6V37.2998H159.8V38.8998C159.1 37.8998 157.3 36.7998 155.5 36.7998C151.8 36.7998 149 39.8998 149 43.6998C149.1 47.6998 151.7 50.6998 155.3 50.6998ZM156 39.6998C158.2 39.6998 159.8 41.4998 159.8 43.7998C159.8 45.9998 158.3 47.8998 156 47.8998C153.8 47.8998 152.2 46.0998 152.2 43.8998C152.2 41.4998 153.8 39.6998 156 39.6998Z" fill="#AA885F"/>
<path d="M179 36.7998C177.3 36.7998 175.9 37.3998 174.8 38.7998C174 37.4998 172.6 36.7998 171.1 36.7998C169.6 36.7998 168.4 37.2998 167.7 38.3998V37.2998H164.9V50.3998H168V43.6998C168 40.7998 168.8 39.6998 170.5 39.6998C172.2 39.6998 173.1 40.9998 173.1 42.9998V50.2998H176.2V43.0998C176.2 40.0998 177.8 39.5998 178.9 39.5998C180.5 39.5998 181.2 40.7998 181.2 42.8998V50.1998H184.3V42.2998C184.2 38.4998 181.7 36.7998 179 36.7998Z" fill="#AA885F"/>
<path d="M192.6 36.7998C188.7 36.7998 185.8 39.9998 185.8 43.7998C185.8 47.6998 188.7 50.6998 192.6 50.6998C195.3 50.6998 198 48.7998 198.8 46.1998H195.6C195 47.3998 193.9 47.8998 192.6 47.8998C190.7 47.8998 189.3 46.3998 189 45.1998H199C199.1 44.5998 199.2 44.0998 199.2 43.5998C199.3 39.7998 196.3 36.7998 192.6 36.7998ZM189 42.6998C189.5 40.6998 190.9 39.6998 192.6 39.6998C194.5 39.6998 195.8 40.7998 196.1 42.6998H189Z" fill="#AA885F"/>
<path d="M207.3 36.7998C205.8 36.7998 204.8 37.3998 203.7 38.3998V37.2998H200.8V50.3998H203.9V43.2998C203.9 40.3998 205.6 39.7998 206.6 39.7998C208.3 39.7998 209.2 41.1998 209.2 43.8998V50.4998H212.3V42.7998C212.3 37.8998 209 36.7998 207.3 36.7998Z" fill="#AA885F"/>
<path d="M230.7 37.2998V38.8998C230 37.8998 228.2 36.7998 226.4 36.7998C222.7 36.7998 219.9 39.8998 219.9 43.6998C219.9 47.6998 222.5 50.6998 226.1 50.6998C227.7 50.6998 229.6 49.8998 230.6 48.6998V50.2998H233.4V37.2998H230.7ZM226.8 47.8998C224.6 47.8998 223 46.0998 223 43.8998C223 41.5998 224.6 39.6998 226.8 39.6998C229 39.6998 230.6 41.4998 230.6 43.7998C230.6 45.9998 229 47.8998 226.8 47.8998Z" fill="#AA885F"/>
<path d="M151.5 59.2999C151 58.5999 149.9 57.8999 148.7 57.8999C146.3 57.8999 144.5 59.8999 144.5 62.3999C144.5 64.9999 146.2 66.9999 148.6 66.9999C149.6 66.9999 150.9 66.4999 151.6 65.6999V66.7999H153.5V58.2999H151.6V59.2999H151.5ZM149 65.1999C147.6 65.1999 146.5 63.9999 146.5 62.5999C146.5 61.0999 147.6 59.8999 149 59.8999C150.5 59.8999 151.5 61.0999 151.5 62.5999C151.5 63.9999 150.5 65.1999 149 65.1999Z" fill="#AA885F"/>
<path d="M158 61.5C156.8 61.1 156.6 61 156.6 60.6C156.6 60.2 156.9 59.9 157.4 59.9C157.9 59.9 158.1 60.2 158.2 60.6H160.2C160.1 59 158.9 58 157.4 58C155.9 58 154.6 59.1 154.6 60.6C154.6 61.7 155.1 62.6 156.8 63.2C158 63.6 158.4 63.8 158.4 64.4C158.4 64.9 158 65.3 157.5 65.3C156.9 65.3 156.6 65 156.4 64.2H154.3C154.4 66.2 155.9 67.2 157.5 67.2C159.2 67.2 160.4 65.9 160.4 64.2C160.4 63 160 62.1 158 61.5Z" fill="#AA885F"/>
<path d="M164.7 61.5C163.5 61.1 163.3 61 163.3 60.6C163.3 60.2 163.6 59.9 164.1 59.9C164.6 59.9 164.8 60.2 164.9 60.6H166.9C166.8 59 165.6 58 164.1 58C162.6 58 161.3 59.1 161.3 60.6C161.3 61.7 161.8 62.6 163.5 63.2C164.7 63.6 165.1 63.8 165.1 64.4C165.1 64.9 164.7 65.3 164.2 65.3C163.6 65.3 163.3 65 163.1 64.2H161C161.1 66.2 162.6 67.2 164.2 67.2C165.9 67.2 167.1 65.9 167.1 64.2C167.1 63 166.6 62.1 164.7 61.5Z" fill="#AA885F"/>
<path d="M127.6 59.2999C127.1 58.5999 126 57.8999 124.8 57.8999C122.4 57.8999 120.6 59.8999 120.6 62.3999C120.6 64.9999 122.3 66.9999 124.7 66.9999C125.7 66.9999 127 66.4999 127.7 65.6999V66.7999H129.6V58.2999H127.7V59.2999H127.6ZM125.1 65.1999C123.7 65.1999 122.6 63.9999 122.6 62.5999C122.6 61.0999 123.7 59.8999 125.1 59.8999C126.6 59.8999 127.6 61.0999 127.6 62.5999C127.6 63.9999 126.6 65.1999 125.1 65.1999Z" fill="#AA885F"/>
<path d="M123.3 55.7999L124.1 57.2L127.6 55.2999L126.7 53.7L123.3 55.7999Z" fill="#AA885F"/>
<path d="M134.1 61.5C132.9 61.1 132.7 61 132.7 60.6C132.7 60.2 133 59.9 133.5 59.9C134 59.9 134.2 60.2 134.3 60.6H136.3C136.2 59 135 58 133.5 58C132 58 130.7 59.1 130.7 60.6C130.7 61.7 131.2 62.6 132.9 63.2C134.1 63.6 134.5 63.8 134.5 64.4C134.5 64.9 134.1 65.3 133.6 65.3C133 65.3 132.7 65 132.5 64.2H130.4C130.5 66.2 132 67.2 133.6 67.2C135.3 67.2 136.5 65.9 136.5 64.2C136.5 63 136.1 62.1 134.1 61.5Z" fill="#AA885F"/>
<path d="M109.9 59.2999C109.4 58.5999 108.3 57.8999 107.1 57.8999C104.7 57.8999 102.9 59.8999 102.9 62.3999C102.9 64.9999 104.6 66.9999 107 66.9999C108 66.9999 109.3 66.4999 110 65.6999V66.7999H111.9V58.2999H110V59.2999H109.9ZM107.4 65.1999C106 65.1999 104.9 63.9999 104.9 62.5999C104.9 61.0999 106 59.8999 107.4 59.8999C108.9 59.8999 109.9 61.0999 109.9 62.5999C109.8 63.9999 108.8 65.1999 107.4 65.1999Z" fill="#AA885F"/>
<path d="M181.3 59.2999C180.8 58.5999 179.7 57.8999 178.5 57.8999C176.1 57.8999 174.3 59.8999 174.3 62.3999C174.3 64.9999 176 66.9999 178.4 66.9999C179.4 66.9999 180.7 66.4999 181.4 65.6999V66.7999H183.3V58.2999H181.4V59.2999H181.3ZM178.8 65.1999C177.4 65.1999 176.3 63.9999 176.3 62.5999C176.3 61.0999 177.4 59.8999 178.8 59.8999C180.3 59.8999 181.3 61.0999 181.3 62.5999C181.3 63.9999 180.3 65.1999 178.8 65.1999Z" fill="#AA885F"/>
<path d="M36.5 66.9H90.4V33H36.5V66.9ZM74.6 63.1H52.3V55.6H74.6V63.1ZM86.7 53.7H64.4V46.2H86.7V53.7ZM52.3 36.8H74.6V44.3H52.3V36.8ZM40.2 46.2H62.5V53.7H40.2V46.2Z" fill="#AA885F"/>
</svg>
