<svg width="270" height="100" viewBox="0 0 270 100" fill="none" xmlns="http://www.w3.org/2000/svg">
<rect width="270" height="100" fill="#101010"/>
<path d="M114.5 61.7H112.2V50.5999H113.6C115.9 50.6999 117.1 52 117.6 55.9H118.4V44.4H117.6C117.6 44.5 117.4 49.2999 113.5 49.2999H112.2V38.9C118.7 38.9 121.1 38.5999 122.3 46.5999H123V37.7H105.2V38.9H108.3V61.7999H104.9V63H123.2V53.5999H122.3C121.4 60.5999 119.6 61.7 114.5 61.7Z" fill="#AA885F"/>
<path d="M104.9 49.7H94.8999V50.7999H98.2999V59C97.6999 61.1 94.5999 62 93.6999 62C87.2999 62 87.7999 52.5999 87.7999 50.0999C87.7999 47.7999 87.5999 38.2 93.6999 38.2C98.0999 38.2 100.3 42.5 101.3 46.4H102C102 44.8 102 37.2 102 37.2L98.9999 39.2999C99.0999 39.2999 97.5999 37.2999 93.6999 37.2999C86.0999 37.2999 83.3999 44.7999 83.3999 50.0999C83.3999 54.8999 85.6999 63.0999 93.6999 63.0999C96.1999 63.0999 97.9999 61.7999 98.9999 60.2999L102.2 62.7999V50.7999H104.9V49.7Z" fill="#AA885F"/>
<path d="M214.3 61.6999H214V38.7999H217.2V37.5999H206.7V38.7999H209.9V61.6999H207.4L198 36.8999H196.6L188.8 59.4999C188.8 59.3999 188.2 61.3999 186.9 61.6999C185.7 61.7999 185.8 61.0999 185.8 60.8999V56.5999C185.8 55.4999 185.7 52.8999 184.5 51.6999C183.2 50.3999 180.9 50.2999 181 50.1999C181 50.1999 186.8 48.9999 186.8 43.4999C186.8 39.6999 184.1 37.7999 179.7 37.5999H167.1V38.7999H170.3V61.6999H167.1V62.8999H177.5V61.6999H174.3V50.6999H178.6C186.1 51.2999 177.3 62.8999 187.1 62.8999H193.3V61.6999C193 61.6999 190.7 61.7999 190.5 60.1999C190.4 59.0999 192 54.9999 192 54.9999H200.4L203 61.7999H200.1V62.9999H223V53.5999H222.1C221.2 60.5999 219.4 61.6999 214.3 61.6999ZM178.3 49.3999H174.2V38.7999H179.5C182.6 39.2999 182.7 42.7999 182.7 43.9999C182.7 46.6999 181.5 49.3999 178.3 49.3999ZM192.5 53.7999L196.2 42.7999L200.1 53.7999H192.5Z" fill="#AA885F"/>
<path d="M156.9 61.6999H154.6V50.5999H156C158.3 50.6999 159.5 51.9999 160 55.8999H160.8V44.3999H160C160 44.4999 159.8 49.3999 155.9 49.2999H154.6V38.7999C161.1 38.7999 163.5 38.4999 164.7 46.4999H165.4V37.5999H139.5V38.7999H140.2C141.1 38.7999 143.3 38.8999 143.4 40.7999V55.3999L131.3 37.5999H124.7V38.7999H125.8C127.1 38.7999 128.9 38.8999 129 40.7999V59.4999C129 61.2999 126.3 61.9999 125.1 61.9999V62.8999H134V61.9999C132.9 61.9999 130.1 61.2999 130.1 59.4999V42.9999C134.9 49.8999 144 62.8999 144 62.8999H144.5V40.7999C144.6 38.8999 146.8 38.7999 147.7 38.7999H150.7V61.6999H147.3V62.8999H165.6V53.4999H164.7C163.8 60.5999 162 61.6999 156.9 61.6999Z" fill="#AA885F"/>
<path d="M234.5 38.8V37.5H224.2V38.8H227.4V61.7H224.2V62.9H234.5V61.7H231.3V38.8H234.5Z" fill="#AA885F"/>
<path d="M72.3 60.2998C73.6 59.6998 73.8 59.3998 73.8 58.4998V54.9998C74.8 57.4998 75.8 59.2998 77.7 59.2998C78 59.2998 78.2 59.2998 78.6 59.1998L79.4 58.9998L78.9 58.3998C78.6 57.9998 78.4 57.6998 78.2 57.3998C78.1 57.2998 78 57.0998 77.9 56.9998C77.4 56.2998 76.4 55.9998 75.5 56.3998C75.1 55.5998 74.7 54.5998 74.2 53.2998L74 53.0998C73.9 52.8998 73.8 52.6998 73.7 52.4998C73.4 51.7998 73.1 51.1998 72.7 50.4998C72.4 49.8998 72 49.3998 71.6 48.9998C70.6 47.7998 69.2 47.0998 67.6 46.7998C66.5 46.5998 65.7 46.5998 64.7 46.4998C64.5 46.4998 64.3 46.4998 64 46.4998C63.5 46.4998 62.6 46.3998 61.7 46.2998C61.1 46.2998 60.4 46.1998 60 46.1998C60 46.0998 60.1 45.8998 60.1 45.7998C60.1 45.5998 60.1 45.3998 60 45.2998H66.5C68.2 45.2998 69.4 44.5998 70.1 43.0998C71.8 43.0998 73 42.2998 73.7 40.8998H73.9C75.6 40.8998 76.9 40.0998 77.6 38.4998L77.9 37.8998H55.9C54.5 37.8998 53.2 38.7998 52.8 40.2998V40.3998C52.4 39.3998 51.7 38.4998 50.9 37.8998C49.7 37.1998 48.3 36.8998 47.2 37.1998C46.8 37.2998 46.5 37.4998 46.2 37.6998C45.9 37.8998 45.6 38.0998 45.3 38.4998C45 38.8998 44.7 39.2998 44.5 39.6998C44.4 39.7998 44.3 39.8998 44.2 39.9998L43.9 40.4998C43.6 41.1998 43.2 41.6998 42.9 42.0998C42.6 42.3998 42.6 42.7998 42.6 42.9998C42.6 43.1998 42.8 43.3998 42.9 43.5998C42.8 43.7998 42.8 43.8998 42.8 44.0998C42.8 44.6998 43.3 45.0998 43.9 45.0998C44.4 45.0998 44.7 44.8998 45.1 44.5998C45.3 44.4998 45.7 44.1998 45.8 44.1998C46 44.1998 46.1 44.3998 46.1 44.4998C46.1 44.9998 45.5 45.1998 45 45.2998L44.1 45.3998C43.5 45.4998 43.2 45.7998 43.2 46.0998C43.2 46.3998 43.3 46.5998 43.4 46.6998L43.5 46.7998L43.7 46.9998L42.8 48.4998C42.1 47.8998 41.3 47.4998 40.6 47.4998C40.1 47.4998 39.8 47.5998 39.5 47.8998C39.4 47.9998 39.3 48.0998 39.3 48.1998C38.6 48.1998 37.9 48.5998 37.7 49.0998C37.4 49.5998 37.5 50.3998 37.9 51.0998L35.5 51.6998V63.0998H79.4V60.7998H71.4L72.3 60.2998ZM77 57.4998C77.1 57.5998 77.2 57.7998 77.2 57.8998C77.3 58.0998 77.4 58.1998 77.5 58.3998C76.8 58.3998 76.3 57.9998 75.8 57.2998C76.3 57.0998 76.9 57.1998 77 57.4998ZM67.5 47.6998C68.9 47.8998 70.1 48.5998 70.9 49.5998C71.1 49.7998 71.3 50.0998 71.4 50.2998C69 49.9998 68.2 49.5998 66.9 47.5998C67.2 47.6998 67.4 47.6998 67.5 47.6998ZM66.5 44.2998H62C62.4 43.9998 62.7 43.4998 63 42.9998H69.1C68.5 43.8998 67.7 44.2998 66.5 44.2998ZM70.1 42.0998H65.6C66 41.7998 66.3 41.2998 66.6 40.7998H72.7C72.1 41.6998 71.3 42.0998 70.1 42.0998ZM70.4 38.6998H76.5C75.9 39.4998 75.1 39.8998 74 39.8998H69.5C69.8 39.4998 70.1 39.1998 70.4 38.6998ZM45.9 38.8998C46 38.6998 46.3 38.4998 46.6 38.2998C46.8 38.1998 47.1 37.9998 47.4 37.8998C47.8 37.7998 48.3 37.7998 48.9 37.8998L47.3 38.8998C47.1 38.8998 46.9 38.8998 46.7 38.8998C46.3 38.8998 46.1 38.8998 45.9 38.8998ZM44.2 45.8998H45C46 45.8998 46.9 45.4998 47 44.4998C47 43.7998 46.5 43.1998 45.8 43.1998C45.4 43.1998 45 43.3998 44.6 43.6998C44.3 43.8998 44.1 44.0998 43.9 44.0998C43.8 44.0998 43.7 43.9998 43.7 43.9998L44.2 43.2998L43.8 42.9998C43.7 42.8998 43.6 42.7998 43.5 42.6998C43.5 42.6998 43.5 42.5998 43.6 42.5998C43.8 42.3998 44 42.0998 44.2 41.7998C44.3 41.5998 44.4 41.4998 44.6 41.4998C44.8 41.4998 45 41.6998 45 41.8998C45 41.9998 45.2 42.0998 45.3 42.0998C45.5 42.0998 45.6 41.9998 45.7 41.8998C45.7 41.8998 46.1 41.4998 45.9 41.2998C45.6 41.0998 44.6 41.4998 44.9 40.4998L45 40.3998C45.1 40.1998 45.6 39.8998 46.7 39.8998C46.9 39.8998 47.1 39.8998 47.3 39.8998H47.5L49.8 38.4998V38.5998C49.9 39.2998 49.5 40.0998 48.8 40.4998L48.5 40.6998L48.7 41.6998C48.1 41.8998 47.7 42.2998 47.7 42.8998C47.7 43.0998 47.7 43.2998 47.8 43.5998C47.9 43.8998 47.9 44.2998 48 44.6998C48 45.7998 46.5 46.4998 45.3 46.3998C45.2 46.3998 44.5 46.2998 44.3 46.1998L44.2 46.0998C44.1 45.8998 44.1 45.8998 44.2 45.8998ZM38.4 49.2998C38.6 48.9998 39 48.7998 39.5 48.8998L39.9 48.9998L40 48.5998C40 48.4998 40.1 48.3998 40.1 48.3998C40.2 48.2998 40.4 48.1998 40.6 48.2998C41.1 48.2998 41.8 48.6998 42.4 49.2998C42.6 49.4998 42.8 49.7998 42.9 49.9998C42.9 50.0998 43 50.0998 43 50.1998C43 50.2998 43.1 50.2998 43.1 50.2998C43.1 50.2998 43.4 50.6998 43.4 50.7998C43.6 50.4998 43.8 50.2998 44 49.9998C44 49.9998 44 49.9998 44 49.8998C44 49.7998 43.9 49.6998 43.8 49.5998V49.4998C43.8 49.4998 43.8 49.4998 43.7 49.3998C43.6 49.2998 43.5 49.1998 43.5 49.0998L44.7 47.1998C45 47.2998 45.2 47.2998 45.4 47.2998C47.1 47.2998 48.8 46.2998 48.8 44.6998C48.8 44.2998 48.7 43.7998 48.6 43.4998C48.6 43.2998 48.5 43.0998 48.5 42.9998C48.5 42.7998 48.7 42.5998 49.1 42.5998H49.6L49.4 41.1998C50.2 40.5998 50.6 39.6998 50.6 38.8998C51.4 39.4998 52 40.5998 52.1 41.7998C52.1 42.0998 52.1 42.5998 52 43.0998L51.9 43.2998C51.7 44.0998 51.4 44.8998 51.3 45.2998L51.2 45.6998L51.5 45.8998C52.1 46.1998 52.5 46.4998 52.5 47.2998C52.5 48.1998 51.7 48.8998 50.9 49.0998L49.8 49.2998L50.7 49.8998C51 50.0998 51.2 50.3998 51.2 50.7998C51.2 51.3998 50.7 51.7998 50.1 51.7998H49.8L49.6 51.9998C49.3 53.0998 48.9 53.5998 47.7 53.7998C47.8 53.4998 47.8 53.0998 47.8 52.6998C47.8 52.5998 47.8 52.2998 47.8 52.1998L47.7 51.1998L47 51.7998C46.8 52.0998 46.3 52.1998 45.8 52.2998V51.3998L40.6 50.0998L38.8 50.5998C38.4 50.1998 38.3 49.4998 38.4 49.2998ZM36.9 60.5998L40.6 59.5998L44.3 60.5998H36.9ZM45 59.7998L40.7 58.6998L36.4 59.7998V52.0998L40.7 50.9998L45 52.0998V59.7998ZM46.9 58.2998C46.5 58.8998 46.5 59.5998 46.8 60.5998H45.9V53.2998C46.2 53.1998 46.6 53.1998 46.9 52.9998C46.9 53.2998 46.8 53.5998 46.8 53.8998C46.8 53.9998 46.8 54.0998 46.8 54.0998L46.7 54.5998H47.2C48 54.5998 48.6 54.4998 49.1 54.1998V57.2998C49.1 57.3998 49 57.3998 49 57.3998H48.9C48 57.4998 47.3 57.7998 46.9 58.2998ZM56.4 60.5998H50.8C51.4 60.4998 51.8 60.3998 52.1 60.0998C52.5 59.6998 52.5 59.1998 52.5 58.7998C52.5 58.7998 52.6 58.5998 52.8 58.4998L53.3 58.2998L53 57.8998C52.5 57.1998 52.7 55.5998 52.9 54.6998C54.8 54.6998 56 54.2998 57.3 53.8998C57.6 53.7998 58 53.6998 58.3 53.5998C58.3 53.5998 58.7 53.4998 59.2 53.3998L61 56.3998C61.2 56.6998 61.2 56.7998 60.9 57.1998L60 58.1998L58.5 57.8998C57.8 57.7998 57.1 58.0998 56.7 58.5998C56.5 58.8998 56.2 59.5998 56.4 60.5998ZM57.3 60.5998C57.1 59.9998 57.2 59.3998 57.5 59.0998C57.8 58.7998 58.2 58.6998 58.5 58.6998L60.2 58.9998H60.4L61.6 57.6998C61.8 57.4998 62.4 56.6998 61.8 55.7998L60.2 53.0998C60.5 53.0998 60.7 52.9998 61 52.9998C61 52.9998 61.8 52.9998 62.7 53.4998C62.8 53.7998 63 54.0998 63.2 54.4998C63.5 55.1998 64 56.0998 64.1 56.3998C64.1 56.4998 64.3 56.7998 63.8 57.2998L60.7 60.5998H57.3ZM68 60.5998H62.1L64.6 57.8998C65.1 57.3998 65.3 56.6998 65.1 56.0998C65 55.6998 64.6 55.0998 64.3 54.2998C65.3 54.7998 66.8 55.1998 69.9 55.3998C70.3 55.3998 70.4 55.5998 70.4 55.8998L70.5 57.1998L68.9 57.5998C68.4 57.6998 67.9 58.0998 67.7 58.5998C67.5 59.2998 67.6 59.9998 68 60.5998ZM68.6 59.0998C68.7 58.8998 68.9 58.6998 69.1 58.6998L71.5 58.1998L71.3 55.9998C71.2 55.6998 71.1 54.8998 69.9 54.7998C65.6 54.3998 64.6 53.7998 63.5 53.0998H63.4C62.3 52.3998 61.2 52.3998 61 52.3998C59.8 52.3998 58.2 52.8998 58.1 52.8998C57.7 52.9998 57.4 53.0998 57 53.1998C55.6 53.5998 54.5 53.9998 52.5 53.9998H52.1L52 54.2998C51.9 54.5998 51.4 56.6998 51.9 58.0998C51.4 58.4998 51.4 58.8998 51.4 58.9998C51.4 59.4998 51.3 59.5998 51.3 59.5998C51.1 59.7998 50.3 59.8998 49.7 59.8998H49.5L49.4 60.0998C49 60.5998 48.2 60.7998 47.6 60.5998C47.4 59.8998 47.4 59.2998 47.6 58.9998C47.9 58.5998 48.4 58.5998 48.7 58.5998H48.8C49.4 58.5998 49.8 58.0998 49.8 57.4998V53.5998C50 53.2998 50.1 52.9998 50.2 52.6998C51.2 52.4998 51.9 51.6998 51.9 50.7998C51.9 50.3998 51.8 50.0998 51.6 49.7998C52.5 49.3998 53.2 48.4998 53.2 47.3998C53.2 46.2998 52.6 45.6998 52.1 45.3998C52.3 44.9998 52.5 44.1998 52.7 43.3998L53.5 40.6998C53.8 39.5998 54.7 38.8998 55.8 38.8998H69.2C68.6 39.6998 67.8 40.0998 66.7 40.0998H58.6L58.2 40.9998H65.5C64.9 41.8998 64.1 42.2998 62.9 42.2998H57.6L57.3 42.9998H62C61.4 43.8998 60.6 44.2998 59.4 44.2998H56.5L56.1 45.1998H59.1C59.1 45.1998 59.2 45.3998 59.2 45.6998C59.2 46.2998 58.7 46.7998 58.1 46.7998C57.9 46.7998 57.7 46.7998 57.4 46.5998C57.3 46.4998 57.1 46.4998 57 46.3998L56.3 46.9998C56.4 47.0998 56.6 47.0998 56.7 47.1998C57.3 47.4998 57.6 47.5998 58.1 47.5998C58.7 47.5998 59.2 47.3998 59.5 46.9998C60 46.9998 60.8 47.0998 61.7 47.1998C62.7 47.2998 63.6 47.3998 64 47.3998C64.2 47.3998 64.5 47.3998 64.7 47.3998C65.1 47.3998 65.5 47.3998 65.8 47.4998C67.6 50.4998 68.6 50.8998 72.1 51.2998C72.4 51.7998 72.6 52.1998 72.8 52.6998V58.4998C72.8 58.7998 72.8 58.8998 72.8 58.8998C72.7 59.0998 72.1 59.2998 71.9 59.3998L68.9 60.4998C68.6 59.9998 68.5 59.4998 68.6 59.0998Z" fill="#AA885F"/>
<path d="M44.0001 53.2999L41.1001 52.5999V53.4999L44.0001 54.2999V53.2999Z" fill="#AA885F"/>
<path d="M37.2998 54.2999L40.1998 53.4999V52.5999L37.2998 53.2999V54.2999Z" fill="#AA885F"/>
<path d="M37.2998 56.2L40.1998 55.4V54.5L37.2998 55.2V56.2Z" fill="#AA885F"/>
<path d="M44.0001 55.2L41.1001 54.5V55.4L44.0001 56.2V55.2Z" fill="#AA885F"/>
<path d="M44.0001 57.0999L41.1001 56.3999V57.2999L44.0001 58.0999V57.0999Z" fill="#AA885F"/>
<path d="M37.2998 58.0999L40.1998 57.2999V56.3999L37.2998 57.0999V58.0999Z" fill="#AA885F"/>
</svg>
