<svg width="100" height="100" viewBox="0 0 100 100" fill="none" xmlns="http://www.w3.org/2000/svg">
<g clip-path="url(#clip0)">
<rect width="100" height="100" fill="white"/>
<path d="M49 48V41C49 38.7909 50.7909 37 53 37L89 37C91.2091 37 93 38.7909 93 41V71H49L49 62" stroke="#AA885F" stroke-width="2"/>
<path d="M45 71L97 71V74C97 75.6569 95.6569 77 94 77L48 77C46.3431 77 45 75.6569 45 74V71Z" stroke="#AA885F" stroke-width="2"/>
<rect x="32" y="77" width="26" height="40" rx="3" transform="rotate(180 32 77)" stroke="#AA885F" stroke-width="2"/>
<circle cx="12" cy="42" r="2" stroke="#AA885F" stroke-width="2"/>
<circle cx="12" cy="52" r="2" stroke="#AA885F" stroke-width="2"/>
<circle cx="12" cy="62" r="2" stroke="#AA885F" stroke-width="2"/>
<circle cx="12" cy="72" r="2" stroke="#AA885F" stroke-width="2"/>
<rect x="6" y="46" width="26" height="2" fill="#AA885F"/>
<rect x="17" y="41" width="12" height="2" fill="#AA885F"/>
<rect x="17" y="51" width="12" height="2" fill="#AA885F"/>
<rect x="17" y="61" width="12" height="2" fill="#AA885F"/>
<rect x="17" y="71" width="12" height="2" fill="#AA885F"/>
<rect x="6" y="56" width="26" height="2" fill="#AA885F"/>
<rect x="6" y="66" width="26" height="2" fill="#AA885F"/>
<path d="M52 48V41C52 40.4477 52.4477 40 53 40L89 40C89.5523 40 90 40.4477 90 41V67C90 67.5523 89.5523 68 89 68H53C52.4477 68 52 67.5523 52 67V62" stroke="#AA885F" stroke-width="2"/>
<path d="M40 59L40 63L35 57L40 51L40 55" stroke="#AA885F" stroke-width="2" stroke-linecap="round" stroke-linejoin="round"/>
<path d="M63 51V47L68 53L63 59V55" stroke="#AA885F" stroke-width="2" stroke-linecap="round" stroke-linejoin="round"/>
<rect x="39" y="54" width="25" height="2" fill="#AA885F"/>
<rect x="39" y="58" width="21" height="2" fill="#AA885F"/>
<rect x="43" y="50" width="21" height="2" fill="#AA885F"/>
<path d="M31.6538 30.24C30.7738 30.24 29.9205 30.0733 29.0938 29.74C28.2805 29.4067 27.5605 28.9333 26.9338 28.32L28.2938 26.74C28.7605 27.18 29.2938 27.54 29.8938 27.82C30.4938 28.0867 31.0938 28.22 31.6938 28.22C32.4405 28.22 33.0072 28.0667 33.3938 27.76C33.7805 27.4533 33.9738 27.0467 33.9738 26.54C33.9738 26.2733 33.9205 26.0467 33.8138 25.86C33.7205 25.6733 33.5805 25.5133 33.3938 25.38C33.2205 25.2333 33.0072 25.1 32.7538 24.98C32.5138 24.86 32.2472 24.74 31.9538 24.62L30.1538 23.84C29.8338 23.7067 29.5138 23.54 29.1938 23.34C28.8872 23.14 28.6072 22.9 28.3538 22.62C28.1005 22.34 27.8938 22.0133 27.7338 21.64C27.5872 21.2667 27.5138 20.84 27.5138 20.36C27.5138 19.84 27.6205 19.36 27.8338 18.92C28.0605 18.4667 28.3672 18.0733 28.7538 17.74C29.1405 17.4067 29.6005 17.1467 30.1338 16.96C30.6805 16.7733 31.2738 16.68 31.9138 16.68C32.6738 16.68 33.4072 16.8333 34.1138 17.14C34.8205 17.4333 35.4272 17.8333 35.9338 18.34L34.7538 19.82C34.3272 19.4733 33.8872 19.2 33.4338 19C32.9805 18.8 32.4738 18.7 31.9138 18.7C31.2872 18.7 30.7872 18.84 30.4138 19.12C30.0405 19.3867 29.8538 19.76 29.8538 20.24C29.8538 20.4933 29.9072 20.7133 30.0138 20.9C30.1338 21.0733 30.2872 21.2333 30.4738 21.38C30.6738 21.5133 30.9005 21.64 31.1538 21.76C31.4072 21.8667 31.6672 21.9733 31.9338 22.08L33.7138 22.82C34.1005 22.98 34.4538 23.1667 34.7738 23.38C35.0938 23.5933 35.3672 23.84 35.5938 24.12C35.8338 24.4 36.0205 24.7267 36.1538 25.1C36.2872 25.46 36.3538 25.88 36.3538 26.36C36.3538 26.8933 36.2472 27.3933 36.0338 27.86C35.8205 28.3267 35.5072 28.74 35.0938 29.1C34.6938 29.4467 34.2005 29.7267 33.6138 29.94C33.0405 30.14 32.3872 30.24 31.6538 30.24ZM39.7323 30V16.92H47.6323V18.88H42.0523V22.58H46.8123V24.54H42.0523V30H39.7323ZM53.5676 30V18.88H49.7876V16.92H59.6676V18.88H55.8876V30H53.5676ZM62.8455 30V16.92H66.9655C67.6855 16.92 68.3522 16.9867 68.9655 17.12C69.5922 17.2533 70.1322 17.48 70.5855 17.8C71.0389 18.12 71.3922 18.54 71.6455 19.06C71.8989 19.5667 72.0255 20.2 72.0255 20.96C72.0255 21.68 71.8989 22.3067 71.6455 22.84C71.3922 23.3733 71.0389 23.82 70.5855 24.18C70.1455 24.5267 69.6189 24.7867 69.0055 24.96C68.4055 25.12 67.7522 25.2 67.0455 25.2H65.1655V30H62.8455ZM65.1655 23.34H66.8655C68.7855 23.34 69.7455 22.5467 69.7455 20.96C69.7455 20.1333 69.4922 19.5667 68.9855 19.26C68.4922 18.94 67.7589 18.78 66.7855 18.78H65.1655V23.34Z" fill="#AA885F"/>
</g>
<defs>
<clipPath id="clip0">
<rect width="100" height="100" fill="white"/>
</clipPath>
</defs>
</svg>
