<svg width="270" height="100" viewBox="0 0 270 100" fill="none" xmlns="http://www.w3.org/2000/svg">
<rect width="270" height="100" fill="#101010"/>
<path d="M215.6 49.6999C215.6 48.6999 215.6 47.6999 215.6 46.5999C215.5 43.8999 214.6 41.4999 212.2 39.8999C208.6 37.5999 203.3 38.0999 200.3 41.0999C199.7 41.6999 199.2 42.3999 198.6 43.0999C196.8 40.0999 194.2 38.5999 190.8 38.4999C187.4 38.2999 184.6 39.4999 182.1 41.9999C182.1 40.7999 182.1 39.8999 182.1 38.9999C179 38.9999 176.1 38.9999 173.1 38.9999C173.1 47.7999 173.1 56.6999 173.1 65.4999C176.1 65.4999 179 65.4999 182.1 65.4999C182.1 65.1999 182.1 64.8999 182.1 64.5999C182.1 59.9999 182.1 55.4999 182.1 50.8999C182.1 49.9999 182.2 49.0999 182.4 48.1999C182.8 46.5999 184.4 45.3999 186 45.2999C187.7 45.1999 189 46.1999 189.5 47.8999C189.7 48.6999 189.8 49.4999 189.9 50.2999C189.9 55.0999 189.9 59.7999 189.9 64.5999C189.9 64.8999 189.9 65.0999 189.9 65.3999C192.9 65.3999 195.8 65.3999 198.8 65.3999C198.8 65.0999 198.8 64.7999 198.8 64.4999C198.8 59.9999 198.8 55.3999 198.8 50.8999C198.8 49.6999 198.9 48.3999 199.6 47.3999C200.5 45.9999 202.1 45.1999 203.8 45.4999C205.3 45.7999 206.2 46.6999 206.6 48.4999C206.7 49.1999 206.8 49.8999 206.8 50.5999C206.8 55.1999 206.8 59.8999 206.8 64.4999C206.8 64.7999 206.8 64.9999 206.8 65.2999C209.8 65.2999 212.7 65.2999 215.7 65.2999C215.7 64.9999 215.7 64.6999 215.7 64.3999C215.6 59.5999 215.6 54.6999 215.6 49.6999Z" fill="#AA885F"/>
<path d="M91.6 40.6C89.7 39.1 87.5 38.5 85.2 38.5C82 38.5 79.1 39.3 77 41.9C76.9 42 76.9 42 76.7 42.1C76.7 41 76.7 40 76.7 39C73.6 39 70.7 39 67.7 39C67.7 47.9 67.7 56.7 67.7 65.5C70.7 65.5 73.6 65.5 76.7 65.5C76.7 65.2 76.7 64.9 76.7 64.6C76.7 60 76.7 55.5 76.7 50.9C76.7 48.2 78.1 46.3 80.5 45.9C83.3 45.3 85.2 46.7 85.7 49.3C85.8 49.9 85.8 50.6 85.8 51.2C85.8 55.7 85.8 60.2 85.8 64.7C85.8 65 85.8 65.2 85.8 65.5C88.8 65.5 91.8 65.5 94.7 65.5C94.7 65.3 94.7 65.2 94.7 65.2C94.7 59.2 94.7 53.2 94.6 47.2C94.6 44.5 93.7 42.3 91.6 40.6Z" fill="#AA885F"/>
<path d="M160.1 39.9C160.1 44.4 160.1 48.9 160.1 53.3C160.1 54.3 159.9 55.3 159.5 56.1C158.7 58 156.7 59 154.5 58.7C152.6 58.4 151.5 57.3 151.2 55.1C151.1 54.6 151.1 54 151.1 53.5C151.1 48.7 151.1 43.9 151.1 39.1C148.1 39.1 145.1 39.1 142.1 39.1C142.1 45.3 142.1 51.5 142.1 57.6C142.1 60.2 143.2 62.4 145.3 64C148.7 66.7 156.2 66.9 159.6 62.8C159.7 62.7 159.8 62.6 160.1 62.3C160.1 63.5 160.1 64.5 160.1 65.5C163.1 65.5 166.1 65.5 169.1 65.5C169.1 56.7 169.1 47.8 169.1 39C166.1 39 163.1 39 160.1 39C160.1 39.3 160.1 39.6 160.1 39.9Z" fill="#AA885F"/>
<path d="M109.3 30C106.4 30 103.7 30 100.8 30C100.8 33 100.8 36 100.8 39C99.5 39 98.2 39 97 39C97 41.4 97 43.8 97 46.2C98.3 46.2 99.5 46.2 100.8 46.2C100.8 46.6 100.8 46.9 100.8 47.1C100.8 51.2 100.8 55.2 100.9 59.3C101 62.9 102.6 64.8 106.2 65.5C107 65.7 107.8 65.7 108.6 65.8C110.6 66 112.5 65.8 114.4 65.4C114.6 65.4 114.9 65.1 114.9 64.9C114.9 63 114.9 61 114.9 59.2C113.8 59.2 112.8 59.2 111.8 59.2C109.9 59.2 109.3 58.7 109.3 56.8C109.3 53.5 109.3 50.2 109.3 46.8C109.3 46.6 109.3 46.3 109.3 46C111.2 46 113 46 114.9 46C114.9 43.6 114.9 41.2 114.9 38.8C113 38.8 111.2 38.8 109.2 38.8C109.3 35.9 109.3 33 109.3 30Z" fill="#AA885F"/>
<path d="M118.8 65.5C121.8 65.5 124.8 65.5 127.7 65.5C127.7 56.6 127.7 47.8 127.7 39C124.7 39 121.8 39 118.8 39C118.8 47.9 118.8 56.7 118.8 65.5Z" fill="#AA885F"/>
<path d="M63.1999 39C58.4999 39.2 54.3999 43.4 54.3999 48.2C54.3999 53.8 54.3999 59.3 54.3999 64.9C54.3999 65.1 54.3999 65.3 54.3999 65.5C57.5999 65.5 60.6999 65.5 63.7999 65.5C63.7999 56.7 63.7999 47.9 63.7999 39C63.5999 39 63.3999 39 63.1999 39Z" fill="#AA885F"/>
<path d="M63.7999 30C60.6999 30 57.5999 30 54.3999 30C54.3999 33.1 54.3999 36.2 54.3999 39.3C59.1999 39.6 63.9999 35.2 63.7999 30Z" fill="#AA885F"/>
<path d="M129.2 48.4C132.3 48.4 135.4 48.4 138.5 48.4C138.5 45.3 138.5 42.2 138.5 39.1C133.6 38.7 128.9 43.4 129.2 48.4Z" fill="#AA885F"/>
</svg>
