<svg width="51" height="43" viewBox="0 0 51 43" fill="none" xmlns="http://www.w3.org/2000/svg">
<g clip-path="url(#clip0)">
<path d="M22.2 14.4001C25.8 13.5001 29.5 11.4001 29.5 7.0001C29.5 1.7001 24.6 0.100098 17.7 0.100098H14V1.2001C17 1.2001 22.1 1.7001 22.1 7.2001C22.1 13.2001 18.4 14.1001 15.9 14.1001V15.2001C16.7 15.2001 22.5 15.7001 22.5 21.7001C22.5 27.8001 17.4 29.2001 14.4 29.2001H14V30.3001H16.8C24.8 30.3001 30.5 28.1001 30.5 21.7001C30.5 17.3001 26.9 15.2001 22.2 14.4001Z" fill="#AA885F"/>
<path d="M43.1998 0L31.7998 15.1L43.1998 30.2H50.7998L38.9998 15.1L50.3998 0H43.1998Z" fill="#AA885F"/>
<path d="M2.4 0C2.4 0 3.4 1.6 3.4 5.8V35.1C3.4 38.6 1.4 41.3 0 42.2V42.5C0 42.5 10.3 42.5 10.3 32.9V0H2.4Z" fill="#AA885F"/>
</g>
<defs>
<clipPath id="clip0">
<rect width="50.8" height="42.6" fill="white"/>
</clipPath>
</defs>
</svg>
