<svg width="100" height="100" viewBox="0 0 100 100" fill="none" xmlns="http://www.w3.org/2000/svg">
<rect width="100" height="100" fill="white"/>
<path d="M17 34C17 31.2386 19.2386 29 22 29L78 29C80.7614 29 83 31.2386 83 34V72L17 72L17 34Z" stroke="#AA885F" stroke-width="2"/>
<mask id="path-2-inside-1" fill="white">
<path d="M11 72C11 71.4477 11.4477 71 12 71L88 71C88.5523 71 89 71.4477 89 72V74C89 77.3137 86.3137 80 83 80L17 80C13.6863 80 11 77.3137 11 74V72Z"/>
</mask>
<path d="M11 72C11 71.4477 11.4477 71 12 71L88 71C88.5523 71 89 71.4477 89 72V74C89 77.3137 86.3137 80 83 80L17 80C13.6863 80 11 77.3137 11 74V72Z" stroke="#AA885F" stroke-width="4" mask="url(#path-2-inside-1)"/>
<mask id="path-3-inside-2" fill="white">
<path d="M43 72C43 71.4477 43.4477 71 44 71H56C56.5523 71 57 71.4477 57 72V73C57 75.2091 55.2091 77 53 77H47C44.7909 77 43 75.2091 43 73V72Z"/>
</mask>
<path d="M43 72C43 71.4477 43.4477 71 44 71H56C56.5523 71 57 71.4477 57 72V73C57 75.2091 55.2091 77 53 77H47C44.7909 77 43 75.2091 43 73V72Z" stroke="#AA885F" stroke-width="4" mask="url(#path-3-inside-2)"/>
<mask id="path-4-inside-3" fill="white">
<rect x="20" y="32" width="60" height="37" rx="1"/>
</mask>
<rect x="20" y="32" width="60" height="37" rx="1" stroke="#AA885F" stroke-width="4" mask="url(#path-4-inside-3)"/>
<circle cx="76.5" cy="29.5" r="14.5" fill="white" stroke="#AA885F" stroke-width="2"/>
<path d="M76.4775 36.625C77.3025 36.625 77.9775 35.95 77.9775 35.125H74.9775C74.9775 35.95 75.6525 36.625 76.4775 36.625ZM80.9775 32.125V28.375C80.9775 26.0725 79.755 24.145 77.6025 23.635V23.125C77.6025 22.5025 77.1 22 76.4775 22C75.855 22 75.3525 22.5025 75.3525 23.125V23.635C73.2075 24.145 71.9775 26.065 71.9775 28.375V32.125L70.4775 33.625V34.375H82.4775V33.625L80.9775 32.125ZM79.4775 32.875H73.4775V28.375C73.4775 26.515 74.61 25 76.4775 25C78.345 25 79.4775 26.515 79.4775 28.375V32.875ZM73.1625 23.185L72.09 22.1125C70.29 23.485 69.105 25.6 69 28H70.5C70.6125 26.0125 71.6325 24.2725 73.1625 23.185ZM82.455 28H83.955C83.8425 25.6 82.6575 23.485 80.865 22.1125L79.8 23.185C81.315 24.2725 82.3425 26.0125 82.455 28Z" fill="#AA885F"/>
<mask id="path-7-inside-4" fill="white">
<rect x="36" y="42" width="28" height="17" rx="1"/>
</mask>
<rect x="36" y="42" width="28" height="17" rx="1" fill="white" stroke="#AA885F" stroke-width="4" mask="url(#path-7-inside-4)"/>
<path d="M37 44L48.3314 52.1586C49.0294 52.6612 49.9706 52.6612 50.6686 52.1586L62 44" stroke="#AA885F" stroke-width="2"/>
<rect x="25" y="47" width="9" height="2" fill="#AA885F"/>
<rect x="29" y="52" width="5" height="2" fill="#AA885F"/>
</svg>
