<svg width="270" height="100" viewBox="0 0 270 100" fill="none" xmlns="http://www.w3.org/2000/svg">
<rect width="270" height="100" fill="#101010"/>
<path d="M167 41.2C162.1 41.2 158.2 45.2 158.2 50C158.2 54.9 162.2 58.7999 167 58.7999C171.9 58.7999 175.8 54.8 175.8 50C175.8 45.1 171.8 41.2 167 41.2Z" fill="#AA885F"/>
<path d="M167 20.6C159.1 20.6 151.5 23.8 146 29.4H79.7001C76.3001 29.4 73.6001 32.1 73.6001 35.5V64.6C73.6001 68 76.3001 70.7 79.7001 70.7H145.9C151.4 76.3 159 79.5 166.9 79.5C183.1 79.5 196.3 66.3 196.3 50.1C196.4 33.8 183.2 20.6 167 20.6ZM167 77.5C159 77.5 151.8 74.1 146.8 68.7H79.7001C77.4001 68.7 75.6001 66.8 75.6001 64.6V35.5C75.6001 33.2 77.5001 31.4 79.7001 31.4H146.8C151.8 26 159 22.6 167 22.6C182.2 22.6 194.5 34.9 194.5 50.1C194.5 65.2 182.1 77.5 167 77.5Z" fill="#AA885F"/>
<path d="M167 25.4C159.4 25.4 152.6 28.9 148.1 34.3H82.4C80.2 34.3 78.5 36.1 78.5 38.2V61.7C78.5 63.9 80.3 65.6 82.4 65.6H148C152.5 71 159.3 74.4 166.9 74.4C180.5 74.4 191.5 63.4 191.5 49.8C191.5 36.4 180.5 25.4 167 25.4ZM102.8 56.5C101.9 57.4 101.1 57.9 97.8 57.9H91.2V42.2H98.8C102.6 42.2 103.6 44.6 103.6 46.2C103.6 48.4 102.3 49.1 101.7 49.4C103.6 50.1 104.1 51.6 104.1 53.2C104.2 54.5 103.7 55.6 102.8 56.5ZM118.6 57.9L113.8 51L112.3 52.6V57.9H109V42.2H112.3V48.6L118.3 42.2H122.5L116.1 48.6L122.9 57.9H118.6ZM136.3 57.9L131.5 51L130 52.6V57.9H126.7V42.2H130V48.6L136 42.2H140.2L133.8 48.6L140.6 57.9H136.3ZM167 62.8C159.9 62.8 154.2 57.1 154.2 50C154.2 42.9 159.9 37.2 167 37.2C174.1 37.2 179.8 42.9 179.8 50C179.7 57 174 62.8 167 62.8Z" fill="#AA885F"/>
<path d="M100.5 46.6C100.5 45.3 99.6 44.9 98.1 44.9H94.3V48.3H98.1C99.5 48.3 100.5 47.8 100.5 46.6Z" fill="#AA885F"/>
<path d="M98.6001 51H94.4001V55.2H98.4001C100 55.2 100.9 54.5 100.9 52.9C100.9 51.5 99.7001 51 98.6001 51Z" fill="#AA885F"/>
</svg>
