<svg width="270" height="100" viewBox="0 0 270 100" fill="none" xmlns="http://www.w3.org/2000/svg">
<rect width="270" height="100" fill="#101010"/>
<path d="M99.6001 64.7C105 64.7 109.4 63 112.9 59.5C116.7 55.7 118.6 50.9 118.6 45.3C118.6 39.5 116.6 34.7 112.9 31C109.4 27.6 105 25.9 99.6001 25.9C94.3001 25.9 89.9001 27.6 86.3001 31C82.5001 34.7 80.6001 39.4 80.6001 45.3C80.6001 51.1 82.5001 55.8 86.3001 59.5C89.9001 62.9 94.3001 64.7 99.6001 64.7ZM89.3001 34.6C91.9001 31.7 95.3001 30.2 99.6001 30.2C103.3 30.2 106.4 31.3 108.9 33.6C112.2 36.6 113.8 40.4 113.7 45.2C113.7 49.6 112.3 53.3 109.5 56.3C106.9 59 103.6 60.3 99.6001 60.2C95.5001 60.2 92.2001 58.8 89.8001 56.3C87.0001 53.3 85.6001 49.7 85.6001 45.2C85.6001 41 86.8001 37.5 89.3001 34.6Z" fill="#AA885F"/>
<path d="M207.1 63.9V49C207.1 45.7 206.4 43 205 41C203.4 38.8 201.1 37.7 198 37.7C195.3 37.7 192.9 38.8 190.7 41.1V38.2H186.4V63.9H190.7V49.7C190.7 44.4 192.9 41.7 197.2 41.7C200.9 41.7 202.8 44.3 202.8 49.5V63.9H207.1Z" fill="#AA885F"/>
<path d="M171.6 37.6C167.9 37.6 164.8 38.9 162.4 41.4C160 44 158.8 47.3 158.9 51.3C158.9 53 159.2 54.7 159.7 56.2C160.9 59.6 163.2 62.1 166.5 63.5C168.1 64.2 169.9 64.6 171.9 64.6C176.5 64.6 180.4 62.7 183.4 59L180.3 56.4C178.1 59.2 175.4 60.6 172.1 60.6C169.7 60.6 167.7 59.9 166.1 58.5C164.4 57.1 163.5 55.1 163.3 52.6H184.6V52.3C184.6 48 183.5 44.5 181.3 41.9C178.8 39 175.6 37.6 171.6 37.6ZM163.2 49C163.5 46.8 164.4 45 165.9 43.7C167.4 42.4 169.3 41.7 171.5 41.7C173.6 41.7 175.5 42.4 177 43.7C178.5 45 179.4 46.8 179.7 49H163.2Z" fill="#AA885F"/>
<path d="M154.6 32H150.3V38.3H147.2V42.1H150.3V58.1C150.3 60.3 150.8 61.8 151.8 62.8C152.7 63.7 154.2 64.1 156.3 64.1H158.7V59.8H156.5C155.3 59.8 154.7 59.1 154.7 57.6V42.1H158.8V38.3H154.7V32H154.6Z" fill="#AA885F"/>
<path d="M134.8 37.7C130.9 37.7 127.7 39.3 125.4 42.4V38.2H121.3V75.1H125.7V59.7C127.9 62.8 130.9 64.3 134.8 64.2C138.5 64.2 141.6 62.9 143.9 60.4C146.3 57.9 147.5 54.8 147.5 51C147.5 47 146.3 43.8 144 41.4C141.7 39 138.7 37.7 134.8 37.7ZM140.5 57.7C138.9 59.5 136.8 60.4 134.1 60.3C131.4 60.3 129.3 59.4 127.7 57.6C126.1 55.9 125.4 53.7 125.4 51C125.4 48.3 126.2 46.1 127.8 44.3C129.4 42.5 131.5 41.7 134.1 41.7C136.7 41.7 138.8 42.6 140.4 44.3C142 46.1 142.8 48.3 142.8 51C142.9 53.8 142.1 56 140.5 57.7Z" fill="#AA885F"/>
<path d="M182.7 28.6C184.2 31.9 183.1 35.5 180.3 39.3C187.1 33.1 190.9 27.2 188.3 23.2C182.6 14.2 150.1 21 125.9 30C150.1 23.1 176.7 15.4 182.7 28.6Z" fill="#AA885F"/>
<path d="M72.1001 71.8C70.1001 66.6 72.7001 61 77.7001 55.5C67.1001 63.3 60.5001 71.1 63.7001 76.3C69.0001 85.2 95.8001 80.1 120.5 71.7C98.5001 78.4 75.8001 81.6 72.1001 71.8Z" fill="#AA885F"/>
</svg>
