<svg width="270" height="100" viewBox="0 0 270 100" fill="none" xmlns="http://www.w3.org/2000/svg">
<rect width="270" height="100" fill="#101010"/>
<path d="M99.3999 16.2V66H129.7C131.4 66 131.9 65.5 131.9 62.9V34.9C131.9 32.8 131.7 32.2999 131 32.0999C129.8 31.6999 129.2 31.8 129.2 31.1C129.2 30.7 129.5 30.4 130 30.4C130.7 30.4 132.1 30.6 133.7 30.6C135 30.6 136.1 30.4 137.1 30.4C137.7 30.4 137.9 30.6 137.9 31.1C137.9 31.9 137.5 31.6999 136.2 32.0999C135.5 32.2999 135.1 32.9 135.1 34V45C135.1 46.7 135.2 46.9 135.3 46.9C135.4 46.9 135.7 46.3999 136.2 45.5999C137.1 44.1999 140.6 39.2 142.4 35.9C143.1 34.6 143.6 33.6 143.6 33.2C143.6 32.4 143.2 32.0999 142.2 31.9C141.4 31.7 141 31.6 141 31.1C141 30.7 141.3 30.4 141.9 30.4C142.7 30.4 144.2 30.6 145.4 30.6C146.8 30.6 148 30.4 148.6 30.4C149.4 30.4 149.6 30.6 149.6 31.1C149.6 31.8 149.2 31.5999 148.2 31.9C147.3 32.0999 146.1 33.2999 144.4 35.5999C142.8 37.7999 141.2 40.1999 139.8 42.5999C139.1 43.7999 139.1 44 139.1 44.2C139.1 44.4 139.2 44.7 139.7 45.9C140.5 47.7 142.1 51.4 145.6 60.2C146.2 61.5 146.6 62.5999 146.9 63.2999C148 65.7 149 66 150 66H170.7V16.2H99.3999ZM125.6 62.4C125 62.4 124.3 62.2 122.7 62.2C121.4 62.2 120.4 62.4 119.8 62.4C119.3 62.4 119 62.2 119 61.7999C119 61.2999 119.4 61.2 120.2 61C121.1 60.9 121.2 60.4 121.2 58.5C121.2 54.0999 120.9 45.4 120.8 41C120.8 40.4 120.7 40.2 120.6 40.2C120.5 40.2 120.4 40.4 120.3 40.7999C120 41.9 119.2 45.5 116.6 56.7C115.5 61.2999 115.6 62.2999 115 62.2999C114.7 62.2999 114.5 62 114.2 59.9C113.3 54.9 110.6 43.3 110.1 40.7C110 40.4 110 40.2 109.8 40.2C109.6 40.2 109.6 40.4999 109.6 41.0999C109.4 44.6999 109.3 51.5 109.3 55.0999C109.3 57.8999 109.2 60.7999 110.1 61C110.7 61.2 111.6 61.2 111.6 61.7999C111.6 62.0999 111.4 62.4 111 62.4C110.4 62.4 110 62.2 108.7 62.2C107.5 62.2 107 62.4 106.6 62.4C106.3 62.4 106.1 62.3999 106.1 61.7999C106.1 61.2 106.6 61.2999 107.2 61.0999C108 60.7999 108.1 59.7999 108.2 57.7999C108.4 53.5999 108.7 43.4 108.7 39.9C108.7 37.6 108.7 37.1 107.7 36.9C107.1 36.8 106.5 36.7 106.5 36.2C106.5 35.6 107 35.5 107.3 35.5C108 35.5 108.9 35.7 109.6 35.7C110.1 35.7 110.9 35.5 111.4 35.5C111.8 35.5 111.9 35.6 112.1 36.2C113.3 41.4 114.4 46.6 115.5 51.7C115.8 53 115.9 53.7999 116.2 53.7999C116.4 53.7999 116.5 53.4 116.8 52.2C118 47 119.1 41.9 120.3 36.7999C120.5 35.9 120.7 35.5 121 35.5C121.5 35.5 122.3 35.7 122.9 35.7C123.6 35.7 124.5 35.5 125.2 35.5C125.5 35.5 125.8 35.6999 125.8 36.0999C125.8 36.5999 125.4 36.8 124.4 36.9C124 36.9 123.7 37.5 123.7 39.2999C123.7 43.0999 124.2 53.9 124.3 59C124.3 60.2999 124.6 60.9 125.1 61C126 61.2999 126.4 61.2999 126.4 61.7999C126.3 62.2999 126 62.4 125.6 62.4ZM162 60.4C161 61.7 159.5 62.4 157.4 62.4C156 62.4 154.6 62.2 153.3 62.2C152.1 62.2 150.6 62.4 150 62.4C149.5 62.4 149.2 62.2 149.2 61.7C149.2 61.2 149.8 61.2 150.2 61C150.8 60.7999 151 60.4 151 59.4V38.9C151 37.6 150.6 37.0999 149.6 37.0999C149.3 37.0999 149.1 37.1 149 37C148.9 37 148.9 36.9 148.9 36.7C148.9 36.3 149.5 36 150.3 35.7999C151.9 35.2999 153.6 35.0999 155.2 35.0999C157.8 35.0999 159.4 35.6999 160.6 36.5999C162.1 37.6999 162.6 39.5 162.6 41.4C162.6 44.5 160.8 46.4 158.5 47.2V47.2999C159 47.4 159.5 47.5999 160 47.7999C162.1 48.7999 163.6 50.8999 163.6 54.5999C163.7 56.8999 163.2 58.9 162 60.4Z" fill="#AA885F"/>
<path d="M142.5 65.9999C143.6 65.9999 144.1 64.7999 143.5 63.1999C143.3 62.6999 143 61.8999 142.5 60.8999C140.9 57.0999 139.4 53.3999 137.8 49.4999C137.4 48.3999 137 47.5999 136.7 47.5999C136.3 47.5999 135.1 49.2999 135.1 50.2999V62.8999C135.1 65.6999 135.9 65.9999 137 65.9999H142.5Z" fill="#AA885F"/>
<path d="M156.1 48.0999C154.4 48.0999 154.3 48.1999 154.3 48.4999V58.3999C154.3 60.0999 154.8 61.1999 156.4 61.1999C157.9 61.1999 159 60.3999 159.6 58.8999C160.1 57.7999 160.3 56.2999 160.3 54.4999C160.3 52.8999 160 51.4999 159.5 50.4999C158.8 48.9999 157.6 48.0999 156.1 48.0999Z" fill="#AA885F"/>
<path d="M155.1 47C156 47 156.8 46.8 157.6 46.3C158.8 45.5 159.4 43.9 159.4 41.6C159.4 38.4 158.3 36.3 156.2 36.3C154.7 36.3 154.3 36.8 154.3 37.8V46.4001C154.2 46.9001 154.4 47 155.1 47Z" fill="#AA885F"/>
<path d="M112.3 77.3999C112.3 76.4999 111.5 76.0999 110.5 76.0999H109.8V78.6999C110 78.6999 110.2 78.6999 110.6 78.6999C111.4 78.6999 112.3 78.3999 112.3 77.3999Z" fill="#AA885F"/>
<path d="M126.9 74.3999C126.7 73.8999 126.6 73.3999 126.5 72.8999C126.4 73.3999 126.3 73.8999 126.1 74.3999L125.5 76.3999H127.6L126.9 74.3999Z" fill="#AA885F"/>
<path d="M112.1 73.9C112.1 73.1 111.5 72.8 110.6 72.8C110.2 72.8 109.9 72.8 109.8 72.9V75H110.5C111.5 75 112.1 74.5 112.1 73.9Z" fill="#AA885F"/>
<path d="M99.3999 83.8H170.7V67.8H99.3999V83.8ZM156.5 71.7H158V75.4C158.2 75.1 158.4 74.8 158.6 74.5L160.7 71.7H162.5L159.7 75.1L162.6 79.7H160.9L158.6 76L157.9 76.9V79.7H156.4V71.7H156.5ZM139.7 71.7H141.4L143.5 75.1C144 76 144.5 76.9 144.9 77.8C144.8 76.7 144.8 75.7 144.8 74.5V71.7H146.2V79.7H144.7L142.6 76.2C142.1 75.3 141.6 74.3 141.2 73.4C141.3 74.4 141.3 75.5 141.3 76.8V79.7H139.9V71.7H139.7ZM125.6 71.7H127.5L130.1 79.7H128.5L127.8 77.4H125.3L124.6 79.7H123L125.6 71.7ZM108.3 71.9C108.8 71.8 109.6 71.7 110.4 71.7C111.5 71.7 112.1 71.8 112.7 72.2C113.2 72.5 113.5 73 113.5 73.7C113.5 74.4 113 75.1 112.2 75.4C113 75.6 113.8 76.3 113.8 77.4C113.8 78.1 113.5 78.7 113 79.1C112.4 79.6 111.5 79.8 110 79.8C109.2 79.8 108.6 79.7 108.2 79.7V71.9H108.3Z" fill="#AA885F"/>
</svg>
