<svg width="430" height="312" viewBox="0 0 430 312" fill="none" xmlns="http://www.w3.org/2000/svg">
<path d="M378.9 293.05H57.8999C52.9293 293.05 48.8999 297.079 48.8999 302.05C48.8999 307.021 52.9293 311.05 57.8999 311.05H378.9C383.87 311.05 387.9 307.021 387.9 302.05C387.9 297.079 383.87 293.05 378.9 293.05Z" fill="#EBEBEB"/>
<path d="M125 181C125 175.477 129.477 171 135 171H300C305.523 171 310 175.477 310 181V296H125V181Z" fill="white"/>
<path d="M217 171L217 120" stroke="#AA885F" stroke-width="2" stroke-miterlimit="10"/>
<path d="M310 213H342.74C360.271 213 373 200.091 373 182.313V131" stroke="#AA885F" stroke-width="2" stroke-miterlimit="10"/>
<path d="M125 213H92.26C74.7291 213 62.0001 200.091 62.0001 182.313V131" stroke="#AA885F" stroke-width="2" stroke-miterlimit="10"/>
<path d="M60 166C93.1371 166 120 139.137 120 106C120 72.8629 93.1371 46 60 46C26.8629 46 0 72.8629 0 106C0 139.137 26.8629 166 60 166Z" fill="white"/>
<path d="M107.9 84.0501C114.527 84.0501 119.9 78.6775 119.9 72.0501C119.9 65.4226 114.527 60.05 107.9 60.05C101.272 60.05 95.8999 65.4226 95.8999 72.0501C95.8999 78.6775 101.272 84.0501 107.9 84.0501Z" fill="#AA885F"/>
<path d="M103 72.71L104.5 71.71C105.168 72.7846 105.734 73.9196 106.19 75.1H106.25C107.057 72.1071 108.534 69.3371 110.57 67L112.02 68.24C109.742 70.5447 108.147 73.4346 107.41 76.59L105.22 76.92C104.685 75.4179 103.937 74.0001 103 72.71Z" fill="white"/>
<path d="M370 166C403.137 166 430 139.137 430 106C430 72.8629 403.137 46 370 46C336.863 46 310 72.8629 310 106C310 139.137 336.863 166 370 166Z" fill="white"/>
<path d="M417.9 84.0501C424.527 84.0501 429.9 78.6775 429.9 72.0501C429.9 65.4226 424.527 60.05 417.9 60.05C411.272 60.05 405.9 65.4226 405.9 72.0501C405.9 78.6775 411.272 84.0501 417.9 84.0501Z" fill="#AA885F"/>
<path d="M413 72.71L414.5 71.71C415.168 72.7846 415.734 73.9196 416.19 75.1H416.25C417.057 72.1071 418.534 69.3371 420.57 67L422.02 68.24C419.742 70.5447 418.147 73.4346 417.41 76.59L415.22 76.92C414.685 75.4179 413.937 74.0001 413 72.71Z" fill="white"/>
<path d="M217 120C250.137 120 277 93.1371 277 60C277 26.8629 250.137 0 217 0C183.863 0 157 26.8629 157 60C157 93.1371 183.863 120 217 120Z" fill="white"/>
<path d="M264.9 38.0501C271.527 38.0501 276.9 32.6775 276.9 26.0501C276.9 19.4226 271.527 14.05 264.9 14.05C258.273 14.05 252.9 19.4226 252.9 26.0501C252.9 32.6775 258.273 38.0501 264.9 38.0501Z" fill="#AA885F"/>
<path d="M260 26.71L261.5 25.71C262.168 26.7846 262.734 27.9196 263.19 29.1H263.25C264.057 26.1071 265.534 23.3371 267.57 21L269.02 22.24C266.742 24.5447 265.147 27.4346 264.41 30.59L262.22 30.92C261.685 29.4179 260.937 28.0001 260 26.71Z" fill="white"/>
<path d="M104.3 266.45H103.4H66.2H65.2V270.25H66.5L69.2 300.25H100.4L103 270.25H104.3V266.45Z" fill="white"/>
<path d="M84.8999 241.65C86.2571 241.649 87.6012 241.916 88.8547 242.436C90.1082 242.956 91.2464 243.719 92.2038 244.681C93.1612 245.643 93.9188 246.785 94.433 248.041C94.9472 249.297 95.2078 250.643 95.1999 252V266.4H74.5999V252C74.592 250.643 74.8526 249.297 75.3668 248.041C75.881 246.785 76.6386 245.643 77.596 244.681C78.5534 243.719 79.6916 242.956 80.9451 242.436C82.1986 241.916 83.5427 241.649 84.8999 241.65Z" fill="#EBEBEB"/>
<path d="M364.4 282.35C364.403 280.462 364.029 278.592 363.3 276.85H328.1C325.8 297.35 336.1 300.25 336.1 300.25H357.7C359.206 298.285 360.512 296.174 361.6 293.95C362.297 294.236 363.047 294.372 363.8 294.35C365.391 294.43 366.949 293.874 368.13 292.805C369.312 291.736 370.02 290.241 370.1 288.65C370.179 287.059 369.624 285.501 368.555 284.32C367.486 283.138 365.991 282.43 364.4 282.35ZM363.6 291.65C363.329 291.671 363.057 291.637 362.8 291.55C363.613 289.531 364.151 287.412 364.4 285.25C365.105 285.41 365.735 285.803 366.189 286.366C366.642 286.928 366.893 287.627 366.9 288.35C366.875 289.217 366.519 290.042 365.905 290.656C365.292 291.269 364.467 291.625 363.6 291.65Z" fill="white"/>
<path d="M303 196H132V290H303V196Z" fill="#EBEBEB"/>
<path d="M299 184H136C133.791 184 132 185.791 132 188V196H303V188C303 185.791 301.209 184 299 184Z" fill="#80001A"/>
<path d="M297.9 190.05C297.94 189.608 297.846 189.164 297.63 188.777C297.413 188.39 297.085 188.077 296.687 187.879C296.29 187.682 295.842 187.61 295.403 187.671C294.964 187.733 294.553 187.926 294.225 188.225C293.898 188.525 293.668 188.916 293.567 189.348C293.466 189.78 293.498 190.232 293.658 190.646C293.819 191.06 294.101 191.415 294.467 191.666C294.833 191.916 295.266 192.05 295.71 192.05C296.259 192.05 296.787 191.844 297.193 191.474C297.598 191.104 297.85 190.596 297.9 190.05Z" fill="#AA885F"/>
<path d="M319 296H111V299H319V296Z" fill="white"/>
<path d="M319 299H111C111 301.761 113.239 304 116 304H314C316.762 304 319 301.761 319 299Z" fill="#C4C4C4"/>
<path d="M373 129.6H342C340.3 129.6 339 130.9 339 132.6V136.6H376V132.6C376 130.9 374.7 129.6 373 129.6Z" stroke="#AA885F" stroke-width="2" stroke-miterlimit="10"/>
<path d="M367 121.6H348C345.8 121.6 344 123.4 344 125.6V129.6H371V125.6C371 123.4 369.2 121.6 367 121.6Z" stroke="#AA885F" stroke-width="2" stroke-miterlimit="10"/>
<path d="M364.952 77.8409L348.689 94.1042L361.417 106.832L377.68 90.5687L364.952 77.8409Z" stroke="#AA885F" stroke-width="2" stroke-miterlimit="10"/>
<path d="M376.3 99.0999L370 105.4C368.8 106.6 366.9 106.6 365.8 105.4L364.4 104L375 93.3999L376.4 94.7999C377.5 95.9999 377.5 97.8999 376.3 99.0999Z" stroke="#AA885F" stroke-width="2" stroke-miterlimit="10"/>
<path d="M360.8 111.8L361.5 111.1C362.7 109.9 362.7 108 361.5 106.9L348.7 94.1C347.5 92.9 345.6 92.9 344.5 94.1L343.8 94.8C342.6 96 342.6 97.9 343.8 99L356.5 111.7C357.7 113 359.6 113 360.8 111.8Z" stroke="#AA885F" stroke-width="2" stroke-miterlimit="10"/>
<path d="M382 90.6L382.7 89.9C383.9 88.7 383.9 86.8 382.7 85.7L370 72.9C368.8 71.7 366.9 71.7 365.8 72.9L365 73.6C363.8 74.8 363.8 76.7 365 77.8L377.7 90.6C378.9 91.7 380.8 91.7 382 90.6Z" stroke="#AA885F" stroke-width="2" stroke-miterlimit="10"/>
<path d="M365.7 82.8L353.7 94.8" stroke="#AA885F" stroke-width="2" stroke-miterlimit="10"/>
<path d="M398.9 118.9L389.8 128" stroke="#AA885F" stroke-width="2" stroke-miterlimit="10"/>
<path d="M382 104.7L375.6 111.1" stroke="#AA885F" stroke-width="2" stroke-miterlimit="10"/>
<path d="M370.7 104.7L393.7 133.3C396.6 136.2 401.4 136.2 404.3 133.3C407.2 130.4 407.2 125.6 404.3 122.7L375.7 99.7" stroke="#AA885F" stroke-width="2" stroke-miterlimit="10"/>
<path d="M249 83H185V89H249V83Z" stroke="#AA885F" stroke-width="2" stroke-miterlimit="10"/>
<path d="M243 77H191V83H243V77Z" stroke="#AA885F" stroke-width="2" stroke-miterlimit="10"/>
<path d="M248 44H186V48H248V44Z" stroke="#AA885F" stroke-width="2" stroke-miterlimit="10"/>
<path d="M201 48H194V77H201V48Z" stroke="#AA885F" stroke-width="2" stroke-miterlimit="10"/>
<path d="M240 48H233V77H240V48Z" stroke="#AA885F" stroke-width="2" stroke-miterlimit="10"/>
<path d="M221 48H214V77H221V48Z" stroke="#AA885F" stroke-width="2" stroke-miterlimit="10"/>
<path d="M216.5 28L186 42V44H248V41.9L216.5 28Z" stroke="#AA885F" stroke-width="2" stroke-miterlimit="10"/>
<path d="M194 70H201" stroke="#AA885F" stroke-width="2" stroke-miterlimit="10"/>
<path d="M214 70H221" stroke="#AA885F" stroke-width="2" stroke-miterlimit="10"/>
<path d="M234 70H241" stroke="#AA885F" stroke-width="2" stroke-miterlimit="10"/>
<path d="M61 130H29V125C29 122.2 31.2 120 34 120H56C58.8 120 61 122.2 61 125V130Z" stroke="#AA885F" stroke-width="2" stroke-miterlimit="10"/>
<path d="M61 130H29C27.3 130 26 131.3 26 133V135H64V133C64 131.3 62.7 130 61 130Z" stroke="#AA885F" stroke-width="2" stroke-miterlimit="10"/>
<path d="M53 113H37C35.9 113 35 113.9 35 115V120H55V115C55 113.9 54.1 113 53 113Z" stroke="#AA885F" stroke-width="2" stroke-miterlimit="10"/>
<path d="M45 82V75H74L85 86V133H64" stroke="#AA885F" stroke-width="2" stroke-miterlimit="10" stroke-linecap="round" stroke-linejoin="round"/>
<path d="M85 86H74V75L85 86Z" stroke="#AA885F" stroke-width="2" stroke-miterlimit="10" stroke-linecap="round" stroke-linejoin="round"/>
<path d="M57 93H81" stroke="#AA885F" stroke-width="2" stroke-miterlimit="10" stroke-linejoin="round"/>
<path d="M57 101H81" stroke="#AA885F" stroke-width="2" stroke-miterlimit="10" stroke-linejoin="round"/>
<path d="M72.5 122C76.6421 122 80 118.642 80 114.5C80 110.358 76.6421 107 72.5 107C68.3579 107 65 110.358 65 114.5C65 118.642 68.3579 122 72.5 122Z" stroke="#AA885F" stroke-width="2" stroke-miterlimit="10" stroke-linejoin="round"/>
<path d="M41 113L39 88C39 84.7 41.7 82 45 82C48.3 82 51 84.7 51 88L49 113" stroke="#AA885F" stroke-width="2" stroke-miterlimit="10"/>
<g clip-path="url(#clip0)">
<path d="M214.2 235.4C217.8 234.5 221.5 232.4 221.5 228C221.5 222.7 216.6 221.1 209.7 221.1H206V222.2C209 222.2 214.1 222.7 214.1 228.2C214.1 234.2 210.4 235.1 207.9 235.1V236.2C208.7 236.2 214.5 236.7 214.5 242.7C214.5 248.8 209.4 250.2 206.4 250.2H206V251.3H208.8C216.8 251.3 222.5 249.1 222.5 242.7C222.5 238.3 218.9 236.2 214.2 235.4Z" fill="#AA885F"/>
<path d="M235.2 221L223.8 236.1L235.2 251.2H242.8L231 236.1L242.4 221H235.2Z" fill="#AA885F"/>
<path d="M194.4 221C194.4 221 195.4 222.6 195.4 226.8V256.1C195.4 259.6 193.4 262.3 192 263.2V263.5C192 263.5 202.3 263.5 202.3 253.9V221H194.4Z" fill="#AA885F"/>
</g>
<path d="M348 274V271C348 268.791 346.209 267 344 267H339.5C337.567 267 336 265.433 336 263.5V263.5C336 261.567 337.567 260 339.5 260H347C349.209 260 351 258.209 351 256V256C351 253.791 349.209 252 347 252H342C340.343 252 339 250.657 339 249V249C339 247.343 340.343 246 342 246H343C345.209 246 347 244.209 347 242V240.5" stroke="#E1E1E1"/>
<path d="M96.0001 258L94.0001 261L95.0001 262L96.0001 258Z" fill="#CDCDCD"/>
<path d="M96.0001 249L94.0001 252L95.0001 253L96.0001 249Z" fill="#CDCDCD"/>
<path d="M94.0001 243L92.0001 246L93.0001 247L94.0001 243Z" fill="#CDCDCD"/>
<path d="M80.0001 240L82.0001 243L81.0001 244L80.0001 240Z" fill="#CDCDCD"/>
<path d="M84.5001 244L85.0001 248H84.0001L84.5001 244Z" fill="#CDCDCD"/>
<path d="M88.5001 249L89.0001 253H88.0001L88.5001 249Z" fill="#CDCDCD"/>
<path d="M80.5001 248L81.0001 252H80.0001L80.5001 248Z" fill="#CDCDCD"/>
<path d="M89.5001 258V262L88.0001 261.5L89.5001 258Z" fill="#CDCDCD"/>
<path d="M81.0001 256L82.0001 260L80.5001 260.5L81.0001 256Z" fill="#CDCDCD"/>
<path d="M75.0001 245L77.0001 248L76.0001 249L75.0001 245Z" fill="#CDCDCD"/>
<path d="M73.0001 254L76.0001 256L75.0001 257L73.0001 254Z" fill="#CDCDCD"/>
<path d="M74.0001 260L76.0001 263L75.0001 264L74.0001 260Z" fill="#CDCDCD"/>
<defs>
<clipPath id="clip0">
<rect width="50.8" height="42.6" fill="white" transform="translate(192 221)"/>
</clipPath>
</defs>
</svg>
