<svg width="270" height="100" viewBox="0 0 270 100" fill="none" xmlns="http://www.w3.org/2000/svg">
<rect width="270" height="100" fill="#101010"/>
<path d="M55.6001 49.1V48.4001H54.5001C53.0001 48.4001 52.4001 48.1001 52.4001 45.9001V41.1C53.6001 41.2 54.7001 41.2001 55.9001 41.2001C62.8001 41.2001 64.9001 38.8001 64.9001 36.7001C64.9001 34.8001 63.0001 32.3 57.0001 32.3C55.0001 32.3 52.9001 32.4001 50.9001 32.4001C49.2001 32.4001 47.4001 32.4 46.1001 32.3V33H46.8001C48.5001 33 49.3001 33.4001 49.3001 34.9001V46.4001C49.3001 47.9001 48.5001 48.3 46.8001 48.3H46.1001V49C47.4001 49 49.2001 48.9001 50.9001 48.9001C52.4001 49.1001 54.0001 49.1 55.6001 49.1ZM52.4001 33.2001C53.0001 33.2001 53.9001 33.1 54.8001 33.1C58.8001 33.1 61.2001 34.5 61.2001 37.3C61.2001 38.7 60.0001 40.5 56.3001 40.5C55.1001 40.5 53.8001 40.4001 52.4001 39.9001V33.2001Z" fill="#AA885F"/>
<path d="M81.9001 49.4C90.9001 49.4 96.1 44.9 96.1 40.7C96.1 35.8 89.5001 32 82.1001 32C74.7001 32 68.0001 35.6 68.0001 40.9C67.8001 45.6 73.7001 49.4 81.9001 49.4ZM81.9001 33.1C88.5001 33.1 92.3001 37.3 92.3001 41.1C92.3001 45.4 89.1001 48.6 82.1001 48.6C75.6001 48.6 71.6001 44.4 71.6001 40.6C71.6001 35.1 76.6001 33.1 81.9001 33.1Z" fill="#AA885F"/>
<path d="M107.6 49.0999V48.3999H106.5C105 48.3999 104.4 48.0999 104.4 45.8999V41.4999C107.3 41.4999 107.8 41.5999 108.7 42.4999L113 46.9999C115 48.9999 116.5 49.2999 119.9 49.2999C120.6 49.2999 121.3 49.2999 122 49.2999V48.7999C118.9 48.6999 118.3 48.4999 116.3 46.3999L111.3 41.1999C113.2 40.7999 116.6 39.8999 116.6 36.7999C116.6 35.6999 115.4 32.3999 108.7 32.3999C107 32.3999 105.2 32.4999 102.7 32.4999C101 32.4999 99.2001 32.4999 97.9001 32.3999V33.0999H98.6001C100.3 33.0999 101.1 33.4999 101.1 34.9999V46.4999C101.1 47.9999 100.3 48.3999 98.6001 48.3999H97.9001V49.0999C99.2001 49.0999 101 48.9999 102.7 48.9999C104.3 49.0999 105.9 49.0999 107.6 49.0999ZM104.3 33.3999C105.1 33.3999 105.8 33.2999 106.7 33.2999C111.9 33.2999 113.1 36.1999 113.1 37.1999C113.1 39.5999 110.3 40.5999 106.9 40.5999C105.9 40.5999 105 40.5999 104.3 40.3999V33.3999Z" fill="#AA885F"/>
<path d="M158.9 49.4001C164.7 49.4001 167.9 47.5001 169.3 46.7001V45.0001H169C167.2 46.4001 164.5 48.5001 158.6 48.5001C154.7 48.5001 148.3 46.6001 148.3 41.0001C148.3 37.5001 150.7 33.1001 158.4 33.1001C165.5 33.1001 167.3 35.4001 168.3 36.6001H168.9L169.1 33.4001C168.6 33.4001 167.9 33.2001 167.2 33.1001C165.9 32.8001 162.3 32.1001 158.6 32.1001C149.7 32.1001 144.6 36.8001 144.6 41.4001C144.6 46.1001 150.4 49.4001 158.9 49.4001Z" fill="#AA885F"/>
<path d="M181.9 49.0999V48.3999H180.8C179.3 48.3999 178.7 48.0999 178.7 45.8999V40.8999H194.3V45.8999C194.3 48.0999 193.7 48.3999 192.2 48.3999H191V49.0999C192.7 49.0999 194.2 48.9999 195.9 48.9999C197.6 48.9999 199.4 48.9999 200.7 49.0999V48.3999H200C198.3 48.3999 197.5 47.9999 197.5 46.4999V34.9999C197.5 33.4999 198.3 33.0999 200 33.0999H200.7V32.3999C199.4 32.3999 197.6 32.4999 195.9 32.4999C194.2 32.4999 192.7 32.4999 191 32.3999V33.0999H192.1C193.6 33.0999 194.2 33.3999 194.2 35.5999V39.9999H178.6V35.5999C178.6 33.3999 179.2 33.0999 180.7 33.0999H181.8V32.3999C180.1 32.3999 178.6 32.4999 176.9 32.4999C175.2 32.4999 173.4 32.4999 172.1 32.3999V33.0999H172.8C174.5 33.0999 175.3 33.4999 175.3 34.9999V46.4999C175.3 47.9999 174.5 48.3999 172.8 48.3999H172.1V49.0999C173.4 49.0999 175.2 48.9999 176.9 48.9999C178.7 49.0999 180.3 49.0999 181.9 49.0999Z" fill="#AA885F"/>
<path d="M223.3 49.0999C223.6 47.6999 223.8 46.2999 224.1 44.7999H223C222.4 47.3999 220.7 48.1999 214.4 48.1999H213.4C211 48.1999 210.2 47.7999 210.2 46.3999V40.7999H213.8C218.1 40.7999 218.1 41.2999 218.3 42.4999H219.4C219.4 41.9999 219.3 41.2999 219.3 40.3999C219.3 39.3999 219.3 38.5999 219.4 38.0999H218.3C218.2 39.4999 218.1 39.9999 213.5 39.9999H210.2V33.2999H213.8C220.5 33.2999 220.7 34.7999 221.1 36.3999H222.2C222 35.0999 221.9 33.8999 221.9 32.3999C219.3 32.3999 217.5 32.4999 213.1 32.4999C209.3 32.4999 205 32.4999 203.8 32.3999V33.0999H204.5C206.2 33.0999 207 33.4999 207 34.9999V46.4999C207 47.9999 206.2 48.3999 204.5 48.3999H203.8V49.0999C205 49.0999 208.4 48.9999 213.1 48.9999C217 49.0999 221.1 49.0999 223.3 49.0999Z" fill="#AA885F"/>
<path d="M128.9 40.7001L133 41.9001C135.1 42.5001 137.7 43.3001 137.7 45.4001C137.7 47.4001 134.9 48.6001 131.7 48.6001C128.5 48.6001 125.6 47.1001 125.3 45.0001H124.2L124.4 48.9001C127.3 49.5001 130.5 49.5001 131.1 49.5001C137.4 49.5001 140.5 47.4001 140.5 44.4001C140.5 42.0001 137.6 40.8001 134.9 40.0001L131.4 39.0001C128.3 38.1001 127.1 37.1001 127.1 35.8001C127.1 34.3001 129.1 33.0001 132.2 33.0001C137.9 33.0001 138.2 35.9001 138.2 36.7001H139.5V32.7001C137.2 32.4001 134.8 32.1001 132.5 32.1001C127.4 32.1001 124.1 34.3001 124.1 36.7001C124.1 38.6001 126.1 39.9001 128.9 40.7001Z" fill="#AA885F"/>
<path d="M108.3 64.8001C110.4 64.1001 111.5 63.4001 111.5 62.1001C111.5 60.0001 108.7 59.6001 106.1 59.6001C104.8 59.6001 103.3 59.6001 102.3 59.6001C101.1 59.6001 99.9 59.6001 99 59.6001V60.0001H99.5C100.7 60.0001 101.2 60.3001 101.2 61.3001V68.9001C101.2 69.9001 100.7 70.2001 99.5 70.2001H99V70.7001C99.9 70.7001 101.1 70.7001 102.3 70.7001C103.5 70.7001 104.8 70.7001 106 70.7001C108.3 70.7001 109.5 70.5001 110.5 70.0001C112.2 69.2001 112.6 68.2001 112.6 67.6001C112.6 65.9001 110.6 65.0001 108.3 64.8001ZM103.4 60.9001C103.4 60.4001 103.5 60.1001 105.2 60.1001C107.3 60.1001 109.5 60.8001 109.5 62.7001C109.5 64.5001 106.3 64.6001 104.8 64.6001C104.3 64.6001 103.9 64.6001 103.4 64.5001V60.9001ZM106 70.1001C103.7 70.1001 103.4 69.4001 103.4 68.6001V65.2001C103.7 65.2001 104.2 65.1001 104.8 65.1001C106.1 65.1001 107.1 65.2001 108.3 65.6001C109.8 66.2001 110.3 67.1001 110.3 68.0001C110.3 69.4001 108.7 70.1001 106 70.1001Z" fill="#AA885F"/>
<path d="M129.6 68.6999L123 59.2H122.5L116.6 68.5999C115.8 69.8999 115.2 70.3 113.8 70.3H113.5V70.8C114.1 70.8 115.1 70.8 116 70.8C117.2 70.8 118.3 70.8 119.2 70.8V70.3H118.6C117.8 70.3 117.5 70.1 117.5 69.8C117.5 69.5 117.8 68.9999 117.9 68.6999L119.3 66.1999H125.3L127.2 69C127.3 69.1 127.6 69.6 127.6 69.8C127.6 70.1 127.1 70.3 126.3 70.3H125.7V70.8C126.6 70.8 127.9 70.8 129.2 70.8C130.5 70.8 131.7 70.8 132.7 70.8V70.3H132.2C131 70.2 130.2 69.5999 129.6 68.6999ZM119.7 65.5L122.1 61.2L125 65.5H119.7Z" fill="#AA885F"/>
<path d="M147.1 59.6001V60.0001H147.4C148.8 60.0001 149.2 60.4001 149.2 62.2001L149.4 68.6001H149.3L137.2 59.6001C136.6 59.6001 135.9 59.6001 135.2 59.6001C134.4 59.6001 133.6 59.6001 132.9 59.6001V60.0001H133.6C134.9 60.0001 135.4 60.2001 135.4 61.4001C135.4 63.2001 135.3 66.2001 135.2 68.2001C135.1 69.8001 134.9 70.2001 133.5 70.2001H133.1V70.7001C133.9 70.7001 134.9 70.7001 135.9 70.7001C136.8 70.7001 137.9 70.7001 138.7 70.7001V70.2001H138.2C137 70.2001 136.6 69.8001 136.5 68.6001C136.4 66.2001 136.3 63.8001 136.3 61.4001H136.4L149.1 70.9001H149.9L150.4 61.8001C150.5 60.3001 151.2 60.1001 152 60.1001H152.4V59.6001C151.5 59.6001 150.6 59.6001 149.6 59.6001C148.9 59.6001 147.9 59.6001 147.1 59.6001Z" fill="#AA885F"/>
<path d="M168.2 69L161.6 64.3L166.6 61.1C168.1 60.1 168.6 60 169.8 60H170.3V59.5C169.3 59.5 168.3 59.5 167.2 59.5C166.2 59.5 165.1 59.5 164.2 59.5V60H164.7C165.2 60 165.5 60.1 165.5 60.4C165.5 60.7 164.5 61.3 164.3 61.5L158.7 65.3V61.6C158.7 60.1 159.1 60 160.2 60H160.9V59.5C159.8 59.5 158.7 59.5 157.6 59.5C156.4 59.5 155.2 59.5 154.3 59.5V60H154.8C156 60 156.5 60.3 156.5 61.3V68.9C156.5 69.9 156 70.2 154.8 70.2H154.3V70.7C155.2 70.7 156.4 70.7 157.6 70.7C158.7 70.7 159.8 70.7 160.9 70.7V70.2H160.2C159.2 70.2 158.7 70 158.7 68.6V66.2L160 65.3L165.3 69C166.8 70 166.8 70.2 167 70.7C167.8 70.7 168.7 70.7 169.5 70.7C170.3 70.7 171.2 70.7 172 70.7V70.2H171.6C170.4 70.2 169.7 70 168.2 69Z" fill="#AA885F"/>
<path d="M224.1 53.8H46.4001V55H224.1V53.8Z" fill="#AA885F"/>
</svg>
