<svg width="100" height="100" viewBox="0 0 100 100" fill="none" xmlns="http://www.w3.org/2000/svg">
<rect width="100" height="100" fill="white"/>
<path d="M46 80H77V31L64 18H29L29 58" stroke="#AA885F" stroke-width="2"/>
<path d="M64 18V31H77" stroke="#AA885F" stroke-width="2"/>
<path d="M20 69.8757C20.2849 68.7396 20.7834 67.6746 21.3531 66.6805C22.5638 67.6035 24.3442 67.5325 25.4837 66.3964C26.6231 65.2604 26.6944 63.5562 25.7685 62.2781C26.7656 61.7101 27.8338 61.284 28.9733 61C29.1869 62.4911 30.5401 63.6272 32.1068 63.6272C33.6736 63.6272 34.9555 62.4911 35.2404 61.071C36.3798 61.355 37.3769 61.8521 38.3739 62.4201C37.5905 63.6272 37.6617 65.3314 38.8012 66.3964C39.8694 67.4615 41.5074 67.6036 42.7181 66.8225C43.2878 67.7456 43.7151 68.8107 44 69.9467C42.5757 70.2308 41.5074 71.5089 41.5074 73C41.5074 74.4911 42.5757 75.7692 44 76.0533C43.7151 77.1183 43.2878 78.1834 42.7181 79.1775C41.5074 78.3964 39.8694 78.5385 38.8012 79.6036C37.7329 80.6686 37.5905 82.3728 38.3739 83.5799C37.4481 84.1479 36.3798 84.574 35.2404 84.929C34.9555 83.4379 33.6736 82.3728 32.1068 82.3728C30.5401 82.3728 29.2582 83.5089 28.9733 85C27.8338 84.716 26.7656 84.2899 25.7685 83.7219C26.6944 82.5148 26.5519 80.7396 25.4837 79.6036C24.3442 78.4675 22.5638 78.3965 21.3531 79.3195C20.7834 78.3254 20.2849 77.2604 20 76.1243C21.5668 75.9112 22.7774 74.6331 22.7774 73C22.7774 71.3669 21.5668 70.0888 20 69.8757Z" stroke="#AA885F" stroke-width="2" stroke-miterlimit="10" stroke-linecap="round" stroke-linejoin="round"/>
<circle cx="32" cy="73" r="5" stroke="#AA885F" stroke-width="2"/>
<rect x="56" y="62" width="5" height="8" stroke="#AA885F" stroke-width="2"/>
<rect x="61" y="55" width="5" height="15" stroke="#AA885F" stroke-width="2"/>
<rect x="66" y="49" width="5" height="21" stroke="#AA885F" stroke-width="2"/>
<rect x="51" y="69" width="21" height="2" fill="#AA885F"/>
<rect x="35" y="54" width="23" height="2" fill="#AA885F"/>
<rect x="35" y="50" width="23" height="2" fill="#AA885F"/>
<path d="M43.35 35.65V36.65H44.35H53.6472C53.1481 41.3437 49.176 45 44.35 45C39.1861 45 35 40.8139 35 35.65C35 30.824 38.6563 26.8519 43.35 26.3529V35.65Z" stroke="#AA885F" stroke-width="2"/>
<path d="M47.65 24.0528C52.0151 24.517 55.483 27.9849 55.9472 32.35L47.65 32.35L47.65 24.0528Z" stroke="#AA885F" stroke-width="2"/>
</svg>
