<svg width="270" height="100" viewBox="0 0 270 100" fill="none" xmlns="http://www.w3.org/2000/svg">
<rect width="270" height="100" fill="#101010"/>
<path d="M93.2001 39.6H84.8001C81.8001 39.6 81.4001 38.1 81.4001 36.9C81.4001 34.5 82.6001 33.6 85.7001 33.6H102V27H84.8001C77.2001 27 73.6001 30.1 73.6001 36.8C73.6001 43.1 77.0001 46 84.2001 46H91.7001C94.6001 46 95.6001 46.7 95.6001 48.9C95.6001 50.7 94.9001 51.7 91.3001 51.7H74.9001V58.3H92.3001C99.9001 58.3 103.4 55.2 103.4 48.7C103.4 42.2 100.5 39.6 93.2001 39.6Z" fill="#AA885F"/>
<path d="M136.9 27L123.8 58.3H116.5L102.9 27H111.4L120 48.4L128.9 27H136.9Z" fill="#AA885F"/>
<path d="M150 33.5H161V27H149.9C139.8 27 135.1 32.1 135.1 43.2C135.1 48.9 136.7 52.9 139.9 55.5C143.1 58.1 146.2 58.3 149.7 58.3H161V51.9H150C145.5 51.9 143.6 50.2 143.5 45.7H161V39.3H143.5C143.9 35.3 146 33.5 150 33.5Z" fill="#AA885F"/>
<path d="M175.5 27L162.3 58.3H170.3L173 51.1H185.2L188 58.3H196.4L183 27H175.5ZM175.5 44.6L179 35.3L182.7 44.6H175.5Z" fill="#AA885F"/>
<path d="M140 64.8999H74.7002V72.9999H140V64.8999Z" fill="#AA885F"/>
<path d="M144.7 72.9999C144.7 72.9999 144.7 70.8999 144.7 68.5999C144.7 66.2999 145.4 64.8999 148.4 64.8999C151.3 64.8999 151.3 64.8999 151.3 64.8999V66.2999C151.3 66.2999 149.9 66.2999 148.5 66.2999C147.1 66.2999 146.4 66.7999 146.4 68.2999H151.3V69.6999H146.4V72.9999H144.7Z" fill="#AA885F"/>
<path d="M154.3 64.8999H152.5V72.9999H154.3V64.8999Z" fill="#AA885F"/>
<path d="M156 72.9999V64.8999H158.1L161.5 70.6999V64.8999H163.1V72.9999H161.2L157.7 66.8999V72.9999H156Z" fill="#AA885F"/>
<path d="M173 72.9999V64.8999H175.2L178.5 70.6999V64.8999H180.2V72.9999H178.2L174.7 66.8999V72.9999H173Z" fill="#AA885F"/>
<path d="M170.5 72.9999H172.4L168.9 64.8999H167.1L163.6 72.9999H165.5L166.2 71.0999H169.7L170.5 72.9999ZM166.9 69.5999L168.1 66.4999L169.3 69.5999H166.9Z" fill="#AA885F"/>
<path d="M188 64.8999C188 64.8999 186.6 64.8999 184.9 64.8999C183.2 64.8999 181.3 65.7999 181.3 68.9999C181.3 72.0999 183.1 73.0999 184.6 73.0999C186.1 73.0999 188 73.0999 188 73.0999V71.6999C188 71.6999 186.2 71.6999 185.1 71.6999C183.9 71.6999 183.2 70.8999 183.2 69.5999C183.2 69.0999 183.2 70.1999 183.2 68.6999C183.2 67.1999 184 66.3999 185.1 66.3999C186.2 66.3999 188 66.3999 188 66.3999V64.8999Z" fill="#AA885F"/>
<path d="M192.5 66.2999C193.6 66.2999 195.4 66.2999 195.4 66.2999V64.8999C195.4 64.8999 194 64.8999 192.3 64.8999C190.6 64.8999 188.7 65.7999 188.7 68.9999C188.7 72.0999 190.5 73.0999 192 73.0999C193.5 73.0999 195.4 73.0999 195.4 73.0999V71.6999C195.4 71.6999 193.6 71.6999 192.5 71.6999C191.4 71.6999 190.6 70.8999 190.6 69.6999H195.4V68.2999H190.6C190.8 66.9999 191.5 66.2999 192.5 66.2999Z" fill="#AA885F"/>
</svg>
