<svg width="100" height="100" viewBox="0 0 100 100" fill="none" xmlns="http://www.w3.org/2000/svg">
<rect width="100" height="100" fill="white"/>
<path d="M61 82C61 75.9249 56.0751 71 50 71C43.9249 71 39 75.9249 39 82" stroke="#AA885F" stroke-width="2"/>
<circle cx="50" cy="65" r="6" stroke="#AA885F" stroke-width="2"/>
<rect x="39" y="80" width="21" height="2" fill="#AA885F"/>
<path d="M61 39C61 32.9249 56.0751 28 50 28C43.9249 28 39 32.9249 39 39" stroke="#AA885F" stroke-width="2"/>
<circle cx="50" cy="22" r="6" stroke="#AA885F" stroke-width="2"/>
<rect x="39" y="37" width="21" height="2" fill="#AA885F"/>
<path d="M34 82C34 75.9249 29.0751 71 23 71C16.9249 71 12 75.9249 12 82" stroke="#AA885F" stroke-width="2"/>
<circle cx="23" cy="65" r="6" stroke="#AA885F" stroke-width="2"/>
<rect x="12" y="80" width="21" height="2" fill="#AA885F"/>
<path d="M88 82C88 75.9249 83.0751 71 77 71C70.9249 71 66 75.9249 66 82" stroke="#AA885F" stroke-width="2"/>
<circle cx="77" cy="65" r="6" stroke="#AA885F" stroke-width="2"/>
<rect x="66" y="80" width="21" height="2" fill="#AA885F"/>
<path d="M23 55V52C23 49.7909 24.7909 48 27 48H73C75.2091 48 77 49.7909 77 52V55" stroke="#AA885F" stroke-width="2"/>
<rect x="49" y="41" width="2" height="14" fill="#AA885F"/>
</svg>
