<svg width="792" height="708" viewBox="0 0 792 708" fill="none" xmlns="http://www.w3.org/2000/svg">
<path d="M650 358H234C229.6 358 226 354.4 226 350V8C226 3.6 229.6 0 234 0H650C654.4 0 658 3.6 658 8V350C658 354.4 654.4 358 650 358Z" fill="#80001A"/>
<path d="M634 188H250C247.8 188 246 186.2 246 184V144C246 141.8 247.8 140 250 140H634C636.2 140 638 141.8 638 144V184C638 186.2 636.2 188 634 188Z" fill="#101010"/>
<path d="M332.8 158.7H340.4V161.3H335.9V163.1H339.7V165.7H335.9V167.8H340.5V170.4H332.8V158.7Z" fill="#AA8961"/>
<path d="M343 164.7H347.5V166.9H343V164.7Z" fill="#AA8961"/>
<path d="M348.8 158.7H352.1L353.3 163.8C353.6 165 353.8 166.2 354.2 167.5H354.3C354.6 166.2 354.9 165 355.2 163.8L356.4 158.7H359.6L356.1 170.4H352.4L348.8 158.7Z" fill="#AA8961"/>
<path d="M361.5 158.7H369.1V161.3H364.6V163.1H368.4V165.7H364.6V167.8H369.2V170.4H361.5V158.7ZM363.9 156.7L367.2 154.1L368.8 156.1L365.3 158.3L363.9 156.7Z" fill="#AA8961"/>
<path d="M371.5 164.6C371.5 160.7 374.2 158.4 377.3 158.4C379 158.4 380.3 159.1 381.1 159.9L379.5 161.9C378.9 161.4 378.3 161 377.4 161C375.8 161 374.6 162.3 374.6 164.4C374.6 166.6 375.6 167.8 377.7 167.8C378 167.8 378.4 167.7 378.6 167.6V166H376.9V163.5H381.4V169.1C380.6 169.9 379.1 170.5 377.4 170.5C374.2 170.6 371.5 168.6 371.5 164.6Z" fill="#AA8961"/>
<path d="M390.8 170.4L388.8 166.5H387.6V170.4H384.5V158.7H388.9C391.4 158.7 393.6 159.6 393.6 162.5C393.6 164.2 392.8 165.3 391.7 165.9L394.2 170.4H390.8ZM387.6 164H388.7C389.9 164 390.6 163.5 390.6 162.5C390.6 161.5 390 161.2 388.7 161.2H387.6V164Z" fill="#AA8961"/>
<path d="M396.5 158.7H404.1V161.3H399.6V163.1H403.4V165.7H399.6V167.8H404.2V170.4H396.5V158.7Z" fill="#AA8961"/>
<path d="M407.3 158.7H410.4V163.1H413.9V158.7H417V170.4H413.9V165.8H410.4V170.4H407.3V158.7Z" fill="#AA8961"/>
<path d="M426 167.9H422.7L422.1 170.4H419L422.6 158.7H426.3L429.9 170.4H426.6L426 167.9ZM425.5 165.5L425.3 164.7C425 163.6 424.7 162.2 424.4 161H424.3C424 162.2 423.8 163.6 423.5 164.7L423.3 165.5H425.5Z" fill="#AA8961"/>
<path d="M431.1 168.4L433.2 166.8C433.6 167.6 434.2 167.9 434.7 167.9C435.5 167.9 436 167.5 436 166V158.6H439.1V166.2C439.1 168.5 437.8 170.5 435.1 170.5C433.2 170.6 432 169.9 431.1 168.4Z" fill="#AA8961"/>
<path d="M444.5 161.2H441.4V158.6H450.7V161.2H447.6V170.3H444.5V161.2Z" fill="#AA8961"/>
<path d="M457.9 167.9H454.6L454 170.4H450.8L454.4 158.7H458.1L461.7 170.4H458.4L457.9 167.9ZM456.1 158.2L454.7 156.7L458 154.1L459.6 156.1L456.1 158.2ZM457.4 165.5L457.2 164.7C456.9 163.6 456.6 162.2 456.3 161H456.2C455.9 162.2 455.7 163.6 455.4 164.7L455.2 165.5H457.4Z" fill="#AA8961"/>
<path d="M463.3 168.9L465.1 166.8C465.9 167.5 467 167.9 467.8 167.9C468.7 167.9 469.1 167.6 469.1 167.1C469.1 166.5 468.5 166.4 467.5 166L466 165.4C464.7 164.9 463.6 163.8 463.6 162.1C463.6 160.1 465.4 158.5 468 158.5C469.3 158.5 470.8 159 471.9 160.1L470.4 162C469.6 161.4 468.9 161.2 468.1 161.2C467.3 161.2 466.9 161.5 466.9 162C466.9 162.6 467.6 162.8 468.6 163.2L470 163.8C471.5 164.4 472.3 165.4 472.3 167C472.3 169 470.6 170.7 467.7 170.7C466.2 170.6 464.5 170 463.3 168.9Z" fill="#AA8961"/>
<path d="M474.9 158.7H478V170.4H474.9V158.7Z" fill="#AA8961"/>
<path d="M490 158.7H493.3L495.1 163.5C495.3 164.1 495.5 164.9 495.7 165.6H495.8C496 164.9 496.2 164.2 496.4 163.5L498.1 158.7H501.4V170.4H498.6V166.9C498.6 165.7 498.9 163.9 499 162.7H498.9L497.9 165.5L496.5 169.4H494.8L493.4 165.5L492.5 162.7H492.4C492.5 163.9 492.8 165.7 492.8 166.9V170.4H490V158.7Z" fill="#AA8961"/>
<path d="M504.2 164.4C504.2 160.5 506.4 158.4 509.6 158.4C512.8 158.4 515 160.6 515 164.4C515 168.3 512.8 170.5 509.6 170.5C506.4 170.6 504.2 168.3 504.2 164.4ZM511.9 164.4C511.9 162.3 511 161.1 509.6 161.1C508.2 161.1 507.3 162.3 507.3 164.4C507.3 166.5 508.2 167.9 509.6 167.9C511 167.9 511.9 166.6 511.9 164.4Z" fill="#AA8961"/>
<path d="M517.8 158.7H521.3C524.9 158.7 527.3 160.4 527.3 164.5C527.3 168.6 524.9 170.4 521.5 170.4H517.9V158.7H517.8ZM521.1 167.9C522.8 167.9 524.1 167.2 524.1 164.5C524.1 161.8 522.8 161.2 521.1 161.2H520.9V167.9H521.1Z" fill="#AA8961"/>
<path d="M529.9 164.7V158.7H533V165.1C533 167.2 533.5 167.9 534.8 167.9C536.1 167.9 536.6 167.1 536.6 165.1V158.7H539.6V164.7C539.6 168.7 538.1 170.6 534.8 170.6C531.5 170.6 529.9 168.7 529.9 164.7Z" fill="#AA8961"/>
<path d="M542.8 158.7H545.9V167.8H550.3V170.4H542.8V158.7Z" fill="#AA8961"/>
<path d="M634 238H250C247.8 238 246 236.2 246 234V194C246 191.8 247.8 190 250 190H634C636.2 190 638 191.8 638 194V234C638 236.2 636.2 238 634 238Z" fill="#590012"/>
<path d="M318.3 208.9H319.6V219.4H318.3V208.9Z" fill="white"/>
<path d="M322.1 211.6H323.2L323.3 212.7C324 212 324.8 211.4 325.9 211.4C327.5 211.4 328.3 212.5 328.3 214.4V219.3H327V214.5C327 213 326.6 212.4 325.5 212.4C324.7 212.4 324.2 212.8 323.4 213.6V219.2H322.1V211.6Z" fill="white"/>
<path d="M330.1 220.8C330.1 220.1 330.5 219.5 331.2 219C330.8 218.8 330.5 218.3 330.5 217.7C330.5 217 330.9 216.5 331.3 216.3V216.2C330.8 215.8 330.3 215 330.3 214.1C330.3 212.4 331.6 211.3 333.2 211.3C333.6 211.3 334 211.4 334.3 211.5H337V212.5H335.4C335.8 212.9 336 213.4 336 214.1C336 215.8 334.7 216.8 333.2 216.8C332.8 216.8 332.4 216.7 332 216.5C331.7 216.7 331.5 217 331.5 217.4C331.5 217.9 331.8 218.2 332.9 218.2H334.4C336.2 218.2 337.1 218.8 337.1 220.1C337.1 221.5 335.6 222.8 333.2 222.8C331.4 222.9 330.1 222.2 330.1 220.8ZM336 220.4C336 219.7 335.4 219.4 334.4 219.4H333.1C332.8 219.4 332.4 219.4 332.1 219.3C331.5 219.7 331.3 220.2 331.3 220.6C331.3 221.4 332.1 222 333.6 222C335 222 336 221.3 336 220.4ZM335 214.2C335 213.1 334.3 212.4 333.4 212.4C332.5 212.4 331.8 213.1 331.8 214.2C331.8 215.3 332.6 216.1 333.4 216.1C334.2 216.1 335 215.3 335 214.2Z" fill="white"/>
<path d="M338.2 217.3C338.2 215.6 339.7 214.8 343 214.4C343 213.4 342.7 212.4 341.4 212.4C340.5 212.4 339.7 212.8 339.1 213.2L338.6 212.3C339.3 211.8 340.4 211.3 341.7 211.3C343.6 211.3 344.4 212.6 344.4 214.5V219.3H343.3L343.2 218.4C342.5 219 341.6 219.5 340.6 219.5C339.2 219.5 338.2 218.7 338.2 217.3ZM343 217.5V215.3C340.4 215.6 339.5 216.3 339.5 217.3C339.5 218.2 340.1 218.5 340.9 218.5C341.6 218.5 342.3 218.1 343 217.5Z" fill="white"/>
<path d="M346.8 217V212.7H345.6V211.7L346.8 211.6L347 209.4H348.1V211.6H350.2V212.7H348.1V217C348.1 218 348.4 218.5 349.3 218.5C349.6 218.5 349.9 218.4 350.2 218.3L350.5 219.3C350.1 219.4 349.5 219.6 349.1 219.6C347.4 219.5 346.8 218.5 346.8 217Z" fill="white"/>
<path d="M351.8 217.8V208H353.1V217.9C353.1 218.3 353.3 218.5 353.5 218.5C353.6 218.5 353.6 218.5 353.8 218.5L354 219.5C353.8 219.6 353.6 219.6 353.2 219.6C352.3 219.5 351.8 218.9 351.8 217.8Z" fill="white"/>
<path d="M355.3 217.3C355.3 215.6 356.8 214.8 360.1 214.4C360.1 213.4 359.8 212.4 358.5 212.4C357.6 212.4 356.8 212.8 356.2 213.2L355.7 212.3C356.4 211.8 357.5 211.3 358.8 211.3C360.7 211.3 361.5 212.6 361.5 214.5V219.3H360.4L360.3 218.4C359.6 219 358.7 219.5 357.7 219.5C356.2 219.5 355.3 218.7 355.3 217.3ZM360 217.5V215.3C357.4 215.6 356.5 216.3 356.5 217.3C356.5 218.2 357.1 218.5 357.9 218.5C358.7 218.5 359.3 218.1 360 217.5Z" fill="white"/>
<path d="M363.7 211.6H364.8L364.9 212.7C365.6 212 366.4 211.4 367.5 211.4C369.1 211.4 369.9 212.5 369.9 214.4V219.3H368.6V214.5C368.6 213 368.2 212.4 367.1 212.4C366.3 212.4 365.8 212.8 365 213.6V219.2H363.7V211.6Z" fill="white"/>
<path d="M371.8 215.5C371.8 212.9 373.5 211.4 375.4 211.4C377.3 211.4 379 212.9 379 215.5C379 218.1 377.3 219.6 375.4 219.6C373.5 219.6 371.8 218.1 371.8 215.5ZM377.6 215.5C377.6 213.7 376.7 212.5 375.4 212.5C374.1 212.5 373.2 213.7 373.2 215.5C373.2 217.3 374.1 218.5 375.4 218.5C376.7 218.5 377.6 217.3 377.6 215.5Z" fill="white"/>
<path d="M380.9 208H382.2V215.7L385.5 211.6H387L384.4 214.7L387.4 219.4H386L383.7 215.7L382.2 217.4V219.4H380.9V208Z" fill="white"/>
<path d="M388.4 221.3C389.3 220.9 389.8 220.2 389.8 219.3C389.8 219.3 389.7 219.3 389.6 219.3C389.1 219.3 388.7 219 388.7 218.4C388.7 217.8 389.1 217.5 389.7 217.5C390.4 217.5 390.8 218.1 390.8 219.1C390.8 220.5 390 221.5 388.7 222.1L388.4 221.3Z" fill="white"/>
<path d="M399.1 209.1C399.1 208.6 399.5 208.3 400 208.3C400.5 208.3 400.9 208.6 400.9 209.1C400.9 209.6 400.5 209.9 400 209.9C399.5 210 399.1 209.6 399.1 209.1ZM399.3 211.6H400.6V219.4H399.3V211.6Z" fill="white"/>
<path d="M403 211.6H404.1L404.2 212.7C404.9 212 405.7 211.4 406.8 211.4C408.4 211.4 409.2 212.5 409.2 214.4V219.3H407.9V214.5C407.9 213 407.5 212.4 406.4 212.4C405.6 212.4 405.1 212.8 404.3 213.6V219.2H403V211.6Z" fill="white"/>
<path d="M411 220.8C411 220.1 411.4 219.5 412.1 219C411.7 218.8 411.4 218.3 411.4 217.7C411.4 217 411.8 216.5 412.2 216.3V216.2C411.7 215.8 411.2 215 411.2 214.1C411.2 212.4 412.5 211.3 414.1 211.3C414.5 211.3 414.9 211.4 415.2 211.5H417.9V212.5H416.3C416.7 212.9 416.9 213.4 416.9 214.1C416.9 215.8 415.6 216.8 414.1 216.8C413.7 216.8 413.3 216.7 412.9 216.5C412.6 216.7 412.4 217 412.4 217.4C412.4 217.9 412.7 218.2 413.8 218.2H415.3C417.1 218.2 418 218.8 418 220.1C418 221.5 416.5 222.8 414.1 222.8C412.3 222.9 411 222.2 411 220.8ZM416.9 220.4C416.9 219.7 416.3 219.4 415.3 219.4H414C413.7 219.4 413.3 219.4 413 219.3C412.4 219.7 412.2 220.2 412.2 220.6C412.2 221.4 413 222 414.5 222C415.9 222 416.9 221.3 416.9 220.4ZM415.9 214.2C415.9 213.1 415.2 212.4 414.3 212.4C413.4 212.4 412.7 213.1 412.7 214.2C412.7 215.3 413.5 216.1 414.3 216.1C415.1 216.1 415.9 215.3 415.9 214.2Z" fill="white"/>
<path d="M418.9 215.5C418.9 212.9 420.6 211.4 422.5 211.4C424.4 211.4 426.1 212.9 426.1 215.5C426.1 218.1 424.4 219.6 422.5 219.6C420.6 219.5 418.9 218.1 418.9 215.5ZM424.7 215.5C424.7 213.7 423.8 212.5 422.5 212.5C421.2 212.5 420.3 213.7 420.3 215.5C420.3 217.3 421.2 218.5 422.5 218.5C423.8 218.5 424.7 217.3 424.7 215.5ZM421.6 209.5L423.9 206.8L424.8 207.7L422.3 210.1L421.6 209.5Z" fill="white"/>
<path d="M427.2 218.5L427.9 217.6C428.6 218.1 429.3 218.5 430.2 218.5C431.2 218.5 431.7 218 431.7 217.3C431.7 216.5 430.8 216.1 429.9 215.8C428.8 215.4 427.6 214.9 427.6 213.6C427.6 212.4 428.6 211.4 430.3 211.4C431.3 211.4 432.1 211.8 432.7 212.3L432.1 213.1C431.6 212.7 431 212.4 430.3 212.4C429.3 212.4 428.9 212.9 428.9 213.5C428.9 214.2 429.7 214.5 430.6 214.8C431.7 215.2 433 215.7 433 217.2C433 218.5 432 219.5 430.2 219.5C428.9 219.5 427.9 219.1 427.2 218.5Z" fill="white"/>
<path d="M434.3 217.3C434.3 215.6 435.8 214.8 439.1 214.4C439.1 213.4 438.8 212.4 437.5 212.4C436.6 212.4 435.8 212.8 435.2 213.2L434.7 212.3C435.4 211.8 436.5 211.3 437.8 211.3C439.7 211.3 440.5 212.6 440.5 214.5V219.3H439.4L439.3 218.4C438.6 219 437.7 219.5 436.7 219.5C435.3 219.5 434.3 218.7 434.3 217.3ZM439 217.5V215.3C436.4 215.6 435.5 216.3 435.5 217.3C435.5 218.2 436.1 218.5 436.9 218.5C437.7 218.5 438.3 218.1 439 217.5ZM436.8 209.5L439.1 206.8L440 207.7L437.5 210.1L436.8 209.5Z" fill="white"/>
<path d="M442 220.8C442 220.1 442.4 219.5 443.1 219C442.7 218.8 442.4 218.3 442.4 217.7C442.4 217 442.8 216.5 443.2 216.3V216.2C442.7 215.8 442.2 215 442.2 214.1C442.2 212.4 443.5 211.3 445.1 211.3C445.5 211.3 445.9 211.4 446.2 211.5H448.9V212.5H447.3C447.7 212.9 447.9 213.4 447.9 214.1C447.9 215.8 446.6 216.8 445.1 216.8C444.7 216.8 444.3 216.7 443.9 216.5C443.6 216.7 443.4 217 443.4 217.4C443.4 217.9 443.7 218.2 444.8 218.2H446.3C448.1 218.2 449 218.8 449 220.1C449 221.5 447.5 222.8 445.1 222.8C443.4 222.9 442 222.2 442 220.8ZM447.9 220.4C447.9 219.7 447.3 219.4 446.3 219.4H445C444.7 219.4 444.3 219.4 444 219.3C443.4 219.7 443.2 220.2 443.2 220.6C443.2 221.4 444 222 445.5 222C446.9 222 447.9 221.3 447.9 220.4ZM446.9 214.2C446.9 213.1 446.2 212.4 445.3 212.4C444.4 212.4 443.7 213.1 443.7 214.2C443.7 215.3 444.5 216.1 445.3 216.1C446.1 216.1 446.9 215.3 446.9 214.2Z" fill="white"/>
<path d="M449.9 215.5C449.9 212.9 451.6 211.4 453.5 211.4C455.4 211.4 457.1 212.9 457.1 215.5C457.1 218.1 455.4 219.6 453.5 219.6C451.6 219.6 449.9 218.1 449.9 215.5ZM455.8 215.5C455.8 213.7 454.9 212.5 453.6 212.5C452.3 212.5 451.4 213.7 451.4 215.5C451.4 217.3 452.3 218.5 453.6 218.5C454.9 218.5 455.8 217.3 455.8 215.5Z" fill="white"/>
<path d="M459.1 208H460.4V215.7L463.7 211.6H465.2L462.6 214.7L465.6 219.4H464.2L461.9 215.7L460.4 217.4V219.4H459.1V208Z" fill="white"/>
<path d="M473.4 211.6H474.5L474.6 212.7C475.3 212 476.1 211.4 477.2 211.4C478.8 211.4 479.6 212.5 479.6 214.4V219.3H478.3V214.5C478.3 213 477.9 212.4 476.8 212.4C476 212.4 475.5 212.8 474.7 213.6V219.2H473.4V211.6Z" fill="white"/>
<path d="M481.1 222.5L481.4 221.5C481.6 221.5 481.8 221.6 482 221.6C482.9 221.6 483.4 220.9 483.8 219.9L484 219.3L480.9 211.5H482.3L483.9 215.8C484.1 216.5 484.4 217.3 484.7 218H484.8C485 217.3 485.2 216.5 485.5 215.8L486.9 211.5H488.2L485.3 219.9C484.8 221.4 484 222.6 482.4 222.6C481.6 222.7 481.3 222.6 481.1 222.5Z" fill="white"/>
<path d="M489.1 209.1C489.1 208.6 489.5 208.3 490 208.3C490.5 208.3 490.9 208.6 490.9 209.1C490.9 209.6 490.5 209.9 490 209.9C489.5 210 489.1 209.6 489.1 209.1ZM489.3 211.6H490.6V219.4H489.3V211.6Z" fill="white"/>
<path d="M493 217.8V208H494.3V217.9C494.3 218.3 494.5 218.5 494.7 218.5C494.8 218.5 494.8 218.5 495 218.5L495.2 219.5C495 219.6 494.8 219.6 494.4 219.6C493.4 219.5 493 218.9 493 217.8Z" fill="white"/>
<path d="M495.8 211.6H497.2L498.7 216C498.9 216.8 499.2 217.6 499.4 218.3H499.5C499.7 217.6 500 216.8 500.2 216L501.7 211.6H503L500.2 219.4H498.7L495.8 211.6Z" fill="white"/>
<path d="M503.9 217.3C503.9 215.6 505.4 214.8 508.7 214.4C508.7 213.4 508.4 212.4 507.1 212.4C506.2 212.4 505.4 212.8 504.8 213.2L504.3 212.3C505 211.8 506.1 211.3 507.4 211.3C509.3 211.3 510.1 212.6 510.1 214.5V219.3H509L508.9 218.4C508.2 219 507.3 219.5 506.3 219.5C504.8 219.5 503.9 218.7 503.9 217.3ZM508.6 217.5V215.3C506 215.6 505.1 216.3 505.1 217.3C505.1 218.2 505.7 218.5 506.5 218.5C507.3 218.5 507.9 218.1 508.6 217.5ZM506.4 209.5L508.7 206.8L509.6 207.7L507.1 210.1L506.4 209.5Z" fill="white"/>
<path d="M512.3 211.6H513.4L513.5 212.7C514.2 212 515 211.4 516.1 211.4C517.7 211.4 518.5 212.5 518.5 214.4V219.3H517.2V214.5C517.2 213 516.8 212.4 515.7 212.4C514.9 212.4 514.4 212.8 513.6 213.6V219.2H512.3V211.6Z" fill="white"/>
<path d="M521.1 217V212.7H519.9V211.7L521.1 211.6L521.3 209.4H522.4V211.6H524.5V212.7H522.4V217C522.4 218 522.7 218.5 523.6 218.5C523.9 218.5 524.2 218.4 524.5 218.3L524.8 219.3C524.4 219.4 523.8 219.6 523.4 219.6C521.6 219.5 521.1 218.5 521.1 217Z" fill="white"/>
<path d="M525.8 217.3C525.8 215.6 527.3 214.8 530.6 214.4C530.6 213.4 530.3 212.4 529 212.4C528.1 212.4 527.3 212.8 526.7 213.2L526.2 212.3C526.9 211.8 528 211.3 529.3 211.3C531.2 211.3 532 212.6 532 214.5V219.3H530.9L530.8 218.4C530.1 219 529.2 219.5 528.2 219.5C526.8 219.5 525.8 218.7 525.8 217.3ZM530.6 217.5V215.3C528 215.6 527.1 216.3 527.1 217.3C527.1 218.2 527.7 218.5 528.5 218.5C529.2 218.5 529.8 218.1 530.6 217.5Z" fill="white"/>
<path d="M534.2 211.6H535.3L535.4 213C535.9 212 536.7 211.4 537.6 211.4C537.9 211.4 538.2 211.4 538.4 211.6L538.1 212.8C537.8 212.7 537.7 212.7 537.3 212.7C536.6 212.7 535.9 213.2 535.3 214.5V219.5H534V211.6H534.2Z" fill="white"/>
<path d="M540.5 217V212.7H539.3V211.7L540.5 211.6L540.7 209.4H541.8V211.6H543.9V212.7H541.8V217C541.8 218 542.1 218.5 543 218.5C543.3 218.5 543.6 218.4 543.9 218.3L544.2 219.3C543.8 219.4 543.2 219.6 542.8 219.6C541.1 219.5 540.5 218.5 540.5 217Z" fill="white"/>
<path d="M545.2 217.3C545.2 215.6 546.7 214.8 550 214.4C550 213.4 549.7 212.4 548.4 212.4C547.5 212.4 546.7 212.8 546.1 213.2L545.6 212.3C546.3 211.8 547.4 211.3 548.7 211.3C550.6 211.3 551.4 212.6 551.4 214.5V219.3H550.3L550.2 218.4C549.5 219 548.6 219.5 547.6 219.5C546.2 219.5 545.2 218.7 545.2 217.3ZM550 217.5V215.3C547.4 215.6 546.5 216.3 546.5 217.3C546.5 218.2 547.1 218.5 547.9 218.5C548.6 218.5 549.2 218.1 550 217.5ZM547.7 209.5L550 206.8L550.9 207.7L548.4 210.1L547.7 209.5Z" fill="white"/>
<path d="M552.8 218.5L553.5 217.6C554.2 218.1 554.9 218.5 555.8 218.5C556.8 218.5 557.3 218 557.3 217.3C557.3 216.5 556.4 216.1 555.5 215.8C554.4 215.4 553.2 214.9 553.2 213.6C553.2 212.4 554.2 211.4 555.9 211.4C556.9 211.4 557.7 211.8 558.3 212.3L557.7 213.1C557.2 212.7 556.6 212.4 555.9 212.4C554.9 212.4 554.5 212.9 554.5 213.5C554.5 214.2 555.3 214.5 556.2 214.8C557.3 215.2 558.6 215.7 558.6 217.2C558.6 218.5 557.6 219.5 555.8 219.5C554.6 219.5 553.6 219.1 552.8 218.5Z" fill="white"/>
<path d="M560 217.3C560 215.6 561.5 214.8 564.8 214.4C564.8 213.4 564.5 212.4 563.2 212.4C562.3 212.4 561.5 212.8 560.9 213.2L560.4 212.3C561.1 211.8 562.2 211.3 563.5 211.3C565.4 211.3 566.2 212.6 566.2 214.5V219.3H565L564.9 218.4C564.2 219 563.3 219.5 562.3 219.5C560.9 219.5 560 218.7 560 217.3ZM564.7 217.5V215.3C562.1 215.6 561.2 216.3 561.2 217.3C561.2 218.2 561.8 218.5 562.6 218.5C563.4 218.5 564 218.1 564.7 217.5Z" fill="white"/>
<path d="M634 288H250C247.8 288 246 286.2 246 284V244C246 241.8 247.8 240 250 240H634C636.2 240 638 241.8 638 244V284C638 286.2 636.2 288 634 288Z" fill="#590012"/>
<path d="M352.1 258.9H353.5L355.2 264.6C355.6 265.8 355.8 266.8 356.2 268.1H356.3C356.7 266.9 356.9 265.9 357.3 264.6L359 258.9H360.4L357.1 269.4H355.5L352.1 258.9Z" fill="white"/>
<path d="M360.6 265.5C360.6 263 362.3 261.4 364.1 261.4C366.1 261.4 367.2 262.8 367.2 265.1C367.2 265.4 367.2 265.7 367.2 265.9H361.9C362 267.5 363 268.6 364.5 268.6C365.2 268.6 365.9 268.4 366.4 268L366.9 268.9C366.2 269.3 365.4 269.7 364.3 269.7C362.3 269.5 360.6 268 360.6 265.5ZM366.1 264.8C366.1 263.2 365.4 262.4 364.2 262.4C363.1 262.4 362.1 263.3 362 264.8H366.1ZM363.2 259.5L365.5 256.8L366.4 257.7L363.9 260.1L363.2 259.5Z" fill="white"/>
<path d="M368.5 270.8C368.5 270.1 368.9 269.5 369.6 269C369.2 268.8 368.9 268.3 368.9 267.7C368.9 267 369.3 266.5 369.7 266.3V266.2C369.2 265.8 368.7 265 368.7 264.1C368.7 262.4 370 261.3 371.6 261.3C372 261.3 372.4 261.4 372.7 261.5H375.4V262.5H373.8C374.2 262.9 374.4 263.4 374.4 264.1C374.4 265.8 373.1 266.8 371.6 266.8C371.2 266.8 370.8 266.7 370.4 266.5C370.1 266.7 369.9 267 369.9 267.4C369.9 267.9 370.2 268.2 371.3 268.2H372.8C374.6 268.2 375.5 268.8 375.5 270.1C375.5 271.5 374 272.8 371.6 272.8C369.8 272.9 368.5 272.2 368.5 270.8ZM374.3 270.4C374.3 269.7 373.7 269.4 372.7 269.4H371.4C371.1 269.4 370.7 269.4 370.4 269.3C369.8 269.7 369.6 270.2 369.6 270.6C369.6 271.4 370.4 272 371.9 272C373.4 272 374.3 271.3 374.3 270.4ZM373.3 264.2C373.3 263.1 372.6 262.4 371.7 262.4C370.8 262.4 370.1 263.1 370.1 264.2C370.1 265.3 370.9 266.1 371.7 266.1C372.5 266.1 373.3 265.3 373.3 264.2Z" fill="white"/>
<path d="M377 261.6H378.1L378.2 263C378.7 262 379.5 261.4 380.4 261.4C380.7 261.4 381 261.4 381.2 261.6L380.9 262.8C380.6 262.7 380.5 262.7 380.1 262.7C379.4 262.7 378.7 263.2 378.1 264.5V269.5H377V261.6Z" fill="white"/>
<path d="M381.9 265.5C381.9 263 383.6 261.4 385.4 261.4C387.4 261.4 388.5 262.8 388.5 265.1C388.5 265.4 388.5 265.7 388.5 265.9H383.2C383.3 267.5 384.3 268.6 385.8 268.6C386.5 268.6 387.2 268.4 387.7 268L388.2 268.9C387.5 269.3 386.7 269.7 385.6 269.7C383.6 269.5 381.9 268 381.9 265.5ZM387.3 264.8C387.3 263.2 386.6 262.4 385.4 262.4C384.3 262.4 383.3 263.3 383.2 264.8H387.3Z" fill="white"/>
<path d="M390.4 258H391.7V261.1V262.7C392.4 262 393.2 261.4 394.3 261.4C395.9 261.4 396.7 262.5 396.7 264.4V269.3H395.4V264.5C395.4 263 395 262.4 393.9 262.4C393.1 262.4 392.6 262.8 391.8 263.6V269.2H390.5V258H390.4Z" fill="white"/>
<path d="M398.4 267.3C398.4 265.6 399.9 264.8 403.2 264.4C403.2 263.4 402.9 262.4 401.6 262.4C400.7 262.4 399.9 262.8 399.3 263.2L398.8 262.3C399.5 261.8 400.6 261.3 401.9 261.3C403.8 261.3 404.6 262.6 404.6 264.5V269.3H403.5L403.4 268.4C402.7 269 401.8 269.5 400.8 269.5C399.4 269.5 398.4 268.7 398.4 267.3ZM403.2 267.5V265.3C400.6 265.6 399.7 266.3 399.7 267.3C399.7 268.2 400.3 268.5 401.1 268.5C401.8 268.5 402.4 268.1 403.2 267.5Z" fill="white"/>
<path d="M404.8 272.6L405.1 271.6C405.3 271.7 405.6 271.7 405.8 271.7C406.6 271.7 406.8 271.1 406.8 270.2V261.5H408.1V270.2C408.1 271.8 407.5 272.8 406 272.8C405.5 272.8 405.1 272.7 404.8 272.6ZM406.6 259.1C406.6 258.6 407 258.3 407.5 258.3C408 258.3 408.4 258.6 408.4 259.1C408.4 259.6 408 259.9 407.5 259.9C407 260 406.6 259.6 406.6 259.1Z" fill="white"/>
<path d="M410.8 267V262.7H409.6V261.7L410.8 261.6L411 259.4H412.1V261.6H414.2V262.7H412.1V267C412.1 268 412.4 268.5 413.3 268.5C413.6 268.5 413.9 268.4 414.2 268.3L414.5 269.3C414.1 269.4 413.5 269.6 413.1 269.6C411.4 269.5 410.8 268.5 410.8 267Z" fill="white"/>
<path d="M415.2 265.5C415.2 262.9 416.9 261.4 418.8 261.4C420.7 261.4 422.4 262.9 422.4 265.5C422.4 268.1 420.7 269.6 418.8 269.6C416.9 269.6 415.2 268.1 415.2 265.5ZM421 265.5C421 263.7 420.1 262.5 418.8 262.5C417.5 262.5 416.6 263.7 416.6 265.5C416.6 267.3 417.5 268.5 418.8 268.5C420.1 268.5 421 267.3 421 265.5ZM417.9 259.5L420.2 256.8L421.1 257.7L418.6 260.1L417.9 259.5Z" fill="white"/>
<path d="M424 259.1C424 258.6 424.4 258.3 424.9 258.3C425.4 258.3 425.8 258.6 425.8 259.1C425.8 259.6 425.4 259.9 424.9 259.9C424.4 260 424 259.6 424 259.1ZM424.2 261.6H425.5V269.4H424.2V261.6Z" fill="white"/>
<path d="M434.6 258H435.9V265.7L439.2 261.6H440.7L438.1 264.7L441.1 269.4H439.7L437.4 265.7L435.9 267.4V269.4H434.6V258Z" fill="white"/>
<path d="M441.6 265.5C441.6 262.9 443.3 261.4 445.2 261.4C447.1 261.4 448.8 262.9 448.8 265.5C448.8 268.1 447.1 269.6 445.2 269.6C443.3 269.5 441.6 268.1 441.6 265.5ZM447.4 265.5C447.4 263.7 446.5 262.5 445.2 262.5C443.9 262.5 443 263.7 443 265.5C443 267.3 443.9 268.5 445.2 268.5C446.6 268.5 447.4 267.3 447.4 265.5Z" fill="white"/>
<path d="M450.7 261.6H451.8L451.9 262.7C452.6 262 453.4 261.4 454.3 261.4C455.5 261.4 456.1 262 456.4 262.9C457.2 262 458 261.4 459 261.4C460.6 261.4 461.4 262.5 461.4 264.4V269.3H460.1V264.5C460.1 263 459.6 262.4 458.7 262.4C458.1 262.4 457.5 262.8 456.7 263.6V269.2H455.4V264.4C455.4 262.9 454.9 262.3 453.9 262.3C453.3 262.3 452.7 262.7 451.9 263.5V269.1H450.6V261.6H450.7Z" fill="white"/>
<path d="M463.9 261.6H465L465.1 262.7C465.8 262 466.6 261.4 467.5 261.4C468.7 261.4 469.3 262 469.6 262.9C470.4 262 471.2 261.4 472.2 261.4C473.8 261.4 474.6 262.5 474.6 264.4V269.3H473.3V264.5C473.3 263 472.8 262.4 471.9 262.4C471.3 262.4 470.7 262.8 469.9 263.6V269.2H468.6V264.4C468.6 262.9 468.1 262.3 467.1 262.3C466.5 262.3 465.9 262.7 465.1 263.5V269.1H463.8V261.6H463.9Z" fill="white"/>
<path d="M476.9 266.5V261.6H478.2V266.4C478.2 267.9 478.6 268.5 479.7 268.5C480.5 268.5 481.1 268.1 481.8 267.2V261.7H483.1V269.5H482L481.9 268.3C481.2 269.1 480.4 269.7 479.3 269.7C477.6 269.5 476.9 268.5 476.9 266.5Z" fill="white"/>
<path d="M485.5 261.6H486.6L486.7 262.7C487.4 262 488.2 261.4 489.3 261.4C490.9 261.4 491.7 262.5 491.7 264.4V269.3H490.4V264.5C490.4 263 490 262.4 488.9 262.4C488.1 262.4 487.6 262.8 486.8 263.6V269.2H485.5V261.6Z" fill="white"/>
<path d="M493.8 259.1C493.8 258.6 494.2 258.3 494.7 258.3C495.2 258.3 495.6 258.6 495.6 259.1C495.6 259.6 495.2 259.9 494.7 259.9C494.2 260 493.8 259.6 493.8 259.1ZM494 261.6H495.3V269.4H494V261.6Z" fill="white"/>
<path d="M497.7 258H499V265.7L502.3 261.6H503.8L501.2 264.7L504.2 269.4H502.8L500.5 265.7L499 267.4V269.4H497.7V258Z" fill="white"/>
<path d="M505.1 267.3C505.1 265.6 506.6 264.8 509.9 264.4C509.9 263.4 509.6 262.4 508.3 262.4C507.4 262.4 506.6 262.8 506 263.2L505.5 262.3C506.2 261.8 507.3 261.3 508.6 261.3C510.5 261.3 511.3 262.6 511.3 264.5V269.3H510.2L510.1 268.4C509.4 269 508.5 269.5 507.5 269.5C506.1 269.5 505.1 268.7 505.1 267.3ZM509.9 267.5V265.3C507.3 265.6 506.4 266.3 506.4 267.3C506.4 268.2 507 268.5 507.8 268.5C508.5 268.5 509.1 268.1 509.9 267.5ZM507.6 259.5L509.9 256.8L510.8 257.7L508.3 260.1L507.6 259.5Z" fill="white"/>
<path d="M513 265.5C513 262.9 514.7 261.4 516.7 261.4C517.7 261.4 518.4 261.8 519 262.3L518.3 263.2C517.9 262.8 517.4 262.5 516.7 262.5C515.3 262.5 514.3 263.7 514.3 265.5C514.3 267.3 515.3 268.5 516.7 268.5C517.4 268.5 518 268.1 518.5 267.7L519.1 268.6C518.4 269.2 517.5 269.6 516.6 269.6C514.6 269.5 513 268.1 513 265.5Z" fill="white"/>
<path d="M520.5 259.1C520.5 258.6 520.9 258.3 521.4 258.3C521.9 258.3 522.3 258.6 522.3 259.1C522.3 259.6 521.9 259.9 521.4 259.9C520.9 260 520.5 259.6 520.5 259.1ZM520.7 261.6H522V269.4H520.7V261.6Z" fill="white"/>
<path d="M523.9 265.5C523.9 262.9 525.6 261.4 527.5 261.4C529.4 261.4 531.1 262.9 531.1 265.5C531.1 268.1 529.4 269.6 527.5 269.6C525.6 269.5 523.9 268.1 523.9 265.5ZM529.8 265.5C529.8 263.7 528.9 262.5 527.6 262.5C526.3 262.5 525.4 263.7 525.4 265.5C525.4 267.3 526.3 268.5 527.6 268.5C528.9 268.5 529.8 267.3 529.8 265.5ZM526.6 259.5L528.9 256.8L529.8 257.7L527.3 260.1L526.6 259.5Z" fill="white"/>
<path d="M437 338H250C247.8 338 246 336.2 246 334V294C246 291.8 247.8 290 250 290H437C439.2 290 441 291.8 441 294V334C441 336.2 439.2 338 437 338Z" fill="#590012"/>
<path d="M634 338H447C444.8 338 443 336.2 443 334V294C443 291.8 444.8 290 447 290H634C636.2 290 638 291.8 638 294V334C638 336.2 636.2 338 634 338Z" fill="#590012"/>
<path d="M266.2 308.9H272.3V310H267.6V313.6H271.6V314.7H267.6V319.4H266.3V308.9H266.2Z" fill="white"/>
<path d="M273.1 315.5C273.1 313 274.8 311.4 276.6 311.4C278.6 311.4 279.7 312.8 279.7 315.1C279.7 315.4 279.7 315.7 279.7 315.9H274.4C274.5 317.5 275.5 318.6 277 318.6C277.7 318.6 278.4 318.4 278.9 318L279.4 318.9C278.7 319.3 277.9 319.7 276.8 319.7C274.8 319.5 273.1 318 273.1 315.5ZM278.6 314.8C278.6 313.2 277.9 312.4 276.7 312.4C275.6 312.4 274.6 313.3 274.5 314.8H278.6Z" fill="white"/>
<path d="M281.1 315.5C281.1 313 282.7 311.4 284.5 311.4C285.4 311.4 286 311.7 286.7 312.3L286.6 311V308H287.9V319.4H286.8L286.7 318.5C286.1 319.1 285.3 319.6 284.3 319.6C282.4 319.5 281.1 318.1 281.1 315.5ZM286.6 317.4V313.3C285.9 312.7 285.4 312.5 284.7 312.5C283.5 312.5 282.5 313.7 282.5 315.5C282.5 317.4 283.3 318.5 284.6 318.5C285.4 318.4 286 318.1 286.6 317.4Z" fill="white"/>
<path d="M289.9 315.5C289.9 313 291.6 311.4 293.4 311.4C295.4 311.4 296.5 312.8 296.5 315.1C296.5 315.4 296.5 315.7 296.5 315.9H291.2C291.3 317.5 292.3 318.6 293.8 318.6C294.5 318.6 295.2 318.4 295.7 318L296.2 318.9C295.5 319.3 294.7 319.7 293.6 319.7C291.5 319.5 289.9 318 289.9 315.5ZM295.3 314.8C295.3 313.2 294.6 312.4 293.4 312.4C292.3 312.4 291.3 313.3 291.2 314.8H295.3Z" fill="white"/>
<path d="M297.6 318.7L301.7 312.7H298V311.6H303.3V312.3L299.2 318.3H303.4V319.4H297.5V318.7H297.6Z" fill="white"/>
<path d="M304.4 315.5C304.4 313 306.1 311.4 307.9 311.4C309.9 311.4 311 312.8 311 315.1C311 315.4 311 315.7 311 315.9H305.7C305.8 317.5 306.8 318.6 308.3 318.6C309 318.6 309.7 318.4 310.2 318L310.7 318.9C310 319.3 309.2 319.7 308.1 319.7C306 319.5 304.4 318 304.4 315.5ZM309.8 314.8C309.8 313.2 309.1 312.4 307.9 312.4C306.8 312.4 305.8 313.3 305.7 314.8H309.8Z" fill="white"/>
<path d="M313.1 317V312.7H311.9V311.7L313.1 311.6L313.3 309.4H314.4V311.6H316.5V312.7H314.4V317C314.4 318 314.7 318.5 315.6 318.5C315.9 318.5 316.2 318.4 316.5 318.3L316.8 319.3C316.4 319.4 315.8 319.6 315.4 319.6C313.6 319.5 313.1 318.5 313.1 317Z" fill="white"/>
<path d="M318.1 317.8V308H319.4V317.9C319.4 318.3 319.6 318.5 319.8 318.5C319.9 318.5 319.9 318.5 320.1 318.5L320.3 319.5C320.1 319.6 319.9 319.6 319.5 319.6C318.5 319.5 318.1 318.9 318.1 317.8Z" fill="white"/>
<path d="M321.4 315.5C321.4 313 323.1 311.4 324.9 311.4C326.9 311.4 328 312.8 328 315.1C328 315.4 328 315.7 328 315.9H322.7C322.8 317.5 323.8 318.6 325.3 318.6C326 318.6 326.7 318.4 327.2 318L327.7 318.9C327 319.3 326.2 319.7 325.1 319.7C323.1 319.5 321.4 318 321.4 315.5ZM326.9 314.8C326.9 313.2 326.2 312.4 325 312.4C323.9 312.4 322.9 313.3 322.8 314.8H326.9Z" fill="white"/>
<path d="M329.9 311.6H331L331.1 312.7C331.8 312 332.6 311.4 333.7 311.4C335.3 311.4 336.1 312.5 336.1 314.4V319.3H334.8V314.5C334.8 313 334.4 312.4 333.3 312.4C332.5 312.4 332 312.8 331.2 313.6V319.2H329.9V311.6Z" fill="white"/>
<path d="M345 308H346.3V315.7L349.6 311.6H351.1L348.5 314.7L351.5 319.4H350.1L347.8 315.7L346.3 317.4V319.4H345V308Z" fill="white"/>
<path d="M352.1 315.5C352.1 312.9 353.8 311.4 355.7 311.4C357.6 311.4 359.3 312.9 359.3 315.5C359.3 318.1 357.6 319.6 355.7 319.6C353.8 319.6 352.1 318.1 352.1 315.5ZM353.3 309.2C353.3 308.8 353.6 308.4 354.1 308.4C354.5 308.4 354.9 308.8 354.9 309.2C354.9 309.6 354.6 310 354.1 310C353.7 310 353.3 309.6 353.3 309.2ZM357.9 315.5C357.9 313.7 357 312.5 355.7 312.5C354.4 312.5 353.5 313.7 353.5 315.5C353.5 317.3 354.4 318.5 355.7 318.5C357 318.5 357.9 317.3 357.9 315.5ZM356.4 309.2C356.4 308.8 356.7 308.4 357.2 308.4C357.7 308.4 358 308.8 358 309.2C358 309.6 357.7 310 357.2 310C356.7 310 356.4 309.6 356.4 309.2Z" fill="white"/>
<path d="M360 311.6H361.4L362.9 316C363.1 316.8 363.4 317.6 363.6 318.3H363.7C363.9 317.6 364.2 316.8 364.4 316L365.9 311.6H367.2L364.4 319.4H362.9L360 311.6Z" fill="white"/>
<path d="M367.7 315.5C367.7 313 369.4 311.4 371.2 311.4C373.2 311.4 374.3 312.8 374.3 315.1C374.3 315.4 374.3 315.7 374.3 315.9H369C369.1 317.5 370.1 318.6 371.6 318.6C372.3 318.6 373 318.4 373.5 318L374 318.9C373.3 319.3 372.5 319.7 371.4 319.7C369.4 319.5 367.7 318 367.7 315.5ZM373.2 314.8C373.2 313.2 372.5 312.4 371.3 312.4C370.2 312.4 369.2 313.3 369.1 314.8H373.2Z" fill="white"/>
<path d="M376.4 317V312.7H375.2V311.7L376.4 311.6L376.6 309.4H377.7V311.6H379.8V312.7H377.7V317C377.7 318 378 318.5 378.9 318.5C379.2 318.5 379.5 318.4 379.8 318.3L380.1 319.3C379.7 319.4 379.1 319.6 378.7 319.6C377 319.5 376.4 318.5 376.4 317Z" fill="white"/>
<path d="M380.8 315.5C380.8 313 382.5 311.4 384.3 311.4C386.3 311.4 387.4 312.8 387.4 315.1C387.4 315.4 387.4 315.7 387.4 315.9H382.1C382.2 317.5 383.2 318.6 384.7 318.6C385.4 318.6 386.1 318.4 386.6 318L387.1 318.9C386.4 319.3 385.6 319.7 384.5 319.7C382.4 319.5 380.8 318 380.8 315.5ZM386.2 314.8C386.2 313.2 385.5 312.4 384.3 312.4C383.2 312.4 382.2 313.3 382.1 314.8H386.2Z" fill="white"/>
<path d="M389.2 317.8V308H390.5V317.9C390.5 318.3 390.7 318.5 390.9 318.5C391 318.5 391 318.5 391.2 318.5L391.4 319.5C391.2 319.6 391 319.6 390.6 319.6C389.6 319.5 389.2 318.9 389.2 317.8Z" fill="white"/>
<path d="M392.5 315.5C392.5 313 394.2 311.4 396 311.4C398 311.4 399.1 312.8 399.1 315.1C399.1 315.4 399.1 315.7 399.1 315.9H393.8C393.9 317.5 394.9 318.6 396.4 318.6C397.1 318.6 397.8 318.4 398.3 318L398.8 318.9C398.1 319.3 397.3 319.7 396.2 319.7C394.2 319.5 392.5 318 392.5 315.5ZM398 314.8C398 313.2 397.3 312.4 396.1 312.4C395 312.4 394 313.3 393.9 314.8H398ZM395.1 309.5L397.4 306.8L398.3 307.7L395.8 310.1L395.1 309.5Z" fill="white"/>
<path d="M400.2 318.5L400.9 317.6C401.6 318.1 402.3 318.5 403.2 318.5C404.2 318.5 404.7 318 404.7 317.3C404.7 316.5 403.8 316.1 402.9 315.8C401.8 315.4 400.6 314.9 400.6 313.6C400.6 312.4 401.6 311.4 403.3 311.4C404.3 311.4 405.1 311.8 405.7 312.3L405.1 313.1C404.6 312.7 404 312.4 403.3 312.4C402.3 312.4 401.9 312.9 401.9 313.5C401.9 314.2 402.7 314.5 403.6 314.8C404.7 315.2 406 315.7 406 317.2C406 318.5 405 319.5 403.2 319.5C402 319.5 400.9 319.1 400.2 318.5Z" fill="white"/>
<path d="M407.2 315.5C407.2 313 408.9 311.4 410.7 311.4C412.7 311.4 413.8 312.8 413.8 315.1C413.8 315.4 413.8 315.7 413.8 315.9H408.5C408.6 317.5 409.6 318.6 411.1 318.6C411.8 318.6 412.5 318.4 413 318L413.5 318.9C412.8 319.3 412 319.7 410.9 319.7C408.9 319.5 407.2 318 407.2 315.5ZM412.7 314.8C412.7 313.2 412 312.4 410.8 312.4C409.7 312.4 408.7 313.3 408.6 314.8H412.7Z" fill="white"/>
<path d="M415.7 308H417V315.7L420.3 311.6H421.8L419.2 314.7L422.2 319.4H420.8L418.5 315.7L417 317.4V319.4H415.7V308Z" fill="white"/>
<path d="M466.1 308.9H472.2V310H467.5V313.6H471.5V314.7H467.5V319.4H466.2V308.9H466.1Z" fill="white"/>
<path d="M473.1 315.5C473.1 313 474.8 311.4 476.6 311.4C478.6 311.4 479.7 312.8 479.7 315.1C479.7 315.4 479.7 315.7 479.7 315.9H474.4C474.5 317.5 475.5 318.6 477 318.6C477.7 318.6 478.4 318.4 478.9 318L479.4 318.9C478.7 319.3 477.9 319.7 476.8 319.7C474.8 319.5 473.1 318 473.1 315.5ZM478.6 314.8C478.6 313.2 477.9 312.4 476.7 312.4C475.6 312.4 474.6 313.3 474.5 314.8H478.6Z" fill="white"/>
<path d="M481.1 315.5C481.1 313 482.7 311.4 484.5 311.4C485.4 311.4 486 311.7 486.7 312.3L486.6 311V308H487.9V319.4H486.8L486.7 318.5C486.1 319.1 485.3 319.6 484.3 319.6C482.4 319.5 481.1 318.1 481.1 315.5ZM486.6 317.4V313.3C485.9 312.7 485.4 312.5 484.7 312.5C483.5 312.5 482.5 313.7 482.5 315.5C482.5 317.4 483.3 318.5 484.6 318.5C485.3 318.4 486 318.1 486.6 317.4Z" fill="white"/>
<path d="M489.9 315.5C489.9 313 491.6 311.4 493.4 311.4C495.4 311.4 496.5 312.8 496.5 315.1C496.5 315.4 496.5 315.7 496.5 315.9H491.2C491.3 317.5 492.3 318.6 493.8 318.6C494.5 318.6 495.2 318.4 495.7 318L496.2 318.9C495.5 319.3 494.7 319.7 493.6 319.7C491.5 319.5 489.9 318 489.9 315.5ZM495.3 314.8C495.3 313.2 494.6 312.4 493.4 312.4C492.3 312.4 491.3 313.3 491.2 314.8H495.3Z" fill="white"/>
<path d="M497.6 318.7L501.7 312.7H498V311.6H503.3V312.3L499.2 318.3H503.4V319.4H497.5V318.7H497.6Z" fill="white"/>
<path d="M504.4 315.5C504.4 313 506.1 311.4 507.9 311.4C509.9 311.4 511 312.8 511 315.1C511 315.4 511 315.7 511 315.9H505.7C505.8 317.5 506.8 318.6 508.3 318.6C509 318.6 509.7 318.4 510.2 318L510.7 318.9C510 319.3 509.2 319.7 508.1 319.7C506 319.5 504.4 318 504.4 315.5ZM509.8 314.8C509.8 313.2 509.1 312.4 507.9 312.4C506.8 312.4 505.8 313.3 505.7 314.8H509.8Z" fill="white"/>
<path d="M513.1 317V312.7H511.9V311.7L513.1 311.6L513.3 309.4H514.4V311.6H516.5V312.7H514.4V317C514.4 318 514.7 318.5 515.6 318.5C515.9 318.5 516.2 318.4 516.5 318.3L516.8 319.3C516.4 319.4 515.8 319.6 515.4 319.6C513.6 319.5 513.1 318.5 513.1 317Z" fill="white"/>
<path d="M517.4 315.5C517.4 313 519.1 311.4 520.9 311.4C522.9 311.4 524 312.8 524 315.1C524 315.4 524 315.7 524 315.9H518.7C518.8 317.5 519.8 318.6 521.3 318.6C522 318.6 522.7 318.4 523.2 318L523.7 318.9C523 319.3 522.2 319.7 521.1 319.7C519.1 319.5 517.4 318 517.4 315.5ZM522.9 314.8C522.9 313.2 522.2 312.4 521 312.4C519.9 312.4 518.9 313.3 518.8 314.8H522.9Z" fill="white"/>
<path d="M525.1 318.5L525.8 317.6C526.5 318.1 527.2 318.5 528.1 318.5C529.1 318.5 529.6 318 529.6 317.3C529.6 316.5 528.7 316.1 527.8 315.8C526.7 315.4 525.5 314.9 525.5 313.6C525.5 312.4 526.5 311.4 528.2 311.4C529.2 311.4 530 311.8 530.6 312.3L530 313.1C529.5 312.7 528.9 312.4 528.2 312.4C527.2 312.4 526.8 312.9 526.8 313.5C526.8 314.2 527.6 314.5 528.5 314.8C529.6 315.2 530.9 315.7 530.9 317.2C530.9 318.5 529.9 319.5 528.1 319.5C526.9 319.5 525.8 319.1 525.1 318.5Z" fill="white"/>
<path d="M539.1 308H540.4V315.7L543.7 311.6H545.2L542.6 314.7L545.6 319.4H544.2L541.9 315.7L540.4 317.4V319.4H539.1V308Z" fill="white"/>
<path d="M546.1 315.5C546.1 312.9 547.8 311.4 549.7 311.4C551.6 311.4 553.3 312.9 553.3 315.5C553.3 318.1 551.6 319.6 549.7 319.6C547.8 319.5 546.1 318.1 546.1 315.5ZM547.3 309.2C547.3 308.8 547.6 308.4 548.1 308.4C548.5 308.4 548.9 308.8 548.9 309.2C548.9 309.6 548.6 310 548.1 310C547.7 310 547.3 309.6 547.3 309.2ZM551.9 315.5C551.9 313.7 551 312.5 549.7 312.5C548.4 312.5 547.5 313.7 547.5 315.5C547.5 317.3 548.4 318.5 549.7 318.5C551 318.5 551.9 317.3 551.9 315.5ZM550.4 309.2C550.4 308.8 550.7 308.4 551.2 308.4C551.7 308.4 552 308.8 552 309.2C552 309.6 551.7 310 551.2 310C550.8 310 550.4 309.6 550.4 309.2Z" fill="white"/>
<path d="M554 311.6H555.4L556.9 316C557.1 316.8 557.4 317.6 557.6 318.3H557.7C557.9 317.6 558.2 316.8 558.4 316L559.9 311.6H561.2L558.4 319.4H556.9L554 311.6Z" fill="white"/>
<path d="M561.8 315.5C561.8 313 563.5 311.4 565.3 311.4C567.3 311.4 568.4 312.8 568.4 315.1C568.4 315.4 568.4 315.7 568.4 315.9H563.1C563.2 317.5 564.2 318.6 565.7 318.6C566.4 318.6 567.1 318.4 567.6 318L568.1 318.9C567.4 319.3 566.6 319.7 565.5 319.7C563.4 319.5 561.8 318 561.8 315.5ZM567.2 314.8C567.2 313.2 566.5 312.4 565.3 312.4C564.2 312.4 563.2 313.3 563.1 314.8H567.2Z" fill="white"/>
<path d="M570.5 317V312.7H569.3V311.7L570.5 311.6L570.7 309.4H571.8V311.6H573.9V312.7H571.8V317C571.8 318 572.1 318.5 573 318.5C573.3 318.5 573.6 318.4 573.9 318.3L574.2 319.3C573.8 319.4 573.2 319.6 572.8 319.6C571 319.5 570.5 318.5 570.5 317Z" fill="white"/>
<path d="M574.8 315.5C574.8 313 576.5 311.4 578.3 311.4C580.3 311.4 581.4 312.8 581.4 315.1C581.4 315.4 581.4 315.7 581.4 315.9H576.1C576.2 317.5 577.2 318.6 578.7 318.6C579.4 318.6 580.1 318.4 580.6 318L581.1 318.9C580.4 319.3 579.6 319.7 578.5 319.7C576.5 319.5 574.8 318 574.8 315.5ZM580.3 314.8C580.3 313.2 579.6 312.4 578.4 312.4C577.3 312.4 576.3 313.3 576.2 314.8H580.3Z" fill="white"/>
<path d="M583.3 317.8V308H584.6V317.9C584.6 318.3 584.8 318.5 585 318.5C585.1 318.5 585.1 318.5 585.3 318.5L585.5 319.5C585.3 319.6 585.1 319.6 584.7 319.6C583.7 319.5 583.3 318.9 583.3 317.8Z" fill="white"/>
<path d="M586.5 315.5C586.5 313 588.2 311.4 590 311.4C592 311.4 593.1 312.8 593.1 315.1C593.1 315.4 593.1 315.7 593.1 315.9H587.8C587.9 317.5 588.9 318.6 590.4 318.6C591.1 318.6 591.8 318.4 592.3 318L592.8 318.9C592.1 319.3 591.3 319.7 590.2 319.7C588.2 319.5 586.5 318 586.5 315.5ZM592 314.8C592 313.2 591.3 312.4 590.1 312.4C589 312.4 588 313.3 587.9 314.8H592ZM589.1 309.5L591.4 306.8L592.3 307.7L589.8 310.1L589.1 309.5Z" fill="white"/>
<path d="M594.2 318.5L594.9 317.6C595.6 318.1 596.3 318.5 597.2 318.5C598.2 318.5 598.7 318 598.7 317.3C598.7 316.5 597.8 316.1 596.9 315.8C595.8 315.4 594.6 314.9 594.6 313.6C594.6 312.4 595.6 311.4 597.3 311.4C598.3 311.4 599.1 311.8 599.7 312.3L599.1 313.1C598.6 312.7 598 312.4 597.3 312.4C596.3 312.4 595.9 312.9 595.9 313.5C595.9 314.2 596.7 314.5 597.6 314.8C598.7 315.2 600 315.7 600 317.2C600 318.5 599 319.5 597.2 319.5C596 319.5 595 319.1 594.2 318.5Z" fill="white"/>
<path d="M601.2 315.5C601.2 313 602.9 311.4 604.7 311.4C606.7 311.4 607.8 312.8 607.8 315.1C607.8 315.4 607.8 315.7 607.8 315.9H602.5C602.6 317.5 603.6 318.6 605.1 318.6C605.8 318.6 606.5 318.4 607 318L607.5 318.9C606.8 319.3 606 319.7 604.9 319.7C602.9 319.5 601.2 318 601.2 315.5ZM606.7 314.8C606.7 313.2 606 312.4 604.8 312.4C603.7 312.4 602.7 313.3 602.6 314.8H606.7Z" fill="white"/>
<path d="M609.7 308H611V315.7L614.3 311.6H615.8L613.2 314.7L616.2 319.4H614.8L612.5 315.7L611 317.4V319.4H609.7V308Z" fill="white"/>
<path d="M437.6 29.3C441.4 28.3 445.4 26.1 445.4 21.4C445.4 15.7 440.2 14 432.8 14H428.9V15.1C432 15.1 437.5 15.7 437.5 21.5C437.5 27.9 433.6 28.8 431 28.8V30C431.9 30 438 30.5 438 36.9C438 43.4 432.6 44.9 429.4 44.9H428.9V46H431.8C440.3 46 446.3 43.6 446.3 36.8C446.4 32.3 442.6 30.1 437.6 29.3Z" fill="#AA8960"/>
<path d="M467.6 14H459.9L447.8 30L459.9 46H468L455.5 30L467.6 14Z" fill="#AA8960"/>
<path d="M416.6 14C416.6 14 417.7 15.7 417.7 20.1V51.1C417.7 54.9 415.6 57.7 414 58.6V59C414 59 424.9 59 424.9 48.9V14H416.6Z" fill="#AA8960"/>
<path d="M432 120H250C247.8 120 246 118.2 246 116V76C246 73.8 247.8 72 250 72H432C434.2 72 436 73.8 436 76V116C436 118.2 434.2 120 432 120Z" fill="#101010"/>
<path d="M278.2 90.7002H285.8V93.3002H281.3V95.1002H285.1V97.7002H281.3V99.8002H285.9V102.4H278.2V90.7002Z" fill="#AA8961"/>
<path d="M288.4 96.7002H292.9V98.9002H288.4V96.7002Z" fill="#AA8961"/>
<path d="M296 90.7002H303.6V93.3002H299.1V95.5002H303V98.1002H299.1V102.4H296V90.7002Z" fill="#AA8961"/>
<path d="M306.2 90.7002H309.5L311.3 95.5002C311.5 96.1002 311.7 96.9002 311.9 97.6002H312C312.2 96.9002 312.4 96.2002 312.6 95.5002L314.3 90.7002H317.6V102.4H314.8V98.9002C314.8 97.7002 315.1 95.9002 315.2 94.7002H315.1L314.1 97.5002L312.7 101.4H311L309.6 97.5002L308.7 94.7002H308.6C308.7 95.9002 309 97.7002 309 98.9002V102.4H306.2V90.7002Z" fill="#AA8961"/>
<path d="M321 90.7002H324.1V95.1002H327.6V90.7002H330.7V102.4H327.6V97.8002H324.1V102.4H321V90.7002Z" fill="#AA8961"/>
<path d="M342.6 90.7002H345.9L347.7 95.5002C347.9 96.1002 348.1 96.9002 348.3 97.6002H348.4C348.6 96.9002 348.8 96.2002 349 95.5002L350.7 90.7002H354V102.4H351.2V98.9002C351.2 97.7002 351.5 95.9002 351.6 94.7002H351.5L350.5 97.5002L349.1 101.4H347.4L346 97.5002L345.1 94.7002H345C345.1 95.9002 345.4 97.7002 345.4 98.9002V102.4H342.6V90.7002Z" fill="#AA8961"/>
<path d="M356.8 96.3999C356.8 92.4999 359 90.3999 362.2 90.3999C365.4 90.3999 367.6 92.5999 367.6 96.3999C367.6 100.3 365.4 102.5 362.2 102.5C359 102.6 356.8 100.3 356.8 96.3999ZM364.5 96.3999C364.5 94.2999 363.6 93.0999 362.2 93.0999C360.8 93.0999 359.9 94.2999 359.9 96.3999C359.9 98.4999 360.8 99.8999 362.2 99.8999C363.6 99.8999 364.5 98.5999 364.5 96.3999Z" fill="#AA8961"/>
<path d="M370.5 90.7002H374C377.6 90.7002 380 92.4002 380 96.5002C380 100.6 377.6 102.4 374.2 102.4H370.6V90.7002H370.5ZM373.7 99.9002C375.4 99.9002 376.7 99.2002 376.7 96.5002C376.7 93.8002 375.4 93.2002 373.7 93.2002H373.5V99.9002H373.7Z" fill="#AA8961"/>
<path d="M382.6 96.7002V90.7002H385.7V97.1002C385.7 99.2002 386.2 99.9002 387.5 99.9002C388.8 99.9002 389.3 99.1002 389.3 97.1002V90.7002H392.3V96.7002C392.3 100.7 390.8 102.6 387.5 102.6C384.2 102.6 382.6 100.7 382.6 96.7002Z" fill="#AA8961"/>
<path d="M395.5 90.7002H398.6V99.8002H403V102.4H395.5V90.7002Z" fill="#AA8961"/>
<path d="M634 120H452C449.8 120 448 118.2 448 116V76C448 73.8 449.8 72 452 72H634C636.2 72 638 73.8 638 76V116C638 118.2 636.2 120 634 120Z" fill="#101010"/>
<path d="M466 90.7002H470.2C472.6 90.7002 474.6 91.3002 474.6 93.6002C474.6 94.6002 474 95.8002 473.1 96.1002V96.2002C474.2 96.5002 475.1 97.4002 475.1 98.9002C475.1 101.3 473 102.4 470.5 102.4H466V90.7002ZM470.2 95.2002C471.2 95.2002 471.7 94.7002 471.7 94.0002C471.7 93.3002 471.2 93.0002 470.2 93.0002H469.2V95.2002H470.2ZM470.4 100C471.6 100 472.2 99.6002 472.2 98.7002C472.2 97.8002 471.6 97.5002 470.4 97.5002H469.1V100H470.4Z" fill="#AA8961"/>
<path d="M477.9 90.7001H481V102.4H477.9V90.7001ZM477.9 88.7001L481.2 86.1001L482.8 88.1001L479.3 90.3001L477.9 88.7001Z" fill="#AA8961"/>
<path d="M490.6 102.4L488.6 98.5002H487.4V102.4H484.3V90.7002H488.7C491.2 90.7002 493.4 91.6002 493.4 94.5002C493.4 96.2002 492.6 97.3002 491.5 97.9002L494 102.4H490.6ZM487.4 96.0002H488.5C489.7 96.0002 490.4 95.5002 490.4 94.5002C490.4 93.5002 489.8 93.2002 488.5 93.2002H487.4V96.0002Z" fill="#AA8961"/>
<path d="M495.7 96.4001C495.7 92.5001 497.9 90.4001 501.1 90.4001C504.3 90.4001 506.5 92.6001 506.5 96.4001C506.5 100.3 504.3 102.5 501.1 102.5C497.9 102.6 495.7 100.3 495.7 96.4001ZM503.4 96.4001C503.4 94.3001 502.5 93.1001 501.1 93.1001C499.7 93.1001 498.8 94.3001 498.8 96.4001C498.8 98.5001 499.7 99.9001 501.1 99.9001C502.5 99.9001 503.4 98.6001 503.4 96.4001ZM499.6 88.7001L502.9 86.1001L504.5 88.1001L501 90.3001L499.6 88.7001Z" fill="#AA8961"/>
<path d="M508.4 100.9L510.2 98.8C511 99.5 512.1 99.9 512.9 99.9C513.8 99.9 514.2 99.6 514.2 99.1C514.2 98.5 513.6 98.4 512.6 98L511.1 97.4C509.8 96.9 508.7 95.8 508.7 94.1C508.7 92.1 510.5 90.5 513.1 90.5C514.4 90.5 515.9 91 517 92.1L515.5 94C514.7 93.4 514 93.2 513.2 93.2C512.4 93.2 512 93.5 512 94C512 94.6 512.7 94.8 513.7 95.2L515.1 95.8C516.6 96.4 517.4 97.4 517.4 99C517.4 101 515.7 102.7 512.8 102.7C511.4 102.6 509.7 102 508.4 100.9Z" fill="#AA8961"/>
<path d="M525.7 99.9001H522.4L521.8 102.4H518.6L522.2 90.7001H525.9L529.5 102.4H526.2L525.7 99.9001ZM523.9 90.2001L522.5 88.7001L525.8 86.1001L527.4 88.1001L523.9 90.2001ZM525.2 97.5001L525 96.7001C524.7 95.6001 524.4 94.2001 524.1 93.0001H524C523.7 94.2001 523.5 95.6001 523.2 96.7001L523 97.5001H525.2Z" fill="#AA8961"/>
<path d="M530.7 96.5999C530.7 92.6999 533.4 90.3999 536.5 90.3999C538.2 90.3999 539.5 91.0999 540.3 91.8999L538.7 93.8999C538.1 93.3999 537.5 92.9999 536.6 92.9999C535 92.9999 533.8 94.2999 533.8 96.3999C533.8 98.5999 534.8 99.7999 536.9 99.7999C537.2 99.7999 537.6 99.6999 537.8 99.5999V97.9999H536.1V95.4999H540.6V101.1C539.8 101.9 538.3 102.5 536.6 102.5C533.3 102.6 530.7 100.6 530.7 96.5999Z" fill="#AA8961"/>
<path d="M543.7 90.7002H546.8V102.4H543.7V90.7002Z" fill="#AA8961"/>
<path d="M558.7 90.7002H562L563.8 95.5002C564 96.1002 564.2 96.9002 564.4 97.6002H564.5C564.7 96.9002 564.9 96.2002 565.1 95.5002L566.8 90.7002H570.1V102.4H567.3V98.9002C567.3 97.7002 567.6 95.9002 567.7 94.7002H567.6L566.6 97.5002L565.2 101.4H563.5L562.1 97.5002L561.2 94.7002H561.1C561.2 95.9002 561.5 97.7002 561.5 98.9002V102.4H558.7V90.7002Z" fill="#AA8961"/>
<path d="M572.9 96.3999C572.9 92.4999 575.1 90.3999 578.3 90.3999C581.5 90.3999 583.7 92.5999 583.7 96.3999C583.7 100.3 581.5 102.5 578.3 102.5C575.1 102.6 572.9 100.3 572.9 96.3999ZM580.6 96.3999C580.6 94.2999 579.7 93.0999 578.3 93.0999C576.9 93.0999 576 94.2999 576 96.3999C576 98.4999 576.9 99.8999 578.3 99.8999C579.7 99.8999 580.6 98.5999 580.6 96.3999Z" fill="#AA8961"/>
<path d="M586.6 90.7002H590.1C593.7 90.7002 596.1 92.4002 596.1 96.5002C596.1 100.6 593.7 102.4 590.3 102.4H586.7V90.7002H586.6ZM589.9 99.9002C591.6 99.9002 592.9 99.2002 592.9 96.5002C592.9 93.8002 591.6 93.2002 589.9 93.2002H589.7V99.9002H589.9Z" fill="#AA8961"/>
<path d="M598.7 96.7002V90.7002H601.8V97.1002C601.8 99.2002 602.3 99.9002 603.6 99.9002C604.9 99.9002 605.4 99.1002 605.4 97.1002V90.7002H608.4V96.7002C608.4 100.7 606.9 102.6 603.6 102.6C600.3 102.6 598.7 100.7 598.7 96.7002Z" fill="#AA8961"/>
<path d="M611.6 90.7002H614.7V99.8002H619.1V102.4H611.6V90.7002Z" fill="#AA8961"/>
<path d="M192 170H8C3.6 170 0 166.4 0 162V8C0 3.6 3.6 0 8 0H192C196.4 0 200 3.6 200 8V162C200 166.4 196.4 170 192 170Z" fill="#EBEBEB"/>
<path d="M176 150H24C21.8 150 20 148.2 20 146V104C20 101.8 21.8 100 24 100H176C178.2 100 180 101.8 180 104V146C180 148.2 178.2 150 176 150Z" fill="white"/>
<path d="M52 129L52.8 128.1C53.6 128.9 54.6 129.4 55.7 129.4C57.1 129.4 57.9 128.7 57.9 127.7C57.9 126.6 57.1 126.3 56.2 125.8L54.7 125.1C53.7 124.7 52.6 123.9 52.6 122.4C52.6 120.8 54 119.6 55.9 119.6C57.1 119.6 58.3 120.1 59 120.9L58.3 121.8C57.7 121.2 56.9 120.8 55.9 120.8C54.7 120.8 53.9 121.4 53.9 122.3C53.9 123.3 54.8 123.7 55.6 124L57.1 124.6C58.3 125.1 59.3 125.8 59.3 127.4C59.3 129.1 57.9 130.4 55.7 130.4C54.2 130.5 52.9 129.9 52 129Z" fill="#404040"/>
<path d="M60.7 128.3C60.7 126.6 62.2 125.8 65.5 125.4C65.5 124.4 65.2 123.4 63.9 123.4C63 123.4 62.2 123.8 61.6 124.2L61.1 123.3C61.8 122.8 62.9 122.3 64.2 122.3C66.1 122.3 66.9 123.6 66.9 125.5V130.3H65.8L65.7 129.4C65 130 64.1 130.5 63.1 130.5C61.7 130.5 60.7 129.7 60.7 128.3ZM65.5 128.5V126.3C62.9 126.6 62 127.3 62 128.3C62 129.2 62.6 129.5 63.4 129.5C64.1 129.5 64.8 129.1 65.5 128.5Z" fill="#404040"/>
<path d="M67.2 133.6L67.5 132.6C67.7 132.7 68 132.7 68.2 132.7C69 132.7 69.2 132.1 69.2 131.2V122.5H70.5V131.2C70.5 132.8 69.9 133.8 68.4 133.8C67.8 133.8 67.4 133.7 67.2 133.6ZM68.9 120.1C68.9 119.6 69.3 119.3 69.8 119.3C70.3 119.3 70.7 119.6 70.7 120.1C70.7 120.6 70.3 120.9 69.8 120.9C69.3 121 68.9 120.6 68.9 120.1Z" fill="#404040"/>
<path d="M72.3 128.3C72.3 126.6 73.8 125.8 77.1 125.4C77.1 124.4 76.8 123.4 75.5 123.4C74.6 123.4 73.8 123.8 73.2 124.2L72.7 123.3C73.4 122.8 74.5 122.3 75.8 122.3C77.7 122.3 78.5 123.6 78.5 125.5V130.3H77.4L77.3 129.4C76.6 130 75.7 130.5 74.7 130.5C73.3 130.5 72.3 129.7 72.3 128.3ZM77.1 128.5V126.3C74.5 126.6 73.6 127.3 73.6 128.3C73.6 129.2 74.2 129.5 75 129.5C75.7 129.5 76.3 129.1 77.1 128.5ZM74.8 120.5L77.1 117.8L78 118.7L75.5 121.1L74.8 120.5Z" fill="#404040"/>
<path d="M80.9 128V123.7H79.7V122.7L80.9 122.6L81.1 120.4H82.2V122.6H84.3V123.7H82.2V128C82.2 129 82.5 129.5 83.4 129.5C83.7 129.5 84 129.4 84.3 129.3L84.6 130.3C84.2 130.4 83.6 130.6 83.2 130.6C81.4 130.5 80.9 129.5 80.9 128Z" fill="#404040"/>
<path d="M92.4 122.6H93.5L93.6 124C94.1 123 94.9 122.4 95.8 122.4C96.1 122.4 96.4 122.4 96.6 122.6L96.3 123.8C96 123.7 95.9 123.7 95.5 123.7C94.8 123.7 94.1 124.2 93.5 125.5V130.5H92.2V122.6H92.4Z" fill="#404040"/>
<path d="M97.3 126.5C97.3 124 99 122.4 100.8 122.4C102.8 122.4 103.9 123.8 103.9 126.1C103.9 126.4 103.9 126.7 103.9 126.9H98.6C98.7 128.5 99.7 129.6 101.2 129.6C101.9 129.6 102.6 129.4 103.1 129L103.6 129.9C102.9 130.3 102.1 130.7 101 130.7C99 130.5 97.3 129 97.3 126.5ZM102.8 125.8C102.8 124.2 102.1 123.4 100.9 123.4C99.8 123.4 98.8 124.3 98.7 125.8H102.8Z" fill="#404040"/>
<path d="M105.8 122.6H106.9L107 123.7C107.7 123 108.5 122.4 109.6 122.4C111.2 122.4 112 123.5 112 125.4V130.3H110.7V125.5C110.7 124 110.3 123.4 109.2 123.4C108.4 123.4 107.9 123.8 107.1 124.6V130.2H105.8V122.6Z" fill="#404040"/>
<path d="M113.9 126.5C113.9 124 115.5 122.4 117.3 122.4C118.2 122.4 118.8 122.7 119.5 123.3L119.4 122V119H120.7V130.4H119.6L119.5 129.5C118.9 130.1 118.1 130.6 117.1 130.6C115.2 130.5 113.9 129.1 113.9 126.5ZM119.4 128.4V124.3C118.7 123.7 118.2 123.5 117.5 123.5C116.3 123.5 115.3 124.7 115.3 126.5C115.3 128.4 116.1 129.5 117.4 129.5C118.1 129.4 118.8 129.1 119.4 128.4Z" fill="#404040"/>
<path d="M122.4 129.5L123.1 128.6C123.8 129.1 124.5 129.5 125.4 129.5C126.4 129.5 126.9 129 126.9 128.3C126.9 127.5 126 127.1 125.1 126.8C124 126.4 122.8 125.9 122.8 124.6C122.8 123.4 123.8 122.4 125.5 122.4C126.5 122.4 127.3 122.8 127.9 123.3L127.3 124.1C126.8 123.7 126.2 123.4 125.5 123.4C124.5 123.4 124.1 123.9 124.1 124.5C124.1 125.2 124.9 125.5 125.8 125.8C126.9 126.2 128.2 126.7 128.2 128.2C128.2 129.5 127.2 130.5 125.4 130.5C124.2 130.5 123.1 130.1 122.4 129.5Z" fill="#404040"/>
<path d="M129.2 129.7L133.3 123.7H129.6V122.6H134.9V123.3L130.8 129.3H135V130.4H129.1V129.7H129.2Z" fill="#404040"/>
<path d="M135.9 126.5C135.9 124 137.6 122.4 139.4 122.4C141.4 122.4 142.5 123.8 142.5 126.1C142.5 126.4 142.5 126.7 142.5 126.9H137.2C137.3 128.5 138.3 129.6 139.8 129.6C140.5 129.6 141.2 129.4 141.7 129L142.2 129.9C141.5 130.3 140.7 130.7 139.6 130.7C137.6 130.5 135.9 129 135.9 126.5ZM141.4 125.8C141.4 124.2 140.7 123.4 139.5 123.4C138.4 123.4 137.4 124.3 137.3 125.8H141.4Z" fill="#404040"/>
<path d="M144.4 122.6H145.5L145.6 124C146.1 123 146.9 122.4 147.8 122.4C148.1 122.4 148.4 122.4 148.6 122.6L148.3 123.8C148 123.7 147.9 123.7 147.5 123.7C146.8 123.7 146.1 124.2 145.5 125.5V130.5H144.2V122.6H144.4Z" fill="#404040"/>
<path d="M65.5996 74.7001V68.7001H68.6996V75.1001C68.6996 77.2001 69.1996 77.9001 70.4996 77.9001C71.7996 77.9001 72.2996 77.1001 72.2996 75.1001V68.7001H75.2996V74.7001C75.2996 78.7001 73.7996 80.6001 70.4996 80.6001C67.1996 80.6001 65.5996 78.7001 65.5996 74.7001ZM66.8996 66.5001C66.8996 65.7001 67.4996 65.1001 68.2996 65.1001C69.0996 65.1001 69.6996 65.7001 69.6996 66.5001C69.6996 67.3001 69.0996 67.9001 68.2996 67.9001C67.4996 67.9001 66.8996 67.2001 66.8996 66.5001ZM70.9996 66.5001C70.9996 65.7001 71.5996 65.1001 72.3996 65.1001C73.1996 65.1001 73.7996 65.7001 73.7996 66.5001C73.7996 67.3001 73.1996 67.9001 72.3996 67.9001C71.5996 67.9001 70.9996 67.2001 70.9996 66.5001Z" fill="#AA8961"/>
<path d="M78.5996 74.5999C78.5996 70.6999 81.2996 68.3999 84.3996 68.3999C86.0996 68.3999 87.3996 69.0999 88.1996 69.8999L86.5996 71.8999C85.9996 71.3999 85.3996 70.9999 84.4996 70.9999C82.8996 70.9999 81.6996 72.2999 81.6996 74.3999C81.6996 76.5999 82.6996 77.7999 84.7996 77.7999C85.0996 77.7999 85.4996 77.6999 85.6996 77.5999V75.9999H83.9996V73.4999H88.4996V79.0999C87.6996 79.8999 86.1996 80.4999 84.4996 80.4999C81.1996 80.5999 78.5996 78.5999 78.5996 74.5999Z" fill="#AA8961"/>
<path d="M94.1996 76.3001L90.6996 68.6001H93.9996L94.8996 71.0001C95.1996 71.9001 95.4996 72.7001 95.7996 73.6001H95.8996C96.1996 72.7001 96.4996 71.9001 96.7996 71.0001L97.6996 68.6001H100.9L97.3996 76.3001V80.3001H94.2996V76.3001H94.1996Z" fill="#AA8961"/>
<path d="M103.6 68.7002H111.2V71.3002H106.7V73.5002H110.6V76.1002H106.7V80.4002H103.6V68.7002Z" fill="#AA8961"/>
<path d="M114.6 68.7001H122.2V71.3001H117.7V73.1001H121.5V75.7001H117.7V77.8001H122.3V80.4001H114.6V68.7001ZM117 66.7001L120.3 64.1001L121.9 66.1001L118.4 68.3001L117 66.7001Z" fill="#AA8961"/>
<path d="M126.1 68.7002H129.2V77.8002H133.6V80.4002H126.1V68.7002Z" fill="#AA8961"/>
<path d="M90 54H81V32L90 28V54Z" stroke="#AA885F" stroke-width="2" stroke-miterlimit="10" stroke-linecap="round" stroke-linejoin="round"/>
<path d="M110 23H90V54H110V23Z" stroke="#AA885F" stroke-width="2" stroke-miterlimit="10" stroke-linecap="round" stroke-linejoin="round"/>
<path d="M105 18H95V23H105V18Z" stroke="#AA885F" stroke-width="2" stroke-miterlimit="10" stroke-linecap="round" stroke-linejoin="round"/>
<path d="M84 35V42" stroke="#AA885F" stroke-width="2" stroke-miterlimit="10" stroke-linejoin="round"/>
<path d="M87 35V42" stroke="#AA885F" stroke-width="2" stroke-miterlimit="10" stroke-linejoin="round"/>
<path d="M119 54H110V28L119 32V54Z" stroke="#AA885F" stroke-width="2" stroke-miterlimit="10" stroke-linecap="round" stroke-linejoin="round"/>
<path d="M113 35V42" stroke="#AA885F" stroke-width="2" stroke-miterlimit="10" stroke-linejoin="round"/>
<path d="M116 35V42" stroke="#AA885F" stroke-width="2" stroke-miterlimit="10" stroke-linejoin="round"/>
<path d="M103 35V42" stroke="#AA885F" stroke-width="2" stroke-miterlimit="10" stroke-linejoin="round"/>
<path d="M106 35V42" stroke="#AA885F" stroke-width="2" stroke-miterlimit="10" stroke-linejoin="round"/>
<path d="M97 35V42" stroke="#AA885F" stroke-width="2" stroke-miterlimit="10" stroke-linejoin="round"/>
<path d="M100 35V42" stroke="#AA885F" stroke-width="2" stroke-miterlimit="10" stroke-linejoin="round"/>
<path d="M94 35V42" stroke="#AA885F" stroke-width="2" stroke-miterlimit="10" stroke-linejoin="round"/>
<path d="M103 26V33" stroke="#AA885F" stroke-width="2" stroke-miterlimit="10" stroke-linejoin="round"/>
<path d="M106 26V33" stroke="#AA885F" stroke-width="2" stroke-miterlimit="10" stroke-linejoin="round"/>
<path d="M97 26V33" stroke="#AA885F" stroke-width="2" stroke-miterlimit="10" stroke-linejoin="round"/>
<path d="M100 26V33" stroke="#AA885F" stroke-width="2" stroke-miterlimit="10" stroke-linejoin="round"/>
<path d="M94 26V33" stroke="#AA885F" stroke-width="2" stroke-miterlimit="10" stroke-linejoin="round"/>
<path d="M103 45H97V54H103V45Z" stroke="#AA885F" stroke-width="2" stroke-miterlimit="10" stroke-linecap="round" stroke-linejoin="round"/>
<path d="M424 588H280C275.6 588 272 584.4 272 580V496C272 491.6 275.6 488 280 488H424C428.4 488 432 491.6 432 496V580C432 584.4 428.4 588 424 588Z" fill="#EBEBEB"/>
<path d="M244 588H100C95.6 588 92 584.4 92 580V496C92 491.6 95.6 488 100 488H244C248.4 488 252 491.6 252 496V580C252 584.4 248.4 588 244 588Z" fill="#EBEBEB"/>
<path d="M110.3 556.7H113.6L114.8 561.8C115.1 563 115.3 564.2 115.7 565.5H115.8C116.1 564.2 116.4 563 116.7 561.8L117.9 556.7H121.1L117.6 568.4H113.9L110.3 556.7Z" fill="#AA8961"/>
<path d="M123.7 556.7H131.3V559.3H126.8V561.1H130.6V563.7H126.8V565.8H131.4V568.4H123.7V556.7ZM126.1 554.7L129.4 552.1L131 554.1L127.5 556.3L126.1 554.7Z" fill="#AA8961"/>
<path d="M134.4 562.6C134.4 558.7 137.1 556.4 140.2 556.4C141.9 556.4 143.2 557.1 144 557.9L142.4 559.9C141.8 559.4 141.2 559 140.3 559C138.7 559 137.5 560.3 137.5 562.4C137.5 564.6 138.5 565.8 140.6 565.8C140.9 565.8 141.3 565.7 141.5 565.6V564H139.8V561.5H144.3V567.1C143.5 567.9 142 568.5 140.3 568.5C137.1 568.6 134.4 566.6 134.4 562.6Z" fill="#AA8961"/>
<path d="M154.4 568.4L152.4 564.5H151.2V568.4H148.1V556.7H152.5C155 556.7 157.2 557.6 157.2 560.5C157.2 562.2 156.4 563.3 155.3 563.9L157.8 568.4H154.4ZM151.2 562H152.3C153.5 562 154.2 561.5 154.2 560.5C154.2 559.5 153.6 559.2 152.3 559.2H151.2V562Z" fill="#AA8961"/>
<path d="M160.9 556.7H168.5V559.3H164V561.1H167.8V563.7H164V565.8H168.6V568.4H160.9V556.7Z" fill="#AA8961"/>
<path d="M172.3 556.7H175.4V561.1H178.9V556.7H182V568.4H178.9V563.8H175.4V568.4H172.3V556.7Z" fill="#AA8961"/>
<path d="M191.8 565.9H188.5L187.9 568.4H184.7L188.3 556.7H192L195.6 568.4H192.3L191.8 565.9ZM191.3 563.5L191.1 562.7C190.8 561.6 190.5 560.2 190.2 559H190.1C189.8 560.2 189.6 561.6 189.3 562.7L189.1 563.5H191.3Z" fill="#AA8961"/>
<path d="M197.6 566.4L199.7 564.8C200.1 565.6 200.7 565.9 201.2 565.9C202 565.9 202.5 565.5 202.5 564V556.6H205.6V564.2C205.6 566.5 204.3 568.5 201.6 568.5C199.7 568.6 198.5 567.9 197.6 566.4Z" fill="#AA8961"/>
<path d="M211.7 559.2H208.6V556.6H217.9V559.2H214.8V568.3H211.7V559.2Z" fill="#AA8961"/>
<path d="M220.4 562.4C220.4 558.5 222.6 556.4 225.8 556.4C229 556.4 231.2 558.6 231.2 562.4C231.2 566.3 229 568.5 225.8 568.5C222.6 568.6 220.4 566.3 220.4 562.4ZM228.1 562.4C228.1 560.3 227.2 559.1 225.8 559.1C224.4 559.1 223.5 560.3 223.5 562.4C223.5 564.5 224.4 565.9 225.8 565.9C227.2 565.9 228.1 564.6 228.1 562.4ZM224.3 554.7L227.6 552.1L229.2 554.1L225.7 556.3L224.3 554.7Z" fill="#AA8961"/>
<path d="M161.4 514.1C161.1 513.8 160.6 513.8 160.2 514.1C159.9 514.4 159.9 514.9 160.2 515.3C160.5 515.6 161 515.6 161.4 515.3C161.7 514.9 161.7 514.4 161.4 514.1Z" fill="#AA885F"/>
<path d="M172.6 536.7C173 536.2 173.2 535.6 173.2 535C173.2 533.4 171.9 532.1 170.3 532.1H156.3C155.5 532.1 154.8 532.4 154.3 532.9C153.8 533.4 153.5 534.2 153.5 534.9C153.5 535.5 153.7 536.1 154.1 536.6C152.8 537.3 151.9 538.7 151.9 540.3V541.1C151.9 541.6 152.3 541.9 152.7 541.9H174C174.5 541.9 174.8 541.5 174.8 541.1V540.3C174.8 538.8 173.9 537.4 172.6 536.7ZM155.4 534.1C155.6 533.9 155.9 533.7 156.3 533.7H170.3C171 533.7 171.5 534.3 171.5 534.9C171.5 535.2 171.4 535.5 171.1 535.8C170.9 536 170.6 536.2 170.2 536.2H156.2C155.5 536.2 155 535.6 155 535C155 534.6 155.1 534.3 155.4 534.1ZM153.3 540.3C153.3 538.9 154.4 537.8 155.8 537.8H156.2H170.2H170.6C172 537.8 173.1 538.9 173.1 540.3H153.3Z" fill="#AA885F"/>
<path d="M193.2 534.4C192.9 534 192.6 533.6 192.2 533.3L188.3 529.9L188.2 529.8C188.1 529.7 188.1 529.7 188 529.6L185.7 527.6L174.9 518.2C175.3 517.7 175.6 517.1 175.6 516.5C175.6 515.8 175.3 515.2 174.9 514.7C174.7 514.5 174.5 514.3 174.2 514.2L175.2 513.2C175.5 513.3 175.8 513.3 176.1 513.3C176.9 513.3 177.8 513 178.4 512.3C179 511.7 179.4 510.8 179.4 510C179.4 509.1 179.1 508.3 178.4 507.7L171.4 500.7C170.8 500.1 169.9 499.7 169.1 499.7C168.2 499.7 167.4 500 166.8 500.7C165.9 501.6 165.7 502.8 165.9 503.9L155.9 513.9C155.6 513.8 155.3 513.8 155 513.8C154.1 513.8 153.3 514.1 152.7 514.8C151.4 516.1 151.4 518.2 152.7 519.5L159.7 526.5C160.3 527.1 161.2 527.5 162 527.5C162.8 527.5 163.7 527.2 164.3 526.5C165.2 525.6 165.4 524.4 165.2 523.3L166.2 522.3C166.3 522.6 166.5 522.8 166.7 523C167.2 523.5 167.8 523.7 168.5 523.7C169.1 523.7 169.7 523.5 170.2 523L181.7 536.2L181.8 536.3L185.2 540.2C185.3 540.3 185.4 540.4 185.5 540.5C186.4 541.4 187.7 542 189 542C189.2 542 189.5 542 189.7 542C191.3 541.8 192.6 540.9 193.4 539.4C194.3 537.9 194.2 535.9 193.2 534.4ZM167.9 501.8C168.2 501.5 168.6 501.3 169.1 501.3C169.5 501.3 170 501.5 170.3 501.8L177.3 508.8C177.6 509.1 177.8 509.5 177.8 510C177.8 510.4 177.6 510.9 177.3 511.2C176.7 511.8 175.6 511.8 175 511.2L168 504.2C167.2 503.5 167.2 502.5 167.9 501.8ZM163.2 525.2C162.6 525.8 161.5 525.8 160.9 525.2L153.9 518.2C153.3 517.6 153.3 516.5 153.9 515.9C154.2 515.6 154.6 515.4 155.1 515.4C155.5 515.4 156 515.6 156.3 515.9L163.3 522.9C163.8 523.5 163.8 524.6 163.2 525.2ZM166.7 519.4L164.4 521.7L157.4 514.7L166.7 505.4L173.7 512.4L171.4 514.7L166.7 519.4ZM169.6 521.1L169 521.7C168.8 521.9 168.6 521.9 168.4 521.9C168.2 521.9 168 521.8 167.8 521.7C167.6 521.5 167.6 521.3 167.6 521.1C167.6 520.9 167.7 520.7 167.8 520.5L172.5 515.8C172.8 515.5 173.3 515.5 173.7 515.8C173.9 516 173.9 516.2 173.9 516.4C173.9 516.6 173.8 516.8 173.7 517L173.1 517.6L169.6 521.1ZM171.3 521.7L173.7 519.3L183.9 528.2L180.2 531.9L171.3 521.7ZM181.3 533.2L185.2 529.3L186.4 530.4L182.3 534.5L181.3 533.2ZM192 538.6C191.5 539.6 190.6 540.2 189.5 540.3C188.5 540.4 187.4 540.1 186.7 539.4C186.6 539.3 186.6 539.3 186.5 539.2L183.5 535.7L187.7 531.5L191.1 534.5C191.4 534.7 191.6 535 191.8 535.3C192.5 536.3 192.5 537.6 192 538.6Z" fill="#AA885F"/>
<path d="M167.3 508.3C167 508 166.5 508 166.1 508.3L162.6 511.8C162.3 512.1 162.3 512.6 162.6 513C162.8 513.2 163 513.2 163.2 513.2C163.4 513.2 163.6 513.1 163.8 513L167.3 509.5C167.6 509.1 167.6 508.6 167.3 508.3Z" fill="#AA885F"/>
<path d="M434.3 659H532V590.3" stroke="#AA8960" stroke-width="2" stroke-miterlimit="10"/>
<path d="M438.3 662.4L434.9 659L438.3 655.6H435.4L432 659L435.4 662.4H438.3Z" fill="#AA8960"/>
<path d="M535.4 594.3L532 590.9L528.6 594.3V591.4L532 588L535.4 591.4V594.3Z" fill="#AA8960"/>
<path d="M269.7 659H172V590.3" stroke="#AA8960" stroke-width="2" stroke-miterlimit="10"/>
<path d="M265.7 655.6L269.1 659L265.7 662.4H268.6L272 659L268.6 655.6H265.7Z" fill="#AA8960"/>
<path d="M175.4 594.3L172 590.9L168.6 594.3V591.4L172 588L175.4 591.4V594.3Z" fill="#AA8960"/>
<path d="M532 485.7V468" stroke="#AA8960" stroke-width="2" stroke-miterlimit="10"/>
<path d="M535.4 481.7L532 485.1L528.6 481.7V484.6L532 488L535.4 484.6V481.7Z" fill="#AA8960"/>
<path d="M424 708H280C275.6 708 272 704.4 272 700V616C272 611.6 275.6 608 280 608H424C428.4 608 432 611.6 432 616V700C432 704.4 428.4 708 424 708Z" fill="#EBEBEB"/>
<path d="M294.5 676.7H297.6V681.1H297.7L300.7 676.7H304.1L300.6 681.5L304.8 688.5H301.4L298.8 684L297.7 685.6V688.5H294.6V676.7H294.5Z" fill="#AA8961"/>
<path d="M306.4 682.4C306.4 678.5 308.6 676.4 311.8 676.4C315 676.4 317.2 678.6 317.2 682.4C317.2 686.3 315 688.5 311.8 688.5C308.6 688.5 306.4 686.3 306.4 682.4ZM308.3 674.5C308.3 673.7 308.9 673.1 309.7 673.1C310.5 673.1 311.1 673.7 311.1 674.5C311.1 675.3 310.5 675.9 309.7 675.9C308.9 675.9 308.3 675.2 308.3 674.5ZM314.1 682.4C314.1 680.3 313.2 679.1 311.8 679.1C310.4 679.1 309.5 680.3 309.5 682.4C309.5 684.5 310.4 685.9 311.8 685.9C313.2 685.9 314.1 684.6 314.1 682.4ZM312.4 674.5C312.4 673.7 313 673.1 313.8 673.1C314.6 673.1 315.2 673.7 315.2 674.5C315.2 675.3 314.6 675.9 313.8 675.9C313 675.9 312.4 675.2 312.4 674.5Z" fill="#AA8961"/>
<path d="M322.9 679.2H319.8V676.6H329.1V679.2H326V688.3H322.9V679.2Z" fill="#AA8961"/>
<path d="M332.1 676.7H339.7V679.3H335.2V681.1H339V683.7H335.2V685.8H339.8V688.4H332.1V676.7Z" fill="#AA8961"/>
<path d="M343.6 676.7H346.7V685.8H351.1V688.4H343.6V676.7Z" fill="#AA8961"/>
<path d="M354.3 676.7H361.9V679.3H357.4V681.1H361.2V683.7H357.4V685.8H362V688.4H354.3V676.7Z" fill="#AA8961"/>
<path d="M365.1 686.5L369.9 679.3H365.6V676.7H373.7V678.6L368.9 685.8H373.7V688.4H365.1V686.5Z" fill="#AA8961"/>
<path d="M377.1 676.7H384.7V679.3H380.2V681.1H384V683.7H380.2V685.8H384.8V688.4H377.1V676.7Z" fill="#AA8961"/>
<path d="M390.8 679.2H387.7V676.6H397V679.2H393.9V688.3H390.8V679.2Z" fill="#AA8961"/>
<path d="M402.7 679.2H399.6V676.6H408.9V679.2H405.8V688.3H402.7V679.2Z" fill="#AA8961"/>
<path d="M352 637C355.866 637 359 633.866 359 630C359 626.134 355.866 623 352 623C348.134 623 345 626.134 345 630C345 633.866 348.134 637 352 637Z" stroke="#AA885F" stroke-width="2" stroke-miterlimit="10" stroke-linecap="round" stroke-linejoin="round"/>
<path d="M360 643H344C341.8 643 340 644.8 340 647V658H364V647C364 644.8 362.2 643 360 643Z" stroke="#AA885F" stroke-width="2" stroke-miterlimit="10" stroke-linecap="round" stroke-linejoin="round"/>
<path d="M352 637C352 637 348.4 637 344.9 637C341.4 637 340.1 638 337.8 640.2C335.4 642.3 333 646.5 333 649.6C333 652.8 335.4 655.9 336.6 657C337.8 658.1 339 658 340.2 658" stroke="#AA885F" stroke-width="2" stroke-miterlimit="10" stroke-linecap="round" stroke-linejoin="round"/>
<path d="M352 637C352 637 355.6 637 359.1 637C362.6 637 363.9 638 366.2 640.2C368.6 642.3 371 646.5 371 649.6C371 652.8 368.6 655.9 367.4 657C366.2 658.1 365 658 363.8 658" stroke="#AA885F" stroke-width="2" stroke-miterlimit="10" stroke-linecap="round" stroke-linejoin="round"/>
<path d="M350 647H354" stroke="#AA885F" stroke-width="2" stroke-miterlimit="10" stroke-linejoin="round"/>
<path d="M784 588H640C635.6 588 632 584.4 632 580V496C632 491.6 635.6 488 640 488H784C788.4 488 792 491.6 792 496V580C792 584.4 788.4 588 784 588Z" fill="#EBEBEB"/>
<path d="M658.7 555.7H661.8V560.1H661.9L664.9 555.7H668.3L664.8 560.5L669 567.5H665.6L663 563L661.9 564.6V567.5H658.8V555.7H658.7Z" fill="#AA8961"/>
<path d="M670.5 561.4C670.5 557.5 672.7 555.4 675.9 555.4C679.1 555.4 681.3 557.6 681.3 561.4C681.3 565.3 679.1 567.5 675.9 567.5C672.7 567.6 670.5 565.3 670.5 561.4ZM672.5 553.5C672.5 552.7 673.1 552.1 673.9 552.1C674.7 552.1 675.3 552.7 675.3 553.5C675.3 554.3 674.7 554.9 673.9 554.9C673.1 554.9 672.5 554.2 672.5 553.5ZM678.2 561.4C678.2 559.3 677.3 558.1 675.9 558.1C674.5 558.1 673.6 559.3 673.6 561.4C673.6 563.5 674.5 564.9 675.9 564.9C677.3 564.9 678.2 563.6 678.2 561.4ZM676.6 553.5C676.6 552.7 677.2 552.1 678 552.1C678.8 552.1 679.4 552.7 679.4 553.5C679.4 554.3 678.8 554.9 678 554.9C677.1 554.9 676.6 554.2 676.6 553.5Z" fill="#AA8961"/>
<path d="M683.9 565.5L688.7 558.3H684.4V555.7H692.5V557.6L687.7 564.8H692.5V567.4H683.9V565.5Z" fill="#AA8961"/>
<path d="M695.1 565.4L697.2 563.8C697.6 564.6 698.2 564.9 698.7 564.9C699.5 564.9 700 564.5 700 563V555.6H703.1V563.2C703.1 565.5 701.8 567.5 699.1 567.5C697.2 567.6 696 566.9 695.1 565.4Z" fill="#AA8961"/>
<path d="M707.1 555.7H714.7V558.3H710.2V560.1H714V562.7H710.2V564.8H714.8V567.4H707.1V555.7Z" fill="#AA8961"/>
<path d="M717.8 561.6C717.8 557.7 720.5 555.4 723.6 555.4C725.3 555.4 726.6 556.1 727.4 556.9L725.8 558.9C725.2 558.4 724.6 558 723.7 558C722.1 558 720.9 559.3 720.9 561.4C720.9 563.6 721.9 564.8 724 564.8C724.3 564.8 724.7 564.7 724.9 564.6V563H723.2V560.5H727.7V566.1C726.9 566.9 725.4 567.5 723.7 567.5C720.4 567.6 717.8 565.6 717.8 561.6Z" fill="#AA8961"/>
<path d="M733.4 563.3L729.9 555.6H733.2L734.1 558C734.4 558.9 734.7 559.7 735 560.6H735.1C735.4 559.7 735.7 558.9 736 558L736.9 555.6H740.1L736.6 563.3V567.3H733.5V563.3H733.4Z" fill="#AA8961"/>
<path d="M742.2 565.5L747 558.3H742.7V555.7H750.8V557.6L746 564.8H750.8V567.4H742.2V565.5Z" fill="#AA8961"/>
<path d="M753.5 561.4C753.5 557.5 755.7 555.4 758.9 555.4C762.1 555.4 764.3 557.6 764.3 561.4C764.3 565.3 762.1 567.5 758.9 567.5C755.7 567.6 753.5 565.3 753.5 561.4ZM758.2 551.3L760.1 552.4L757.8 555L756.3 554.3L758.2 551.3ZM761.2 561.4C761.2 559.3 760.3 558.1 758.9 558.1C757.5 558.1 756.6 559.3 756.6 561.4C756.6 563.5 757.5 564.9 758.9 564.9C760.4 564.9 761.2 563.6 761.2 561.4ZM761.7 551.3L763.6 552.4L761.3 555L759.8 554.3L761.7 551.3Z" fill="#AA8961"/>
<path d="M715 535H697V533C697 530.2 699.2 528 702 528H710C712.8 528 715 530.2 715 533V535Z" stroke="#AA885F" stroke-width="2" stroke-miterlimit="10"/>
<path d="M716 535H696C695.4 535 695 535.4 695 536V539H717V536C717 535.4 716.6 535 716 535Z" stroke="#AA885F" stroke-width="2" stroke-miterlimit="10"/>
<path d="M709 524H703C701.9 524 701 524.9 701 526V528H711V526C711 524.9 710.1 524 709 524Z" stroke="#AA885F" stroke-width="2" stroke-miterlimit="10"/>
<path d="M706 506V502H723L729 508V532H715" stroke="#AA885F" stroke-width="2" stroke-miterlimit="10" stroke-linecap="round" stroke-linejoin="round"/>
<path d="M729 508H723V502L729 508Z" stroke="#AA885F" stroke-width="2" stroke-miterlimit="10" stroke-linecap="round" stroke-linejoin="round"/>
<path d="M713 512H726" stroke="#AA885F" stroke-width="2" stroke-miterlimit="10" stroke-linejoin="round"/>
<path d="M713 516H726" stroke="#AA885F" stroke-width="2" stroke-miterlimit="10" stroke-linejoin="round"/>
<path d="M721 528C723.209 528 725 526.209 725 524C725 521.791 723.209 520 721 520C718.791 520 717 521.791 717 524C717 526.209 718.791 528 721 528Z" stroke="#AA885F" stroke-width="2" stroke-miterlimit="10" stroke-linejoin="round"/>
<path d="M707.5 524C708.9 520.2 710 512.3 710 510.4C710 508 708.2 506 706 506C703.8 506 702 508 702 510.4C702 512.3 703 520.2 704.5 524H707.5Z" stroke="#AA885F" stroke-width="2" stroke-miterlimit="10"/>
<path d="M614.3 538H629.7" stroke="#AA8960" stroke-width="2" stroke-miterlimit="10"/>
<path d="M618.3 541.4L614.9 538L618.3 534.6H615.4L612 538L615.4 541.4H618.3Z" fill="#AA8960"/>
<path d="M625.7 541.4L629.1 538L625.7 534.6H628.6L632 538L628.6 541.4H625.7Z" fill="#AA8960"/>
<path d="M254.3 538H269.7" stroke="#AA8960" stroke-width="2" stroke-miterlimit="10"/>
<path d="M258.3 541.4L254.9 538L258.3 534.6H255.4L252 538L255.4 541.4H258.3Z" fill="#AA8960"/>
<path d="M265.7 541.4L269.1 538L265.7 534.6H268.6L272 538L268.6 541.4H265.7Z" fill="#AA8960"/>
<path d="M434.3 538H452" stroke="#AA8960" stroke-width="2" stroke-miterlimit="10"/>
<path d="M438.3 541.4L434.9 538L438.3 534.6H435.4L432 538L435.4 541.4H438.3Z" fill="#AA8960"/>
<path d="M604 588H460C455.6 588 452 584.4 452 580V496C452 491.6 455.6 488 460 488H604C608.4 488 612 491.6 612 496V580C612 584.4 608.4 588 604 588Z" fill="#EBEBEB"/>
<path d="M507 543.1C505 538.5 503.1 533.9 501.2 529.3C499.7 529.3 498.1 529.3 496.3 529.3C497.2 529.8 497.4 530.5 497.3 531.4C497.1 532.6 496.9 533.9 496.8 535.1C496.4 538.1 496 541.2 495.5 544.2C495.4 545.3 495.2 546.4 494.5 547.3C494.4 547.5 494.2 547.7 494 547.9C495.5 547.9 497 547.9 498.6 547.9C497.6 547.3 497.4 546.5 497.5 545.5C497.5 545.2 497.6 544.9 497.6 544.6C498 541.4 498.4 538.3 498.9 535.1C499 534.1 499.2 533.2 499.3 532.1C499.4 532.3 499.5 532.5 499.5 532.6C500.6 535.1 501.6 537.6 502.7 540.1C503.5 542 504.3 543.9 505.1 545.8C505.5 546.9 506.3 547.7 507.2 548.4C509.3 543 511.4 537.7 513.5 532.3C513.7 532.9 513.7 533.6 513.8 534.2C514.2 537.1 514.5 540.1 514.9 543C515 544.1 515.1 545.1 515.2 546.2C515.2 546.9 514.9 547.5 514.3 547.9C514.3 547.9 514.2 547.9 514.1 547.9L514.2 548C515.9 548 517.7 548 519.4 548L519.5 547.9C519.4 547.9 519.3 547.8 519.3 547.8C518.7 547.3 518.3 546.6 518.2 545.8C518.1 544.8 517.9 543.8 517.8 542.7C517.3 539.1 516.8 535.6 516.3 532C516.2 531 516.1 530.1 517 529.3C515.3 529.3 513.8 529.3 512.2 529.3C512.1 529.8 512 530.3 511.8 530.7C510.5 534 509.3 537.2 508 540.4C507.7 541.3 507.3 542.1 507 543.1ZM561.3 547.9C561.1 547.8 560.9 547.6 560.7 547.5C559.9 546.8 559 546.3 558.3 545.5C556.9 543.9 555.7 542.3 554.4 540.6C553.7 539.6 553 538.7 552.2 537.7C554.4 534.9 556.5 532.2 558.7 529.4C557 529.4 555.4 529.4 553.8 529.4C554.7 530.2 554.7 530.5 554.2 531.5C553.9 532 553.6 532.5 553.2 532.9C551.9 534.6 550.6 536.3 549.4 538C549.3 538.1 549.3 538.2 549.2 538.3C550.7 540.4 552.1 542.4 553.6 544.4C554.3 545.3 555.1 546.2 555.9 547.1C556.3 547.6 556.8 547.9 557.4 548C558.7 548.2 560 548 561.3 547.9ZM567.5 529.3C565.9 529.3 564.3 529.3 562.7 529.3C563.5 530 563.6 530.4 563.1 531.3C562.9 531.7 562.7 532 562.5 532.3C561.6 533.5 560.7 534.7 559.8 535.9C559.2 536.6 558.7 537.4 558.1 538.1C559.5 540.1 560.9 542 562.3 544C563 545 563.8 546 564.7 546.9C565.3 547.5 566 547.9 566.9 547.9C567.9 547.9 568.9 547.9 569.9 547.8C570 547.8 570 547.8 570.1 547.7C570.1 547.6 570.1 547.6 570 547.6C569.9 547.5 569.8 547.5 569.7 547.4C568.1 546.4 566.8 545.1 565.6 543.6C564.6 542.2 563.5 540.8 562.5 539.4C562 538.7 561.5 538.1 561 537.4C563.2 534.9 565.3 532.1 567.5 529.3ZM544.7 529.3C545.5 529.8 545.7 530.4 545.8 531.2C545.8 531.6 545.9 531.9 545.9 532.3C545.9 536.5 545.9 540.7 545.9 544.9C545.9 546 546 547.2 544.7 547.9C546.5 547.9 548.1 547.9 549.9 547.9C549.2 547.5 548.9 546.9 548.8 546.2C548.7 545.8 548.7 545.4 548.7 545C548.7 540.7 548.7 536.4 548.7 532.1C548.7 531.1 548.7 530 549.9 529.3C548.1 529.3 546.5 529.3 544.7 529.3Z" fill="#AA885F"/>
<path d="M507 543.1C507.4 542.2 507.7 541.3 508 540.5C509.3 537.3 510.6 534 511.8 530.8C512 530.4 512.1 529.9 512.2 529.4C513.7 529.4 515.3 529.4 517 529.4C516 530.1 516.1 531.1 516.3 532.1C516.8 535.7 517.3 539.2 517.8 542.8C517.9 543.8 518.1 544.8 518.2 545.9C518.3 546.7 518.7 547.4 519.3 547.9C519.4 547.9 519.4 548 519.5 548L519.4 548.1C517.7 548.1 515.9 548.1 514.2 548.1L514.1 548C514.2 548 514.2 548 514.3 548C515 547.6 515.3 547 515.2 546.3C515.2 545.2 515.1 544.2 514.9 543.1C514.5 540.2 514.2 537.2 513.8 534.3C513.7 533.7 513.6 533.1 513.5 532.4C511.4 537.7 509.3 543.1 507.2 548.5C506.3 547.8 505.5 547 505.1 545.9C504.3 544 503.5 542.1 502.7 540.2C501.6 537.7 500.6 535.2 499.5 532.7C499.4 532.6 499.4 532.4 499.3 532.2C499.2 533.3 499 534.2 498.9 535.2C498.5 538.4 498.1 541.5 497.6 544.7C497.6 545 497.5 545.3 497.5 545.6C497.4 546.6 497.6 547.4 498.6 548C497 548 495.5 548 494 548C494.2 547.8 494.3 547.6 494.5 547.4C495.2 546.5 495.3 545.4 495.5 544.3C495.9 541.3 496.3 538.2 496.8 535.2C497 534 497.1 532.7 497.3 531.5C497.4 530.6 497.2 529.9 496.3 529.4C498 529.4 499.7 529.4 501.2 529.4C503.1 533.9 505 538.4 507 543.1Z" fill="#AA885F"/>
<path d="M531.8 528.8C535.5 528.9 538.6 530.2 540.6 533.4C543.1 537.3 542.4 542.4 539 545.7C535 549.5 528 549.4 524.1 545.5C520.4 541.8 520.3 536 523.8 532.2C525.5 530.3 527.7 529.4 530.2 529C530.8 528.8 531.4 528.8 531.8 528.8ZM524.5 538.3C524.5 538.7 524.6 539.2 524.6 539.6C524.7 540 524.7 540.4 524.8 540.7C525.8 544.4 528.4 546.4 532.1 546.3C534.8 546.2 536.9 545 538.1 542.5C539.1 540.4 539.2 538.1 538.4 535.9C536.7 530.9 532 529.7 528.3 531.6C525.6 533 524.6 535.3 524.5 538.3Z" fill="#AA885F"/>
<path d="M561.3 547.9C560 548.1 558.8 548.2 557.5 548C556.9 547.9 556.4 547.6 556 547.1C555.2 546.2 554.4 545.3 553.7 544.4C552.2 542.4 550.8 540.3 549.3 538.3C549.4 538.2 549.4 538.1 549.5 538C550.8 536.3 552.1 534.6 553.3 532.9C553.6 532.4 554 532 554.3 531.5C554.9 530.5 554.8 530.2 553.9 529.4C555.5 529.4 557.1 529.4 558.8 529.4C556.6 532.2 554.5 535 552.3 537.7C553 538.7 553.7 539.7 554.5 540.6C555.8 542.2 557 543.9 558.4 545.5C559.1 546.3 560 546.9 560.8 547.5C560.9 547.6 561.1 547.7 561.3 547.9Z" fill="#AA885F"/>
<path d="M567.5 529.3C565.3 532.1 563.2 534.8 561 537.6C561.5 538.3 562 538.9 562.5 539.6C563.5 541 564.6 542.4 565.6 543.8C566.7 545.3 568.1 546.6 569.7 547.6C569.8 547.7 569.9 547.7 570 547.8C570 547.8 570 547.8 570.1 547.9C570 547.9 569.9 548 569.9 548C568.9 548 567.9 548.1 566.9 548.1C566 548.1 565.3 547.7 564.7 547.1C563.9 546.2 563.1 545.2 562.3 544.2C560.9 542.3 559.5 540.3 558.1 538.3C558.7 537.6 559.2 536.8 559.8 536.1C560.7 534.9 561.6 533.7 562.5 532.5C562.7 532.2 563 531.8 563.1 531.5C563.6 530.6 563.5 530.2 562.7 529.5C564.3 529.3 565.8 529.3 567.5 529.3Z" fill="#AA885F"/>
<path d="M544.7 529.3C546.5 529.3 548.1 529.3 549.9 529.3C548.8 530 548.8 531.1 548.7 532.1C548.7 536.4 548.7 540.7 548.7 545C548.7 545.4 548.7 545.8 548.8 546.2C548.9 546.9 549.2 547.5 549.9 547.9C548.1 547.9 546.4 547.9 544.7 547.9C545.9 547.2 545.9 546 545.9 544.9C545.9 540.7 545.9 536.5 545.9 532.3C545.9 531.9 545.9 531.6 545.8 531.2C545.7 530.5 545.5 529.8 544.7 529.3Z" fill="#AA885F"/>
<path d="M336.6 522.6C336.6 516.4 336.6 510.2 336.6 504.1C335.2 504.1 333.9 504.1 332.6 504.1C332.4 504.1 332.2 504.4 332.1 504.6C330.8 508 329.6 511.5 328.3 515C328.3 515.1 328.2 515.2 328.1 515.4C328 515.2 327.9 515 327.9 514.9C326.8 512 325.7 509.1 324.6 506.2C324.3 505.5 324.3 504.6 323.8 504.3C323.3 503.9 322.4 504.2 321.6 504.2C320.7 504.2 319.7 504.2 318.7 504.2C318.7 504.6 318.7 505 318.7 505.3C318.7 510 318.7 514.7 318.7 519.3C318.7 520.6 318.2 521.5 317.4 522.3C317.3 522.4 317.1 522.5 317 522.6L317.1 522.7C318.4 522.7 319.6 522.7 320.9 522.7C320.9 522.6 321 522.6 321 522.5C320.8 522.4 320.5 522.2 320.4 522.1C320 521.5 319.4 520.8 319.4 520.1C319.3 516.1 319.3 512.2 319.4 508.2C319.4 507.6 319.7 507.4 320.2 507.6C320.5 507.7 320.9 508.1 321 508.4C321.6 510 322.2 511.6 322.8 513.2C323.9 516.3 325 519.4 326.2 522.6C328.2 517.1 330.2 511.7 332.2 506.3C332.3 506.3 332.3 506.3 332.4 506.3C332.4 511.7 332.4 517.1 332.4 522.6C333.8 522.6 335.2 522.6 336.6 522.6ZM345 522.6C345 516.4 345 510.2 345 504.1C343.5 504.1 342.1 504.1 340.7 504.1C340.7 510.3 340.7 516.4 340.7 522.6C342.1 522.6 343.5 522.6 345 522.6ZM375.9 522.6C375.9 516.4 375.9 510.3 375.9 504.1C374.5 504.1 373.1 504.1 371.7 504.1C371.7 510.3 371.7 516.4 371.7 522.6C373.1 522.6 374.5 522.6 375.9 522.6ZM361.6 522.5C361.7 522.2 361.8 522.1 361.8 522C363.1 518.7 364.3 515.3 365.7 512C366.8 509.3 367.4 506.3 369.6 504.1C368.3 504.1 367 504.1 365.7 504.1C366 504.5 366.3 504.8 366.6 505.1C367.1 505.7 367.2 506.2 366.9 506.9C366 509 365.3 511.1 364.5 513.2C364.2 514.1 363.8 515 363.4 516C363.3 515.6 363.2 515.4 363.1 515.2C361.9 511.7 360.7 508.1 359.4 504.6C359.3 504.4 359.1 504 358.9 504C357.7 503.9 356.5 504 355.2 504C357.4 510.2 359.5 516.3 361.6 522.5ZM381.9 504.1C382.1 504.3 382.2 504.4 382.3 504.5C383 505.3 383 505.8 382.3 506.6C380.5 508.6 378.6 510.7 376.8 512.7C376.5 513 376.4 513.2 376.7 513.6C378.5 516.5 380.2 519.4 382 522.2C382.1 522.4 382.3 522.6 382.5 522.6C384 522.6 385.5 522.6 387.1 522.6C386.9 522.3 386.8 522.1 386.7 521.8C384.5 518.2 382.3 514.5 380.1 510.9C379.9 510.5 379.8 510.2 380.2 509.9C381 509.1 381.7 508.2 382.5 507.4C383.5 506.3 384.5 505.2 385.8 504.5C386 504.4 386.3 504.2 386.7 504C385 504.1 383.5 504.1 381.9 504.1ZM347.8 512.8C349.4 514 350.4 515.6 350.5 517.6C350.6 519.7 349.4 521.1 347.8 522.6C349.1 522.7 350.2 522.5 351.2 522C353 521.1 354.2 519.7 354.1 517.5C354 515.4 352.9 514 351 513.1C350.6 512.9 350.1 512.8 349.6 512.7C352.4 510.8 353.2 509 352.2 506.6C351.5 504.9 349.5 503.8 347.9 504.1C350.5 507 350.3 510.3 347.8 512.8Z" fill="#AA885F"/>
<path d="M336.6 522.6C335.2 522.6 333.8 522.6 332.3 522.6C332.3 517.1 332.3 511.7 332.3 506.3C332.2 506.3 332.2 506.3 332.1 506.3C330.1 511.7 328.2 517.1 326.1 522.6C324.9 519.4 323.8 516.3 322.7 513.2C322.1 511.6 321.5 510 320.9 508.4C320.8 508.1 320.4 507.8 320.1 507.6C319.6 507.4 319.3 507.6 319.3 508.2C319.3 512.2 319.3 516.1 319.3 520.1C319.3 520.8 320 521.4 320.3 522.1C320.4 522.3 320.7 522.4 320.9 522.5C320.9 522.6 320.8 522.6 320.8 522.7C319.5 522.7 318.3 522.7 317 522.7L316.9 522.6C317 522.5 317.2 522.4 317.3 522.3C318.1 521.5 318.6 520.6 318.6 519.3C318.5 514.6 318.6 509.9 318.6 505.3C318.6 505 318.6 504.7 318.6 504.2C319.6 504.2 320.5 504.2 321.5 504.2C322.2 504.2 323.2 504 323.7 504.3C324.2 504.6 324.3 505.6 324.5 506.2C325.6 509.1 326.7 512 327.8 514.9C327.9 515 327.9 515.2 328 515.4C328.1 515.2 328.2 515.1 328.2 515C329.5 511.5 330.7 508.1 332 504.6C332.1 504.4 332.3 504.1 332.5 504.1C333.8 504.1 335.1 504.1 336.5 504.1C336.6 510.3 336.6 516.4 336.6 522.6Z" fill="#AA885F"/>
<path d="M345 522.6C343.5 522.6 342.1 522.6 340.7 522.6C340.7 516.4 340.7 510.3 340.7 504.1C342.1 504.1 343.5 504.1 345 504.1C345 510.3 345 516.4 345 522.6Z" fill="#AA885F"/>
<path d="M375.9 522.6C374.5 522.6 373.1 522.6 371.7 522.6C371.7 516.4 371.7 510.3 371.7 504.1C373.1 504.1 374.5 504.1 375.9 504.1C375.9 510.3 375.9 516.4 375.9 522.6Z" fill="#AA885F"/>
<path d="M361.6 522.5C359.5 516.3 357.4 510.2 355.3 504.1C356.6 504.1 357.8 504.1 359 504.1C359.2 504.1 359.4 504.5 359.5 504.7C360.7 508.2 361.9 511.8 363.2 515.3C363.3 515.5 363.4 515.7 363.5 516.1C363.9 515.1 364.2 514.2 364.6 513.3C365.4 511.2 366.2 509.1 367 507C367.3 506.3 367.2 505.7 366.7 505.2C366.4 504.9 366.1 504.5 365.8 504.2C367.1 504.2 368.3 504.2 369.7 504.2C367.4 506.4 366.9 509.4 365.8 512.1C364.4 515.4 363.2 518.8 361.9 522.1C361.8 522.1 361.7 522.2 361.6 522.5Z" fill="#AA885F"/>
<path d="M381.9 504.1C383.5 504.1 384.9 504.1 386.6 504.1C386.2 504.3 385.9 504.4 385.7 504.6C384.3 505.3 383.3 506.4 382.4 507.5C381.7 508.4 380.9 509.2 380.1 510C379.8 510.4 379.8 510.6 380 511C382.2 514.6 384.4 518.2 386.6 521.9C386.7 522.1 386.8 522.3 387 522.7C385.4 522.7 383.9 522.7 382.4 522.7C382.2 522.7 382 522.5 381.9 522.3C380.1 519.4 378.4 516.5 376.6 513.7C376.4 513.3 376.5 513.1 376.7 512.8C378.5 510.8 380.4 508.7 382.2 506.7C382.9 505.9 382.9 505.5 382.2 504.6C382.2 504.4 382.1 504.3 381.9 504.1Z" fill="#AA885F"/>
<path d="M347.8 512.8C350.2 510.3 350.5 507 347.9 504.2C349.5 503.8 351.5 505 352.2 506.7C353.2 509 352.4 510.9 349.6 512.8C350.1 512.9 350.6 513 351 513.2C352.9 514.1 354.1 515.5 354.1 517.6C354.2 519.7 353 521.1 351.2 522.1C350.2 522.6 349.1 522.9 347.8 522.7C349.3 521.3 350.5 519.8 350.5 517.7C350.4 515.6 349.4 514 347.8 512.8Z" fill="#AA885F"/>
<path d="M604 468H460C455.6 468 452 464.4 452 460V376C452 371.6 455.6 368 460 368H604C608.4 368 612 371.6 612 376V460C612 464.4 608.4 468 604 468Z" fill="#EBEBEB"/>
<path d="M527 454H470C467.8 454 466 452.2 466 450V418C466 415.8 467.8 414 470 414H527C529.2 414 531 415.8 531 418V450C531 452.2 529.2 454 527 454Z" fill="white"/>
<path d="M486.7 435.4H482.9L481.9 438.6H480.5L484.1 428.1H485.6L489.2 438.6H487.8L486.7 435.4ZM486.3 434.3L485.8 432.7C485.4 431.5 485.1 430.4 484.7 429.2H484.6C484.3 430.4 483.9 431.6 483.6 432.7L483.1 434.3H486.3ZM484.5 427.4L483.9 426.7L486.2 424.7L487 425.6L484.5 427.4Z" fill="#404040"/>
<path d="M490.6 428.1H492L495.8 434.7L496.9 436.9H497C496.9 435.8 496.8 434.7 496.8 433.6V428.2H498.1V438.7H496.7L492.9 432.1L491.8 429.9H491.7C491.8 431 491.9 432.1 491.9 433.2V438.7H490.6V428.1Z" fill="#404040"/>
<path d="M502.8 434.5L499.6 428.1H501L502.4 431.1C502.7 431.9 503.1 432.6 503.4 433.4H503.5C503.9 432.6 504.2 431.9 504.6 431.1L505.9 428.1H507.3L504.1 434.5V438.6H502.8V434.5Z" fill="#404040"/>
<path d="M508.8 428.1H510.1V433.4L514.5 428.1H516L512.7 432.1L516.5 438.6H515L511.9 433.1L510.1 435.2V438.5H508.8V428.1Z" fill="#404040"/>
<path d="M594 454H537C534.8 454 533 452.2 533 450V418C533 415.8 534.8 414 537 414H594C596.2 414 598 415.8 598 418V450C598 452.2 596.2 454 594 454Z" fill="white"/>
<path opacity="0.8" d="M565.5 420.9C564.9 420.9 564.2 421.1 563.7 421.5L562 422.7L560.1 423C558.8 423.3 557.8 424.3 557.5 425.6L557.2 427.6L556 429C555.3 430.1 555.3 431.6 556 432.7L557.2 434.4L557.5 436.1L554.3 441.1L553.3 442.6H558.1L559.3 445.3L560 447L561 445.4L564.2 440.6C565.1 441 566 441 566.9 440.6L570.1 445.4L571.1 447L571.8 445.3L573 442.6H577.8L576.8 441.1L573.6 436.3L573.9 434.4L575.1 432.7C575.8 431.6 575.8 430.1 575.1 429.1L573.9 427.4L573.5 425.5C573.5 425.5 573.5 425.5 573.5 425.4C573.3 424.1 572.3 423 570.9 422.8L569 422.5L567.3 421.3C566.8 421.1 566.1 420.9 565.5 420.9ZM565.5 422.9C565.7 422.9 566 423 566.1 423.1L567.9 424.4L568.1 424.6H568.4L570.6 424.9C571.1 425 571.4 425.3 571.4 425.7V425.8L571.8 428V428.2L572 428.4L573.3 430.2C573.5 430.5 573.6 431.1 573.3 431.6L571.9 433.6V433.9L571.6 436.1C571.6 436.3 571.5 436.4 571.4 436.5H571.3C571.2 436.7 571 436.8 570.7 436.8H570.6L568.3 437.2H568L567.8 437.4L566 438.7C565.7 438.9 565.1 439 564.6 438.7L563 437.4L562.8 437.2H562.5L560.3 436.9C560 436.9 559.7 436.7 559.6 436.5C559.5 436.4 559.5 436.3 559.5 436.1V436L559.1 433.7V433.4L558.9 433.2L557.6 431.4C557.4 431.1 557.3 430.5 557.6 430L558.9 428.4L559.1 428.2V427.9L559.4 425.8C559.5 425.3 559.9 424.9 560.4 424.8L562.5 424.5H562.8L563 424.3L564.8 423C565 423 565.3 422.9 565.5 422.9ZM572.5 438.3L574 440.7H571.6L571.3 441.3L570.6 442.9L568.5 439.6L569 439.3L571 439C571 439 571 439 571.1 439C571.6 438.8 572.1 438.6 572.5 438.3ZM558.5 438.3C558.9 438.7 559.5 439 560.1 439L562 439.3L562.4 439.6L560.3 442.8L559.6 441.2L559.3 440.6H557L558.5 438.3Z" fill="#404040"/>
<path d="M551.2 380.3L542.6 391.7L551.2 403.1H557L548.1 391.7L556.7 380.3H551.2Z" fill="#AA885F"/>
<path d="M524.3 391.7C524.3 395.8 526.3 403.4 536 403.4C539.8 403.4 542.6 402.3 542.6 402.3V396.6H542.3C541.6 399.5 539.5 402.1 536.4 402.1C532.5 402.1 529.9 398 529.9 391.5C529.9 385 532.5 380.9 536.4 380.9C539.6 380.9 541.6 383.6 542.3 386.4H542.6V380.9C542.6 380.9 539.8 379.8 536 379.8C526.4 380 524.3 387.7 524.3 391.7Z" fill="#AA885F"/>
<path d="M514.8 391.6V391.9C516.6 392.1 518.3 393.9 518.7 395.6H519V387.9H518.7C518.4 389.6 516.7 391.4 514.8 391.6Z" fill="#AA885F"/>
<path d="M522.4 386.7H522.7V380.3H507C507 380.3 507.8 381.5 507.8 384.7V403.2H522.8V396.8H522.5C522 398.8 520.8 402 516.7 402H512.9V381.7H516.6C520.7 381.6 522 384.7 522.4 386.7Z" fill="#AA885F"/>
<path d="M232 652H208V666H232V652Z" fill="white" stroke="#AA8961" stroke-width="2" stroke-miterlimit="10" stroke-linecap="round" stroke-linejoin="round"/>
<path d="M232 666L220 656.6L208 666H232Z" fill="white" stroke="#AA8961" stroke-width="2" stroke-miterlimit="10" stroke-linecap="round" stroke-linejoin="round"/>
<path d="M232 652L220 661.3L208 652H232Z" fill="white" stroke="#AA8961" stroke-width="2" stroke-miterlimit="10" stroke-linecap="round" stroke-linejoin="round"/>
<path d="M496 652H472V666H496V652Z" fill="white" stroke="#AA8961" stroke-width="2" stroke-miterlimit="10" stroke-linecap="round" stroke-linejoin="round"/>
<path d="M496 666L484 656.6L472 666H496Z" fill="white" stroke="#AA8961" stroke-width="2" stroke-miterlimit="10" stroke-linecap="round" stroke-linejoin="round"/>
<path d="M496 652L484 661.3L472 652H496Z" fill="white" stroke="#AA8961" stroke-width="2" stroke-miterlimit="10" stroke-linecap="round" stroke-linejoin="round"/>
<path d="M417 578H287C284.8 578 283 576.2 283 574V542C283 539.8 284.8 538 287 538H417C419.2 538 421 539.8 421 542V574C421 576.2 419.2 578 417 578Z" fill="white"/>
<path d="M332.6 552.1H334L335.7 557.8C336.1 559 336.3 560 336.7 561.3H336.8C337.2 560.1 337.4 559.1 337.8 557.8L339.5 552.1H340.9L337.6 562.6H336L332.6 552.1Z" fill="#404040"/>
<path d="M342.3 552.1H343.6V562.6H342.3V552.1Z" fill="#404040"/>
<path d="M346.3 552.1H352.4V553.2H347.7V556.5H351.7V557.6H347.7V561.4H352.6V562.5H346.4V552.1H346.3Z" fill="#404040"/>
<path d="M354.4 552.1H355.7V557.4L360.1 552.1H361.6L358.3 556.1L362.1 562.6H360.6L357.5 557.1L355.7 559.2V562.5H354.4V552.1Z" fill="#404040"/>
<path d="M369.5 562.6L367 558.2H365.1V562.6H363.8V552.1H367.1C369.2 552.1 370.8 552.9 370.8 555C370.8 556.6 369.9 557.6 368.4 558L371.1 562.6H369.5ZM365.1 557.1H366.9C368.5 557.1 369.4 556.4 369.4 555.1C369.4 553.7 368.5 553.2 366.9 553.2H365.1V557.1Z" fill="#404040"/>
<path d="M99.9996 152.3V256H223.7" stroke="#AA8960" stroke-width="2" stroke-miterlimit="10"/>
<path d="M96.5996 156.3L99.9996 152.9L103.4 156.3V153.4L99.9996 150L96.5996 153.4V156.3Z" fill="#AA8960"/>
<path d="M219.7 259.4L223.1 256L219.7 252.6H222.6L226 256L222.6 259.4H219.7Z" fill="#AA8960"/>
<path d="M176 230H24C21.8 230 20 228.2 20 226V194C20 191.8 21.8 190 24 190H176C178.2 190 180 191.8 180 194V226C180 228.2 178.2 230 176 230Z" fill="#A0A0A0"/>
<path d="M77.1 205.8H79.5V214.9H77.1V205.8Z" fill="white"/>
<path d="M82.6 205.8H85.1L87.1 209.9L88 211.9H88.1C88 210.9 87.8 209.5 87.8 208.4V205.8H90.1V214.9H87.6L85.6 210.8L84.7 208.8H84.6C84.7 209.8 84.9 211.2 84.9 212.3V214.9H82.6V205.8Z" fill="white"/>
<path d="M94.8 207.8H92.4V205.8H99.6V207.8H97.2V214.9H94.8V207.8Z" fill="white"/>
<path d="M102 205.8H107.9V207.8H104.4V209.2H107.4V211.2H104.4V212.8H108V214.8H102V205.8Z" fill="white"/>
<path d="M115.9 214.9L114.3 211.8H113.4V214.9H111V205.8H114.4C116.4 205.8 118 206.5 118 208.7C118 210 117.4 210.9 116.5 211.3L118.5 214.8H115.9V214.9ZM113.4 209.9H114.3C115.3 209.9 115.8 209.5 115.8 208.7C115.8 207.9 115.3 207.7 114.3 207.7H113.4V209.9Z" fill="white"/>
<path d="M121 205.8H126.9V207.8H123.4V209.5H126.4V211.5H123.4V214.8H121V205.8Z" fill="white"/>
<path d="M133.6 212.9H131.1L130.7 214.8H128.2L131 205.7H133.9L136.7 214.8H134.2L133.6 212.9ZM133.2 211.1L133 210.5C132.8 209.6 132.6 208.5 132.3 207.6H132.2C132 208.5 131.8 209.6 131.6 210.5L131.4 211.1H133.2Z" fill="white"/>
<path d="M138.1 210.4C138.1 207.3 140.2 205.6 142.5 205.6C143.7 205.6 144.7 206.2 145.3 206.8L144 208.3C143.6 207.9 143.1 207.6 142.5 207.6C141.4 207.6 140.5 208.6 140.5 210.2C140.5 211.9 141.3 212.9 142.5 212.9C143.2 212.9 143.8 212.5 144.2 212.1L145.5 213.6C144.7 214.5 143.7 214.9 142.5 214.9C140.1 215 138.1 213.5 138.1 210.4Z" fill="white"/>
<path d="M147.7 205.8H153.6V207.8H150.1V209.2H153.1V211.2H150.1V212.8H153.7V214.8H147.7V205.8Z" fill="white"/>
<path d="M46.5 208C46.7 207.1 47.1 206.2 47.6 205.4C48.6 206.2 50 206.1 51 205.2C51.9 204.3 52 202.9 51.2 201.9C52 201.4 52.9 201.1 53.8 200.9C54 202.1 55.1 203.1 56.3 203.1C57.6 203.1 58.6 202.2 58.8 201C59.7 201.2 60.5 201.6 61.3 202.1C60.6 203.1 60.7 204.5 61.6 205.3C62.5 206.2 63.8 206.3 64.8 205.6C65.3 206.4 65.6 207.2 65.8 208.1C64.6 208.4 63.8 209.4 63.8 210.6C63.8 211.8 64.7 212.9 65.8 213.1C65.6 214 65.2 214.8 64.8 215.6C63.8 215 62.5 215.1 61.6 215.9C60.7 216.8 60.6 218.1 61.3 219.1C60.5 219.6 59.7 219.9 58.8 220.2C58.6 219 57.5 218.1 56.3 218.1C55 218.1 54 219 53.8 220.3C52.9 220.1 52 219.7 51.2 219.3C51.9 218.3 51.9 216.9 51 216C50.1 215.1 48.6 215 47.6 215.8C47.1 215 46.7 214.1 46.5 213.2C47.8 213 48.7 212 48.7 210.7C48.7 209.4 47.8 208.2 46.5 208Z" stroke="white" stroke-width="2" stroke-miterlimit="10" stroke-linecap="round" stroke-linejoin="round"/>
<path d="M56.3 213.7C58.0121 213.7 59.4 212.312 59.4 210.6C59.4 208.888 58.0121 207.5 56.3 207.5C54.5879 207.5 53.2 208.888 53.2 210.6C53.2 212.312 54.5879 213.7 56.3 213.7Z" stroke="white" stroke-width="2" stroke-miterlimit="10" stroke-linecap="round" stroke-linejoin="round"/>
<path d="M350 485.7V340.3" stroke="#AA8960" stroke-width="2" stroke-miterlimit="10"/>
<path d="M353.4 481.7L350 485.1L346.6 481.7V484.6L350 488L353.4 484.6V481.7Z" fill="#AA8960"/>
<path d="M353.4 344.3L350 340.9L346.6 344.3V341.4L350 338L353.4 341.4V344.3Z" fill="#AA8960"/>
<path d="M532 365.7V340.3" stroke="#AA8960" stroke-width="2" stroke-miterlimit="10"/>
<path d="M535.4 361.7L532 365.1L528.6 361.7V364.6L532 368L535.4 364.6V361.7Z" fill="#AA8960"/>
<path d="M535.4 344.3L532 340.9L528.6 344.3V341.4L532 338L535.4 341.4V344.3Z" fill="#AA8960"/>
<path d="M543 137.7V120" stroke="#AA8960" stroke-width="2" stroke-miterlimit="10"/>
<path d="M546.4 133.7L543 137.1L539.6 133.7V136.6L543 140L546.4 136.6V133.7Z" fill="#AA8960"/>
<path d="M341 137.7V120" stroke="#AA8960" stroke-width="2" stroke-miterlimit="10"/>
<path d="M344.4 133.7L341 137.1L337.6 133.7V136.6L341 140L344.4 136.6V133.7Z" fill="#AA8960"/>
</svg>
