<svg width="100" height="100" viewBox="0 0 100 100" fill="none" xmlns="http://www.w3.org/2000/svg">
<path d="M52 74H21C19.3 74 18 75.3 18 77V81H55V77C55 75.3 53.7 74 52 74Z" stroke="#AA885F" stroke-width="2" stroke-miterlimit="10"/>
<path d="M46 66H27C24.8 66 23 67.8 23 70V74H50V70C50 67.8 48.2 66 46 66Z" stroke="#AA885F" stroke-width="2" stroke-miterlimit="10"/>
<path d="M43.952 22.2409L27.6887 38.5042L40.4165 51.2319L56.6798 34.9687L43.952 22.2409Z" stroke="#AA885F" stroke-width="2" stroke-miterlimit="10"/>
<path d="M55.3 43.4998L49 49.7998C47.8 50.9998 45.9 50.9998 44.8 49.7998L43.4 48.3998L54 37.7998L55.4 39.1998C56.5 40.3998 56.5 42.2998 55.3 43.4998Z" stroke="#AA885F" stroke-width="2" stroke-miterlimit="10"/>
<path d="M39.8 56.1999L40.5 55.4999C41.7 54.2999 41.7 52.3999 40.5 51.2999L27.7 38.4999C26.5 37.2999 24.6 37.2999 23.5 38.4999L22.8 39.1999C21.6 40.3999 21.6 42.2999 22.8 43.3999L35.5 56.0999C36.7 57.3999 38.6 57.3999 39.8 56.1999Z" stroke="#AA885F" stroke-width="2" stroke-miterlimit="10"/>
<path d="M61 34.9999L61.7 34.2999C62.9 33.0999 62.9 31.1999 61.7 30.0999L49 17.2999C47.8 16.0999 45.9 16.0999 44.8 17.2999L44 17.9999C42.8 19.1999 42.8 21.0999 44 22.1999L56.7 34.9999C57.9 36.0999 59.8 36.0999 61 34.9999Z" stroke="#AA885F" stroke-width="2" stroke-miterlimit="10"/>
<path d="M44.7 27.2L32.7 39.2" stroke="#AA885F" stroke-width="2" stroke-miterlimit="10"/>
<path d="M77.9 63.2998L68.8 72.3998" stroke="#AA885F" stroke-width="2" stroke-miterlimit="10"/>
<path d="M61 49.0999L54.6 55.4999" stroke="#AA885F" stroke-width="2" stroke-miterlimit="10"/>
<path d="M49.7 49.0999L72.6999 77.6999C75.5999 80.5999 80.4 80.5999 83.3 77.6999C86.2 74.7999 86.2 69.9999 83.3 67.0999L54.7 44.0999" stroke="#AA885F" stroke-width="2" stroke-miterlimit="10"/>
</svg>
